<?xml version="1.0" encoding="UTF-8"?>
<svg id="Capa_2" data-name="Capa 2" xmlns="http://www.w3.org/2000/svg" viewBox="0 0 46.62 41.21">
  <defs>
    <style>
      .cls-1 {
        fill: #fff;
      }
    </style>
  </defs>
  <g id="Capa_1-2" data-name="Capa 1">
    <g id="formacion_academica" data-name="formacion academica">
      <g>
        <path class="cls-1" d="m34.39,10.69c.03-3.59.06-7.13.09-10.69,1.04.21,2.1.8,3.08,1.2.52.21,1.04.41,1.55.62.65.26.9.19,1.56-.05,1.11-.4,2.22-.81,3.33-1.22.42-.15.84-.37,1.29-.23.43.14.82.52,1.03.91.47.88.25,2.16.25,3.12,0,1.18,0,2.37,0,3.55,0,.94-.03,1.82-.92,2.36-.81.49-2.13-.19-2.96-.42-.62-.17-1.24-.35-1.87-.52-.7-.19-1.13-.24-1.83-.04-1.32.39-2.63.78-3.95,1.18-.21.06-.41.13-.66.21Zm.64-9.91c.01.2.04.36.04.52,0,.58-.03,1.16-.03,1.74-.02,2.24-.04,4.48-.06,6.71,0,.15.05.2.19.15,1.32-.4,2.63-.8,3.95-1.2.13-.04.16-.11.16-.24,0-1.93,0-3.87,0-5.8,0-.17-.06-.26-.22-.33-1.18-.47-2.35-.94-3.53-1.41-.15-.06-.3-.09-.5-.15Zm10.37,7.41s.02,0,.07,0c.46,0,.51-.22.43-.62-.11-.53-.33-1.06-.48-1.58-.18-.59-.35-1.19-.54-1.78-.13-.43-.24-.93-.51-1.31-.46-.63-1.46-.78-2.12-.38-.82.49-.97,1.8-1.22,2.63-.17.55-.33,1.1-.5,1.64-.09.29-.44.95-.24,1.24.15.22.71.22.94.12.4-.17.42-.71.51-1.07.14-.54.44-.37.96-.37.34,0,1.4-.18,1.64.08.23.25.15.81.35,1.11.18.28.38.28.71.29Z"/>
        <path class="cls-1" d="m44,5.63h-1.82c.07-.44.23-.87.36-1.3.08-.25.15-.86.48-.93.6-.13.85,1.63.95,2.01.02.07.02.14.03.22Z"/>
      </g>
    </g>
    <g>
      <path class="cls-1" d="m34.84,25.58c-2.38,1.47-4.82,2.76-7.52,3.52.32-.94.99-1.16,1.81-1.6.87-.47,1.73-.97,2.55-1.53.79-.54,1.54-1.15,2.23-1.81.48-.46,1.06-1.4,1.72-1.56,0,4.96-1.57,9.68-5.09,13.26-3.4,3.46-8.11,5.44-12.97,5.34C8.17,41.02.45,33.48.02,24.1c-.13-2.8.4-5.59,1.57-8.15.53-1.17,1.1-2.42,2.2-3.16.53-.36,1.12-.65,1.68-.94.5-.26,1.89-.65,2.16-1.15h-2.37c.79-.83,1.41-1.68,2.64-1.52.8.1,1.55.45,2.34.59.84.15,1.76-.13,2.59-.25.02-.04.03-.08.05-.12-1.3-.59-2.56-1.06-3.93-1.46.31-.42,1.53-1.07,2.1-1.03.74.05,1.9,1.06,2.52,1.43,1.42.86,2.83,1.64,4.55,1.64-1.43-1.51-2.97-2.78-4.68-3.85,0-.04.02-.08.03-.12.74-.19,1.62-.57,2.36-.22.83.39,1.52,1.35,2.13,2.01.74.8,1.43,1.63,2.1,2.49.67.85,1.68,1.24,2.65,1.69-1.02-2.36-2.43-4.47-4.19-6.44.57-.09,1.74-.12,2.27.18.57.32.93,1.38,1.23,1.91.66,1.19,1.25,2.42,1.75,3.68.23.6.36,1.4.69,1.94.35.56,1.06,1.08,1.56,1.5-.19-2.84-.88-5.55-2.2-8.16.68.05,1.94.52,2.31,1.09.57.88.61,2.64.74,3.66.15,1.19.22,2.39.21,3.59,0,.66-.03,1.08.27,1.66.25.47.57.92.86,1.37.83-2.89.93-5.72.55-8.58.05-.02.09-.04.14-.06.62.52,1.4.97,1.63,1.79.25.85-.08,1.89-.23,2.73-.39,2.12-.94,4.26-1.89,6.2-1.09-2.54-2.55-4.83-5-6.25-2.41-1.4-5.46-1.83-8.16-1.19-5.88,1.38-9.66,7.65-8.12,13.51.5,1.88,1.62,3.18,2.55,4.82.44.77.63,1.59,1.23,2.27.56.63,1.27,1.11,1.94,1.61.03-.02.06-.04.09-.06-.3-.61-.6-1.22-.9-1.82.03-.04.06-.07.09-.11.47.26,1.02.45,1.38.85.42.47.68,1.11,1.04,1.62.67.95,2.02,1.48,3.2,1.48-.83-.86-1.62-1.67-2.41-2.48.03-.04.05-.08.08-.13.58.13,1.12.08,1.65.4.67.41,1.26,1.05,1.87,1.54.37.3.83.86,1.3,1,.75.21,2.04-.1,2.82-.14,0-.05,0-.1,0-.14-1.38-.77-2.75-1.53-4.13-2.3.02-.06.04-.12.06-.17.96-.09,1.52-.05,2.43.31.79.31,1.59.6,2.38.89.59.22,1.34.66,1.98.58.68-.08,1.6-.7,2.2-1.03-1.98-.3-3.9-.72-5.74-1.54.99-.69,1.8-.34,2.95-.22,1.1.12,2.2.15,3.3.13.99-.02,1.79.08,2.51-.64.61-.62,1.4-1.37,1.78-2.16-2.62.74-5.17,1.28-7.83,1.16.63-.6.83-.77,1.73-.93.9-.15,1.78-.36,2.66-.61.81-.23,1.6-.5,2.39-.79.49-.18,2.06-.55,2.28-1.04.41-.91.71-1.87.83-2.89Z"/>
      <path class="cls-1" d="m32.61,13.33c.38.67.77,1.34,1.13,2.02.06.12,0,.33-.07.48-1.15,2.51-2.61,4.82-4.44,6.9-.09.1-.2.19-.39.37,0-.58-.17-1.03.13-1.48,1.65-2.48,2.83-5.15,3.42-8.08.01-.06.05-.12.08-.18.05-.01.1-.02.14-.03Z"/>
      <path class="cls-1" d="m34.73,17.68c.24.86.8,1.91.29,2.75-.46.76-1.28,1.42-1.91,2.03-1.38,1.34-2.9,2.69-4.59,3.62.3-1.69,1.99-2.66,3.08-3.93,1.2-1.39,1.97-2.93,2.97-4.45.05,0,.09-.01.14-.02Z"/>
    </g>
  </g>
</svg>