<?xml version="1.0" encoding="UTF-8"?>
<svg id="Capa_2" data-name="Capa 2" xmlns="http://www.w3.org/2000/svg" viewBox="0 0 44.04 38.46">
  <defs>
    <style>
      .cls-1 {
        fill: #fff;
      }
    </style>
  </defs>
  <g id="Capa_1-2" data-name="Capa 1">
    <g>
      <path class="cls-1" d="m0,38.46C.11,25.53.21,12.81.32,0c3.75.76,7.55,2.89,11.1,4.31,1.86.75,3.73,1.49,5.59,2.23,2.33.92,3.24.67,5.6-.17,4-1.44,8-2.9,11.99-4.37,1.5-.55,3.01-1.34,4.64-.83,1.56.49,2.96,1.89,3.72,3.29,1.71,3.16.88,7.78.88,11.24,0,4.26,0,8.52,0,12.78,0,3.37-.09,6.54-3.29,8.49-2.9,1.77-7.68-.67-10.66-1.51-2.24-.63-4.48-1.26-6.72-1.87-2.53-.68-4.06-.87-6.58-.13-4.74,1.39-9.48,2.82-14.21,4.24-.74.22-1.47.47-2.37.77ZM2.29,2.8c.05.73.13,1.31.13,1.89-.02,2.08-.09,4.17-.11,6.25-.08,8.05-.14,16.11-.22,24.16,0,.54.16.72.69.56,4.74-1.44,9.47-2.88,14.21-4.3.46-.14.58-.41.58-.86-.01-6.96-.02-13.92,0-20.88,0-.62-.23-.95-.79-1.17-4.24-1.69-8.47-3.39-12.71-5.08-.52-.21-1.08-.34-1.79-.55Zm37.33,26.65c-.08,0,.08,0,.24,0,1.66,0,1.85-.79,1.55-2.21-.4-1.91-1.18-3.81-1.74-5.68-.64-2.14-1.27-4.29-1.93-6.42-.48-1.56-.86-3.36-1.84-4.7-1.65-2.28-5.24-2.82-7.62-1.37-2.94,1.78-3.48,6.48-4.38,9.46-.6,1.97-1.19,3.95-1.79,5.92-.32,1.05-1.58,3.41-.86,4.45.55.78,2.56.79,3.39.45,1.46-.6,1.49-2.54,1.84-3.87.5-1.94,1.57-1.33,3.47-1.32,1.22,0,5.05-.65,5.89.27.84.92.56,2.93,1.24,4,.65,1.01,1.36,1.02,2.54,1.03Z"/>
      <path class="cls-1" d="m34.6,20.27h-6.57c.25-1.58.83-3.15,1.29-4.68.27-.9.55-3.09,1.72-3.34,2.17-.45,3.05,5.86,3.44,7.22.07.24.07.49.11.8Z"/>
    </g>
  </g>
</svg>