<?xml version="1.0" encoding="UTF-8"?>
<svg id="Capa_2" data-name="Capa 2" xmlns="http://www.w3.org/2000/svg" viewBox="0 0 42.69 34.26">
  <defs>
    <style>
      .cls-1 {
        fill: #fff;
      }
    </style>
  </defs>
  <g id="Capa_1-2" data-name="Capa 1">
    <g id="formacion_academica" data-name="formacion academica">
      <g>
        <path class="cls-1" d="m32.82,8.62c.02-2.9.05-5.75.07-8.62.84.17,1.69.65,2.49.97.42.17.84.33,1.25.5.52.21.73.15,1.26-.04.9-.32,1.79-.65,2.69-.98.34-.12.67-.3,1.04-.19.35.11.66.42.83.74.38.71.2,1.74.2,2.52,0,.95,0,1.91,0,2.86,0,.75-.02,1.47-.74,1.9-.65.4-1.72-.15-2.39-.34-.5-.14-1-.28-1.51-.42-.57-.15-.91-.19-1.48-.03-1.06.31-2.12.63-3.19.95-.17.05-.33.11-.53.17Zm.51-8c.01.16.03.29.03.42,0,.47-.02.93-.02,1.4-.02,1.81-.03,3.61-.05,5.42,0,.12.04.16.16.12,1.06-.32,2.12-.64,3.19-.96.1-.03.13-.09.13-.19,0-1.56,0-3.12,0-4.68,0-.14-.05-.21-.18-.26-.95-.38-1.9-.76-2.85-1.14-.12-.05-.24-.08-.4-.12Zm8.37,5.97s.02,0,.05,0c.37,0,.41-.18.35-.5-.09-.43-.26-.85-.39-1.27-.14-.48-.28-.96-.43-1.44-.11-.35-.19-.75-.41-1.05-.37-.51-1.17-.63-1.71-.31-.66.4-.78,1.45-.98,2.12-.13.44-.27.89-.4,1.33-.07.24-.36.77-.19,1,.12.18.57.18.76.1.33-.13.34-.57.41-.87.11-.43.35-.3.78-.3.27,0,1.13-.15,1.32.06.19.21.12.66.28.9.15.23.3.23.57.23Z"/>
        <path class="cls-1" d="m40.58,4.54h-1.47c.06-.36.19-.71.29-1.05.06-.2.12-.69.39-.75.49-.1.68,1.31.77,1.62.02.05.02.11.03.18Z"/>
      </g>
      <g>
        <path class="cls-1" d="m27.69,34.21s-.03.03-.05.04c-4.28,0-8.56,0-12.84,0-.07,0-.14-.03-.21-.05.02,0,.03,0,.05,0,4.23,0,8.47,0,12.7,0,.23,0,.26-.09.26-.28,0-2.51,0-5.01,0-7.52,0-1.72,0-3.44,0-5.16,0-.02,0-.03,0-.05.02,0,.03,0,.05,0,0,.02,0,.03.01.05,0,.03,0,.07,0,.1,0,4.21,0,8.43,0,12.64,0,.07.03.15.04.22h0Z"/>
        <path class="cls-1" d="m0,19.77s0-.04.01-.06c.03,0,.06,0,.09,0,.07.02.14.05.21.05,4.26,0,8.53,0,12.79,0-.1.02-.21.05-.31.05-4.13,0-8.25,0-12.38,0-.11,0-.21.03-.32.04-.01,0-.03,0-.04,0-.02-.03-.04-.06-.06-.09Z"/>
        <path class="cls-1" d="m.1,6.66c4.23,0,8.46,0,12.7,0,.1,0,.21.03.31.05-.02,0-.04,0-.05,0-.03,0-.07,0-.1,0-.04,0-.08,0-.13,0-4.13,0-8.27,0-12.4,0-.11,0-.21.03-.32.05-.02,0-.03,0-.05,0,0-.02,0-.03,0-.05.02-.02.03-.04.05-.05Z"/>
        <path class="cls-1" d="m.06,6.76s.03,0,.05,0c0,3.35,0,6.69,0,10.04,0,.92,0,1.85,0,2.77,0,.03,0,.07,0,.1,0,.02,0,.03,0,.05,0,0,0,0,0,0-.03,0-.06,0-.09,0,0-.05,0-.1,0-.14.02-.11.05-.21.05-.32,0-4.06,0-8.13,0-12.19,0-.1,0-.2,0-.3Z"/>
        <path class="cls-1" d="m27.66,19.67s-.01.03-.02.05c-.02,0-.03,0-.05,0-.01-.03-.03-.07-.04-.1.01-.08.03-.17.04-.25.07-2.09,0-4.2,0-6.3,0-2.11.11-4.24-.01-6.35,0,0,.01-.01.02-.02.01,0,.03,0,.04.01,0,4.12,0,8.23,0,12.35,0,.2,0,.41,0,.61Z"/>
        <path class="cls-1" d="m14.59,6.71c.07-.02.14-.05.21-.05,4.26,0,8.53,0,12.79,0,0,.01,0,.03.01.04,0,0-.01.01-.02.02-.11,0-.22-.01-.33-.01-4.22,0-8.45,0-12.67,0Z"/>
        <path class="cls-1" d="m27.59,21.25c0,1.72,0,3.44,0,5.16,0,2.51,0,5.01,0,7.52,0,.19-.03.28-.26.28-4.23,0-8.47,0-12.7,0,0-.02,0-.03,0-.05,4.2,0,8.4,0,12.6,0,.24,0,.31-.07.31-.31,0-4.2,0-8.4,0-12.6.02,0,.03,0,.05,0Z"/>
        <path class="cls-1" d="m27.61,21.14s.03,0,.04,0c0,.02,0,.03,0,.05-.02,0-.03,0-.05,0-4.24,0-8.48,0-12.72,0-.08,0-.16.03-.24.04-.02,0-.03,0-.05,0-.02,0-.03,0-.05,0,0-.02,0-.03,0-.05.02-.02.03-.03.05-.05,2.62,0,5.24,0,7.87,0,1.72,0,3.43,0,5.15,0Z"/>
        <path class="cls-1" d="m14.59,21.25s.03,0,.05,0h0c0,4.31,0,8.61,0,12.91,0,.02,0,.03,0,.05-.02,0-.03,0-.05,0,0,0,0,0,0,0,0-4.32,0-8.64,0-12.96Z"/>
        <path class="cls-1" d="m14.64,21.24c.08-.02.16-.04.24-.04,4.24,0,8.48,0,12.72,0,0,.02,0,.03,0,.05-.02,0-.03,0-.05,0-4.3,0-8.6,0-12.91,0h0Z"/>
        <path class="cls-1" d="m.1,21.09c1.78,0,3.57,0,5.35,0,2.46,0,4.92,0,7.38,0,.09,0,.19.06.28.09,0,0,0,.02,0,.02-.02,0-.03,0-.05-.01-.07-.02-.14-.04-.21-.04-4.26,0-8.53,0-12.79,0,.01-.02.03-.04.04-.06Z"/>
        <path class="cls-1" d="m.06,21.15c4.26,0,8.53,0,12.79,0,.07,0,.14.03.21.04,0,0,0,.01,0,.01-.05,0-.1,0-.15,0-4.27,0-8.54,0-12.8,0-.02,0-.03,0-.05,0,0,0-.02,0-.02,0,0-.02,0-.03.01-.05Z"/>
        <path class="cls-1" d="m.06,21.19s.03,0,.05,0c0,.02,0,.03,0,.05,0,.12,0,.24,0,.35,0,2.05,0,4.1,0,6.14,0,2.15,0,4.3,0,6.45,0,.02,0,.03,0,.05,0,0,0,.02,0,.02-.02-.02-.04-.04-.06-.06,0-3.57,0-7.14,0-10.7,0-.75,0-1.5,0-2.26,0-.02.01-.04.02-.05Z"/>
        <path class="cls-1" d="m13.12,19.72s0,.03,0,.05c-4.26,0-8.53,0-12.79,0-.07,0-.14-.03-.21-.05,0,0,0,0,0,0,.06,0,.12,0,.18,0,4.26,0,8.52,0,12.78,0,.02,0,.04,0,.05,0Z"/>
        <path class="cls-1" d="m13.12,19.72s-.04,0-.05,0c0-.02,0-.03,0-.05h0c.02-.11.04-.21.04-.32,0-3.99,0-7.98,0-11.98,0-.11.03-.21.04-.32,0,.14,0,.29,0,.43,0,4.06,0,8.12,0,12.18,0,.02,0,.03,0,.05-.02,0-.03,0-.05,0Z"/>
        <path class="cls-1" d="m14.54,21.19s0,.03,0,.05c0,4.32,0,8.64,0,12.96h-.03s-.03,0-.03,0c0-4.15,0-8.3,0-12.45,0-.17,0-.34,0-.51.02-.02.04-.03.05-.05Z"/>
        <path class="cls-1" d="m14.54,34.2c0-4.32,0-8.64,0-12.96.02,0,.03,0,.05,0,0,4.32,0,8.64,0,12.96,0,0-.02,0-.02,0h-.02Z"/>
        <path class="cls-1" d="m27.59,19.72s.03,0,.05,0c0,.02,0,.03,0,.05-4.35,0-8.7,0-13.05,0-.02-.02-.03-.03-.05-.05,0-.02,0-.03,0-.05.02,0,.03,0,.05,0,.02,0,.03,0,.05,0h0c.08.02.16.05.24.05,4.24,0,8.48,0,12.72,0Z"/>
        <path class="cls-1" d="m14.59,19.77c4.35,0,8.7,0,13.05,0,0,.02,0,.03,0,.05-.01,0-.03,0-.04,0-4.23,0-8.47,0-12.7,0-.1,0-.21-.03-.31-.05Z"/>
        <path class="cls-1" d="m14.54,19.67s0,.03,0,.05c-.02-.02-.04-.03-.05-.05,0-4.08,0-8.15,0-12.23,0-.13,0-.25,0-.38.02.09.04.18.04.27,0,.5,0,1,0,1.5,0,3.61,0,7.23,0,10.84Z"/>
        <path class="cls-1" d="m13.21,34.2s-.03-.03-.05-.04c0-2.86,0-5.72,0-8.58,0-1.45,0-2.89,0-4.34.01,0,.03,0,.04,0,0,4.32,0,8.64,0,12.96Z"/>
        <path class="cls-1" d="m13.17,21.24c0,1.45,0,2.89,0,4.34,0,2.86,0,5.72,0,8.58-.01,0-.03,0-.04,0,0-.12,0-.24,0-.36,0-4.2,0-8.4,0-12.6,0,0,0-.02,0-.02.02.02.04.04.06.06Z"/>
        <path class="cls-1" d="m27.61,21.14c-1.72,0-3.43,0-5.15,0-2.62,0-5.24,0-7.87,0,.09-.02.18-.05.26-.05,4.25,0,8.5,0,12.75,0,0,.02,0,.03,0,.05Z"/>
        <path class="cls-1" d="m13.17,19.67c0-4.06,0-8.12,0-12.18,0-.14,0-.29,0-.43-.01-.1-.02-.21-.03-.31.03-.01.06-.03.09-.04,0,4.25,0,8.5,0,12.74,0,.07-.03.14-.05.22Z"/>
        <path class="cls-1" d="m13.13,6.76c.01.1.02.21.03.31-.02.11-.04.21-.04.32,0,3.99,0,7.98,0,11.98,0,.11-.03.21-.04.32,0-.36,0-.71,0-1.07,0-3.96,0-7.93,0-11.89.02,0,.04,0,.05,0,0,.01.01.03.02.04Z"/>
        <path class="cls-1" d="m13.06,6.72c0,3.96,0,7.93,0,11.89,0,.36,0,.71,0,1.07,0,0,0,0,0,0-.76,0-1.52,0-2.29,0-3.56,0-7.11,0-10.67,0,0-.03,0-.07,0-.1.03-.1.09-.2.09-.31,0-4.03,0-8.06,0-12.08,0-.1.03-.21.05-.31,0,4.13,0,8.27,0,12.4q0,.36.35.36c4.01,0,8.01,0,12.02,0,.36,0,.39-.03.39-.39,0-4.01,0-8.01,0-12.02q0-.35-.36-.35c-4.13,0-8.27,0-12.4,0,.1-.02.19-.05.29-.05,1.78,0,3.55,0,5.33,0,2.27,0,4.54,0,6.8,0,.09,0,.19-.06.28-.09.03,0,.07,0,.1,0Z"/>
        <path class="cls-1" d="m.26,6.86c-.02.1-.05.21-.05.31,0,4.03,0,8.06,0,12.08,0,.1-.06.2-.09.31,0-.92,0-1.85,0-2.77,0-3.35,0-6.69,0-10.04.11-.02.21-.05.32-.05,4.13,0,8.27,0,12.4,0,.04,0,.08,0,.13,0-.09.03-.19.09-.28.09-2.27,0-4.54,0-6.8,0-1.78,0-3.55,0-5.33,0-.1,0-.19.03-.29.05h0Z"/>
        <path class="cls-1" d="m.11,19.67c3.56,0,7.11,0,10.67,0,.76,0,1.52,0,2.29,0,0,.02,0,.03,0,.05-4.26,0-8.52,0-12.78,0-.06,0-.12,0-.18,0,0-.02,0-.03,0-.05Z"/>
        <path class="cls-1" d="m27.59,19.36c-.01.08-.03.17-.04.25-.1.02-.21.05-.31.05-4.2,0-8.4,0-12.6,0,0,0,0,0,0,0,0-4.14,0-8.28,0-12.42,0-.08-.03-.16-.05-.24,0-.08,0-.17,0-.25,4.2,0,8.4,0,12.59,0q.36,0,.36.35c0,3.98,0,7.96,0,11.93,0,.11.03.21.04.32Zm-.25-6.2c0-1.96,0-3.93,0-5.89,0-.24-.07-.31-.31-.31-3.93,0-7.86,0-11.79,0-.24,0-.31.07-.31.31,0,3.93,0,7.86,0,11.79,0,.24.07.31.31.31,3.93,0,7.86,0,11.79,0,.24,0,.31-.07.31-.31,0-1.96,0-3.93,0-5.89Z"/>
        <path class="cls-1" d="m27.59,19.36c-.02-.11-.04-.21-.04-.32,0-3.98,0-7.96,0-11.93q0-.35-.36-.35c-4.2,0-8.4,0-12.59,0,0-.02,0-.03,0-.05,0,0,0,0,0,0,4.22,0,8.45,0,12.67,0,.11,0,.22,0,.33.01.12,2.1.01,4.24.01,6.35,0,2.09.07,4.2,0,6.3Z"/>
        <path class="cls-1" d="m14.64,19.67c4.2,0,8.4,0,12.6,0,.1,0,.21-.03.31-.05.01.03.03.07.04.1-4.24,0-8.48,0-12.72,0-.08,0-.16-.03-.24-.05Z"/>
        <path class="cls-1" d="m14.59,6.71s0,.03,0,.05c0,.08,0,.17,0,.25,0,4.22,0,8.44,0,12.65-.02,0-.03,0-.05,0,0-3.61,0-7.23,0-10.84,0-.5,0-1,0-1.5,0-.09-.03-.18-.04-.27,0-.12,0-.23,0-.35.03,0,.06,0,.1,0Z"/>
        <path class="cls-1" d="m13.11,21.2c0,4.2,0,8.4,0,12.6,0,.12,0,.24,0,.36,0,.01,0,.03,0,.04-.02,0-.03,0-.05,0,0-.02,0-.03,0-.05,0-4.3,0-8.6,0-12.91,0-.01,0-.03,0-.04,0,0,0-.01,0-.01.02,0,.03,0,.05.01Z"/>
        <path class="cls-1" d="m13.06,34.2s.03,0,.05,0c-.07.02-.14.05-.21.05-4.22,0-8.45,0-12.67,0-.04,0-.08,0-.13-.01,0-.02,0-.03,0-.05,4.31.13,8.64.01,12.95,0Z"/>
        <path class="cls-1" d="m14.64,21.25c4.3,0,8.6,0,12.91,0,0,4.2,0,8.4,0,12.6,0,.24-.07.31-.31.31-4.2,0-8.4,0-12.6,0,0-4.3,0-8.6,0-12.91Zm12.6,6.46c0-1.96,0-3.93,0-5.89,0-.21-.06-.27-.27-.27-3.91,0-7.82,0-11.73,0-.24,0-.3.08-.3.31,0,3.9,0,7.81,0,11.71,0,.22.05.29.28.29,3.91,0,7.82,0,11.73,0,.24,0,.29-.08.29-.3,0-1.95,0-3.89,0-5.84Z"/>
        <path class="cls-1" d="m13.07,21.2s0,.03,0,.04c-4.32,0-8.64,0-12.95,0,0-.02,0-.04,0-.05,4.27,0,8.54,0,12.8,0,.05,0,.1,0,.15,0Z"/>
        <path class="cls-1" d="m.11,21.25c4.32,0,8.64,0,12.95,0,0,4.3,0,8.6,0,12.91-4.2,0-8.4,0-12.6,0-.27,0-.32-.08-.32-.33,0-3.97,0-7.94,0-11.91,0-.11-.03-.21-.04-.32,0-.12,0-.24,0-.35Zm12.65,6.48c0-1.96,0-3.91,0-5.87,0-.24-.07-.31-.31-.31-3.9,0-7.81,0-11.71,0-.33,0-.33,0-.33.32,0,3.9,0,7.81,0,11.71,0,.24.07.32.32.32,3.9,0,7.81,0,11.71,0,.32,0,.32,0,.32-.33,0-1.95,0-3.9,0-5.84Z"/>
        <path class="cls-1" d="m.11,21.6c.02.11.04.21.04.32,0,3.97,0,7.94,0,11.91,0,.25.05.33.32.33,4.2,0,8.4,0,12.6,0,0,.02,0,.03,0,.05-4.31.01-8.64.13-12.95,0,0-2.15,0-4.3,0-6.45,0-2.05,0-4.1,0-6.14Z"/>
        <path class="cls-1" d="m14.59,19.67c0-4.22,0-8.44,0-12.65.02.08.05.16.05.24,0,4.14,0,8.28,0,12.42-.02,0-.03,0-.05,0Z"/>
        <path class="cls-1" d="m.26,6.86c4.13,0,8.27,0,12.4,0q.36,0,.36.35c0,4.01,0,8.01,0,12.02,0,.36-.03.39-.39.39-4.01,0-8.01,0-12.02,0q-.35,0-.35-.36c0-4.13,0-8.27,0-12.4,0,0,0,0,0,0Zm12.45,6.33c0-1.96,0-3.91,0-5.87,0-.24-.07-.31-.31-.31-3.9,0-7.79,0-11.69,0-.24,0-.31.07-.31.31,0,3.9,0,7.79,0,11.69,0,.24.07.31.31.31,3.9,0,7.79,0,11.69,0,.24,0,.31-.07.31-.31,0-1.94,0-3.88,0-5.82Z"/>
        <path class="cls-1" d="m27.34,13.17c0,1.96,0,3.93,0,5.89,0,.24-.07.31-.31.31-3.93,0-7.86,0-11.79,0-.24,0-.31-.07-.31-.31,0-3.93,0-7.86,0-11.79,0-.24.07-.31.31-.31,3.93,0,7.86,0,11.79,0,.24,0,.31.07.31.31,0,1.96,0,3.93,0,5.89Z"/>
        <path class="cls-1" d="m27.24,27.71c0,1.95,0,3.89,0,5.84,0,.22-.05.3-.29.3-3.91,0-7.82,0-11.73,0-.23,0-.28-.07-.28-.29,0-3.9,0-7.81,0-11.71,0-.23.06-.31.3-.31,3.91,0,7.82,0,11.73,0,.21,0,.27.06.27.27,0,1.96,0,3.93,0,5.89Z"/>
        <path class="cls-1" d="m12.76,27.73c0,1.95,0,3.9,0,5.84,0,.33,0,.33-.32.33-3.9,0-7.81,0-11.71,0-.25,0-.32-.07-.32-.32,0-3.9,0-7.81,0-11.71,0-.32,0-.32.33-.32,3.9,0,7.81,0,11.71,0,.24,0,.31.07.31.31,0,1.96,0,3.91,0,5.87Z"/>
        <path class="cls-1" d="m12.71,13.19c0,1.94,0,3.88,0,5.82,0,.24-.07.31-.31.31-3.9,0-7.79,0-11.69,0-.24,0-.31-.07-.31-.31,0-3.9,0-7.79,0-11.69,0-.24.07-.31.31-.31,3.9,0,7.79,0,11.69,0,.24,0,.31.07.31.31,0,1.96,0,3.91,0,5.87Z"/>
      </g>
    </g>
  </g>
</svg>