<?xml version="1.0" encoding="UTF-8"?>
<svg id="Capa_2" data-name="Capa 2" xmlns="http://www.w3.org/2000/svg" viewBox="0 0 21.87 22.99">
  <defs>
    <style>
      .cls-1 {
        fill: #fff;
      }

      .cls-2 {
        fill: #fcfcfc;
      }
    </style>
  </defs>
  <g id="Capa_1-2" data-name="Capa 1">
    <g>
      <path class="cls-1" d="m21.83,3.85c-.05-.06-.09-.14-.19-.13v-.02c-.1.04-.13-.12-.22-.09-.03-.04-.07-.06-.1,0-.07-.04-.13-.11-.22-.09-.02-.04-.06-.04-.1-.04-.02-.04-.06-.05-.1-.04-.03,0-.06,0-.08-.01-.06-.05-.12-.09-.2-.08-.11-.02-.19-.14-.32-.1-.02-.04-.06-.04-.1-.04-.18,0-.32-.14-.5-.15-.02-.01-.03-.03-.05-.04-.03-.06-.09-.05-.14-.04-.04-.03-.09-.04-.14-.06-.21-.08-.45-.1-.64-.23-.08-.04-.14-.14-.24-.05-.32-.13-.65-.23-.97-.33-.28-.08-.55-.21-.83-.32-.24,0-.44-.11-.65-.19-.22-.08-.45-.13-.65-.26-.04-.08-.12-.05-.18-.05h0s-.05-.05-.09-.05c-.04-.05-.09-.04-.15-.04-.01,0-.03,0-.04,0-.06-.03-.12-.06-.18-.09-.02.01-.03.03-.05.04-.28-.05-.57-.11-.79-.31-.21-.06-.43-.13-.64-.19h0c-.03-.05-.09-.04-.14-.05-.06-.03-.11-.13-.2-.05l-.32-.13c-.01-.06-.05-.05-.09-.04-.03,0-.06,0-.08-.01-.07-.06-.15-.1-.24-.08-.06-.02-.12-.04-.18-.06-.05-.07-.11-.1-.19-.08-.17-.05-.34-.1-.5-.15-.02-.04-.06-.04-.1-.04-.03,0-.06,0-.09-.01h-.02s-.02,0-.02,0c-.06,0-.12,0-.19,0h0c.06,0,.12,0,.19,0-.03-.11-.11-.12-.2-.14-.14-.02-.26.03-.39.06,0,.01,0,.03,0,.04.07.01.14,0,.21,0-.07,0-.14.02-.21,0,0,.01-.01.03-.02.04-.13.06-.3.02-.41.13-.1-.07-.16.03-.24.05-.2.09-.39.19-.6.24-.16-.02-.29.07-.42.13-.03.01-.06.03-.09.04-.03,0-.06,0-.09.01-.84.26-1.65.63-2.5.88-.08.17-.26.15-.39.2-.17.07-.35.16-.54.16-.05.02-.11-.01-.14.05-.07.02-.14.04-.19.09-.01,0-.03,0-.04,0-.11-.01-.17.1-.28.1-.29.07-.56.16-.83.28-.04,0-.08,0-.1.04-.06,0-.14-.02-.18.05h0s-.08,0-.09.04c-.04,0-.08,0-.09.05-.06,0-.14-.02-.19.05h0s-.03,0-.04,0c-.04,0-.08,0-.1.04-.04,0-.07,0-.1.04-.03,0-.06,0-.08,0-.05.08-.09.15-.21.14-.17-.02-.28.16-.45.13-.01,0-.03,0-.04.01-.06.05-.15,0-.2.08-.06,0-.13-.02-.18.05-.08.03-.16.06-.24.09-.01,0-.03,0-.04,0-.03,0-.06,0-.09,0-.04,0-.08,0-.09.04h0c-.05,0-.11-.01-.14.04-.28.17-.62.19-.91.33-.03.02-.07.03-.1.05,0,.02,0,.03,0,.04-.06.25.02.5-.01.74.01.08,0,.16.06.23,0,.02,0,.03,0,.05.05.02.04.05.03.09.1.21.04.44.05.66.02.03.03.06.05.09h0c0,.2,0,.4.01.6.06.03.03.1.05.14h0c0,.08,0,.15,0,.23.04.02.08.05.08.1h0c-.09.22-.03.44.05.65,0,.08.01.15.02.23h-.02c0,.11.01.22.02.32,0,0-.02,0-.02,0,0,.02,0,.03,0,.05.07.2.01.42.11.61-.03.08,0,.15.08.19,0-.02,0-.04,0-.05,0,0,.02-.02.02-.03.03-.05.06-.1.07-.17.02-.12-.01-.26-.09-.36,0-.09-.03-.18-.06-.27.02.09.05.18.06.27.08.1.11.24.09.36,0,.06-.03.12-.07.17,0,0-.01.02-.02.03,0,.02,0,.04,0,.05,0,.05,0,.09,0,.14h.01s-.01.03-.02.04c.08.15.04.31.06.47,0,.12-.06.25.08.33,0,0,0,0,0,0h0s-.04.06-.05.09c.07.21.02.44.11.65-.05.15.14.26.08.41h0c-.11.13.04.25,0,.38,0,.11,0,.22,0,.33,0,.01,0,.03,0,.04.01,0,.02,0,.03,0,0,.01,0,.03.01.04.03.03.04.05.04.08,0-.03-.02-.06-.04-.08,0,.08,0,.15,0,.23,0,.05,0,.1,0,.15,0,.01,0,.03,0,.04.01,0,.03,0,.04,0,0,0,0,0,0,0h0c0,.08-.02.16.04.23,0,.06.04.14-.03.19,0,.01,0,.03,0,.04.05.05.09.11.08.19.02.01.03.03.05.05-.01-.02-.03-.03-.05-.05-.05.02-.04.06-.04.09.07.2.1.4.08.61,0,.06,0,.12,0,.19,0,.04,0,.09.01.13.03,0,.06,0,.08,0,0-.02,0-.03.01-.05,0-.13,0-.26,0-.39,0,.13,0,.26,0,.39.06,0,.11.03.12.09-.01-.05-.06-.08-.12-.09,0,.02,0,.03-.01.05-.03,0-.06,0-.08,0,0,.02,0,.03,0,.05.1.21,0,.45.13.65.02.03.04.06.06.09,0,.06-.01.13-.02.19-.01.07.08.11.04.18,0,.02,0,.03.01.05-.09.19,0,.37.02.55,0,.11.03.22.01.34,0,0,.02,0,.02,0,.02.25.12.49.07.75.02.05.04.09.06.14.01.03.02.06.03.09-.02.01-.03.03-.05.04,0,.02,0,.03,0,.05,0,.21,0,.41.1.6-.02.03-.03.06-.05.09.03.03.06.06.09.1-.01.11.02.2.1.27.02,0,.05,0,.06.02-.02,0-.04-.02-.06-.02.02.07.07.1.14.09l.27.15h0c.03.05.08.09.15.08.14.08.28.15.42.23.03.07.08.05.13.05.2.15.42.26.65.37,0-.01.02-.02.03-.02,0,0-.02.01-.03.02.03,0,.06.01.09.02.73.63,1.81,1.02,2.65,1.5.91.51,1.83,1.01,2.74,1.51.02,0,.03,0,.05.01-.02,0-.03,0-.05-.01.08.11.18.18.32.19-.01-.01-.02-.02-.03-.03-.02-.02-.05-.04-.07-.06.02.02.05.04.07.06.01.01.02.02.03.03.06.03.13.06.19.09.24.07.47.18.66.36.02,0,.04,0,.06,0-.02,0-.04,0-.06,0,0,.02,0,.03,0,.05.06.02.12.03.18.05.08.06.16.14.28.14h0c.21.1.39.07.56-.1,1.08-.49,2.19-1.13,3.2-1.77.23-.05.42-.17.6-.32,1.32-.71,2.61-1.51,3.95-2.18.04,0,.08,0,.1-.03.3-.16.61-.32.91-.49.06-.04.18-.04.15-.17.07-.18.05-.37.06-.55.01,0,.02,0,.04,0,0-.05,0-.1,0-.14,0,0,0,0,0,0,0-.09,0-.19,0-.28,0-.12,0-.25,0-.37h0c.17-.16.13-.37.12-.57,0,0,.01,0,.01,0,0-.06,0-.13,0-.19-.03-.24.02-.47.09-.7,0-.03,0-.07,0-.1-.09-.09-.11-.3-.08-.45-.04.15-.01.36.08.45,0,.03,0,.07,0,.1.05-.03.04-.09.05-.14,0-.08,0-.17,0-.25,0-.26.15-.5.09-.77,0-.03,0-.06,0-.09.03,0,.06,0,.08,0,0-.08,0-.15.01-.23-.02-.08-.01-.16.04-.23,0-.06,0-.13-.01-.19,0-.08,0-.15,0-.23.1-.13.03-.28.06-.42-.02-.14.08-.28.03-.42.05-.18.03-.38.11-.56h-.01c.06-.16.04-.34.06-.51.03-.28.11-.55.08-.84.07-.13.05-.27.06-.41h0s.03-.07.05-.1c0-.06,0-.12-.01-.18,0-.05,0-.09.01-.14.01-.11.03-.22.04-.33h0c.16-.17.07-.37.08-.56h.01s0-.06,0-.09c.05-.02.04-.06.03-.09.05-.27.09-.54.14-.81,0,0-.02-.02-.03-.03.02-.14.03-.27.05-.41.09-.15.1-.31.08-.47,0-.05-.06-.08-.03-.14,0-.05.06-.08.03-.14.06-.26.12-.52.1-.79.02-.03.04-.06.06-.09-.04-.11.08-.21.03-.32.02-.2.04-.4.06-.6,0-.03,0-.06,0-.09h0c.06-.15.07-.31.09-.47.05-.03.05-.06,0-.1Zm-11.14,10.49h0c-.79,0-1.59,0-2.38,0,.79,0,1.59,0,2.38,0,.02-.02.03-.03.05-.05h0s-.03.03-.05.05Zm.02-14.09c0,.82,0,1.63-.01,2.45h0c0-.82,0-1.63.01-2.45Zm.12,14s0,0,0,0c0-.01,0-.03,0-.04h0s0-.01,0-.01c0-.01,0-.02,0-.04h0s0,.02,0,.04c0,0,0,.01,0,.01,0,.01,0,.03,0,.04,0,0,0,0,0,0Zm-3.63,1.87s.02-.02.03-.03c0,.01-.02.02-.03.03Zm6.68-1.84c-.04.07-.18.09-.35.09.17,0,.31-.03.35-.09Zm-.36.09s-.06,0-.09,0c.03,0,.06,0,.09,0Zm-.18,0s-.06,0-.09,0c.03,0,.06,0,.09,0Zm2.87,3.38s-.04,0-.06,0c-.02,0-.04,0-.05,0,.02,0,.04,0,.05,0,.02,0,.04,0,.06,0Zm1.37-.07s.04,0,.06,0c-.02,0-.04,0-.06,0Zm-2.16-.09s-.02-.04-.04-.06c0-.01,0-.03-.01-.04-.08-.17-.15-.33-.23-.5-.12-.28-.24-.57-.37-.85-.09-.16-.07-.38-.25-.51-.03-.11-.06-.22-.09-.32-.03-.06-.06-.12-.09-.18-.06-.11-.12-.22-.18-.32-.06-.07-.11-.14-.08-.24,0-.01,0-.03-.01-.04.04-.13-.11-.2-.1-.32-.03-.02-.06-.04-.08-.06-1.02,0-2.04,0-3.06,0h0c-.94,0-1.89,0-2.83-.01-.04,0-.07.01-.09.05-.01,0-.03,0-.04,0-.04.05-.07.11-.05.18l-.04.14c-.02.08-.04.15-.06.23h0s-.04.06-.04.1c-.03,0-.04.02-.04.05,0,.03,0,.06,0,.08h0c-.04.11-.14.2-.14.33h0s0,0,0,0h0s-.03,0-.04,0c0,.03,0,.06,0,.09,0,.03,0,.06,0,.09-.11.02-.07.14-.12.2-.05.06-.05.17-.15.19-.02.09-.08.17-.05.27.02,0,.03,0,.05-.01-.01,0-.03,0-.05.01-.14.39-.28.77-.42,1.16-.03.03-.06.06-.1.09,0,.05,0,.09,0,.14h0s-.03,0-.05,0c-.76,0-1.51,0-2.27,0-.08,0-.17.04-.23-.05.01-.06.03-.12.04-.17,0,0,0,0,0,0,.05-.04.05-.09.04-.15h0s.13-.06.05-.14c.29-.56.51-1.17.8-1.73.08-.15.19-.31.22-.49h0s.04-.06.04-.1c.04-.01.04-.03,0-.05.07-.09.11-.2.14-.32.07-.18.13-.37.27-.51.42-1.01.88-2.03,1.35-3.01.04-.04.12-.07.05-.15.22-.44.39-.91.63-1.35,0-.06.03-.12.06-.17-.03.05-.05.1-.06.17.1-.08.17-.18.14-.32,0-.01,0-.03,0-.04h0s.12-.07.05-.15c.22-.46.45-.91.64-1.39.05-.2.14-.38.25-.55.07-.16.14-.31.21-.47l.11-.36c.1,0,.11-.1.17-.15.04-.14.17-.25.14-.42.07-.15.13-.31.2-.46.03-.22.11-.41.27-.55.18-.42.34-.85.57-1.25.05-.08,0-.21.12-.25,0-.02,0-.04,0-.06,0,.02,0,.04,0,.06l.14-.14s.01-.08.02-.12c0,0,0,0,0,0,.03.01.05.03.08.04.01,0,.03,0,.04,0,.03.04.07.08.05.14.12.13.16.31.24.46.16.21.27.44.32.7.16.3.3.61.42.92.13.15.22.32.27.51.09.23.22.45.29.69.01.05.05.08.09.1h0c.02.06.04.12.06.18.01.03.03.06.04.09.04.06.09.11.08.19.11.22.25.43.32.66.05.16.19.28.2.45.01,0,.03.02.04.03.01,0,.02.02.03.03,0-.01-.02-.02-.03-.03-.01,0-.02-.02-.04-.03-.01.07.03.11.08.15.25.52.51,1.03.76,1.55.23.5.39,1.17.74,1.6-.01.04,0,.08.04.1.14.31.28.61.42.92.06.18.24.3.24.51.26.54.52,1.08.77,1.62.29.63.57,1.27.86,1.9.05.11.16.19.14.33.16.09.14.29.24.42.01,0,.02,0,.03.01.02.01.04.02.05.04.02.02.04.05.05.08-.01-.03-.03-.05-.05-.08-.02-.02-.03-.03-.05-.04-.01,0-.02-.01-.03-.01,0,.02-.01.03-.02.05,0,.01,0,.03.01.04.14.09.13.27.23.37.02.14-.07.14-.17.14-.73,0-1.46,0-2.19,0,.01.02.02.04.04.06,0,.01,0,.03,0,.04,0-.01,0-.03,0-.04Zm-11.3-.4s.01-.01.02-.02c0,0-.01.01-.02.02-.01.02-.01.04-.02.06-.08.03-.11.08-.13.14.02-.06.05-.11.13-.14,0-.02,0-.04.02-.06ZM10.83.3s0,.02,0,.03c0-.01,0-.02,0-.03Zm.1,1.98s.06,0,.09.02c.03.01.06.03.09.05.03.02.06.04.08.07-.03-.03-.06-.05-.08-.07-.03-.02-.06-.04-.09-.05s-.06-.02-.09-.02Zm.3.18s.05.06.08.1c-.03-.04-.05-.07-.08-.1Zm.19.28s.05.09.07.13c-.02-.05-.05-.09-.07-.13Zm6.35,14.82s-.01,0-.02.01c0,0,.01,0,.02-.01Zm-.05.02s-.02,0-.04,0c.01,0,.03,0,.04,0Zm.06-.04s0,0,0,.01c0,0,0,0,0-.01Zm.02-.16s0-.02,0-.02h0s0,.02,0,.02ZM10.6,2.9s0-.02.02-.03c0,.01-.01.02-.02.03Zm.14,11.36s.06,0,.09,0c0,0,0,0,0,0-.03,0-.06,0-.09,0Zm7.1,3.29s-.03.06-.05.09c-.03.04-.07.05-.12.05.04,0,.08-.01.12-.05.02-.03.03-.06.05-.09.48,0,.31-.43.1-.81-.02-.04-.04-.07-.06-.11.02.03.04.07.06.11.21.38.38.81-.1.81Zm2.91-6.64s0,.06,0,.09c0-.03,0-.06,0-.09ZM10.88,2.28h0c0-.6,0-1.21,0-1.81,0,.6,0,1.21,0,1.81Zm-.1-2.18s-.05,0-.08,0c.03,0,.05,0,.08,0ZM3.08,2.75s.06,0,.09-.01c-.03.01-.06,0-.09.01-.02.03-.04.04-.07.04.03,0,.05-.01.07-.04Zm-1.67,12.53s0-.08-.02-.12c.01.04.02.08.02.12.12.14.11.29.08.44,0,.03-.01.06-.02.08,0-.03.01-.06.02-.08.03-.15.04-.3-.08-.44Zm-.56-4.3s0,0,0,0c0,0,0,0,0,0Zm.28,1.97s0-.02-.02-.03c0,.01.01.02.02.03Zm.32,2.98h0s.02.06.03.1c-.01-.03-.02-.06-.03-.1Zm.04.11c.03.11.05.22.06.33,0-.11-.03-.22-.06-.33Zm.06.44s0,.07,0,.11c0-.04,0-.07,0-.11Zm9.76,5.86c-.08.03-.15.07-.23.09-.07.02-.14.04-.21.05,0,.03,0,.06,0,.09,0-.03,0-.06,0-.09.07,0,.14-.03.21-.05.07-.02.15-.05.23-.09.04-.02.08-.04.12-.06-.04.02-.08.04-.12.06Zm9-7.83s.02-.05.03-.06c-.01.02-.02.04-.03.06Zm1.29-9.63s0,.02,0,.04c0-.01,0-.02,0-.04Z"/>
      <path class="cls-2" d="m12.27,10.45s0-.08-.04-.1c-.29-.34-.75-1.21-.79-1.67-.06-.03-.09-.07-.09-.14l-.05-.05c-.06-.27-.25-.48-.32-.74h0c-.18-.28-.18-.28-.33-.01-.02.04-.03.07-.02.11-.02.05-.04.09-.06.14-.04.02-.05.06-.04.1-.1.1-.07.26-.15.37-.05.18-.1.37-.23.51l-.14.41s-.04.06-.03.1c.01.1-.12.13-.1.23-.08.04-.09.11-.09.19h0c-.06.05-.09.11-.09.19-.02.04-.07.08-.04.13,0,.01,0,.03-.01.04-.06.03-.1.07-.08.15,0,.05,0,.09,0,.14-.1.2-.19.4-.29.6,0,.08-.04.13-.08.19-.03.12-.04.25-.1.37-.02.02-.03.03-.05.05-.06.03-.09.08-.08.15,0,.01,0,.03-.01.04,0,.03,0,.06.01.09h0s0,.03,0,.05c.63,0,1.27,0,1.9,0,0,0,0,0,0,0-.63,0-1.27,0-1.9,0,0,.02,0,.03,0,.05.63,0,1.27,0,1.9,0,0,0,0,0,0,0,0-.01,0-.03,0-.04,0,.01,0,.03,0,.04.66,0,1.33,0,1.99,0,.05,0,.11,0,.15-.05,0-.02,0-.03,0-.05-.69,0-1.39,0-2.08,0,0-.06,0-.12,0-.18h0c0,.06,0,.12,0,.18.69,0,1.39,0,2.08,0,.01-.01.03-.03.04-.04-.28-.49-.51-1.01-.74-1.53Zm-1.67.71c0-.29-.05-.6-.05-.8,0-.22.01-.44.01-.67,0,.22-.01.45-.01.67,0,.21.05.52.05.8Zm-.03.32s.01-.07.02-.1c0,.04-.01.07-.02.1Zm-1.63.54c.59,0,1.17,0,1.76,0,0-.05,0-.09,0-.14-.03,0-.07,0-.1,0,.03,0,.07,0,.1,0,0-.61,0-1.21,0-1.82,0,.61,0,1.21,0,1.82,0,.05,0,.09,0,.14-.59,0-1.17,0-1.76,0Z"/>
    </g>
  </g>
</svg>