<?xml version="1.0" encoding="UTF-8"?>
<svg id="Capa_2" data-name="Capa 2" xmlns="http://www.w3.org/2000/svg" viewBox="0 0 27.88 21.89">
  <defs>
    <style>
      .cls-1 {
        fill: #fff;
      }
    </style>
  </defs>
  <g id="Capa_1-2" data-name="Capa 1">
    <g>
      <path class="cls-1" d="m19.37,19.29c-.23-.51-.51-.82-.91-1.23-.41-.42-.72-.9-1.09-1.35-.8-.99-1.74-1.88-2.52-2.87-.38-.48-.73-.98-1.11-1.45-.28-.36-.96-.91-.95-1.37.02-.6.48-1.36.68-1.93.27-.74.54-1.49.81-2.23.44-1.24.84-2.47,1.28-3.71.19-.54.4-.99.51-1.54.04-.21.22-.56.51-.45.22.09.12.53.15.7.09.5.54.94.78,1.38.36.65.72,1.3,1.09,1.95.71,1.28,1.49,2.52,2.21,3.8.35.62.69,1.24,1.03,1.85.3.54.71.96.98,1.51.59,1.19,1.27,2.35,1.93,3.51.3.53.68.97.96,1.51.33.63.67,1.24,1.01,1.86.32.57.62,1.15.95,1.71.3.53.36.81-.34.85-3,.17-6.07,0-9.07,0-2.98,0-5.95,0-8.93,0-.69,0-1.46.15-2.14.08-.66-.07-.98-.33-.17-.51.81-.18,1.65-.25,2.46-.39.36-.06.71-.15,1.07-.23.34-.08.69-.02,1.02-.1.26-.07.4-.17.65-.19.39-.03.5-.02.86-.19.72-.33,1.43-.27,2.19-.39.49-.08,1.02-.1,1.49-.23.31-.08.45-.09.77-.09.37,0,.63-.23,1-.24.28-.01.57,0,.85,0Z"/>
      <path class="cls-1" d="m15.41,0c-.17.78-.7,1.44-.97,2.19-.27.77-.67,1.41-1.02,2.14-.78,1.63-1.51,3.29-2.28,4.93-.78,1.63-1.55,3.27-2.31,4.91-.39.83-.78,1.66-1.16,2.49-.35.76-.62,1.81-1.13,2.46-.44.56-1.54.32-2.17.33-.99,0-1.98,0-2.97,0-.42,0-1.54.23-1.38-.48.08-.34.43-.73.61-1.03.22-.37.44-.74.65-1.11,1.77-3.05,3.5-6.13,5.3-9.17.9-1.53,2.66-2.59,4-3.71,1.52-1.28,2.99-2.63,4.56-3.85.06-.05.15-.05.28-.09Z"/>
    </g>
  </g>
</svg>