<?xml version="1.0" encoding="UTF-8"?>
<svg id="Capa_2" data-name="Capa 2" xmlns="http://www.w3.org/2000/svg" viewBox="0 0 17.56 21">
  <defs>
    <style>
      .cls-1 {
        fill: #fff;
      }
    </style>
  </defs>
  <g id="Capa_1-2" data-name="Capa 1">
    <path class="cls-1" d="m13.66,9.78c.17,0,.39-.03.54.06.05.02.04.07.1.1.08.04.23.03.33.04v.11c.07,0,.17,0,.24.03.09.04.04.04.1.08.09.06.19.07.28.12,0,.02.01.04.02.06.03.02.06.04.1.04.04.02.08.05.12.07.08.05.19.12.27.18.22.18.43.4.6.62.04.05.06.1.1.14,0,.02,0,.04,0,.06.01.03.03.04.07.04.06.09.06.16.11.26.15-.06.13.16.14.27.04-.02.06-.03.11-.05.02.13.03.24.05.36.17-.12.16.3.18.39.16-.02.12.27.16.36.08.22.13.39.15.63.02.22.11.41.13.62.02.24,0,.5,0,.75,0,.22.04.5-.01.71-.05.21-.12.37-.13.6-.01.2-.11.34-.15.53-.04.18-.14.32-.16.49-.02.18-.08.22-.16.37-.06.13-.13.28-.21.4-.03.04-.07.03-.1.07-.04.06-.04.14-.09.21-.12.15-.26.3-.39.44-.59.59-1.27.95-1.99,1.31-.08.04-.15.05-.23.08-.08.03-.13.08-.21.11-.09.04-.17.03-.26.05-.1.02-.15.09-.24.13-.1.04-.23.02-.33.04-.11.02-.12.08-.21.12-.19.09-.51.05-.73.07.05.13-.46.11-.52.11-.27,0-.54,0-.82,0-.53,0-1.05,0-1.58,0-1.05,0-2.11,0-3.16,0s-2.11,0-3.16,0c-.51,0-1.02,0-1.53,0-.25,0-.51,0-.76,0-.28,0-.36.06-.36-.23-.02-4.16,0-8.33,0-12.49,0-2.09,0-4.17,0-6.26,0-.52,0-1.04,0-1.55C.01.32-.04.08.09.02c.08-.04.28,0,.37,0,.16,0,.32,0,.48,0,1.03,0,2.06,0,3.09,0,2.11,0,4.22,0,6.33,0,.47,0,1.01-.07,1.47.01.2.04.38.12.59.14.21.02.42.09.62.16.19.06.42.1.6.19.15.07.29.16.44.24.29.15.67.33.91.56.2.19.44.41.64.63.1.12.25.3.32.44.03.06.03.13.07.19.05.08.09.08.12.19.05.17.15.17.16.35,0,.09,0,.17.05.26.05.1.09.09.11.23.02.21.07.36.12.56.06.23.03.5.03.74,0,.24,0,.48,0,.72,0,.1,0,.21,0,.31,0,.15-.06.24-.1.38-.05.15,0,.37-.07.5-.04.08-.1.07-.13.17-.04.1-.02.2-.07.3-.19.34-.37.7-.63,1-.3.34-.67.61-1.04.88-.05.04-.09.1-.15.13-.05.02-.11.01-.15.04-.06.03-.09.1-.16.13-.08.04-.17.04-.24.11-.07.06-.19.06-.2.2Zm-.24,3.3c-.01-.05-.02-.09-.03-.14-.04-.14-.2-.26-.29-.37-.12-.15-.25-.25-.4-.37-.3-.24-.65-.38-1.01-.49-.12-.04-.22-.11-.35-.13-.22-.04-.48-.02-.7-.03-.44-.02-.88,0-1.33,0-1.66,0-3.32.03-4.98,0-.14,0-.39-.07-.47.07-.07.12,0,.47,0,.61,0,.4,0,.8,0,1.2,0,.83,0,1.66,0,2.49,0,.43,0,.85,0,1.28,0,.2-.11.65.1.73.16.06.46,0,.63,0,.22,0,.44,0,.65,0,.4,0,.8,0,1.2,0,.83,0,1.67,0,2.5,0,.44,0,.87,0,1.31,0,.38,0,.77.03,1.14-.02,0,0,0-.01,0-.02-.05,0-.09-.02-.14-.03,0,0,0-.02,0-.03.16-.02.37-.02.52-.07.08-.03.12-.08.19-.12.11-.05.23-.06.34-.13.11-.07.23-.14.33-.21.24-.16.37-.38.55-.58.08-.09.15-.13.19-.25.02-.04.02-.09.04-.13.02-.03.07-.03.09-.05.06-.1,0-.25.07-.34.06-.09.09-.04.12-.16.03-.13,0-.29.02-.43.01-.11.06-.17.09-.28.05-.15.04-.35.05-.51,0-.15-.04-.21-.09-.34-.1-.24-.06-.58-.09-.84-.04.04-.06.06-.1.11-.03-.17-.05-.31-.07-.47-.03.01-.05.02-.09.04Zm-6.14-4.35c1.06-.03,2.27.06,3.47-.08.41-.05.79-.33,1.11-.56.28-.21.49-.46.66-.78.2-.36.27-.75.27-1.16,0-.24-.01-.48-.03-.72-.01-.22,0-.48-.05-.69-.19-.66-.69-1.15-1.32-1.4-.29-.11-.6-.24-.92-.25-.38-.01-.76-.02-1.14-.03-1.75,0-3.5-.02-5.25.01-.17,0-.26-.03-.31.12-.04.16-.03.41-.04.58-.02.42,0,.84.01,1.26,0,.84,0,1.67.01,2.51,0,.25,0,.51.01.76,0,.12-.05.37.07.43.09.05.35-.02.46-.02.17,0,.34,0,.51,0,.82,0,1.65,0,2.47,0Z"/>
  </g>
</svg>