<?xml version="1.0" encoding="UTF-8"?>
<svg id="Capa_2" data-name="Capa 2" xmlns="http://www.w3.org/2000/svg" viewBox="0 0 24.98 14.83">
  <defs>
    <style>
      .cls-1 {
        fill: #fff;
      }
    </style>
  </defs>
  <g id="Capa_1-2" data-name="Capa 1">
    <g>
      <path class="cls-1" d="m1.37,14.47c2.91-2.15,5.81-4.31,8.76-6.49,1.05.84,2.18,1.54,3.54.87.36-.18.83-.83,1.2-.78.49.06,1.43,1.02,1.82,1.31,2.31,1.71,4.82,3.29,6.96,5.21-.84.25-1.83.14-2.7.15-.92,0-1.84,0-2.76,0-1.91,0-3.81,0-5.72,0s-3.81,0-5.72,0c-1.7,0-3.66.26-5.32-.11-.01-.05-.03-.11-.04-.16Z"/>
      <path class="cls-1" d="m1.89.15c3.53-.27,7.15-.06,10.69-.06,3.5,0,7.1-.25,10.59.06-.65.73-1.57,1.28-2.36,1.87-.98.74-1.97,1.47-2.95,2.2-.93.69-1.86,1.37-2.8,2.05-.64.46-1.79,1.65-2.63,1.6-.42-.03-.66-.38-.97-.62-.35-.26-.74-.47-1.1-.73-.96-.69-1.92-1.39-2.88-2.09C5.61,3.08,3.8,1.56,1.86.31c.01-.05.02-.11.03-.16Z"/>
      <path class="cls-1" d="m8.97,7.26c-2.39,1.81-4.81,3.58-7.23,5.35-.28.21-1.03.98-1.4.81-.46-.22-.3-1.33-.3-1.71,0-1.52,0-3.05,0-4.57,0-1.42-.08-2.86,0-4.28.02-.31.08-1.49.4-1.69.36-.23,1.03.49,1.36.73,2.27,1.64,4.57,3.26,6.8,4.96.13.1.22.24.37.41Z"/>
      <path class="cls-1" d="m24.4.97c.57,1.04.52,1.99.53,3.14,0,1.13,0,2.27,0,3.4,0,2,.22,4.14-.29,6.08-2.94-2.15-5.78-4.23-8.7-6.36,2.8-2.13,5.58-4.2,8.46-6.26Z"/>
    </g>
  </g>
</svg>