<?xml version="1.0" encoding="UTF-8"?>
<svg id="Capa_2" data-name="Capa 2" xmlns="http://www.w3.org/2000/svg" viewBox="0 0 21.72 24.89">
  <defs>
    <style>
      .cls-1 {
        fill: #fff;
      }
    </style>
  </defs>
  <g id="Capa_1-2" data-name="Capa 1">
    <g>
      <path class="cls-1" d="m21.71,12.4c0,1.81,0,3.62,0,5.43,0,.65-.21,1.11-.8,1.45-2.61,1.49-5.2,3.01-7.79,4.53-.51.3-1.02.6-1.53.89-.48.27-.97.29-1.45,0-3.04-1.76-6.08-3.52-9.12-5.28-.07-.04-.14-.09-.22-.12C.21,19.03,0,18.55,0,17.96c0-2.62,0-5.25,0-7.87,0-.98,0-1.97,0-2.95,0-.69.24-1.18.86-1.53,2.51-1.43,5.01-2.9,7.51-4.36.6-.35,1.2-.7,1.8-1.04.47-.27.95-.27,1.43,0,3.17,1.83,6.34,3.66,9.52,5.47.46.27.6.64.6,1.13,0,1.86,0,3.73,0,5.59Zm-3.93-3.87c-1.49-2.72-4.84-4.73-8.71-3.85-2.25.52-4.19,2.03-5.26,4.08-1.91,3.67-.61,8.33,2.92,10.48,3.73,2.28,8.9,1.02,11.02-2.86-.86-.51-1.72-1.01-2.59-1.52-2.4,4-8.75,2.79-9.18-1.98-.21-2.29,1.26-4.54,3.49-5.18,2.26-.65,4.47.38,5.7,2.32.87-.5,1.73-1,2.6-1.5Zm1.35,5.36c-.07.39-.15.78-.22,1.19.66,0,.97.14,1.11-.58.16-.77.36-.63,1.11-.63v-1.04h-.79c.06-.27.11-.52.16-.77.22-.01.42-.02.63-.03v-.99c-.15-.01-.28-.02-.41-.03.07-.4.14-.78.22-1.2-.26,0-.8-.11-.99.1-.17.2-.18.85-.23,1.1h-.74c.07-.4.15-.78.22-1.2-.64,0-.98-.14-1.12.56-.04.21,0,.52-.22.64-.2.11-.74.01-.96.01v1.03h.86c-.06.28-.11.53-.17.81h-.69v1c.17.01.32.02.47.03-.08.4-.15.78-.23,1.2.26,0,.8.11.99-.11.17-.2.19-.85.24-1.1.24,0,.49-.02.73.02Z"/>
      <path class="cls-1" d="m19.51,12.07c-.06.26-.11.5-.16.75h-.71c0-.07,0-.12.01-.18.1-.65.14-.68.86-.58Z"/>
    </g>
  </g>
</svg>