<?xml version="1.0" encoding="UTF-8"?>
<svg id="Capa_2" data-name="Capa 2" xmlns="http://www.w3.org/2000/svg" viewBox="0 0 24.1 33.8">
  <defs>
    <style>
      .cls-1 {
        fill: #fefeff;
      }

      .cls-2 {
        fill: #e5f1f9;
      }
    </style>
  </defs>
  <g id="Capa_1-2" data-name="Capa 1">
    <g>
      <path class="cls-1" d="m12.62,33.69c-.13.02-.38-.21-.24-.32.19-.15.3.19.27.31-.01,0-.02,0-.03,0Z"/>
      <path class="cls-1" d="m13.16,33.55c-.31-.09.19-.56.03,0,0,0-.02.01-.03,0Z"/>
      <g>
        <path class="cls-2" d="m24.03,6.7s-.05,0-.07,0c-.02,0-.05,0-.07,0-3.92.03-7.84,0-11.76,0-3.93,0-7.89.12-11.82,0-.1,0-.2,0-.3,0,0,.09,0,.18,0,.27.04.45.17.89.14,1.35,0,.01.03.03.03.04,0,.42.04.83.07,1.24.07.13.03.28.05.42.04.26.06.52.09.78.05.15.03.29.03.44,0,.11,0,.22,0,.33.07.16.01.34.07.51.06.31.09.62.1.93,0,.17.06.34.03.51.05.27.09.54.06.81.04.27.08.55.11.82.04.4.07.8.11,1.2,0,.04,0,.09-.01.13.13.18.06.68.09.9.03.28.09.55.12.83.03.3.02.6.04.9.02.25-.02.65.1.88,0,.11-.01.21,0,.32.05.32.1.64.13.96.02.37.04.74.07,1.11.02.13.04.25.06.38v.26s0,.06,0,.08c.06.37.12.75.14,1.13,0,.23.02.46.03.68,0,.08,0,.15.04.23h0c-.03.14.03.27.03.4.01.07.02.13.03.2-.01.28.08.56.07.84.01.09.02.18.04.27-.03.09.04.18.03.27-.03.55.09,1.06.14,1.6.05.53.06,1.06.11,1.59.02.21,0,.54.09.73.09.21.21.18.42.23.51.11,1.02.28,1.53.42,2.15.59,4.33,1.11,6.46,1.76.29.11.6.17.9.25.45.11.64.1,1.08-.04-.13.02-.38-.21-.24-.32.19-.15.3.19.27.31.18-.01.35-.06.51-.13-.31-.09.19-.56.03,0,.1-.02.2-.04.3-.06.07-.04.16-.05.24-.06.1-.03.21-.07.31-.1-.03,0-.04-.01-.06-.02.01.01.03.02.06.02.03,0,.08.01.1-.03.08-.01.15-.03.23-.04.06-.02.12-.04.17-.06,0,0,0,0,0,0,.02,0,.04,0,.07,0,.1-.03.21-.05.3-.11.08,0,.16-.04.24-.07.14-.02.28-.03.41-.1-.02,0-.04,0-.06-.02-.04-.02-.07-.05-.09-.08.02.03.06.06.09.08.02,0,.04.02.06.02.05,0,.09-.01.13-.04.14-.04.27-.09.41-.13h.07c.09.02.17-.05.26-.04.04-.04.09-.03.14-.04,0,0,0-.02,0-.03.06,0,.11-.01.17-.04l.14-.05h0c.1-.02.2-.03.29-.08.04,0,.08,0,.12,0,.07-.03.14-.05.21-.06.01-.01.02-.02.04-.04.05,0,.09,0,.13-.03.06-.01.13-.03.19-.04.05-.02.1-.04.15-.06-.05,0-.08-.02-.1-.04.02.02.05.04.1.04.04,0,.09,0,.13,0,0,0,0-.02,0-.03.13,0,.25-.05.37-.09h0c.1-.03.2-.06.3-.08.09.01.16-.03.24-.06,0-.03-.01-.06-.03-.07.02.02.03.04.03.07.05,0,.1,0,.13-.03.11-.01.21-.05.3-.1-.01-.06-.02-.12-.04-.17.01.06.02.12.04.17.05,0,.09-.01.13-.04.14-.02.27-.04.41-.09,0-.05,0-.09,0-.12,0,.03,0,.08,0,.12.05,0,.1,0,.13-.04.11-.01.21-.06.31-.1-.05-.02-.08-.05-.09-.07.01.03.04.05.09.07.05,0,.09,0,.13-.04.15-.02.31-.03.45-.1-.01,0-.02,0-.03,0,0,0,.02,0,.03,0,.12-.01.22-.06.32-.11.02,0,.04,0,.06,0,.05-.04.11-.06.17-.06.07-.02.13-.03.2-.05.06-.06.02-.15.07-.2,0-.18.02-.36.07-.53.01-.31.03-.63.04-.94.05-.62.13-1.24.2-1.85,0-.36.05-.72.07-1.08.03-.3.07-.61.1-.91-.02-.09.05-.18.03-.27.02-.2.04-.4.06-.61-.02-.39.02-.79.07-1.18-.02-.1.06-.2.02-.31.06-.12.04-.25.08-.37,0-.1.01-.2.02-.3,0-.1,0-.2.01-.3.06-.18.02-.36.02-.54.07-.34.03-.69.11-1.04.04-.2.04-.41.1-.61-.02-.16.02-.31.03-.47,0-.1,0-.2,0-.3.06-.07.02-.16.04-.24-.01-.27.04-.54.05-.81,0-.35.12-.69.12-1.04.05-.19.07-.38.06-.57,0-.11,0-.22,0-.34,0-.01,0-.02,0-.03.08-.18.02-.37.06-.55.06-.34.08-.69.12-1.03,0-.02,0-.04-.01-.07,0-.02,0-.04,0-.06-.06-.2-.12-.26-.17-.26.05,0,.12.06.17.26.03-.01.03-.05.04-.07.02-.33.04-.65.06-.98,0-.03,0-.07.01-.1,0-.06,0-.11,0-.17.03-.2.07-.4.09-.6.04-.37.08-.75.11-1.12-.03-.29.03-.58.03-.87.04-.3.09-.61.13-.91,0-.28.06-.56.07-.84,0-.06,0-.11-.01-.17,0-.01,0-.02,0-.04.02-.19.03-.38.05-.57.01-.12.02-.25.03-.37-.03-.07.05-.13.02-.2,0,0,0-.02,0-.03.05-.17.06-.34.07-.51-.02-.04.02-.06.02-.09-.02-.11.08-.24-.06-.32Zm-5.28,18.37s0,0,0,0c-.01-.18-.18-.17-.18,0,0-.18.17-.19.18,0Zm.74-12.87c-.03.25-.07.49-.1.74-.07.31-.04.66-.06.98-.02.23.08.49-.09.68-.16.18-.48.25-.69.34-.3.12-.6.27-.91.36-.03.01-.06.03-.1.04-.18.11-.38.18-.57.24-.11.09-.23.14-.37.16-.05.04-.11.06-.17.07-.04.02-.09.05-.13.07-.16.13-.37.13-.54.24h0c-.08.04-.16.08-.24.11-.05.02-.11.03-.16.05-.05.03-.09.05-.14.08-.02,0-.04,0-.05,0-.05.03-.1.06-.15.09-.16.05-.32.11-.47.19,0,.02,0,.05,0,.07,0-.02,0-.04,0-.07-.06.02-.11.05-.17.07-.08.02-.16.04-.23.08h0c-.15.07-.29.13-.44.2-.28.12-.56.24-.85.36.12.1.25.21.37.31.03,0,.07,0,.1,0,.08-.09.19-.13.3-.13-.11,0-.22.04-.3.13.2,0,.4,0,.6,0,1.17,0,2.35,0,3.52,0,.49,0,.97,0,1.46,0,.11,0,.11.08.1.15-.02.3-.04.59-.06.89-.01.07-.03.13-.04.2,0,.01,0,.02.01.03-.07.19-.03.38-.05.57h0c-.06.16,0,.32-.02.47-.07.2,0,.41-.08.61-.01.21-.02.42-.06.63-.01.05,0,.1.02.14-.03.08-.09.15-.05.24-.01.12-.02.25-.04.37-.02.08.03.17-.04.24,0,.31.01.63-.04.94.02.17,0,.34-.03.5,0,.25-.06.5-.09.74,0,.01,0,.02-.01.03,0,.04,0,.09,0,.13-.04.26-.05.53-.06.79,0,.1.03.2-.03.29.01.25-.01.49-.02.74-.03.27,0,.43-.19.58-.16.12-.59.21-.79.23-.08.02-.16.05-.24.07-.12-.03-.19.09-.3.1-.09.02-.18.04-.27.06-.17.05-.33.12-.5.14-.12.06-.25.07-.38.09-.16.05-.32.09-.47.17.04.05.05.09.05.13,0-.04-.01-.08-.05-.13-.1,0-.19.06-.29.04,0,0,0,.02,0,.02-.08.01-.16.02-.23.04-.08.03-.16.07-.24.1h0s-.09.03-.13.05c-.12.02-.24.04-.36.06-.08.04-.16.06-.24.06-.08.05-.18.08-.27.1-.18.09-.38.11-.57.17-.01,0-.02,0-.03,0-.19.05-.39.11-.58.16,0,0,0,0,0,0-.1-.03-.2.07-.3,0-.48-.15-.97-.26-1.44-.42-.08-.03-.16-.07-.24-.05-.22-.07-.44-.16-.67-.2-.07-.05-.15-.06-.24-.08-.27-.04-.51-.17-.77-.24-.25-.02-.47-.15-.71-.19-.04-.03-.09-.04-.13-.03-.54-.18-1.08-.33-1.63-.47-.21-.06-.18-.22-.19-.37,0-.09.02-.18-.03-.27-.08-.68-.1-1.35-.15-2.03-.02-.36-.05-.71-.1-1.07-.03-.2-.16-.56-.11-.77.09-.35.9-.18,1.18-.18.22,0,1.8-.12,1.84.07v.03c0,.06.02.11.02.17.05.54.11,1.07.11,1.62.08.13-.03.31.05.43.1.16.41.14.57.18.46.1.93.24,1.37.4.12.02.25.05.37.07.48.21.99.36,1.51.22.51-.13,1.01-.32,1.51-.47.03-.03.07-.03.1-.03.21-.07.41-.16.63-.2.1-.04.21-.08.31-.09.39-.15.36-.32.38-.72.02-.53.05-1.12.16-1.64.02-.47,0-.95.06-1.42.03-.23.03-.23-.21-.23-3.31,0-6.62,0-9.92,0q-.3,0-.3-.3c0-.08,0-.16,0-.24-.04-.05-.04-.1-.04-.16.04-.68-.1-1.34-.12-2.02,0-.22.07-.28.22-.35.12-.05.24-.09.36-.14.23-.12.46-.24.72-.3.08-.06.18-.11.28-.15.43-.17.85-.35,1.27-.52.04-.01.09-.03.13-.04.06-.03.11-.07.17-.1.04.02.07-.01.1-.02.01-.01.03-.03.04-.04.05-.02.11-.05.16-.07,0-.02.02-.03.04-.02.19-.08.37-.18.57-.23.07-.02.15-.04.2-.09.13-.1.29-.12.44-.18.01-.02.01-.05.01-.08,0,.03,0,.06-.01.08.08,0,.15-.04.21-.09.03-.02.06-.05.1-.07.08,0,.14-.02.2-.06.17-.04.32-.13.47-.21h0c.07,0,.12-.02.17-.06.03-.01.07-.03.1-.04.07-.02.14-.05.2-.1.02-.01.04-.03.07-.04,0-.04,0-.08.02-.11-.01.03-.02.07-.02.11.07,0,.12-.03.17-.06.06-.02.11-.05.17-.07h0c.09-.03.54-.13.58-.21.08-.14-.45-.1-.52-.1-.03,0-.07,0-.1.01h-.34c-.41-.01-.83-.01-1.24-.01-.53,0-1.05,0-1.58.01,0,0,0,.01,0,.02,0,0,0-.01,0-.02-.38-.03-.76.01-1.14.02-.4,0-.81,0-1.21,0-.41.03-.83-.03-1.24.04,0,.08.03.13.08.16-.05-.03-.08-.08-.08-.16-.13-.07-.03-.22-.1-.31-.02-.19-.04-.38-.07-.57,0-.11-.04-.2-.06-.31-.01-.07-.03-.13-.04-.2,0-.07-.01-.13-.02-.2-.05-.12,0-.25-.03-.37.03-.07-.05-.13-.02-.2-.02-.14-.06-.27-.07-.41,0-.05-.04-.08-.04-.13.04-.1-.01-.18-.03-.27.08-.13.2-.04.31-.06.18,0,.36,0,.54,0h2.19c.35,0,.69,0,1.04-.01.01,0,.02,0,.04.01.93,0,1.86,0,2.79,0,.15,0,.29,0,.44,0,.01,0,.02,0,.03.01.35,0,.7,0,1.04-.01,0,0,0-.02,0-.03,1.59,0,3.17,0,4.76,0-1.59,0-3.17,0-4.76,0,0,0,0,.02,0,.03.18,0,.36,0,.54,0,.17,0,.33,0,.5,0,.95,0,1.91,0,2.86,0,.85,0,1.71,0,2.56,0q.28.01.26.31c0,.09,0,.18-.03.27Zm-5.35,4.75s.01-.08.01-.11c0,.04,0,.07-.01.11Zm-1.85,11.71s-.04-.02-.07-.02c.02,0,.05.01.07.02Zm5.98-17.31c.05,0,.11.02.16.03-.06,0-.11-.02-.16-.03Zm.25.04c.06,0,.12.02.17.03-.06,0-.11-.02-.17-.03Zm.25.04c.16.03.28.08.29.16.03,0,.05,0,.08,0-.03,0-.05,0-.08,0,0-.08-.13-.12-.29-.16Zm-9.47,4.24s0,0,0,0c.1-.02.14-.09.2-.15-.06.06-.1.13-.2.15Zm-.16.2c-.03-.14-.03-.18.05-.19-.08.01-.07.05-.05.19Zm-.65-1.23s.06.03.1.05c-.04-.01-.07-.03-.1-.05Zm-3.5.2s.06.01.1,0c-.04,0-.07,0-.1,0Zm-3.13,10.35s-.06-.02-.1-.02c.04,0,.08,0,.1.02Zm14.46,7.25c.08.01.22-.12.06-.13.05,0,.21-.11.25-.1-.04,0-.19.1-.19.1.12,0-.03.14-.11.13Zm.53.03s.02.03.03.05c-.01-.02-.02-.04-.03-.05Zm1.07-.34s0,.04,0,.06c0-.02-.01-.04,0-.06Zm2.48-.67s0,0,0,0c0,0,0,0,0,0Z"/>
        <path class="cls-2" d="m15.49,1.62c.3.34.65.63.97.96.04.04.07.07.1.11.06.04.12.09.16.15.03.01.06.03.07.06.07.05.14.12.12.2-.01.07-.1.02-.15.03h0c-.05-.04-.12-.03-.18-.03-.31,0-.62,0-.94,0-.04,0-.09,0-.13,0,0,.01-.02.03-.03.04,0,.4,0,.81,0,1.21,0,.17.05.22.21.21.09,0,.18,0,.27-.01.93,0,1.86,0,2.79,0q.47.02.47-.45c0-.32,0-.64,0-.96-.07-.1-.16-.19-.24-.27-.29-.29-.58-.58-.87-.87-.11-.11-.26-.18-.32-.34.06-.14,1.23-.05,1.38,0,.08-.03.06-.11.06-.17,0-.45,0-.89,0-1.34.01-.18-2.32-.1-2.6-.1-.24,0-1.01-.13-1.14.09-.08.13,0,.59,0,.75,0,.25,0,.5.01.75Z"/>
        <path class="cls-2" d="m11.11,3.13h0s-.04-.03-.07-.03c-.22,0-.45,0-.67.01-.04,0-.09,0-.13,0,0,0,0,.02,0,.03,0,0-.02,0-.03,0,0,.4,0,.81-.01,1.21.02.06-.03.14.05.2,0-.04,0-.09,0-.13h0s0,.09,0,.13c.26,0,.52,0,.78,0,.06,0,.14,0,.21,0,.12,0,.24,0,.37,0,.73,0,1.46,0,2.18,0,.08,0,.16,0,.16-.12,0-.44-.01-.88-.02-1.33-.21-.2-.41-.41-.62-.61-.29-.24-.53-.53-.8-.78-.01-.01-.03-.03,0-.06.12-.08.25-.01.37-.04,0-.02,0-.04,0-.06,0,.02,0,.04,0,.06.19,0,.38,0,.57,0h0c.1,0,.2,0,.3.01.07,0,.16.07.21-.04,0-.16,0-.31-.01-.47,0-.33,0-.65,0-.98,0,.02-.02.05-.03.07-.1,0-.17.01-.23.03.05-.02.12-.03.23-.03,0-.02.02-.05.03-.07h.01c-.14-.18-.34-.08-.51-.09h-2.82s-.07,0-.1,0c-.09,0-.19-.03-.28.02h0s-.02,0-.03,0c0,.52,0,1.03,0,1.55,0,0,.02,0,.03,0,0-.26,0-.52,0-.78,0,0,0,0,0,0,0,.26,0,.52,0,.78.09.16.23.26.36.38.22.22.44.44.66.66.05.03.1.08.13.13.1.09.21.16.26.32-.19-.05-.35.04-.52.02ZM13.61.28s-.03.04-.04.06c0-.02.02-.04.04-.06Zm-.7,2.48c-.06-.05-.17-.08-.22-.05.06-.03.16,0,.22.05Zm-.16.09s-.04-.03-.06-.04c.02.02.03.03.06.04Zm-2.46,1.57s.05-.01.05-.03c0,.02-.02.03-.05.03Zm-.02-3.57c.07,0,.08-.08.08-.19,0,.11-.02.2-.08.19Z"/>
        <path class="cls-2" d="m4.88.27c0,.8,0,1.6,0,2.4,0,.62,0,1.24,0,1.86.1.02.2.01.3,0,.02,0,.05,0,.07,0,.96,0,1.93,0,2.89,0,.37,0,.47.07.47-.31,0-.36,0-.73,0-1.09-.65,0-1.3,0-1.96,0,.65,0,1.3,0,1.96,0-.04-.07-.11-.03-.16-.05-.57,0-1.14,0-1.72,0-.09,0-.17,0-.26,0,0-.45,0-.9,0-1.35,0-.04,0-.09.06-.09.18-.13.77-.03,1-.03.24,0,.82-.11,1,.03.03,0,.06,0,.09,0,0-.48,0-.97,0-1.45,0-.14-.05-.16-.17-.16-.76,0-1.52,0-2.29,0-.41,0-.83,0-1.24,0,0,.71,0,1.42,0,2.12,0-.71,0-1.42,0-2.12-.02,0-.04,0-.06,0,.05.07.03.15.03.23Z"/>
        <path class="cls-2" d="m12.69,17.39c-.07.03-.14.06-.2.09-.13.03-.25.06-.36.15.09.09.19.05.29.05.04,0,.07-.02.11-.03.23,0,.47,0,.7,0-.12-.1-.25-.21-.37-.31-.06.01-.1.06-.16.05Z"/>
      </g>
    </g>
  </g>
</svg>