<?xml version="1.0" encoding="UTF-8"?>
<svg id="Capa_2" data-name="Capa 2" xmlns="http://www.w3.org/2000/svg" viewBox="0 0 26.24 27.4">
  <defs>
    <style>
      .cls-1 {
        fill: #fff;
      }
    </style>
  </defs>
  <g id="Capa_1-2" data-name="Capa 1">
    <g>
      <path class="cls-1" d="m21.17,16.49c-1.48-2.49-2.91-5.05-4.02-7.73-.51-1.22-1.23-2.68-1.13-4.02.08-1.17.64-2.37,1.46-3.21,1.73-1.77,4.53-2.03,6.56-.63.95.66,1.69,1.64,2.01,2.76.39,1.37.1,2.53-.39,3.83-1.15,3.05-2.75,5.88-4.37,8.69-.05.08-.07.17-.13.31Zm2.83-11.29c.08-1.51-1.18-2.9-2.78-2.92-2.5-.04-3.85,2.99-2.15,4.83,1.69,1.82,4.99.67,4.94-1.9Z"/>
      <path class="cls-1" d="m5.11,26.39c-1.44-2.54-2.88-5.1-4.02-7.79C.58,17.39-.04,16.07,0,14.72c.04-1.25.67-2.46,1.55-3.33,1.73-1.71,4.49-1.91,6.48-.55.9.61,1.57,1.48,1.93,2.5.19.54.31,1.13.31,1.7,0,.76-.32,1.47-.57,2.18-1.1,3.11-2.75,6.01-4.38,8.87-.06.1-.13.19-.21.29Zm-2.81-11.29c-.11,1.44,1.14,2.91,2.85,2.87,2.47-.05,3.8-3.04,2.08-4.87-1.7-1.81-5.1-.59-4.93,1.99Z"/>
      <path class="cls-1" d="m9.92,27.39c-.38,0-.89.05-.85-.49.04-.54.62-.4.99-.4.35,0,1.04.02.81.61-.15.37-.63.28-.95.28h0Z"/>
      <path class="cls-1" d="m13.53,26.24c.01.52-1.14,1.61-1.46.82-.15-.36.17-.44.37-.63.23-.21.38-.76.78-.62.2.07.3.2.3.43Z"/>
      <path class="cls-1" d="m15.87,16.55c.31,0,1.01,0,.91.51-.09.45-.85.32-1.16.32-.34,0-.76.02-.72-.45.04-.47.61-.38.97-.4h0Z"/>
      <path class="cls-1" d="m12.75,17.93c-.04-.38.15-1,.59-1.07.52-.09.51.39.36.72-.14.31-.08.86-.4,1-.4.17-.55-.16-.55-.48,0-.04,0-.09,0-.16Z"/>
      <path class="cls-1" d="m12.76,20.69c0-.34-.12-.86.34-.91.49-.05.42.48.42.82,0,.34.13.95-.32,1.01-.55.07-.45-.57-.45-.92,0,0,.01,0,.02,0Z"/>
      <path class="cls-1" d="m12.76,23.66c0-.37-.13-.8.32-.86.52-.07.43.4.43.78,0,.4.15,1-.41.99-.5,0-.36-.55-.36-.91,0,0,0,0,0,0Z"/>
      <path class="cls-1" d="m7.28,27.39c-.25,0-.55,0-.66-.28-.08-.2.01-.46.19-.57.44-.28,1.34.04,1.01.66-.13.25-.37.16-.54.19Z"/>
      <path class="cls-1" d="m18.54,17.38c-.29,0-.64-.01-.64-.39,0-.38.32-.4.62-.4.34,0,.66,0,.66.39,0,.41-.32.39-.64.41,0,0,0,0,0-.01Z"/>
    </g>
  </g>
</svg>