<?xml version="1.0" encoding="UTF-8"?>
<svg id="Capa_2" data-name="Capa 2" xmlns="http://www.w3.org/2000/svg" viewBox="0 0 40.03 33.75">
  <defs>
    <style>
      .cls-1 {
        fill: #fff;
      }
    </style>
  </defs>
  <g id="Capa_1-2" data-name="Capa 1">
    <g>
      <path class="cls-1" d="m23.04,22.83s-.03-.1-.05-.15c-.15,0-.31,0-.46,0-1.78,0-3.56-.02-5.35-.02-.44,0-.6-.13-.6-.62.03-2.48.03-4.95,0-7.43,0-.47.11-.61.59-.6,3.24.02,6.49,0,9.73,0,2.14,0,4.28,0,6.41-.01.33,0,.56.03.61.46.64,4.92-.62,9.33-3.64,13.22-2.05,2.63-4.66,4.52-7.86,5.56-.26.08-.5.21-.75.31.02.06.03.13.05.19,2.03-.03,4.06-.03,6.05-.55,4.05-1.08,7.26-3.39,9.52-6.88,3.8-5.87,3.97-14.56-1.52-20.75-1.84-2.07-4.06-3.61-6.73-4.54-1.87-.64-7.12-1.35-8.07-.85.05.03.09.06.14.07,2.06.56,3.99,1.39,5.76,2.6.63.43.65.45.13.97-1.72,1.73-3.45,3.45-5.18,5.18-.59.59-.58.56-1.31.21-2.29-1.11-4.62-1.18-6.97-.17-2.92,1.27-5.92,4.67-5.17,9.21.33,2.01,1.05,3.92,2.67,5.15,2.81,2.14,5.98,2.75,9.35,1.26,1-.44,1.88-1.06,2.65-1.84ZM0,12.44c.06,0,.13.02.19.03C2.24,6.17,6.27,1.88,12.78.11,12.55.04,12.34,0,12.13,0c-.78,0-1.57.01-2.35.01C6.72.03,3.66.05.59.06.24.06.06.11.06.55c0,3.58-.03,7.16-.05,10.73,0,.38,0,.77,0,1.15Zm5.11,21.21c-1.73-1.71-3.28-3.39-5-5,0,1.53,0,2.91,0,4.3,0,.68.06.73.72.74,1.19.01,2.38.02,3.57.03.19,0,.37-.03.71-.07Z"/>
      <path class="cls-1" d="m23.04,22.83c-.76.78-1.65,1.4-2.65,1.84-3.37,1.49-6.54.88-9.35-1.26-1.61-1.23-2.34-3.14-2.67-5.15-.75-4.54,2.25-7.95,5.17-9.21,2.35-1.02,4.67-.94,6.97.17.73.35.72.38,1.31-.21,1.73-1.72,3.45-3.45,5.18-5.18.52-.52.5-.54-.13-.97-1.77-1.21-3.7-2.04-5.76-2.6-.05-.01-.09-.05-.14-.07.95-.5,6.21.2,8.07.85,2.67.92,4.9,2.47,6.73,4.54,5.49,6.19,5.31,14.88,1.52,20.75-2.26,3.5-5.47,5.81-9.52,6.88-1.99.53-4.02.53-6.05.55-.02-.06-.03-.13-.05-.19.25-.11.49-.23.75-.31,3.2-1.04,5.82-2.93,7.86-5.56,3.03-3.89,4.29-8.3,3.64-13.22-.06-.43-.28-.46-.61-.46-2.14,0-4.28,0-6.41.01-3.24,0-6.49.02-9.73,0-.48,0-.59.13-.59.6.03,2.48.03,4.95,0,7.43,0,.49.16.62.6.62,1.78,0,3.56.01,5.35.02.15,0,.31,0,.46,0,.02.05.03.1.05.15Z"/>
      <path class="cls-1" d="m0,12.44c0-.38,0-.77,0-1.15C.02,7.71.05,4.13.06.55c0-.44.18-.49.54-.49,3.06,0,6.13-.03,9.19-.04C10.57.01,11.35,0,12.13,0c.21,0,.41.04.64.11C6.27,1.88,2.24,6.17.19,12.47c-.06,0-.13-.02-.19-.03Z"/>
      <path class="cls-1" d="m5.12,33.65c-.34.03-.52.07-.71.07-1.19,0-2.38-.02-3.57-.03-.66,0-.72-.06-.72-.74,0-1.38,0-2.77,0-4.3,1.72,1.6,3.27,3.29,5,5Z"/>
    </g>
  </g>
</svg>