<?xml version="1.0" encoding="UTF-8"?>
<svg id="Capa_2" data-name="Capa 2" xmlns="http://www.w3.org/2000/svg" viewBox="0 0 20.92 20.56">
  <defs>
    <style>
      .cls-1 {
        fill: #fcfcfc;
      }
    </style>
  </defs>
  <g id="Capa_1-2" data-name="Capa 1">
    <g>
      <path class="cls-1" d="m19.71,20.56H1.12c.1-.02.19-.04.29-.07-.47-.06-.76-.5-1.06-.82,0,0,.02-.02.03-.03.02.02.05.03.05.03-.16-.3-.34-.59-.39-.93-.06-.37-.02-.77-.02-1.15,0-.8,0-1.59,0-2.39,0-2.83,0-5.66,0-8.5,0-.71,0-1.42,0-2.12,0-.64.04-1.22.38-1.78.28-.46.68-.81,1.18-1,.55-.21,1.1-.14,1.67-.2,0-.27,0-.53,0-.8,0-.15-.09-.66.02-.76.12-.11.67-.02.83-.01.23,0,.49-.03.72.02v1.55h11.29V.04c.52-.02,1.06-.02,1.57,0v1.56c.77.06,1.46,0,2.14.45.55.36.92.97,1.04,1.61.13.71.05,1.48.05,2.19,0,.78,0,1.56,0,2.34,0,1.54,0,3.08,0,4.61,0,1.54,0,3.08,0,4.61,0,1.05-.07,2.82-1.43,3.06.1.03.17.05.25.08ZM1.59,8c0,.09,0,.18,0,.27,0,3.19,0,6.38,0,9.57,0,.21,0,.43,0,.64.01.31.15.54.43.68.17.08.35.1.53.1,5.12,0,10.23,0,15.35,0,.2,0,.4.02.59,0,.33-.03.62-.15.74-.49.05-.14.07-.29.07-.43,0-1.12,0-2.24,0-3.36,0-2.28,0-4.55,0-6.83,0-.12-.04-.15-.15-.14-.12.01-.25,0-.37,0-2.92,0-5.83,0-8.75,0-2.57,0-5.13,0-7.7,0-.25,0-.49,0-.76,0Zm17.73-1.55c0-.08,0-.15,0-.22,0-.43,0-.86,0-1.29,0-.34.05-.73-.02-1.06-.06-.29-.26-.56-.56-.65-.3-.08-.8-.08-1.1,0,.03.28.02.55.03.83,0,.13.08.64-.02.72-.1.09-.55.02-.7.02-.27,0-.58.03-.84-.02v-1.56c-.96-.07-1.95-.02-2.92-.02-.93,0-1.87,0-2.8,0-.95,0-1.91,0-2.86,0-.91,0-1.83-.05-2.73.02v1.57c-.2.06-.49.01-.69.01-.22,0-.43,0-.65,0-.29,0-.22-.1-.21-.38,0-.23,0-.46,0-.69,0-.17.06-.43-.08-.53-.1-.07-.53,0-.65,0-.33.01-.64.1-.81.41-.17.32-.1.76-.1,1.1,0,.41,0,.82,0,1.24,0,.12-.06.45.05.51.09.05.5-.02.6-.02.41,0,.83,0,1.24,0,1.79,0,3.58,0,5.36,0,1.75,0,3.5,0,5.24,0,1.74,0,3.5-.06,5.24.02Z"/>
      <path class="cls-1" d="m14.33,12.71c-.26.01-.51.07-.76.1-.31.04-.65,0-.96,0-.69,0-1.37,0-2.06,0-.69,0-1.37,0-2.06,0-.65,0-1.32.05-1.97-.03,1.32-1.31,2.62-2.6,3.94-3.91,1.3,1.29,2.58,2.56,3.88,3.85Z"/>
      <path class="cls-1" d="m14.38,14.45c-1.3,1.31-2.6,2.62-3.91,3.94-1.32-1.32-2.63-2.62-3.96-3.94h7.88Z"/>
    </g>
  </g>
</svg>