<?xml version="1.0" encoding="UTF-8"?>
<svg id="Capa_2" data-name="Capa 2" xmlns="http://www.w3.org/2000/svg" viewBox="0 0 45.41 37.78">
  <defs>
    <style>
      .cls-1 {
        fill: #fff;
      }
    </style>
  </defs>
  <g id="Capa_1-2" data-name="Capa 1">
    <g>
      <path class="cls-1" d="m30.62,21.41c.14-.05.26-.13.32-.27.05-.02.09-.05.12-.09.07.03.13-.01.19-.05.76-.54,1.58-.97,2.47-1.26.17-.06.36-.09.51-.2.27-.07.54-.14.81-.19.27-.05.54-.07.81-.11.08,0,.16,0,.23-.07h0c.05-.06.03-.13.03-.19,0-1.44,0-2.89,0-4.33,0-.07.02-.14-.03-.19,0,0,0,.02,0,.02,0,0,0,0,0,0-.04-.02-.08-.01-.13-.01-2.46,0-4.93,0-7.39,0-.05,0-.1-.02-.14.02h0c-.03.07-.03.14,0,.21-.01,0-.02.02-.03.03-.04.09-.03.18-.03.27,0,.62,0,1.24,0,1.86,0,.14,0,.28-.02.42-.01.17-.19.25-.21.41-.08.01-.13.06-.16.14,0,0,0,0,0,0-.05,0-.1,0-.14.04-.26.07-.52.07-.77-.04-.07-.06-.14-.12-.21-.18,0-.09-.05-.14-.12-.18-.03-.05-.05-.1-.08-.15-.07-.37-.04-.74-.03-1.1,0-.03,0-.06,0-.09,0-1.87,0-3.74,0-5.62,0-.03,0-.07,0-.1,0-.07,0-.15,0-.22,0-.14.02-.28.07-.41,0-.01,0-.02.01-.04.11-.07.18-.17.25-.28,0,0,0-.02,0-.02.03-.02.06-.05.1-.07.02,0,.04,0,.06,0,.28-.11.57-.08.85.01.02,0,.04,0,.06,0,.03.02.05.04.08.06,0,.02.02.04.02.06.21.25.29.54.26.86,0,.07,0,.13.02.2.01.02.03.05.03.07,0,.08,0,.15,0,.23-.01.04-.03.08-.05.12-.04.45,0,.91-.01,1.36,0,.35.02.38.37.38,1.96,0,3.92,0,5.89,0,.07,0,.15,0,.22-.01.3-.06.61-.04.91-.01.11-.01.23.03.33-.03.03-.04.03-.07,0-.11-.02-.04.02-.07.03-.11,0-.05,0-.1,0-.15,0-1.37,0-2.74,0-4.11,0-.32,0-.65,0-.97,0-.17.03-.34-.03-.51,0,0,0,0,0,0,0-.05,0-.1,0-.15-.04-.04,0-.12-.07-.15,0-.07-.02-.13-.05-.18,0-.01,0-.03,0-.04-.13-.37-.29-.72-.61-.96-.02,0-.03,0-.05-.01-.11-.13-.24-.23-.39-.32,0,0,0-.01,0-.02-.01-.01-.03-.02-.05-.01-.03-.01-.05-.02-.08-.03-.04-.05-.08-.09-.15-.08-.06,0-.07-.06-.11-.07-.03-.03-.07-.06-.12-.06-.01,0-.02,0-.03,0-.07-.04-.16-.04-.23-.08-.07,0-.13,0-.2,0,0,0,0-.01-.01-.02-.04-.02-.08-.03-.12-.03-.16,0-.31.02-.47-.03-.02,0-.04,0-.07,0-.93,0-1.86-.01-2.79,0-.21.04-.43.04-.64,0-.13-.01-.26,0-.39,0-8.96,0-17.92,0-26.88,0-.17,0-.34,0-.51.01-.11,0-.23.02-.3.13-.1.06-.2.11-.3.17-.21.06-.35.24-.55.33-.03.02-.06.04-.06.08,0,0-.01.01-.02.02-.04.04-.08.08-.12.11-.04.05-.08.1-.12.15-.08.11-.18.21-.22.34-.01,0-.02.01-.03.03,0,0,0,.02,0,.03-.06.09-.1.2-.13.3-.01.01-.02.02-.03.03-.09.31-.13.63-.12.96,0,.76,0,1.52,0,2.28,0,.76,0,1.52,0,2.29-.01.02-.02.03-.04.05-.05.26-.02.52-.02.78,0,.05.01.1.05.13.45.02.9.04,1.35.04,1.8.02,3.6,0,5.39,0,.08,0,.16,0,.24-.02.21-.05.42-.04.64,0,.08.1.01.22.04.33,0,.39,0,.78-.01,1.18-.04.06-.05.12-.03.19,0,.02-.02.03-.03.05-.01.03-.04.04-.05.07-.06,0-.12,0-.17,0-2.34,0-4.68,0-7.02,0-.1,0-.21,0-.31,0-.07.08-.04.18-.03.27,0,.04,0,.07,0,.11,0,4.25,0,8.49,0,12.74,0,.1,0,.2.01.29,0,.04,0,.09.02.12,0,.02,0,.04,0,.06,0,.09.03.18.06.26-.02.07,0,.14.05.19.01,0,.02,0,.03,0,0,.02,0,.04,0,.06l.07.11s0,.02,0,.04c.04.15.09.3.24.38,0,0,.01,0,.02,0,0,.04.03.06.07.06,0,.01,0,.03,0,.04.07.19.24.31.39.43.56.43,1.21.57,1.9.54.17,0,.34.01.51-.01.04-.02.09-.03.13-.04.08,0,.16,0,.24,0,.06.01.12.03.18.05.12.01.25,0,.37,0,6.93,0,13.86,0,20.79,0,.1,0,.21,0,.31,0,.4.01.8-.02,1.21.02.06,0,.12,0,.14-.08,0-.55-.02-1.1.01-1.65,0-.27.08-.53.12-.8.11-.84.39-1.63.71-2.4.32-.78.77-1.49,1.3-2.15.5-.63,1.02-1.24,1.68-1.71Zm-.63-6.32s0,0,0,0c0,0,0,0,0,0,0,0,0,0,0,0ZM11.2,7.97s0,0,0,0c0,0,0,0,0,0,0,0,0,0,0,0Zm18,.79s0,0,0,0c0,0,0,0,0,0,0,0,0,0,0,0Zm-.2,1.07s0,.02,0,.04c0,0,0,0,0,.01,0-.02,0-.03,0-.05Zm1.22-3.84s-.02-.01-.02-.02c.01-.01.02-.02.04-.03,0,.02-.01.04-.01.05Zm-1.15,2.66s.04,0,.05.03c-.01-.01-.03-.02-.05-.03Zm-7.03,14.46s0,0,0,0c0,0,0,0,0,0Zm-.74-.19s0,.03,0,.05c0-.02,0-.04,0-.05Zm-11.69-13.62s.02-.02.02-.03c.08-.02.16-.04.24-.05.01,0,.02.02.03.02.12.02.23.07.35.06,0,0,0-.01.01-.02.14.08.27.18.39.29,0,0,0,0,0,.02.03.14.12.27.13.42.02.1.01.19.02.29,0,.09,0,.19.02.28.02.03.03.07.04.1v.34c-.01.05-.03.1-.05.15-.03.3,0,.6-.01.9,0,.06,0,.12,0,.18q0,.45.45.45c4.29,0,8.58,0,12.88,0,.26,0,.52,0,.77,0,.29,0,.31.02.31.3,0,.45,0,.91,0,1.36,0,.04.01.08,0,.12-.02.01-.05,0-.08.01-.01-.02-.02-.03-.04-.03-.09-.02-.17-.03-.25.01,0,0-.01.01-.02.02-.14-.05-.28,0-.42-.02-4.44,0-8.88,0-13.33,0-.07,0-.15-.02-.22.02,0,.06,0,.11,0,.17,0,0-.01,0-.02.01-.03.05-.04.1-.04.16,0,.61-.02,1.23.01,1.84,0,.03.03.06.05.1,0,.05,0,.09,0,.14,0,0-.02.02-.03.03-.03.17-.05.34-.12.5-.01.03-.03.07-.03.1,0,0,0,0,0,0-.14.04-.2.17-.3.25-.04.02-.07.05-.11.07h0s-.07,0-.1,0c-.13.04-.27,0-.4.03,0,0,0,0,0,0,0-.01,0-.02-.02-.03-.4-.06-.61-.37-.66-.7-.03-.07-.01-.15-.01-.22,0-2.18,0-4.36,0-6.55,0-.06.02-.13-.02-.19,0,0,0,0,0,0,.04-.05.04-.12.05-.18,0-.05,0-.09-.02-.13.02-.06.04-.12.06-.19,0,0,0,0,0,0,.14-.16.26-.33.47-.41Zm2.24,6.8s0,0,0,0c0,0,0,0,0,0,0,0,0,0,0,0,0,0,0,0,0,0Zm.64-.68s0,0,0,0c0,0,0,0,0,0,0,0,0,0,0,0Zm-1.15,1.19s0,0,0-.01c0,0,.01,0,.02,0,0,0-.01,0-.02,0Zm7.51,3.35s0,.02,0,.03c0,0,0,0-.01,0,0-.01,0-.03.01-.04Zm-2.05-.87s.01.02.02.02c-.02,0-.04,0-.06.02.01-.01.02-.03.04-.04Zm-2.29,1.65s0,0,0,0h0s0,0,0,0c0,0,0,0,0,0Zm-.04.25s.03,0,.04-.01c0,0,0,.01-.01.02,0,0-.02,0-.03,0Zm-.7.37s0,0,0,0c0,0,0,0,0,0,0,0,0,0,0,0Zm1.22.3s0,0,0,0c0,0,0,0,0,0,0,0,0,0,0,0Zm-.87-3.06s0,0,0,0c0,0,0,0,0,0,0,0,0,0,0,0Zm2.52.15h0s0,0,0,0h0Zm-4.86,2.02h0s0,0,0,0c0,0,0,.02,0,.03,0,0,0,0-.01,0,0,0,0-.02,0-.03Zm5.89.52h0s0,0,0,0c0,0,0,0,0,0,0,0,0,0,0,0Zm3.83-1.84s0,0,0,0c0,0,0,0,0,0,0,0,0,0,0,0Zm-10.21.79s.01,0,.02,0c0,0,0,.02-.02.03,0,0,0-.02,0-.02Zm.52,1.2s0,0,0,0c0,0,0,0,0,0,0,0,0,0,0,0Zm9.69-1.99h0s0,0,0,0c0,0,0,0,0,0,0,0,0,0,0,0Zm-10.54,1.73s0,0,0,0c0,0,0,0,0,0h0Zm-1.95-.88s0,0,0,0c0,0,0,0,0,0,0,0,0,0,0,0Zm1.95.88s0,0,0,0c0,0,0,0,0,0,0,0,0,0,0,0Zm1.35-.94s0-.01.01-.02c0,0,.02-.02.03-.03h0s-.02.01-.03.03c0,0,.02.02.03.02-.01,0-.03,0-.04,0Zm11.63-9.17s0,0,.01.01c0,0,0,0-.01-.01Zm-11.43-5.09s0,0-.01,0c0,0,0,0,.01-.01,0,0,0,.01,0,.02Z"/>
      <path class="cls-1" d="m14.05,2.2c0,.1,0,.21,0,.31.05.18.07.19.36.18,2.43,0,4.86,0,7.29,0,.1,0,.21.01.31-.02.08-.04.1-.1.05-.18,0-.2,0-.39,0-.59.02-.05.05-.1.05-.15,0-.27,0-.54,0-.81,0-.05-.02-.1-.05-.13,0-.23,0-.47,0-.7-.03-.07-.08-.08-.14-.04-.07,0-.15,0-.22,0-.09-.05-.19-.07-.28-.04-.15.04-.29.03-.44.03-2.21,0-4.43,0-6.64,0q-.27,0-.28.27c0,.54,0,1.07,0,1.61,0,.09,0,.18,0,.28Z"/>
      <path class="cls-1" d="m45.35,28.36c-.08-.73-.27-1.43-.54-2.11-.58-1.42-1.48-2.61-2.7-3.54-1.55-1.19-3.32-1.74-5.26-1.75-.5,0-.99.1-1.48.17-.4.06-.79.19-1.18.31-.37.04-.68.22-.99.4-.13.07-.29.11-.38.25-1.59.93-2.77,2.22-3.5,3.9-.69,1.58-.91,3.22-.57,4.93.18.88.48,1.7.9,2.49.67,1.25,1.63,2.25,2.8,3.02.84.55,1.76.92,2.75,1.14.94.2,1.89.26,2.83.13,1.46-.2,2.8-.71,3.98-1.61.91-.69,1.66-1.5,2.24-2.49.51-.86.84-1.79,1.02-2.77.15-.82.16-1.65.07-2.47Zm-7.68,2.54c-.64.32-1.55.06-1.96-.47-.04-.05-.07-.12-.13-.15-.06-.03-.13-.02-.2-.02-1.31,0-2.61,0-3.92,0-.07,0-.13.01-.2-.01-.43-.06-.78-.45-.77-.88,0-.47.36-.85.81-.88.04,0,.07,0,.11,0h0s0,0,0,0c1.34,0,2.69,0,4.03,0,.03,0,.07-.02.1-.03.19-.14.32-.34.52-.48,0,0,0,0,0,0,.07-.2.03-.4.03-.6,0-1.32,0-2.65,0-3.97.02-.44.39-.81.84-.84.42-.03.86.31.93.73.03.14.03.28.03.42,0,1.37,0,2.75,0,4.12,0,.13.07.2.16.27.22.17.37.37.49.63.38.84-.07,1.79-.87,2.19Z"/>
    </g>
  </g>
</svg>