<?xml version="1.0" encoding="UTF-8"?>
<svg id="Capa_2" data-name="Capa 2" xmlns="http://www.w3.org/2000/svg" viewBox="0 0 168.17 294.28">
  <defs>
    <style>
      .cls-1 {
        fill: #fff;
      }
    </style>
  </defs>
  <g id="Capa_1-2" data-name="Capa 1">
    <path class="cls-1" d="m50.52,147.18c20.36,20.25,40.69,40.53,60.98,60.85,9.99,10,19.96,20.02,29.96,30.02,5.22,5.22,10.45,10.42,15.67,15.63,4.27,4.25,8.61,8.33,10.28,14.32,3.3,11.88-5.58,24.5-17.72,26.11-13.5,1.79-22.21-10.89-30.66-19.33-20.37-20.35-40.71-40.75-61.06-61.11-10.22-10.22-20.42-20.46-30.66-30.66-4.95-4.93-9.91-9.85-14.83-14.8-4.48-4.5-9.74-8.76-11.55-15.09-1.57-5.48-1.23-11.58,1.84-16.53,3.3-5.31,8.86-9.68,13.27-14.07,9.98-9.96,19.96-19.92,29.91-29.9,19.94-20.02,39.98-39.95,59.94-59.94,5.07-5.07,10.12-10.16,15.19-15.24,4.58-4.59,9.03-10.01,14.32-13.78,9.01-6.43,21.84-4.05,28.36,4.8,3.55,4.82,5.28,10.88,4,16.8-1.36,6.27-6.14,10.75-10.48,15.17-10.12,10.3-20.42,20.44-30.64,30.65-20.23,20.19-40.39,40.45-60.63,60.64-4.97,4.96-9.94,9.91-14.9,14.86-.15.15-.28.3-.58.62Z"/>
  </g>
</svg>