<?xml version="1.0" encoding="UTF-8"?>
<svg id="Capa_2" data-name="Capa 2" xmlns="http://www.w3.org/2000/svg" viewBox="0 0 756.02 799.78">
  <g id="Capa_1-2" data-name="Capa 1">
    <path d="m334.82,301.3c2.94,0,4.61,0,6.27,0,117.31,0,234.63.07,351.94-.08,19.08-.02,35.25,5.65,47.59,20.68,9.52,11.59,14.85,24.98,15.11,39.85.44,25.48.32,50.97.01,76.46-.34,28.21-21.5,54.75-47.56,58.97-10.1,1.64-20.57,1.33-30.87,1.34-61.98.11-123.96.05-185.95.05-50.99,0-101.97,0-152.96,0h-3.45c4.32,4.44,8.01,8.33,11.8,12.12,46.56,46.7,93.08,93.43,139.72,140.06,24.17,24.16,24.21,65.25-.02,89.5-13.06,13.07-26.26,26.01-38.85,39.52-24.72,26.51-68.7,26.61-94.51.66-25.96-26.11-52.02-52.12-78.03-78.18-45.64-45.71-91.28-91.42-136.9-137.14-34.24-34.32-68.49-68.64-102.69-103.01-7.5-7.54-15.69-14.6-22.08-23.02-20.43-26.92-17.17-62.88,7.54-87.64,46.95-47.03,94.08-93.88,141.11-140.83,27.33-27.29,54.58-54.65,81.91-81.93,36.42-36.36,73.11-72.46,109.26-109.09,24.74-25.06,66.12-26.34,90.95-2.31,14.57,14.11,29.1,28.29,43.18,42.88,24.18,25.05,22.51,66.36-2.76,91.33-48.59,48.02-96.71,96.52-145.02,144.82-1.36,1.36-2.66,2.79-4.76,4.99Z"/>
  </g>
</svg>