<?xml version="1.0" encoding="UTF-8"?>
<svg id="Capa_2" data-name="Capa 2" xmlns="http://www.w3.org/2000/svg" viewBox="0 0 49.96 36.35">
  <defs>
    <style>
      .cls-1 {
        fill: #fff;
      }
    </style>
  </defs>
  <g id="Capa_1-2" data-name="Capa 1">
    <g>
      <path class="cls-1" d="m49.19,9.61s-.05-.05-.08-.08c-.33-.14-.65-.28-.98-.41-.13-.1-.31-.08-.41-.22-.26-.11-.51-.21-.77-.32-.26-.08-.51-.16-.77-.24-.02-.02-.03-.02-.06-.02,0-.02-.01-.05-.02-.07-.03,0-.05,0-.07-.01-.13.02-.21-.08-.31-.14-.54-.2-1.11-.35-1.61-.67-.42-.03-.75-.33-1.15-.4.04.14.12.25.23.34-.11-.09-.19-.2-.23-.34-.34-.14-.65-.37-1.01-.45-.67-.27-1.33-.54-2-.82-.15-.05-.3-.11-.46-.16-.48-.39-1.05-.55-1.62-.71-.14-.1-.34-.1-.46-.25h-.04s-.04,0-.04,0c-.42-.1-.79-.36-1.23-.4h0c-.08-.18-.29-.17-.39-.31-.13-.02-.24-.12-.38-.08,0,0,.02-.03.02-.03-.33.05-.54-.29-.86-.28-.41-.23-.87-.32-1.3-.5-.21-.21-.49-.28-.74-.36-.39-.11-.7-.41-1.11-.43-.02,0-.05-.02-.07-.03-.26-.1-.51-.2-.77-.31-.18-.24-.54-.13-.71-.39-.53-.11-1-.43-1.53-.55-.05-.04-.1-.07-.15-.11-.12.04-.21,0-.3-.08-.11,0-.22-.03-.33-.05.11.03.22.05.33.05-.03-.03-.05-.05-.08-.08-.32-.13-.68-.18-.93-.48-.21-.08-.41-.16-.62-.24-.13,0-.26,0-.39,0v.03s.01,0,.01,0c-.44,0-.88,0-1.32,0-.08,0-.15-.01-.23-.02-.28.05-.56.11-.84.17-.19.22-.54.13-.71.39,0,0,0,0,0,0,0,0,0,0,0,0-.33.14-.66.28-.99.42-.27.11-.53.23-.81.31-.3.09-.54.33-.87.33-.07.09-.21.1-.26.22h0c-.24,0-.43.2-.68.18-.23.17-.51.22-.77.31-.38.19-.77.38-1.15.56-.53.17-1.05.36-1.55.62-.4.07-.77.27-1.15.42-.12.16-.32.21-.47.31h0c-.05,0-.1,0-.15,0-.41.17-.82.34-1.23.51-.28.1-.56.2-.85.31-.22.21-.57.15-.77.39-.05,0-.1.01-.15.02-.18-.04-.28.19-.47.14-.46.12-.85.42-1.3.58-.29-.04-.49.22-.76.24-.15.14-.45.08-.48.38.07,0,.14-.03.21-.05-.07.02-.13.04-.21.05-.18.03-.35.07-.53.1v-.03c-.15,0-.28.09-.42.16-.29.14-.56.32-.88.36l-.39.14s0,0,0,0c-.19.02-.37.08-.54.17-.1.12-.3.09-.39.24-.18.08-.36.15-.54.23-.06.01-.12.01-.15.09-.02,0-.05.01-.07.02-.5.12-.97.32-1.38.63-.1.02-.2.05-.31.07-.54.24-1.08.48-1.62.72-.25.04-.4.21-.55.4-.03.05-.05.11-.08.16,0,.13.01.25.02.38.23.14.45.28.68.42.02.03.05.06.07.09.38.1.67.36,1.01.54.11.01.22.04.32.09-.1-.04-.2-.07-.32-.09,0,.03,0,.06,0,.1.05.03.1.05.16.08.23.02.37.27.61.25.08.05.16.1.25.15.02,0,.05,0,.07.01.13-.02.23.06.32.14.17.17.5.15.54.48.33.09.59.34.92.4.17.18.43.18.62.32.05,0,.1,0,.15.01.01-.02.03-.04.05-.05-.02.01-.03.03-.05.05.02.03.05.06.07.08.2.21.52.23.69.48.09.11.2.08.32.07.14.1.27.23.45.25.08,0,.15,0,.23,0-.08,0-.15,0-.23,0,.35.31.79.46,1.18.69.16.1.35.16.45.34.05,0,.1,0,.15,0-.02-.08-.05-.14-.08-.19.04.05.07.11.08.19.12.02.22.07.31.16.15,0,.25.12.38.16.14.18.39.16.54.32.12.05.25.11.37.16.28.16.55.32.83.47.08.04.17.06.19.17.02,0,.04.01.06.02.16-.04.23.17.38.16.31.27.68.44,1.04.64.12.07.27.1.35.23.04.06.1.08.17.06.15.06.27.21.46.16.06.02.13,0,.16.08.07.03.15.07.22.1h0c.03.07.09.07.15.08h0c.54.37,1.1.71,1.7.95.08.06.17.1.25.17.4.31.92.43,1.29.79.03,0,.06-.01.08-.02.13.08.25.16.38.25.15.06.3.11.46.17.32,0,.54.28.84.33.13.13.31.21.38.4.05.05.11.1.16.15.2-.03.34.18.54.16.08.05.16.11.24.16.07,0,.15,0,.22,0,.3.25.73.32.93.71.36.09.65.34.99.48.1.03.2.07.3.1,0,0,0,0,0,0,.27.25.57.42.93.46.1,0,.2,0,.3,0h0c.03.07.09.08.15.08.44,0,.88,0,1.32,0,.15-.03.3-.06.46-.08.19-.22.51-.24.69-.48h0c.1-.12.21-.24.39-.24.08-.12.2-.07.31-.07v-.02c.17.04.3-.09.45-.16.22-.4.65-.5,1-.67.86-.41,1.65-.94,2.48-1.39h0c.08-.05.15-.1.23-.15,0-.03,0-.06,0-.1-.53.1-1.02.27-1.5.48.48-.21.97-.38,1.5-.48.13-.1.25-.21.38-.31-.13.1-.25.21-.38.31,0,.03,0,.06,0,.1.1-.03.2-.06.31-.08.03-.03.05-.05.08-.08t0,0c.38-.1.75-.21,1-.55.07-.03.15-.07.22-.1.04-.1.1-.17.16-.22-.06.06-.12.13-.16.22.18-.02.31-.15.47-.22.1-.19.37-.12.46-.32.17-.08.34-.17.51-.23.28-.1.46-.42.79-.4.11,0,.19-.06.22-.17.09.01.16-.04.23-.08.43-.25.86-.49,1.29-.74.06-.04.12-.09.18-.14.1-.03.2-.06.3-.09.03-.07.1-.06.16-.07.19-.27.46-.41.78-.47.02-.03.05-.05.07-.08.04-.05.09-.09.13-.14-.05.04-.09.09-.13.14.31-.03.52-.24.77-.4.26-.14.52-.27.77-.41.03,0,.05,0,.08,0,.27-.23.6-.36.93-.47.2-.03.31-.25.52-.26,0-.05.02-.1.02-.14h0c.33-.16.67-.32,1-.47v-.02c.23-.02.37-.26.61-.29.25-.21.56-.32.85-.48.03-.03.05-.06.08-.09h0c.07-.06.15-.11.22-.17.24-.19.57-.22.78-.47.3-.22.61-.41.95-.54-.34.13-.65.32-.95.54.08,0,.15,0,.23,0,.05,0,.1-.01.15-.02.07-.18.28-.12.38-.24.12-.22.4-.2.54-.39.17-.18.39-.25.62-.32.05,0,.1,0,.16,0,.27-.24.56-.44.93-.47.1-.09.2-.17.3-.26.44-.02.7-.37,1.01-.62.05-.03.1-.06.15-.1.02-.73-.06-.84-.76-1.04Zm-45.79-.72h0c.12-.07.23-.16.33-.26-.09.1-.2.19-.33.26Zm2.54-1.12c-.05.05-.11.09-.16.13.05-.04.1-.08.16-.13.1-.04.2-.09.3-.12-.1.03-.2.08-.3.12Zm.77,6.32s0-.05,0-.08h0s0,.05,0,.08Zm.61.48s0,0,0,0c.15.03.3.08.44.12-.14-.04-.29-.09-.44-.12Zm9.85,5.36h0c.07,0,.13,0,.2.02-.06-.02-.13-.02-.2-.02Zm2.52-12.68c.17-.07-.02-.22-.19-.24.17.02.36.17.19.24Zm.49-5.41c-.07,0-.13,0-.2,0,.07,0,.13,0,.2,0h0Zm13.15,16.61c.24.14.57,0,.54-.46,0-.25-.1-.4-.23-.47.13.07.23.22.23.47.02.46-.31.59-.54.46Zm2.55-.29s-.05.05-.08.08c.03-.03.05-.05.08-.08.09-.07.19-.14.28-.22-.09.07-.19.15-.28.22Zm1.6-.94c.08-.03.17-.06.25-.1h0c-.08.03-.17.07-.25.1Zm7.02-3.78c0,.05,0,.11,0,.16,0,.03,0,.06,0,.09,0-.03,0-.06,0-.09,0-.05,0-.11,0-.16-.07.03-.14.05-.2.07.07-.02.14-.04.2-.07.08-.05.15-.11.23-.16-.08.05-.15.11-.23.16Zm4.46-2.32h0s.03,0,.04,0c-.02,0-.03,0-.04,0Zm.43-.35c.09-.07.17-.14.26-.21h0c-.09.07-.17.14-.26.21Z"/>
      <path class="cls-1" d="m40.34,18.81c0-.32,0-.64.01-.95-.14-.13-.26-.06-.4.03-.21.13-.42.29-.69.3-.27.25-.62.36-.91.56-.03.05-.06.1-.09.15-.18.1-.39.16-.54.31-.13.03-.25.06-.38.09-.28.16-.56.32-.85.48-.2-.02-.36.08-.53.16-.1.21-.33.24-.47.4-.28.16-.57.32-.85.47,0,.02,0,.05,0,.07,0,0,0,0,0,0-.32.1-.57.32-.85.48-.14.08-.28.19-.45.17-.3.18-.55.45-.92.47-.1.02-.18.07-.23.16h0c-.18-.02-.31.09-.46.17-.31.21-.63.42-.94.63-.3.06-.52.33-.83.33-.14.07-.28.18-.45.16-.27.34-.75.36-1.02.7-.22.12-.49.14-.68.33-.08,0-.15,0-.23,0-.21.24-.58.12-.78.39-.07.03-.14.06-.22.09-.07.19-.29.13-.4.25-.19.1-.38.22-.61.21-.03.03-.05.06-.08.09-.03,0-.05,0-.07-.01-.26,0-.51,0-.77,0-.2-.06-.39-.17-.6-.15-.13-.27-.41-.23-.62-.32-.42-.39-.97-.5-1.48-.7-.24-.11-.47-.22-.71-.32-.6-.34-1.2-.67-1.83-.95-.03-.01-.05-.02-.08-.03-.28-.16-.57-.31-.85-.47-.09-.15-.31-.13-.39-.31-.2-.09-.41-.17-.61-.26-.41-.32-.96-.38-1.32-.78-.36-.12-.69-.32-1-.55l-.76-.35c-.14-.15-.38-.18-.47-.39-.33-.03-.58-.24-.84-.42-.03,0-.05.01-.08.02-.23-.14-.46-.27-.69-.41-.1-.14-.32-.13-.39-.31-.43-.09-.71-.49-1.15-.56-.1-.06-.15-.19-.29-.19-.28-.15-.55-.32-.87-.38,0,2.4,0,4.8-.01,7.2,0,1.49,0,2.99,0,4.48,0,.41.36.59.54.88.14.07.21.24.38.26.28.39.68.63,1.08.87.17.22.42.3.62.48.57.14,1.02.51,1.47.86.02,0,.05.02.07.03.08,0,.14.1.23.05.12.02.22.07.31.16.05,0,.1,0,.15.01.08.05.15.11.23.16.22-.03.42.06.61.16.14.21.29.38.56.42.16.03.34.11.45.28.09.07.19.11.31.11,0,0,0-.03,0-.03.26.12.54.16.78.32.15.03.3.06.45.1.07.1.19.11.29.17.25.13.52.23.71.46.1,0,.21,0,.31,0,.15.03.3.07.46.1.16.04.28.2.47.14.08,0,.15,0,.23,0,.02,0,.05.02.07.02,0,0,0,0,0,0,.4.28.85.4,1.32.46h.04s.04,0,.04,0c.02.01.05.02.07.02h0c.11.12.3.09.39.23.18.05.36.1.54.15.08.02.18-.01.24.08.17,0,.35,0,.52.01.36,0,.72-.01,1.08-.02-.23-.02-.43-.11-.64-.2.21.09.41.18.64.2.13,0,.25,0,.38,0,.07-.07.22-.11.38-.13-.16.02-.31.06-.38.13.46,0,.93.08,1.39-.06.37,0,.74-.05,1.08-.24.06,0,.12-.01.16-.08.05,0,.1,0,.16.01.08-.02.18,0,.23-.09.1-.01.2-.02.3-.05.62-.17,1.23-.35,1.85-.53h.04s.04,0,.04,0l.24-.16s0,0,0,0c.45-.11.94-.13,1.31-.48.05-.03.11-.05.16-.08h0c.07,0,.14-.02.21-.02.26-.13.52-.25.78-.38.28-.11.56-.22.83-.33.15-.13.35-.18.53-.25.03-.02.07-.04.1-.07.42,0,.77-.24,1.15-.41,0-.02,0-.05,0-.07.05-.03.1-.05.16-.08.41-.09.77-.26,1.07-.57.02,0,.05-.01.07-.02.14-.15.38-.17.47-.38.26-.04.43-.27.68-.35.1-.07.21-.15.31-.22.48-.23.83-.64,1.24-.95.5-.34.74-.85.84-1.44,0-2.19,0-4.38,0-6.56,0-.05,0-.11,0-.16,0-1.12,0-2.24,0-3.36-.01-.06-.01-.13-.08-.17Zm-29.17,0c-.02-.05-.05-.1-.09-.14.04.04.07.09.09.14.08,0,.15.02.22.04-.07-.03-.14-.04-.22-.04Zm3.22,1.54h0s0,0,0-.01h0Zm3.55,2.16s0,0,0,0c.1-.04.18.02.27.07-.09-.05-.17-.11-.27-.07Zm2.08,12.4h0s.05.08.09.11c-.04-.03-.07-.07-.09-.11Zm.38-11.04c.07.01.14.03.2.05-.07-.02-.14-.04-.2-.05.08.12.17.23.26.34-.1-.1-.18-.21-.26-.34Zm1.77.96c-.08-.06-.15-.12-.19-.2.04.08.11.14.19.2.33.11.66.21,1,.32-.33-.11-.66-.21-1-.32Zm12.23-3.52s0-.05,0-.08c0,.03,0,.05,0,.08h0Zm5.62-2.16s0,.05,0,.08c0-.03,0-.05,0-.08.09-.01.16-.05.22-.1-.05.06-.12.09-.22.1Z"/>
      <path class="cls-1" d="m6.32,25.46c-.04-.14-.04-.3-.15-.41h0c-.02-.18-.05-.36-.07-.55-.11-.17-.1-.38-.17-.56-.02,0-.05,0-.07,0,.02,0,.05,0,.07,0,.07-.34-.12-.64-.15-.96-.14-1.03-.38-2-.39-3.05,0-.98.01-1.97,0-2.95,0-.85.06-1.38-.59-1.97-.33-.29-.91-.72-1.33-.44,0,.19,0,.37,0,.56.03,0,.05,0,.08,0,.02-.08.04-.15.06-.21-.02.06-.04.13-.06.21h0c-.03.37-.05.75-.06,1.12-.06.3-.05.72-.02,1.14,0,1.3.03,2.6,0,3.9-.02.13-.04.26-.06.39-.09.65-.38,1.26-.4,1.93-.05.11-.1.22-.15.33-.02.69-.25,1.33-.39,2,.02.32-.04.62-.23.88.04.32-.12.68.15.96,0-.1-.03-.19-.04-.29.01.1.03.19.04.29.1.16.2.32.31.48.08.08.16.16.23.25.03,0,.05,0,.08,0,.08.09.18.15.31.15.08.05.16.11.24.16.36.09.71.17,1.07.26.09-.07.19-.12.31-.09.09-.08.18-.14.3-.16l.32-.32v.02c.38-.13.67-.42.96-.69.31-.29.21-.67.05-1.01-.09-.45-.23-.89-.24-1.36Zm-3.54-.24c-.05.24-.12.47-.16.71.05-.24.11-.47.16-.71.1-.11.17-.26.22-.42-.05.16-.12.3-.22.42Zm3.46.72c0-.08,0-.16,0-.24h0c-.03-.19-.05-.37-.08-.56-.07-.14-.14-.28-.2-.42.05.15.12.29.2.42.03.19.05.37.08.56,0,.08,0,.16,0,.24,0,.11.01.24.03.37-.02-.13-.03-.26-.03-.37Z"/>
    </g>
  </g>
</svg>