<?xml version="1.0" encoding="UTF-8"?>
<svg id="Capa_2" data-name="Capa 2" xmlns="http://www.w3.org/2000/svg" viewBox="0 0 44.52 44.79">
  <defs>
    <style>
      .cls-1 {
        fill: #fff;
      }
    </style>
  </defs>
  <g id="Capa_1-2" data-name="Capa 1">
    <g>
      <path class="cls-1" d="m24.21,19.39c2.87.34,4.53.84,5.42,3.79.35,1.15,2.92,7.74,1.47,8.22-1.65.55-2.73-6.13-3.08-7.32-.9-3.05-2.46-2.86-5.43-2.87-2.72,0-5.05-.48-6,2.5-.41,1.28-1.4,7.83-2.95,7.72-1.87-.14.82-6.89,1.2-8.1.98-3.14,2.45-3.55,5.51-3.89-2.48-1.46-3.72-4.64-1.83-7.12,1.81-2.38,5.41-2.5,7.32-.18,1.9,2.29,1.31,4.87-1.63,7.26Zm.91-4.29c.01-1.53-1.3-2.86-2.84-2.88-2.52-.04-3.8,3.09-2.06,4.85,1.75,1.78,4.88.56,4.9-1.97Z"/>
      <path class="cls-1" d="m16.43,30.27c.2-.88,1.15-7.58,2.78-5.42.53.7-.44,3.23-.62,4-.18.81-.2,2.82-1.51,2.57-.53-.1-.7-.49-.66-1.15Z"/>
      <path class="cls-1" d="m28.18,30.69c-2.03,1.96-2.16-1.35-2.5-2.89-.15-.68-.78-2.18-.49-2.81.3-.64,1.47-.84,1.67,0,.45,1.83.85,3.67,1.32,5.71Z"/>
      <path class="cls-1" d="m40.65,20.85c.48-1.16,2.36-2.07,3.24-2.97,1.21-1.24.43-2.2-.17-3.64-.48-1.15-1.01-3.64-2.29-3.98-1.04-.28-2.62.13-3.69.19-1.01.41-1.9-.09-2.62-1.1-.44-.61-.87-.68-1-1.5-.11-.72.1-1.61.14-2.34.14-2.31.38-2.8-1.83-3.74-1.22-.52-3.53-2.06-4.82-1.71-1.32.36-2.1,2.41-3.09,3.29-.87.78-2.19,1.02-3.32.73-1.49-.39-2.35-2.22-3.38-3.25-1.39-1.39-2.81-.29-4.4.38-1.67.7-3.33.84-3.26,2.87.08,2.34.86,5.54-2.22,6.38-1.5.41-3.43-.67-4.89-.14-1.18.43-1.51,2.14-1.97,3.22-.65,1.55-1.79,2.98-.48,4.34.87.91,2.14,1.51,2.87,2.54,1.77,2.53-.51,4.45-2.28,5.97-1.72,1.48-1.21,2.19-.4,4.13.41,1,.93,3.32,1.88,3.86,1.08.63,3.36-.14,4.55-.13,1.19,0,1.93.69,2.65,1.61.87,1.1.42,2.72.33,4.08-.11,1.76-.16,2.16,1.45,2.89,1.07.49,3.48,2.1,4.66,1.95,1.13-.14,2.17-2.08,2.83-2.88,1.07-1.31,1.57-1.18,3.24-1.21,1.52-.03,1.8.25,2.77,1.41.76.91,1.58,2.53,2.87,2.65,1.25.11,3.04-.86,4.12-1.41,1.38-.7,2.22-1.09,2.22-2.73,0-1.36-.68-3.05-.06-4.32.52-1.08,1.71-1.94,2.85-2.01,1.29-.09,3.27.68,4.48.13,1.17-.53,1.78-3.1,2.23-4.21.65-1.56,1.15-2.25-.18-3.51-1.7-1.6-4.18-3.06-3.02-5.83Zm-18.42,16.69c-8.33-.01-15.15-6.85-15.14-15.17,0-8.34,6.81-15.13,15.16-15.16,8.34-.02,15.2,6.86,15.18,15.21-.03,8.33-6.86,15.13-15.19,15.12Z"/>
    </g>
  </g>
</svg>