<?xml version="1.0" encoding="UTF-8"?>
<svg id="Capa_2" data-name="Capa 2" xmlns="http://www.w3.org/2000/svg" viewBox="0 0 20.31 27.68">
  <defs>
    <style>
      .cls-1 {
        fill: #fff;
      }
    </style>
  </defs>
  <g id="Capa_1-2" data-name="Capa 1">
    <g>
      <path class="cls-1" d="m12.67,13.37c-.13.06-.41.12-.5.23-.14.17-.05.66-.03.88.85-.39,1.69-.77,2.54-1.16.42-.19.84-.39,1.26-.58.19-.09.34-.11.39-.31.05-.19,0-.43,0-.63-1.41-.64-2.79-1.27-4.19-1.91,0,.23,0,.44,0,.64,0,.26.07.27.3.36.34.14.68.29,1.02.44.66.29,1.32.57,1.98.87-.73.3-1.46.62-2.19.93-.19.08-.38.16-.56.24Z"/>
      <path class="cls-1" d="m8.18,14.48c0-.3.1-.73-.14-.94-.25-.22-.75-.33-1.06-.47-.67-.3-1.35-.59-2.02-.9.67-.34,1.37-.63,2.06-.93.16-.07.33-.14.49-.21.14-.06.46-.11.56-.22.19-.2.09-.69.09-.96-.05.03-.1.06-.14.08-.84.39-1.68.77-2.52,1.16-.43.2-.88.37-1.29.6-.33.18-.23.48-.23.82,1.4.65,2.79,1.29,4.2,1.95Z"/>
      <path class="cls-1" d="m9.44,14.85c.28,0,.28,0,.35-.26.54-1.84,1.09-3.68,1.63-5.52.05-.18.1-.36.15-.53-.02-.01-.03-.02-.04-.02-.16,0-.32,0-.48,0-.32,0-.33,0-.42.3-.58,1.97-1.16,3.94-1.75,5.92,0,.03,0,.06-.02.11.2,0,.38,0,.57,0Z"/>
      <path class="cls-1" d="m20.15,6.25c-.28-.41-.67-.78-1-1.15-1.49-1.7-2.96-3.42-4.47-5.1H.64s-.04.04-.06.05C.18.27,0,.61,0,1.05c0,1.59,0,3.17,0,4.76,0,6.93,0,13.87,0,20.8,0,.2.02.41.08.59.07.21.19.37.36.49h19.35c.48-.33.5-.86.5-1.55,0-1.02,0-2.04,0-3.06,0-2.09,0-4.18,0-6.28,0-2.09,0-4.18,0-6.28,0-1.05,0-2.09,0-3.14,0-.38.07-.8-.15-1.13ZM1.07.97c.13,0,.26,0,.39,0,4.03,0,8.05,0,12.08,0,.31,0,.3,0,.29.31,0,.77,0,1.54,0,2.31,0,1,0,2,.02,3,0,.34.18.51.53.54.16.01.33.02.49.02,1.39,0,2.79,0,4.18,0h.2c0,.07,0,.13,0,.19,0,3.61,0,7.23,0,10.84,0,.06,0,.12,0,.17q0,.21-.22.22c-5.69,0-11.39,0-17.08,0-.28,0-.57,0-.87,0V.97Zm4.26,24.31h-1.12v-2.1c-.11,0-.2,0-.3,0-.46,0-.92,0-1.38,0-.11,0-.13.03-.13.14,0,.62,0,1.24.02,1.86,0,.1-.04.12-.13.12-.31,0-.62,0-.94,0-.08,0-.1-.03-.1-.1,0-.12,0-.23,0-.35,0-1.5,0-3.01,0-4.51,0-.02,0-.04,0-.08.36,0,.71,0,1.06,0,.11,0,.08.09.08.15,0,.43,0,.86,0,1.28,0,.12.01.23,0,.35-.01.12.02.15.14.15.39,0,.78,0,1.17,0,.12,0,.25,0,.37,0,.1,0,.13-.03.13-.13,0-.55,0-1.1-.01-1.66,0-.11.03-.15.14-.14.33,0,.65,0,.99,0v5.02Zm4.35-4.03h-1.33v4.03h-1.14v-4.03h-1.32v-.98h3.79v.98Zm5.33,4.04c-.13,0-.47.06-.57,0-.17-.11-.07-1-.07-1.22-.01-.43-.02-.86-.03-1.3,0-.4.09-1.02-.1-1.38-.1.71-.35,1.42-.55,2.11-.12.39-.23.77-.35,1.16-.1.33-.07.56-.45.56-.32,0-.58.08-.69-.25-.13-.4-.22-.82-.32-1.22-.09-.36-.19-.71-.27-1.07-.05-.2-.09-.41-.13-.61-.03-.15-.03-.44-.14-.55-.05.83-.08,1.67-.11,2.5,0,.21-.02.41-.02.62,0,.14.04.46-.03.59-.1.17-.87.07-1.08.07.1-1.67.2-3.34.31-5.02.4,0,.8,0,1.2,0,.16,0,.25-.03.34.11.1.15.12.45.18.62.25.86.58,1.77.64,2.66h.04c.26-.78.47-1.59.69-2.39.08-.3.12-.93.46-1,.2-.04.45,0,.65,0,.13,0,.51-.06.61,0,.18.13.1.82.11,1.04.02.44.04.88.07,1.33.05.88.05,1.77.15,2.64-.17.02-.34.02-.52.02Zm4.4-.01h-3.08v-5.01h1.14v4.06h1.94v.95Z"/>
    </g>
  </g>
</svg>