<?xml version="1.0" encoding="UTF-8"?>
<svg id="Capa_2" data-name="Capa 2" xmlns="http://www.w3.org/2000/svg" viewBox="0 0 21.8 18.42">
  <defs>
    <style>
      .cls-1 {
        fill: #f29200;
      }
    </style>
  </defs>
  <g id="Capa_1-2" data-name="Capa 1">
    <g>
      <path class="cls-1" d="m15.58,16.74c-.01-.14-.07-.26-.12-.39,0-.17-.08-.32-.15-.47-.02-.19-.09-.37-.16-.54-.09-.15-.1-.34-.23-.47,0-.01,0-.02,0-.03v-.16c-.05-.07-.08-.17-.19-.2l-.05-.35c-.09-.19-.19-.38-.22-.59-.01-.01-.03-.03-.04-.04,0-.07-.01-.13-.05-.19-.03-.06-.05-.13-.08-.19.02-.06-.04-.1-.04-.16h0c-.12-.34-.24-.68-.35-1.02-.02-.21-.17-.38-.19-.59,0-.05,0-.09-.02-.13-.11-.29-.21-.59-.32-.89-.04-.05-.05-.1-.05-.15-.08,0-.07-.09-.11-.12,0,0,0,0,0,0,0,0,0,0,0,0-.02-.1-.03-.21-.05-.31,0-.01,0-.02,0-.03-.05-.03-.1-.06-.15-.09.06.15.12.29.18.44.04.2.09.39.15.57-.06-.19-.12-.38-.15-.57-.06-.15-.12-.29-.18-.44-.02-.1-.07-.2-.04-.31-.05-.08-.1-.16-.13-.25-.07-.26-.18-.51-.27-.76-.02-.06-.03-.13-.05-.19-.12-.36-.24-.71-.39-1.05.02-.05,0-.1-.02-.15-.07-.25-.18-.49-.21-.75-.01-.03-.02-.05-.03-.08-.08-.16-.15-.32-.23-.47-.02-.09-.03-.18-.05-.27-.17-.1-.11-.29-.16-.43-.02-.01-.05-.03-.07-.04-.08-.19-.1-.42-.24-.59,0-.09-.03-.16-.08-.23-.04-.27-.18-.51-.23-.78-.15-.35-.23-.72-.4-1.05.04-.2-.12-.33-.16-.51,0-.05,0-.1,0-.15-.07-.1-.09-.23-.19-.31h0s-.02-.01-.03-.01c-.03-.04-.08-.03-.12-.04-1.41,0-2.82,0-4.23,0-.03,0-.06.01-.07.05.1,0,.2,0,.31,0,.02.02.05.04.09.05.03.01.07.02.11.02,0,0,0,0,0,0-.04,0-.07-.01-.11-.02-.04-.01-.07-.03-.09-.05-.1,0-.2,0-.31,0-.03.03-.05.05-.08.08.03.1-.06.17-.03.27.01.46-.07.9-.21,1.33l-.08.27c-.04.1-.07.21-.11.31-.01.11-.03.22-.09.31,0,.13-.07.24-.11.36-.03.19-.14.36-.19.54.03.06.02.12,0,.17.02-.05.02-.11,0-.17-.01.07-.06.1-.13.11-.05.06-.03.13-.03.2.03,0,.05,0,.08,0h0s-.05,0-.08,0c-.01,0-.02,0-.04,0-.1.32-.21.65-.31.97.03.18-.2.57-.26.74-.1.3-.22.59-.3.9-.02.1-.04.2-.11.27,0,.01,0,.03,0,.04.02.09-.04.16-.08.23,0,.17-.11.31-.12.47,0,.16-.09.29-.15.43h0s-.06.02-.08.04c-.09.12-.14.25-.11.4-.04.09-.08.18-.16.24,0,.06,0,.13,0,.19,0,.01,0,.02,0,.03-.19.24-.21.55-.32.82-.19.68-.46,1.34-.67,2.01-.05.15-.08.31-.16.45-.03.13-.05.27-.12.39.02.16-.07.29-.11.43-.05.07-.09.15-.19.16,0,.08,0,.16-.04.24-.06.15-.13.29-.13.46.05-.05.11-.1.16-.16h0c-.05.05-.11.1-.16.16-.03.02-.03.05-.02.08-.09.1-.12.22-.12.35-.06.14-.13.28-.16.43-.19.53-.37,1.07-.56,1.6-.07.23-.15.47-.22.7,0,.04,0,.08,0,.12,0,.06.05.09.1.12,0,.01,0,.02.01.03,1.03,0,2.06,0,3.09,0,.06,0,.12,0,.17-.04-.13-.03-.27-.06-.4-.08.13.03.27.06.4.08.27-.12.28-.39.34-.63.1-.15.14-.33.16-.51.09-.14.1-.3.15-.45.12-.4.28-.78.37-1.19.13-.13.16-.3.16-.47.01-.01.03-.02.04-.04,0-.11.04-.21.09-.31-.05.09-.09.19-.09.31.1-.11.14-.25.15-.4,0-.11.04-.21.09-.31.05,0,.1,0,.15,0,.08-.07.17-.05.26-.05,1.64,0,3.28,0,4.92,0,.25,0,.51,0,.76,0,0,.02,0,.04.01.07,0,.04,0,.08,0,.12.13.3.23.62.32.93.03.12.08.24.19.32v.15c.19.44.32.9.47,1.35.08.24.15.48.23.73.02.04.04.08.05.12.03.09.07.17.15.22.05-.03.1-.05.15-.06-.05.01-.1.03-.15.06.01.07.08.04.12.06,1.05,0,2.11,0,3.16,0,.08,0,.16,0,.24-.01.09.02.17.01.22-.07,0-.08.04-.16-.03-.23-.16-.44-.26-.91-.47-1.33ZM6.81,7.56c.19-.24.24-.54.31-.83.19-.64.43-1.26.52-1.92,0-.04.03-.07.04-.11-.03-.07.02-.13.04-.2.15,0,.14.15.2.23.02.01.05.03.07.04.09.36.19.73.28,1.09.14.22.16.47.23.71.05.17.11.34.16.51.18.54.35,1.08.53,1.62.02.05.02.11.03.17.12.37.2.74.35,1.09-.02.06,0,.11.03.16.11.11.13.25.16.39,0,.04,0,.08,0,.12,0,.01,0,.03,0,.04.05.1.12.19.11.31-.06.02-.13.04-.19.05h0c-1.23-.1-2.45-.02-3.68-.05-.03.02-.05.03-.08.05-.18-.11-.05-.24-.03-.36.22-.65.46-1.29.61-1.96.12-.13.18-.29.16-.47.01-.03.03-.05.04-.08-.04-.22.13-.4.13-.62Zm2.78,2.1c.04.14.09.29.12.43.01.04.02.08.03.12-.01-.04-.02-.08-.03-.12-.03-.15-.07-.29-.12-.43Zm4.53,4.48s.07-.12.1-.09c-.03-.02-.08.05-.1.09Zm.05.1s-.02-.03-.04-.04c.01.01.02.03.04.04ZM6.52,1.29c.06,0,.11,0,.16-.01-.05,0-.11,0-.16.01Zm-.22,0h0s.04,0,.05,0c-.02,0-.04,0-.05,0Zm7.82,11.67s-.02,0-.04,0c.01,0,.02,0,.04,0Zm-.13-.02s-.04,0-.05,0c.02,0,.04,0,.05,0Zm-2.4-7.35c.04.13.08.26.12.39-.04-.13-.08-.26-.12-.39-.06-.12-.11-.24-.15-.36.04.12.09.25.15.36Zm-1.49-4.14s0,.01,0,.02c0,0,0-.01,0-.02-.03-.01-.05-.03-.08-.04.03.01.05.03.08.04ZM2.95,9.82c.05-.08.07-.17.06-.27.06-.13.15-.26.16-.41,0-.02,0-.04,0-.07h0s0,.04,0,.07c0,.15-.1.28-.16.41,0,.1-.01.19-.06.27-.02.03-.05.06-.08.08.03-.02.06-.05.08-.08Zm-.02,8.44c-.88,0-1.75,0-2.63,0,.88,0,1.75,0,2.63,0,0,0,0,0,0,0Zm.04-.04h0c.06,0,.11,0,.15,0-.05,0-.09,0-.15,0Z"/>
      <path class="cls-1" d="m21.8,1.57c-.04-.12-.04-.26-.19-.32,0,.05,0,.1,0,.16.04.03.06.07.07.12-.01-.04-.03-.09-.07-.12,0-.05,0-.1,0-.16.03-.18-.17-.26-.16-.42-.24-.35-.55-.59-.97-.71-.82-.24-1.55-.12-2.2.44-.15.09-.24.24-.32.38-.15.18-.22.4-.26.63,0,.16,0,.31,0,.47-.15,1,.77,1.9,1.56,2,.13.06.26.02.4.02.2.03.4,0,.59-.04.36-.07.68-.22.93-.5.09-.1.18-.21.27-.31.04-.15.1-.28.2-.4,0-.01,0-.02,0-.03-.06-.06.01-.13,0-.19h0s.03-.05.04-.08c.06,0,.07-.05.11-.08,0-.01,0-.02,0-.04,0-.21,0-.42,0-.62,0-.07,0-.13,0-.2Zm-.16.43c0-.1,0-.2,0-.3,0,.1,0,.2,0,.3Zm.04-.43h0c.06,0,.07.04.08.09,0-.04-.01-.08-.08-.09Z"/>
      <path class="cls-1" d="m21.61,6.61c0-.17,0-.34,0-.51-.02,0-.05,0-.07,0,0-.03,0-.07,0-.1,0,.03,0,.07,0,.1.02,0,.05,0,.07,0,0-.15,0-.31,0-.46-.04-.04-.05-.1-.11-.12,0,.07,0,.13,0,.2.03.05.04.1.04.14,0,.03,0,.07,0,.1,0-.03,0-.07,0-.1,0-.05-.01-.1-.04-.14,0,.44,0,.89,0,1.33h0c0-.44,0-.89,0-1.33,0-.07,0-.13,0-.2-.01-.01-.03-.03-.04-.04v.02c0,.52,0,1.03,0,1.55h0,0c0-.52,0-1.03,0-1.55-.09-.05-.2-.06-.3-.06-1.01,0-2.02,0-3.03,0-.08.01-.17.03-.24.08-.01,0-.02,0-.03,0,0,.32,0,.64,0,.96,0,1.5,0,3.01,0,4.51,0,.03,0,.05,0,.08,0,2.33,0,4.66,0,6.99,0,.09-.02.2.04.28.04.09.12.08.2.07,1.04,0,2.09,0,3.13,0,.07.01.14.01.2-.03,0,0,0,0,0,0,.05,0,.08-.01.12-.04,0-.18,0-.36,0-.55h0c.11-.07.07-.17.07-.27,0-3.64,0-7.28,0-10.92Zm-.12,11.06c0,.06,0,.12,0,.18,0-.06,0-.12,0-.18-.03-.03-.04-.06-.04-.1,0,.04.01.07.04.1Zm0,.36c0-.06.01-.12.01-.18,0,.06,0,.12-.01.18Z"/>
    </g>
  </g>
</svg>