<?xml version="1.0" encoding="UTF-8"?>
<svg id="Capa_2" data-name="Capa 2" xmlns="http://www.w3.org/2000/svg" viewBox="0 0 23.85 23.84">
  <defs>
    <style>
      .cls-1 {
        fill: #fff;
      }
    </style>
  </defs>
  <g id="Capa_1-2" data-name="Capa 1">
    <g>
      <path class="cls-1" d="m9.24,9.49c0-2.51,0-5.02,0-7.53,0-.39-.18-1.25.06-1.58.21-.29,1.17-.28,1.48-.31,1.1-.1,2.3-.11,3.37.18v9.23h9.44c.33,1.63.33,3.24.01,4.86h-9.13v9.26c-1.22.18-2.42.32-3.66.21-.35-.03-1.04.03-1.25-.31-.2-.32-.03-1.33-.03-1.69,0-2.49,0-4.98,0-7.47H.25c-.34-1.62-.32-3.22,0-4.85h8.99Z"/>
      <path class="cls-1" d="m16.05,5.97V.74c.41.18.8.34,1.18.52,1,.49,1.91,1.12,2.73,1.86.13.11.21.21.01.34-1.28.82-2.55,1.65-3.83,2.48-.02.01-.04.01-.09.03Z"/>
      <path class="cls-1" d="m7.62,23.03c-1.52-.58-2.83-1.43-4.02-2.58,1.34-.87,2.66-1.73,4.02-2.62v5.2Z"/>
      <path class="cls-1" d="m20.32,20.39c-1.16,1.15-2.46,1.99-3.97,2.6v-5.18c1.33.86,2.62,1.71,3.97,2.58Z"/>
      <path class="cls-1" d="m3.51,3.5c1.13-1.11,2.37-1.95,3.82-2.55v5.04c-1.28-.83-2.53-1.64-3.82-2.48Z"/>
      <path class="cls-1" d="m20.91,4.06c.34.45.67.88,1.03,1.34-.86.6-1.74,1.18-2.62,1.75-.99.64-2.05.47-3.19.47-.05-.22-.05-.38.16-.52,1.53-1,3.06-2.01,4.63-3.04Z"/>
      <path class="cls-1" d="m2.85,19.69c-.33-.44-.65-.88-1-1.34.91-.6,1.82-1.2,2.73-1.8.87-.57,1.99-.35,3.01-.35.22.65-1.5,1.4-1.97,1.7-.87.57-1.75,1.15-2.62,1.73-.03.02-.07.03-.15.07Z"/>
      <path class="cls-1" d="m21.04,19.65c-.92-.61-1.85-1.22-2.77-1.83-.43-.28-2.08-.99-1.85-1.62,1,0,2.15-.22,3,.34.8.53,1.97,1.05,2.61,1.77-.32.44-.65.88-.99,1.34Z"/>
      <path class="cls-1" d="m1.78,5.62c.35-.48.67-.92,1-1.37.81.53,1.61,1.06,2.42,1.59.44.29,2.33,1.15,2.08,1.78-.45,0-.9,0-1.34,0-.29,0-.94.12-1.19-.04-.97-.64-1.95-1.28-2.97-1.96Z"/>
    </g>
  </g>
</svg>