<?xml version="1.0" encoding="UTF-8"?>
<svg id="Capa_2" data-name="Capa 2" xmlns="http://www.w3.org/2000/svg" viewBox="0 0 24.45 17.38">
  <defs>
    <style>
      .cls-1 {
        fill: #fff;
      }
    </style>
  </defs>
  <g id="Capa_1-2" data-name="Capa 1">
    <g>
      <path class="cls-1" d="m18.79,17.38c.24-.02.61-.03.99-.07.61-.07,1.22-.22,1.79-.46,1.08-.46,1.89-1.21,2.47-2.23.29-.52.38-1.23.41-1.81.04-.63-.04-1.26-.19-1.88-.62-2.48-3.51-3.47-5.59-4.4-.52-.23-1.11-.46-1.49-.92-.31-.38-.45-1.03-.28-1.5.18-.49.54-.84,1.05-.96.53-.13,1.21-.07,1.69.21.23.14.47.34.64.56.11.15.25.56.44.62.1.03.37-.2.46-.25.12-.08.25-.16.37-.23.27-.17.54-.35.8-.52.29-.19.57-.37.87-.55.07-.04.23-.09.23-.19,0-.09-.16-.23-.2-.29-.32-.48-.66-.93-1.11-1.3-.98-.82-2.18-1.06-3.42-1.19-.33-.03-.63.05-.95.08-.3.03-.6.08-.9.15-.32.09-.65.18-.95.32-.28.13-.52.32-.77.5-.93.65-1.61,1.79-1.71,2.92-.05.66-.04,1.26.07,1.92.06.34.17.59.32.9.14.27.25.55.43.79.65.86,1.56,1.5,2.53,1.94.31.14.61.31.92.45.26.12.54.2.8.31.28.12.53.26.81.38.28.11.53.28.78.44.51.32.85.76.87,1.38.01.56-.23,1.04-.7,1.35-.24.16-.49.22-.77.28-.27.06-.47.13-.75.14-.61.02-1.11-.08-1.68-.3-.53-.2-.96-.58-1.31-1.02-.11-.13-.21-.27-.31-.41-.06-.09-.11-.23-.18-.29-.16-.14-.45.11-.59.21-.51.36-1.09.65-1.64.97-.15.09-.7.3-.67.48.02.1.17.27.22.35.07.11.13.23.2.34.27.45.69.83,1.08,1.18.23.2.48.35.72.53.22.17.49.25.74.38.3.14.55.3.87.38.29.07.58.14.87.19.58.1,1.16.13,1.74.14ZM0,14.18c.04.06.06.09.08.12.21.38.39.76.68,1.08.31.34.61.68.97.97.31.25.75.45,1.11.62.41.2.91.26,1.35.32,1.76.23,3.85-.04,5.09-1.45.56-.64.85-1.39,1.02-2.22.17-.84.16-1.66.16-2.51,0-1.85,0-3.7,0-5.55,0-.88,0-1.76,0-2.64,0-.48,0-.95,0-1.43,0-.22,0-.44,0-.66,0-.11.06-.46,0-.54-.09-.1-.34-.05-.46-.05-.21,0-.43,0-.64,0-.43,0-.87,0-1.3,0-.19,0-1-.1-1.09.08-.06.11,0,.4,0,.53,0,.22,0,.44,0,.66,0,1.84,0,3.69,0,5.53,0,.89,0,1.78,0,2.67,0,.92.05,1.85-.01,2.76-.03.4-.1.81-.34,1.15-.23.33-.5.42-.87.54-.71.23-1.51.05-2.04-.49-.26-.27-.47-.6-.66-.92-.11-.2-.15-.28-.37-.16-.19.1-.38.23-.57.35-.7.43-1.4.85-2.11,1.26Z"/>
      <path class="cls-1" d="m18.79,17.38c-.58,0-1.17-.04-1.74-.14-.29-.05-.58-.12-.87-.19-.32-.08-.58-.24-.87-.38-.25-.12-.52-.2-.74-.38-.24-.19-.49-.33-.72-.53-.39-.34-.81-.73-1.08-1.18-.07-.11-.13-.23-.2-.34-.05-.09-.2-.25-.22-.35-.03-.18.52-.39.67-.48.54-.32,1.12-.6,1.64-.97.14-.1.44-.35.59-.21.08.07.13.21.18.29.1.14.2.28.31.41.34.44.78.82,1.31,1.02.57.21,1.07.32,1.68.3.28,0,.48-.08.75-.14.28-.06.53-.12.77-.28.47-.31.71-.8.7-1.35-.01-.62-.36-1.06-.87-1.38-.25-.16-.51-.32-.78-.44-.28-.12-.53-.26-.81-.38-.26-.11-.54-.19-.8-.31-.31-.14-.61-.31-.92-.45-.98-.44-1.89-1.08-2.53-1.94-.18-.25-.29-.52-.43-.79-.15-.3-.26-.56-.32-.9-.11-.66-.12-1.25-.07-1.92.09-1.13.78-2.27,1.71-2.92.25-.18.49-.37.77-.5.3-.14.63-.23.95-.32.3-.08.59-.12.9-.15.32-.04.63-.12.95-.08,1.24.13,2.44.37,3.42,1.19.45.37.78.83,1.11,1.3.04.07.2.21.2.29,0,.1-.15.15-.23.19-.29.18-.58.36-.87.55-.27.17-.54.35-.8.52-.12.08-.24.16-.37.23-.08.05-.35.28-.46.25-.19-.06-.33-.47-.44-.62-.16-.22-.4-.42-.64-.56-.47-.28-1.16-.34-1.69-.21-.51.13-.86.48-1.05.96-.18.47-.03,1.12.28,1.5.37.46.97.68,1.49.92,2.07.93,4.96,1.91,5.59,4.4.15.61.23,1.24.19,1.88-.03.58-.12,1.29-.41,1.81-.58,1.02-1.39,1.76-2.47,2.23-.57.24-1.18.39-1.79.46-.37.04-.75.06-.99.07Z"/>
      <path class="cls-1" d="m0,14.18c.71-.41,1.41-.83,2.11-1.26.19-.12.37-.24.57-.35.22-.12.25-.04.37.16.18.33.39.65.66.92.52.54,1.33.72,2.04.49.37-.12.63-.2.87-.54.24-.34.31-.75.34-1.15.06-.91.01-1.85.01-2.76,0-.89,0-1.78,0-2.67,0-1.84,0-3.69,0-5.53,0-.22,0-.44,0-.66,0-.12-.05-.42,0-.53.09-.17.9-.08,1.09-.08.43,0,.87,0,1.3,0,.21,0,.43,0,.64,0,.12,0,.38-.05.46.05.07.08,0,.44,0,.54,0,.22,0,.44,0,.66,0,.48,0,.95,0,1.43,0,.88,0,1.76,0,2.64,0,1.85,0,3.7,0,5.55,0,.85.01,1.67-.16,2.51-.17.83-.46,1.57-1.02,2.22-1.24,1.41-3.33,1.68-5.09,1.45-.44-.06-.94-.12-1.35-.32-.36-.17-.79-.37-1.11-.62-.36-.29-.66-.63-.97-.97-.29-.32-.47-.7-.68-1.08-.02-.03-.04-.07-.08-.12Z"/>
    </g>
  </g>
</svg>