<?xml version="1.0" encoding="UTF-8"?>
<svg id="Capa_2" data-name="Capa 2" xmlns="http://www.w3.org/2000/svg" viewBox="0 0 24.98 24.74">
  <defs>
    <style>
      .cls-1 {
        fill: #fff;
      }
    </style>
  </defs>
  <g id="Capa_1-2" data-name="Capa 1">
    <g>
      <path class="cls-1" d="m.03,11.13v-.63c-.04.2-.03.41,0,.63Z"/>
      <g>
        <path class="cls-1" d="m.06,11.92s0,0,.01,0c.23,1.01.26,2.03.58,3.03.31.98.74,1.91,1.28,2.79,1.1,1.8,2.58,3.38,4.32,4.57,3.76,2.58,8.96,3.24,13.14,1.32,1.03-.47,1.97-1.12,2.79-1.91.41-.4.79-.84,1.13-1.3.21-.29,1.15-1.39,1.04-1.73-1.75,1.41-3.77,2.47-6.02,2.8-2.33.35-4.87-.03-7.07-.86-3.95-1.48-7.32-4.62-8.62-8.67-.86-2.68-.64-5.29.3-7.92-.3.13-.56.58-.75.83-.33.44-.64.89-.9,1.37C.56,7.55.33,8.95.03,10.4v.1s.01-.05.02-.07c0,.02-.01.05-.02.07v.63c.03.27.07.53.02.79Z"/>
        <path class="cls-1" d="m9.48,1.64c-.72,2.15-.74,4.43.19,6.55.79,1.79,2.13,3.35,3.75,4.44,1.72,1.17,3.8,1.9,5.89,1.86.97-.02,1.94-.2,2.85-.55,1.05-.4,1.85-1.12,2.82-1.64-1.28,2.22-3.24,3.61-5.8,4.01-2.44.37-4.95.05-7.03-1.32-2.05-1.35-3.72-3.45-4.38-5.82-.75-2.72-.01-5.27,1.63-7.47.01-.02.04-.03.08-.05Z"/>
      </g>
      <path class="cls-1" d="m15.09,0c-.62,2.36-.13,4.71,1.74,6.35,2.34,2.05,5.28,2.17,7.83.44,0,.02.02.04.02.07-.69,1.18-2.39,2.14-3.71,2.33-1.55.22-3.18-.15-4.47-1.04-2.46-1.7-3.56-5.41-1.62-7.93.05-.06.1-.11.19-.22Z"/>
    </g>
  </g>
</svg>