<?xml version="1.0" encoding="UTF-8"?>
<svg id="Capa_2" data-name="Capa 2" xmlns="http://www.w3.org/2000/svg" viewBox="0 0 30.78 21.07">
  <defs>
    <style>
      .cls-1 {
        fill: #fff;
      }
    </style>
  </defs>
  <g id="Capa_1-2" data-name="Capa 1">
    <path class="cls-1" d="m1.83.41c.25-.01.5-.02.75-.04.26-.02.51-.12.76-.14.49-.05.99,0,1.48-.06.22-.03.43-.12.66-.14.25-.02.52,0,.77-.01.24,0,.5-.03.74,0,.23.03.3.14.43.31.46.59.85,1.29,1.21,1.93.19.35.43.66.62,1.01.25.43.48.87.75,1.29.48.77.93,1.57,1.41,2.34.49.79.9,1.62,1.41,2.4.53.81,1.04,1.64,1.5,2.49.12.21.23.42.37.62.11.16.17.39.3.53.16.17.24.09.43.04.11-.03.23-.01.34-.04.13-.03.24-.09.37-.13.44-.12.9-.2,1.35-.28.46-.09.9-.25,1.36-.34.46-.09.92-.23,1.39-.33.46-.1.93-.2,1.37-.36.42-.15.89-.23,1.33-.3.44-.07.86-.25,1.29-.35.15-.04.34.02.38-.16.03-.18-.2-.35-.29-.47-.31-.42-.58-.85-.88-1.28-.59-.86-1.26-1.65-1.83-2.52-.09-.14-.23-.4-.06-.55.12-.11.36-.05.5-.1.49-.15.99-.16,1.49-.23.49-.07.98-.18,1.48-.25.24-.03.49-.04.73-.09.24-.05.53-.21.79-.17.19.03.32.21.45.34.19.19.36.39.54.59.29.34.55.7.84,1.03.3.33.55.7.84,1.04.29.33.54.69.81,1.04.13.17.87.89.72,1.13-.04.07-.13.05-.2.06-.09.03-.13.06-.21.1-.18.09-.39.02-.58.1-.08.03-.11.1-.19.14-.09.04-.2.02-.29.03-.24.02-.4.15-.63.18-.21.03-.34.04-.53.13-.16.07-.35.03-.51.09-.17.07-.22.15-.43.17-.22.02-.35.08-.55.15-.16.06-.33.02-.28.23.04.2.28.42.39.58.31.41.62.83.93,1.24.24.32.46.66.72.96.33.38.6.82.9,1.23.16.22.32.44.49.66.12.16.37.38.4.59.02.16-.08.29-.22.36-.07.03-.16.04-.23.07-.1.04-.18.1-.28.12-.07.02-.15.01-.21.05-.07.04-.1.1-.19.13-.09.03-.19,0-.28.03-.1.03-.17.11-.26.15-.15.06-.29.04-.43.12-.15.08-.31.08-.46.15-.16.07-.34.11-.5.18-.18.08-.37.12-.55.19-.77.32-1.56.6-2.36.88-.18.06-.35.16-.52.21-.08.03-.17.03-.25.06-.08.03-.13.09-.21.12-.2.08-.43.13-.63.2-.19.07-.37.17-.55.22-.07.02-.16,0-.23.04-.07.03-.09.08-.14.11-.15.09-.34.07-.5.15-.16.08-.32.07-.48.13-.07.03-.11.09-.18.12-.08.03-.18.02-.26.05-.08.03-.11.08-.18.12-.1.05-.17.05-.27.06-.2.03-.33.16-.52.19-.41.07-.75-.02-1.03-.32-.3-.32-.48-.78-.7-1.16-.24-.4-.49-.8-.7-1.21-.11-.22-.22-.44-.34-.66-.12-.21-.3-.4-.4-.62-.17-.35-.36-.7-.56-1.04-.24-.42-.57-.84-.77-1.29-.06-.14-.06-.26-.23-.32-.16-.06-.4.02-.57.04-.16.02-.22.11-.37.16-.1.03-.22.02-.32.03-.12.02-.21.07-.32.11-.19.07-.38.05-.57.1-.2.06-.37.13-.58.17-.37.07-.75.22-1.11.33-.41.12-.86.18-1.27.29-.21.06-.41.11-.62.16-.24.05-.42.17-.67.2-.45.04-.94.13-1.29-.23-.3-.31-.48-.76-.64-1.16-.18-.45-.42-.9-.64-1.34-.18-.36-.32-.75-.51-1.11-.19-.35-.33-.71-.5-1.08-.42-.87-.82-1.76-1.21-2.65-.18-.42-.43-.8-.6-1.22-.13-.33-.28-.78-.49-1.06-.02-.02-.06.01-.09-.02-.02-.03-.01-.05-.02-.08-.04-.08-.03-.18-.07-.27-.1-.19-.18-.36-.27-.56-.21-.46-.42-.91-.61-1.38-.19-.45-.43-.88-.63-1.33C.39,2.08.1,1.67.03,1.18c-.02-.14-.07-.46.04-.57.12-.11.38-.02.53-.07.17-.05.25-.11.45-.12.26-.01.52-.02.78-.03,0,0,0,.01,0,.02Zm.27.71s0,0,0-.01c-.14,0-.55-.05-.65.06-.1.1.02.34.07.45.12.28.31.54.43.81.15.32.26.65.43.96.07.12.1.28.17.39.04.06.11.08.14.14.03.05.01.15.03.21.04.13.12.25.17.38.07.18.17.34.25.52.17.39.35.78.54,1.17.16.32.34.63.47.96.12.31.27.62.43.91.29.52.49,1.11.78,1.6.13.22.2.47.29.71.05.15.15.3.21.45.06.14.14.27.22.4.32.59.59,1.22.87,1.83.16.35.29.7.46,1.05.11.22.16.52.43.59.67.18,1.44-.23,2.08-.36.2-.04.34-.04.52-.13.12-.06.23-.07.36-.08.21-.02.34-.07.53-.14.16-.06.31-.04.47-.06.16-.03.3-.1.45-.14.16-.05.33-.04.48-.09.17-.05.28-.12.46-.13.16-.01.27-.01.41-.1.31-.2.09-.42-.08-.67-.17-.25-.3-.55-.46-.81-.72-1.23-1.41-2.47-2.13-3.71-.42-.72-.85-1.44-1.24-2.17-.17-.33-.37-.64-.55-.96-.16-.28-.28-.57-.48-.83-.42-.56-.74-1.27-1.08-1.89-.2-.37-.4-.73-.61-1.09-.15-.27-.19-.54-.53-.56-.37-.02-.76-.03-1.13,0-.18.01-.3.08-.46.12-.15.04-.34.04-.49.05-.4.03-.82-.02-1.21.05-.16.03-.31.11-.47.14-.19.04-.38.02-.58.02Zm17.14,18.44c.1-.01.21-.01.31-.05.62-.19,1.22-.47,1.85-.64.53-.15,1.03-.38,1.56-.52.53-.14,1.04-.35,1.55-.53.24-.09.47-.18.72-.23.14-.03.2-.09.33-.14.12-.05.25-.01.37-.06.13-.05.21-.14.35-.17.1-.02.19-.02.28-.06.12-.06.18-.12.33-.14.11-.02.16-.04.25-.09.21-.12.45-.12.69-.21.21-.08.6-.15.77-.3.33-.28-.49-1.04-.66-1.28-.36-.51-.72-1.03-1.09-1.53-.37-.5-.71-1.04-1.1-1.51-.15-.18-.36-.56-.64-.54-.11,0-.2.09-.3.13-.13.05-.23.05-.36.07-.24.04-.45.15-.7.19-.26.04-.51.14-.77.19-.49.1-.95.31-1.44.39-.58.1-1.17.28-1.74.43-.25.07-.55.12-.79.21-.1.04-.17.1-.27.13-.14.04-.29,0-.43.04-.24.05-.45.15-.7.18-.2.03-.35.15-.54.18-.14.02-.25.01-.38.07-.1.04-.16.09-.28.11-.2.03-.49-.04-.56.22-.06.24.16.48.28.67.13.21.25.43.38.65.32.54.62,1.08.95,1.62.29.47.58.95.85,1.43.16.29.49,1.15.92,1.09Zm6.51-9.11s0,.01,0,.02c.35-.06.69-.14,1.03-.22.18-.04.35-.1.53-.15.15-.04.32-.02.47-.07.14-.05.21-.13.37-.15.16-.02.3,0,.46-.05.17-.05.32-.11.49-.14.19-.03.29,0,.35-.2.08-.27-.15-.43-.29-.62-.2-.26-.39-.51-.6-.76-.39-.46-.78-.95-1.14-1.43-.19-.26-.36-.53-.59-.75-.2-.2-.49-.18-.76-.15-.35.04-.69.15-1.04.19-.27.03-.51.14-.77.18-.32.04-.61.11-.93.18-.17.04-.51-.05-.63.1-.16.19.13.42.23.55.19.26.38.52.57.78.38.51.79,1.01,1.17,1.53.18.25.39.47.56.73.17.25.21.44.54.44Z"/>
  </g>
</svg>