<?xml version="1.0" encoding="UTF-8"?>
<svg id="Capa_2" data-name="Capa 2" xmlns="http://www.w3.org/2000/svg" viewBox="0 0 65.78 50.12">
  <defs>
    <style>
      .cls-1 {
        fill: #fff;
      }
    </style>
  </defs>
  <g id="Capa_1-2" data-name="Capa 1">
    <g>
      <path class="cls-1" d="m33.2.1c.39-.14,30.83-.13,31.2.02-.05.11-.06.26-.14.33-.37.34-.75.67-1.14.97-.09.07-.26.07-.39.07-8.49.02-16.99.03-25.48.04-.68,0-1.36-.03-2.03-.03-.52,0-.61.11-.61.66,0,3.52-.02,7.04-.02,10.55,0,7,0,14.01.01,21.01,0,.34-.12.49-.42.5-.1,0-.2.02-.31.02-4.7.01-9.41.03-14.11.04-.27,0-.53-.04-.8-.06-.05,0-.11,0-.15-.04-.25-.23-.51-.44-.73-.7-.13-.15-.01-.37.21-.39.19-.02.39.01.58.01,1.5,0,3-.02,4.5-.02,1.33,0,2.67.01,4,.02,1.75,0,3.49,0,5.24,0,.48,0,.56-.06.57-.58.02-1.7.02-3.4.02-5.1,0-8.82,0-17.64,0-26.46,0-.29,0-.58,0-.87Z"/>
      <path class="cls-1" d="m36.64,20.28c0,4.8,0,9.6,0,14.41,0,.58.02,1.15.03,1.73,0,.38-.04.44-.4.44-.85,0-1.7,0-2.56,0-3.98,0-7.97,0-11.95,0-.33,0-.67.05-.81-.4-.02-.06-.15-.07-.2-.12-.11-.13-.27-.27-.27-.41,0-.24.22-.25.4-.24.83.02,1.66.06,2.49.06,3.62,0,7.23-.03,10.85.01.96.01,1.13-.47,1.13-1.26,0-10.13-.01-20.26-.01-30.38,0-.36,0-.72,0-1.08.01-.48.3-.79.76-.81.74-.03,1.48-.05,2.22-.05,7.04,0,14.07,0,21.11,0,.83,0,1.66.02,2.49.04.11,0,.21.08.32.13-.04.11-.06.23-.12.32-.2.26-.42.5-.63.76-.2.25-.46.29-.75.29-5.04,0-10.09,0-15.13,0-2.87,0-5.73.01-8.6,0-.26,0-.36.06-.35.36.01.94,0,1.87,0,2.81,0,4.46,0,8.93,0,13.39h0Z"/>
      <path class="cls-1" d="m37.53,4.46c.18-.01.36-.04.55-.04,6.78,0,13.56,0,20.34,0,.46,0,.92-.03,1.39-.02.11,0,.22.08.32.12-.04.11-.07.24-.14.33-.25.31-.52.61-.79.89-.08.08-.22.12-.33.12-3.82,0-7.64-.03-11.46-.04-2.56,0-5.12,0-7.67.01-.19,0-.39,0-.58.03-.41.03-.45.06-.46.51,0,.77,0,1.55,0,2.32,0,9.79,0,19.58,0,29.37,0,.19,0,.37,0,.55.03.26-.08.35-.32.35-.62-.01-1.23-.02-1.85-.02-4.29,0-8.59,0-12.88,0-.31,0-.58-.03-.77-.35-.07-.12-.22-.2-.34-.28-.18-.12-.16-.27,0-.35.15-.08.33-.13.49-.13.94,0,1.89.03,2.83.03,2.94,0,5.88,0,8.81,0,.6,0,1.19,0,1.79-.03.62-.02.92-.37.95-1.04.01-.32,0-.63,0-.95,0-.63,0-1.26,0-1.89,0-2.54,0-5.08,0-7.61,0-5.96,0-11.91,0-17.87,0-1.09-.06-2.17-.07-3.26,0-.11.08-.23.13-.34.04-.12.08-.23.13-.35l-.07-.07Z"/>
      <path class="cls-1" d="m16.61.01c5,0,10,0,15,0,.48,0,.49,0,.52.52.02.57.01,1.13.01,1.7,0,7.73,0,15.46,0,23.19,0,2.06,0,4.12,0,6.17,0,.31-.11.4-.38.39-.68-.02-.69-.01-.69-.73-.01-9.41-.03-18.82-.04-28.22,0-.35,0-.69,0-1.04,0-.22-.12-.34-.32-.37-.16-.02-.33-.04-.49-.04-8.53,0-17.07,0-25.6,0-.69,0-1.38.01-2.06,0-.24,0-.5.01-.51-.36,0,0,0-.03-.01-.03-.38-.06-.47-.48-.75-.67-.11-.08-.17-.23-.25-.36.11-.06.22-.15.33-.16.51-.02,1.03-.01,1.54-.01,4.57,0,9.14,0,13.71,0h0Z"/>
      <path class="cls-1" d="m40.7,24.59c0,5.09,0,10.17,0,15.26,0,.29,0,.59.02.88.03.28-.08.36-.33.36-.91,0-1.83,0-2.74,0-4.03,0-8.05-.02-12.08-.02-.23,0-.42-.02-.5-.31-.02-.09-.18-.12-.26-.2-.09-.1-.16-.23-.24-.34.11-.08.22-.21.33-.22.54-.02,1.09,0,1.63,0,3.98,0,7.97,0,11.95,0,.14,0,.29.01.43-.02.1-.02.22-.09.27-.18.26-.42.33-.9.33-1.39,0-4.33,0-8.67,0-13,0-5.92,0-11.85.01-17.77,0-.32.11-.64.2-.94.02-.07.2-.13.31-.13.48-.01.97,0,1.45,0,5.43,0,10.87,0,16.3,0,.11,0,.22.07.33.11-.05.11-.07.24-.14.33-.26.32-.53.64-.81.94-.07.07-.2.11-.3.11-5.05,0-10.11,0-15.16,0-.23,0-.45.03-.68.02-.26-.01-.35.12-.33.38,0,.16,0,.33,0,.49,0,5.23,0,10.45,0,15.68Z"/>
      <path class="cls-1" d="m30.12,17.08c0,4.43,0,8.87,0,13.3,0,.42,0,.85.01,1.27,0,.24-.09.32-.31.32-.75,0-.76,0-.76-.82,0-8.89,0-17.77,0-26.66,0-.63-.14-.78-.75-.78-7.78,0-15.55,0-23.33,0-.17,0-.36.02-.52-.02-.13-.04-.24-.16-.35-.24,0,0,0-.02-.01-.03-.32-.22-.54-.54-.75-.86-.05-.07-.12-.12-.18-.18.08-.05.16-.14.25-.14.42-.03.84-.05,1.26-.05,4.66,0,9.33,0,13.99,0,3.66,0,7.31,0,10.97,0,.47,0,.48,0,.48.5,0,2.31.01,4.62.01,6.93,0,2.49,0,4.99,0,7.48h0Z"/>
      <path class="cls-1" d="m65.78,25.31c0,7.93,0,15.85,0,23.78,0,.53,0,.52-.48.65-.15.04-.3.13-.44.21-.21.12-.37.08-.43-.16-.05-.2-.08-.4-.08-.61,0-6.58,0-13.15,0-19.73,0-8.31,0-16.62,0-24.92,0-.66-.02-1.33-.02-1.99,0-.37.04-.73.42-.94.23-.14.4-.41.63-.53.32-.16.4-.08.4.3,0,.58,0,1.15,0,1.73,0,7.4,0,14.81,0,22.21h0Z"/>
      <path class="cls-1" d="m5.28,4.43c.27-.01.51-.04.75-.04,4.11,0,8.22.02,12.32.02,2.87,0,5.73,0,8.6,0,.29,0,.57-.01.86-.03.2-.01.29.08.29.28,0,.22.02.44.02.65,0,8.71,0,17.42,0,26.13q0,.52-.48.51c-.95-.02-1.02-.11-.9-1.1.02-.2.03-.41.03-.62,0-7.62,0-15.25,0-22.87,0-.37-.03-.74-.04-1.11,0-.29-.15-.41-.41-.41-.46-.01-.92-.03-1.39-.03-5.67,0-11.34,0-17.01,0-.43,0-.86.05-1.29.02-.16,0-.33-.13-.48-.23-.14-.09-.26-.21-.38-.32-.05-.04-.1-.08-.13-.13-.11-.21-.22-.43-.37-.73Z"/>
      <path class="cls-1" d="m42.69,26.75c0,5.06,0,10.13,0,15.19,0,.34.01.67.02,1.01,0,.22-.07.3-.31.29-1.14-.03-2.28-.02-3.42-.02-.31,0-.61,0-.92,0-2.01,0-4.03,0-6.04,0-1.14,0-2.28.03-3.41.04-.36,0-.71,0-1.07,0-.06,0-.14,0-.18-.03-.25-.23-.53-.45-.74-.72-.16-.21-.07-.36.2-.38.27-.02.53-.01.8-.01,4.33,0,8.67,0,13-.01.97,0,1.06-.12,1.06-1.15,0-10.48,0-20.95,0-31.43,0-.5.11-.59.57-.55.57.05,1.15.1,1.72.1,3.45.01,6.9.01,10.35,0,.35,0,.7-.05,1.04-.09.19-.03.39-.03.43.18.03.15-.05.35-.13.48-.12.18-.28.33-.44.46-.07.06-.19.07-.29.07-3.79,0-7.58,0-11.37,0-.99,0-.85-.12-.85.88-.01,5.23,0,10.45,0,15.68h0Z"/>
      <path class="cls-1" d="m44.86,12.33c-.26.95-.19,1.93-.16,2.9.03,1.01,0,2.03,0,3.05,0,2.06,0,4.12,0,6.17,0,4.12,0,8.23,0,12.35,0,2.06,0,4.12,0,6.17,0,.51.27,2.14-.16,2.44-.19.13-.73.04-.95.05-.47,0-.94.01-1.41.01-3.81,0-7.63,0-11.44,0-.73,0-1.64.08-2.05-.75-.2-.41-.03-.43.39-.46.5-.04,1.02,0,1.52,0,1.94,0,3.88,0,5.82,0,1.94,0,3.89.04,5.83-.02.3,0,1.05.09,1.26-.14.18-.2.13-.66.14-.91.03-1.03,0-2.06,0-3.08,0-8.23,0-16.45,0-24.68,0-1.15,0-2.3-.01-3.45,0-1.02.35-.81,1.26-.81,2.1,0,4.21-.01,6.31-.03.35,0,2.47-.3,2.55.27.02.15-.41.66-.5.73-.3.21-.62.16-.99.16-2.21,0-4.43,0-6.64,0-.25,0-.51.03-.78.05Z"/>
      <path class="cls-1" d="m32.48,48.67c.2-.03.39-.07.59-.07,3.36,0,6.72,0,10.08,0,1.37,0,2.73-.01,4.1-.03.44,0,.49-.06.49-.54.01-1.05.01-2.09.01-3.14,0-9.26,0-18.51,0-27.77,0-.44,0-.87-.02-1.31,0-.23.07-.36.29-.36.51,0,1.03-.02,1.54,0,.28,0,.35.23.16.48-.12.16-.28.29-.41.44-.27.32-.34.7-.34,1.12,0,3.06,0,6.12,0,9.18,0,7.31,0,14.61,0,21.92,0,.15,0,.31.01.46.04.53-.23.85-.75.86-.67,0-1.33,0-2,0-3.42,0-6.84,0-10.26,0-.61,0-1.23.03-1.84,0-.39-.02-.76-.14-1.03-.49-.18-.23-.41-.42-.62-.62,0-.04,0-.08.01-.12Z"/>
      <path class="cls-1" d="m26.15,19.46c0,3.08,0,6.16,0,9.24,0,.77,0,1.54,0,2.31,0,.56.14.91-.43.96-.55.05-.96,0-1.03-.58-.09-.72,0-1.52,0-2.24.01-6.13.03-12.25,0-18.38,0-.71.06-1.46,0-2.17-.06-.69-.39-.55-1-.55-1.42,0-2.85,0-4.27,0-2.97,0-5.95,0-8.92.01-.57,0-1.54.21-2.08-.03-.19-.08-.72-.54-.8-.75-.28-.72.73-.56,1.1-.58.72-.02,1.45-.04,2.17-.04,2.9-.01,5.8,0,8.7,0,1.69,0,3.37,0,5.06,0,.38,0,1.13-.16,1.41.22.32.43.09,1.54.09,2.06,0,3.51,0,7.02,0,10.53,0,0,0,0,0,0Z"/>
      <path class="cls-1" d="m62.32,26.95c0-6.36,0-12.73,0-19.09,0-1.2-.38-3.11.42-4.08,1.1-1.32.84,1.47.85,2.11.04,3.18.02,6.37.02,9.55,0,6.37,0,12.74,0,19.11,0,3.16,0,6.31,0,9.47,0,1.56.01,3.12-.04,4.68-.02.49-.06,1.11-.65,1.2-.72.1-.59-.8-.6-1.3,0-7.22,0-14.43,0-21.65h0Z"/>
      <path class="cls-1" d="m45.68,29.67c0-5.3,0-10.61,0-15.91,0-.4.07-.5.44-.5,1.06,0,2.11.03,3.17.03.63,0,1.25-.03,1.88-.04.11,0,.23-.01.34.02.1.03.23.11.25.19.03.1-.02.27-.09.34-.34.37-.7.64-1.26.6-.94-.07-1.89.02-2.83-.04-.57-.03-.81.41-.83.88-.04.88-.04,1.76-.04,2.64,0,1.96,0,3.92,0,5.88,0,6.67,0,13.35,0,20.02,0,1.07.05,2.13.08,3.2.01.43-.16.62-.56.63-3.77.02-7.54.04-11.31.05-.96,0-1.93-.01-2.89-.06-.35-.02-.78,0-.95-.49-.03-.08-.18-.1-.25-.17-.08-.09-.14-.22-.21-.33.11-.07.22-.21.34-.21,1.27,0,2.55.03,3.82.03,3.27,0,6.53,0,9.8-.01,1.05,0,1.13-.09,1.13-1.22,0-5.18,0-10.37,0-15.55,0,0,0,0,0,0Z"/>
      <path class="cls-1" d="m4.03,27.5c0-7.22,0-14.44,0-21.66,0-.09-.01-.18.02-.26.04-.09.11-.2.18-.22.08-.02.21.03.26.1.23.32.46.64.66.99.09.17.15.38.15.58,0,13.4,0,26.81,0,40.22,0,.62,0,1.24,0,1.86,0,.36-.39.88-.72.88-.15,0-.35-.13-.43-.26-.09-.14-.09-.35-.09-.53,0-7.23,0-14.46,0-21.69,0,0-.01,0-.02,0Z"/>
      <path class="cls-1" d="m6.06,28.63c0-5.92,0-11.83,0-17.75,0-.42-.26-3.23.21-3.38.3-.09.87.93.96,1.16.26.61.14,1.46.15,2.12.05,2.88.02,5.77.02,8.65,0,5.85,0,11.71,0,17.56,0,2.93,0,5.85,0,8.78,0,.72,0,1.43,0,2.15,0,.44.13,1.31-.13,1.68-.13.17-.71.49-.92.4-.43-.18-.28-1.08-.28-1.45,0-6.64,0-13.28,0-19.92,0,0,0,0,0,0Z"/>
      <path class="cls-1" d="m60.28,28.03c0-6.1,0-12.19,0-18.29,0-1.13-.4-3.16.49-3.99.95-.89.72,2.24.72,2.75.04,2.97.03,5.93.03,8.9,0,6.13,0,12.26,0,18.38,0,3.05,0,6.09,0,9.14,0,1.36.19,2.95-.06,4.29-.07.4-.42.88-.87.68-.48-.22-.31-1.09-.31-1.52,0-6.78,0-13.56,0-20.34Z"/>
      <path class="cls-1" d="m10.12,30.78c0-5.49,0-10.97,0-16.46,0-.61,0-1.22,0-1.83,0-.45-.02-.78.42-.55.19.1.58.53.73.7.4.46.32.85.31,1.44-.05,2.71-.02,5.43-.02,8.14,0,5.39,0,10.78,0,16.17,0,2.67,0,5.33,0,8,0,.73,0,1.45,0,2.18,0,.23.1.83-.02,1.02-.11.18-.37.22-.57.24-.65.07-.83-.11-.84-.76-.13-6.09,0-12.2,0-18.29,0,0,0,0-.01,0Z"/>
      <path class="cls-1" d="m8.14,29.69c0-6.17,0-12.35,0-18.52,0-.39-.03-.78-.02-1.17,0-.11.09-.22.14-.32.1.07.2.12.29.2.12.1.23.22.35.32.01.01.05.02.05.03.09.38.49.58.49,1.01,0,4.14-.01,8.27-.01,12.41,0,7.52,0,15.05,0,22.57,0,1-.02,2-.04,3,0,.44-.43.75-.82.61-.43-.15-.43-.15-.43-.7,0-6.48,0-12.96,0-19.43Z"/>
      <path class="cls-1" d="m12.15,31.82c0-3.07,0-6.14,0-9.21,0-1.5,0-3.01,0-4.51,0-1.25-.32-3.02.11-4.18.37.3,1.13.76,1.3,1.24.24.69.02,1.9.02,2.64,0,1.94,0,3.88,0,5.82,0,3.94,0,7.89,0,11.83,0,3.88,0,7.77,0,11.65,0,.86.38,3.94-1.08,2.66-.31-.27-.31.04-.37-.51-.04-.39.01-.82.02-1.22,0-1.01,0-2.03,0-3.04,0-4.39,0-8.78,0-13.17Z"/>
      <path class="cls-1" d="m58.25,29.12c0-6.69,0-13.37,0-20.06,0-.22.04-.43.07-.65.01-.08.05-.2.1-.22.23-.1.35-.27.45-.5.09-.18.4-.08.46.19.08.35.11.71.13,1.06.02.25-.03.5-.03.75,0,13.09,0,26.17,0,39.26,0,.29.02.58-.24.8-.22.19-.42.18-.66.1-.25-.08-.28-.29-.28-.52,0-.9,0-1.81,0-2.71,0-5.84,0-11.67,0-17.51h0Z"/>
      <path class="cls-1" d="m2.01,26.49c0-7.57,0-15.14,0-22.71,0-.19.05-.5.17-.56.23-.11.29.23.44.34.58.45.41,1.08.41,1.66,0,13.95.01,27.9.02,41.85,0,.7,0,1.39,0,2.09,0,.16-.03.32-.06.48-.05.28-.21.5-.48.39-.19-.09-.35-.32-.47-.53-.07-.12-.02-.32-.02-.48,0-7.51,0-15.03,0-22.54,0,0-.01,0-.02,0Z"/>
      <path class="cls-1" d="m.01,25.38C.01,17.45.01,9.53.02,1.6c0-.2-.1-.49.18-.56.26-.06.32.2.4.4.02.05.06.11.1.12.36.07.32.36.32.63,0,15.32,0,30.64,0,45.97,0,.54-.04,1.08-.07,1.62-.02.31-.24.3-.45.32-.21.02-.37-.04-.4-.29-.03-.26-.08-.52-.08-.78,0-7.88,0-15.77,0-23.65h0Z"/>
      <path class="cls-1" d="m24.11,20.58c0,3.63,0,7.25,0,10.88,0,.51,0,.51-.48.51-.17,0-.35-.03-.52-.02-.33.02-.41-.15-.41-.48.01-6.76.02-13.53,0-20.29,0-1.2.1-1-.93-1-3.55,0-7.11,0-10.66,0-.18,0-.37-.01-.55-.03-.22-.02-.43-.03-.47-.35,0-.08-.17-.17-.28-.21-.17-.07-.22-.18-.17-.35.05-.18.07-.37.32-.35,3.88.34,7.77.11,11.66.16.46,0,.92-.06,1.37-.1.01,0,.02,0,.03,0,.97-.02,1.06.08,1.06,1.1,0,3.51,0,7.01,0,10.52h0Z"/>
      <path class="cls-1" d="m57.25,29.89c0,6.21,0,12.41,0,18.62,0,.44-.06.89-.09,1.33-.01.2-.11.28-.28.25-.19-.03-.46.13-.54-.2-.05-.21-.09-.43-.09-.64,0-7.74,0-15.49,0-23.23,0-4.95,0-9.91,0-14.86,0-.39.02-.79.44-.99.08-.04.12-.19.19-.28.04-.06.11-.11.16-.17.05.06.13.12.14.19.04.2.08.41.08.61,0,6.46,0,12.91,0,19.37Z"/>
      <path class="cls-1" d="m15.57,33.52c0,4.77,0,9.54,0,14.31,0,.53,0,1.05,0,1.58-.01.46.04.65-.37.65-1.16,0-.82-1.58-.82-2.28.02-2.36,0-4.73,0-7.09,0-4.85,0-9.7,0-14.54,0-2.36,0-4.73,0-7.09,0-.51.04-1.04-.04-1.55-.04-.23-.39-1.13-.07-1.31.22-.12,1.21.96,1.29,1.13.19.39.02,1.5.02,1.94,0,.61,0,1.22,0,1.83,0,1.34,0,2.68,0,4.02,0,2.8,0,5.61,0,8.41h0Z"/>
      <path class="cls-1" d="m22.02,21.58c0,3.23,0,6.47,0,9.7,0,.66,0,.66-.63.68-.72.03-.72.03-.72-.71,0-5.81,0-11.63,0-17.44,0-.41-.04-.83-.03-1.24,0-.19-.08-.26-.23-.27-.24-.01-.47-.02-.71-.02-2.23,0-4.46,0-6.69,0-.15,0-.31-.01-.46-.02-.22,0-.44-.01-.45-.35,0-.06-.15-.12-.22-.18-.09-.07-.25-.19-.24-.22.05-.14.14-.27.25-.36.07-.06.2-.03.3-.03,2.08,0,4.17,0,6.25,0,.92,0,1.84.03,2.77.04.14,0,.29.02.43.03.27.02.38.16.38.46,0,3.31,0,6.62,0,9.93h0Z"/>
      <path class="cls-1" d="m53.27,31.95c0,5.05,0,10.1,0,15.15,0,.56.28,2.8-.41,2.99-.89.25-.64-1.95-.65-2.42,0-2.55,0-5.1,0-7.66,0-4.94,0-9.88,0-14.82,0-2.53,0-5.06,0-7.59,0-.85-.28-2.2.16-2.97.09-.16.45-.65.63-.66.33-.02.26.69.26.95.13,5.67,0,11.35,0,17.02Z"/>
      <path class="cls-1" d="m55.25,30.89c0,5.36,0,10.71,0,16.07,0,.61.31,2.96-.37,3.14-.96.26-.64-2.22-.64-2.75,0-2.66,0-5.32,0-7.97,0-5.32,0-10.63,0-15.95,0-2.66,0-5.32,0-7.97,0-.84-.31-2.28.13-3.03.07-.11.25-.11.35-.22,0,0,.14-.31.15-.31.48-.24.38.58.38.96.11,6.01,0,12.03,0,18.05Z"/>
      <path class="cls-1" d="m51.22,32.96c0,5.38,0,10.76,0,16.13,0,.3.01.59-.23.81-.19.17-.39.2-.58,0-.23-.24-.39-.49-.31-.87.05-.23.03-.48.03-.72,0-10.04,0-20.08.01-30.11,0-.42.08-.87.21-1.26.1-.28.34-.51.55-.73.12-.13.28-.1.31.12.02.14.02.28.02.42,0,5.4,0,10.8,0,16.2,0,0-.01,0-.02,0Z"/>
      <path class="cls-1" d="m19.98,22.67c0,2.83,0,5.66,0,8.49,0,.78,0,.79-.71.8-.65,0-.64.18-.64-.67,0-5.34.01-10.67,0-16.01,0-.99.04-.85-.81-.86-1.11-.02-2.22-.02-3.33-.03-.2,0-.35-.06-.41-.3-.02-.08-.15-.12-.21-.19-.1-.1-.19-.21-.28-.32.13-.08.25-.24.38-.24,1.26-.02,2.53-.01,3.79,0,.63,0,1.25.02,1.88.04.28,0,.37.16.37.46,0,2.95,0,5.9,0,8.85,0,0,0,0,0,0Z"/>
      <path class="cls-1" d="m17.95,23.72c0,2.53.16,5.12,0,7.64-.02.28.02.4-.2.56-.14.1-.84.15-.99.08-.49-.24-.2-2.09-.2-2.64,0-2.45,0-4.9,0-7.35,0-1.25-.01-2.51,0-3.76,0-.42.16-1.1.04-1.49-.14-.42-.71-.73-.96-1.11.33-.2.59-.19.98-.18.27,0,.97-.12,1.18.05.42.33.17,1.89.17,2.38,0,1.94,0,3.89,0,5.83,0,0,0,0-.01,0Z"/>
    </g>
  </g>
</svg>