<?xml version="1.0" encoding="UTF-8"?>
<svg id="Capa_2" data-name="Capa 2" xmlns="http://www.w3.org/2000/svg" viewBox="0 0 30.87 28.34">
  <defs>
    <style>
      .cls-1 {
        fill: #fff;
      }
    </style>
  </defs>
  <g id="Capa_1-2" data-name="Capa 1">
    <g>
      <path class="cls-1" d="m26.14,19.57c1.26,1.38,2.33,2.89,3.32,4.46.49.77.91,1.59,1.16,2.46.12.41.34.82.2,1.26-.1.32-.39.54-.72.58-.91.11-1.02-1.01-1.26-1.61-.36-.89-.85-1.68-1.37-2.47-.54-.82-1.11-1.6-1.73-2.36-.3-.37-.61-.74-.92-1.1-.29-.34-.71-.68-.91-1.08-.49-.95.72-1.51,1.42-1.75.97-.33,2.01-.45,3.01-.71-.59-.67-1.27-1.34-2.02-1.84-.7-.47-1.58-.93-2.42-1.05-.79-.11-1.84.2-2.3-.62-.46-.83-.88-1.67-1.38-2.47-.51-.81-1.09-1.6-1.7-2.33-.59-.71-1.19-1.42-1.85-2.05-.67-.64-1.4-1.24-2.18-1.74-.73-.47-1.58-.98-2.43-1.19-.96-.24-1.9-.43-2.89-.36-.46.03-.91.11-1.34.25-.42.14-.77.36-1.22.18-.42-.17-.78-.52-1.15-.78-.4-.28-.81-.55-1.25-.77-.4-.2-.81-.42-1.22-.58-.28-.11-1.02-.33-1.19.04-.17.38.15.95.29,1.29.16.38.44.71.67,1.05.52.78,1.21,1.43,1.63,2.29.4.83.65,1.76,1.11,2.56.24.43.48.89.75,1.3.24.37.54.73.81,1.07.3.38.66.71.96,1.09.3.37.27.7.11,1.13-.33.92-.57,1.84-.75,2.8-.19.96-.26,1.96-.2,2.94.06.94.26,1.99.69,2.83.19.36.36.75.63,1.06.33-1.14.65-2.28,1.02-3.4.15-.47.26-1.19.82-1.32.24-.06.53-.11.74.02.21.13.37.34.49.56.56.98,1.24,1.91,1.92,2.81.25.33.57.66.57,1.1,0,.37-.22.7-.57.82-.63.22-.98-.25-1.32-.7-.2-.27-.41-.55-.61-.83-.21-.28-.4-.65-.65-.89-.16.21-.2.55-.28.8-.1.33-.2.66-.29.99-.17.61-.29,1.23-.42,1.85-.11.51-.37.99-.98.96-.55-.03-1.06-.65-1.38-1.04-.79-.95-1.39-2.04-1.76-3.23-.2-.64-.28-1.34-.36-2-.08-.65-.08-1.32-.04-1.97.08-1.34.43-2.63.79-3.91.04-.13.1-.26.12-.39.04-.19-.05-.25-.18-.39-.22-.23-.42-.48-.62-.74-.4-.51-.77-1.04-1.1-1.6-.34-.57-.64-1.17-.89-1.78-.24-.58-.42-1.17-.73-1.71-.63-1.09-1.56-1.97-2.14-3.1C.1,3.2-.37,1.89.42.8.75.35,1.4.06,1.94.01c.65-.06,1.32.09,1.94.3.58.2,1.12.5,1.64.82.26.16.52.33.78.51.23.15.55.47.83.52.25.04.56-.15.82-.17.29-.02.59-.03.88-.09.3-.06.58-.05.88-.06.33-.02.59-.02.91.06.21.05.51.11.72.11.14,0,.21-.03.37.01.17.04.35.09.52.14.64.18,1.27.43,1.87.72,1.12.55,2.18,1.28,3.13,2.1,1.97,1.7,3.62,3.84,4.94,6.07.15.25.35.51.46.78.07.19.15.45.31.6.16.16.64.13.86.16.34.05.68.11,1.01.19,1.24.32,2.37.98,3.36,1.78.97.78,1.85,1.76,2.48,2.83.28.47.18,1.09-.35,1.33-.25.12-.55.13-.82.18-.34.05-.69.11-1.03.17-.66.12-1.32.28-1.97.43-.11.02-.21.05-.34.08Z"/>
      <path class="cls-1" d="m7.93,7.15c-.01-.78.97-1.14,1.51-.6.53.53.12,1.47-.61,1.49-.52.01-.88-.35-.89-.89Z"/>
    </g>
  </g>
</svg>