<?xml version="1.0" encoding="UTF-8"?>
<svg id="Capa_2" data-name="Capa 2" xmlns="http://www.w3.org/2000/svg" viewBox="0 0 30.06 26.62">
  <defs>
    <style>
      .cls-1 {
        fill: #fff;
      }
    </style>
  </defs>
  <g id="Capa_1-2" data-name="Capa 1">
    <path class="cls-1" d="m0,3.36C.02,2.19.45,1.26,1.37.63c1.15-.79,2.38-.85,3.57-.13,1.18.7,1.67,1.81,1.56,3.17-.02.23-.09.45-.14.67-.02.08-.02.14.06.2,1.15.94,2.3,1.88,3.45,2.83.53.43,1.06.87,1.59,1.3.17.14.16.13.35.01.76-.46,1.55-.53,2.38-.18.24.1.23.1.41-.08.9-.9,1.79-1.8,2.69-2.7.05-.05.1-.1.04-.19-.73-1.2-.45-2.81.65-3.69.32-.26.69-.44,1.09-.54,1.69-.42,3.41.72,3.56,2.59.11,1.43-.98,2.79-2.4,3.01-.63.1-1.22,0-1.78-.29-.13-.07-.21-.06-.31.05-.75.77-1.5,1.53-2.25,2.29-.17.17-.35.34-.52.51-.03.03-.04.09-.03.12.22.37.3.77.33,1.19,0,.1.04.13.13.14.7.11,1.4.22,2.09.34.91.15,1.83.32,2.74.48,1.01.17,2.01.34,3.02.51.12.02.19-.02.24-.13.22-.54.57-.98,1.04-1.32.23-.16.49-.28.75-.39.53-.23,1.09-.26,1.65-.18.79.12,1.46.47,1.96,1.09.87,1.09,1.03,2.3.41,3.54-.58,1.15-1.57,1.74-2.87,1.75-.33,0-.65-.07-.97-.16-1.19-.35-1.86-1.17-2.16-2.33-.04-.16-.06-.33-.08-.49,0-.09-.05-.13-.14-.15-.15-.02-.29-.07-.43-.1-.06-.01-.12,0-.19,0-.09.01-.17.04-.25-.06-.04-.06-.19-.04-.29-.05-.11,0-.25.04-.32,0-.21-.13-.44-.04-.65-.09-.48-.11-.97-.18-1.46-.26-.5-.08-.99-.16-1.49-.25-.97-.17-1.94-.34-2.91-.51-.13-.02-.22,0-.32.12-.35.46-.8.79-1.36.95-.04.01-.1.07-.11.11-.09.51-.17,1.03-.26,1.54-.22,1.29-.44,2.57-.66,3.86-.1.59-.2,1.19-.3,1.78,0,.04.06.1.1.13.38.18.71.42,1,.73.65.71.91,1.54.82,2.5-.12,1.32-1.23,2.51-2.67,2.73-1.67.26-3.31-.97-3.54-2.64-.19-1.34.53-2.73,1.8-3.32.36-.17.75-.25,1.15-.26.09,0,.1-.04.11-.11.1-.63.21-1.25.32-1.88.11-.68.22-1.36.33-2.04.08-.51.15-1.01.23-1.52.08-.48.16-.96.25-1.43.04-.2.04-.2-.14-.27-.44-.17-.79-.45-1.07-.81-.06-.08-.1-.09-.19-.05-.89.34-1.77.68-2.66,1.02-.22.08-.44.17-.66.25-.08.03-.11.06-.1.15.09,1.09-.6,2.02-1.66,2.24-.99.2-1.85-.33-2.23-1.14-.5-1.06-.08-2.17.9-2.69.76-.41,1.63-.3,2.28.26.1.09.19.08.3.03.69-.27,1.37-.54,2.06-.81.45-.18.91-.35,1.36-.52.08-.03.09-.08.1-.15.02-.21.03-.43.06-.64.01-.11.06-.21.1-.31.02-.07.01-.12-.05-.17-.93-.76-1.86-1.53-2.79-2.29-.73-.6-1.47-1.2-2.2-1.81-.11-.1-.18-.08-.28.02-.44.42-.96.7-1.57.83-1.8.37-3.51-.77-3.87-2.58-.04-.2-.05-.41-.07-.56Zm5.28-.06c-.02-1.09-.81-1.98-2.06-2-1.71-.02-2.58,2.14-1.42,3.35,1.21,1.27,3.48.41,3.48-1.36Zm21.47,8.14c-1.02-.01-1.96.95-1.89,2.09.11,1.75,2.38,2.4,3.48,1.1,1.07-1.26.06-3.28-1.59-3.19Zm-15.43,13.9c1.09,0,1.85-.91,1.83-1.88-.03-1.56-1.97-2.37-3.12-1.35-1.25,1.11-.4,3.32,1.29,3.23ZM19.75,5.65c.78,0,1.59-.58,1.59-1.56,0-1.42-1.72-2.17-2.72-1.14-.92.94-.27,2.77,1.13,2.7Zm-5.34,5.14c0-.68-.6-1.25-1.33-1.23-1.02.02-1.48,1.28-.84,2.02.71.82,2.17.32,2.17-.79Zm-8.89,3.86c.45,0,.8-.35.81-.79.01-.68-.93-1-1.37-.53-.45.48-.12,1.33.56,1.31Z"/>
  </g>
</svg>