<?xml version="1.0" encoding="UTF-8"?>
<svg id="Capa_2" data-name="Capa 2" xmlns="http://www.w3.org/2000/svg" viewBox="0 0 32.91 38.97">
  <defs>
    <style>
      .cls-1 {
        fill: #fff;
      }
    </style>
  </defs>
  <g id="Capa_1-2" data-name="Capa 1">
    <g>
      <path class="cls-1" d="m32.79,33.36c.04-.17.08-.34.11-.51,0-.09-.02-.17-.03-.26,0-.11,0-.23,0-.34,0-.28.02-.57.02-.85-.03-.03-.06-.06-.09-.09,0-.14,0-.28.01-.42,0-.08-.02-.17-.03-.25,0-.2.02-.4.03-.6,0-.06-.02-.11-.03-.17.02-.06-.01-.08-.06-.09-.03-.31.02-.63-.08-.93-.06-.4-.11-.79-.17-1.19-.19-.35-.17-.74-.25-1.11-.08-.43-.3-.83-.34-1.27-.11-.22-.22-.44-.26-.68-.08-.09-.12-.2-.1-.33-.11-.18-.21-.35-.32-.53-.04-.06-.07-.11-.11-.17,0-.23-.19-.39-.23-.6-.02-.02-.02-.04-.02-.07-.16-.1-.22-.26-.26-.43-.25-.17-.35-.45-.51-.68l-.77-.85c-.16-.15-.39-.22-.51-.43-.2-.14-.44-.22-.6-.42-.03,0-.05-.01-.08-.03-.43-.2-.85-.4-1.28-.6-.03,0-.06,0-.09,0-.33-.26-.76-.07-1.11-.26-.29,0-.55-.17-.85-.14-.11,0-.23-.02-.34-.03-.06,0-.11.02-.17.03-.3-.06-.56.11-.85.16-.02.1-.1.08-.17.08-.39.24-.75.54-1.19.69-.16.2-.39.29-.6.42-.19.14-.35.31-.6.35-.06.16-.24.16-.34.26-.06-.02-.08,0-.09.06-.21.01-.36.23-.59.18-.35.19-.73.31-1.11.44-.06.03-.11.05-.17.08-.3,0-.57.09-.85.18-.03,0-.06,0-.09,0-.18-.03-.33.14-.51.06l-.25.03c-.26,0-.51,0-.77,0v-.03c-.89.07-1.73-.21-2.56-.49-.4-.06-.72-.32-1.1-.45-.34-.15-.65-.35-.94-.57-.2,0-.27-.21-.42-.28-.66-.4-1.27-.89-2.04-1.1-.03-.1-.11-.08-.18-.1-.42.01-.85.02-1.27.03,0,.02,0,.05-.01.07.2,0,.4,0,.6,0,0,.02,0,.04,0,.06,0-.02,0-.04,0-.06-.2,0-.4,0-.6,0-.41-.04-.77.21-1.17.19-.4.16-.8.32-1.2.49-.34.2-.68.41-1.02.61-.04.12-.18.1-.26.18-.69.68-1.34,1.39-1.86,2.21,0,.03-.01.06-.03.08-.13.26-.27.52-.4.78-.03.17-.08.33-.25.42,0,.03-.01.05-.03.08-.02.41-.21.76-.4,1.11-.06.44-.17.87-.37,1.27.05.36-.08.69-.17,1.02,0,.03,0,.06,0,.08-.08.51-.16,1.03-.25,1.54-.02.12.07.26-.08.34,0,.11-.01.22-.02.33.07.29-.04.57-.06.85,0,.2-.02.4-.03.6,0,.03,0,.06,0,.09.01.2.02.4.03.6h0c-.01.17-.02.34-.03.51,0,.17.02.34.03.51v.34c-.06.27.12.51.09.77h-.03s.02.05.03.08h0c.08.13.06.27.07.42.08.23.16.46.24.69.12.25.24.51.36.76.25.42.51.84.85,1.19.32.39.74.68,1.11,1.01.21.03.32.21.5.28.27.16.61.2.85.41h24.62c.24-.17.55-.21.77-.42.03,0,.05-.02.08-.03.36-.12.64-.36.93-.59.19-.14.38-.29.52-.5.37-.28.61-.67.86-1.05.07-.11.09-.27.24-.32,0-.03,0-.05,0-.08.02-.02.02-.05.03-.08.21-.31.3-.68.43-1.02.13-.47.3-.94.22-1.45,0-.03,0-.06,0-.09ZM.33,34.22c.1.02.18.07.25.14-.07-.06-.15-.11-.25-.14Zm8.37-15.08s0,.03,0,.05c0-.02,0-.03,0-.05h0Zm22.55,17.35c-.18.27-.34.56-.24.94-.11,0-.22,0-.34,0,.11,0,.22,0,.34,0-.1-.38.06-.66.24-.94.03-.05.07-.1.1-.15-.03.05-.07.1-.1.15Z"/>
      <path class="cls-1" d="m6.76,8.68c0,.17,0,.34,0,.51,0,.2,0,.4,0,.6,0,.11-.02.23-.03.34,0,.06.02.11.03.17,0,.17,0,.34,0,.51.14.05.03.18.08.26v.17c.08.28.16.56.15.85.15.33.31.65.36,1.01.11.23.22.46.33.69.12.2.24.39.35.59.28.4.57.8.85,1.2.05.04.12.08.16.13.64.82,1.45,1.44,2.32,2,.17.09.33.18.5.27.21,0,.29.26.51.23.14.02.25.08.35.18.13-.04.2.14.34.07.2.09.4.17.6.26.41.05.82.08,1.19.28.26,0,.51-.02.77-.03.17,0,.34.02.51.03.23,0,.45-.02.68-.03.15.03.29.02.43-.06.41.02.8-.06,1.19-.17l1.27-.37c.25-.21.57-.27.86-.4.11-.06.18-.21.34-.19.37-.26.74-.51,1.11-.77.08-.06.17-.12.25-.17.06-.06.12-.11.17-.17.28-.28.57-.57.85-.85.06-.11.15-.2.25-.26.03-.03.06-.05.09-.08.36-.63.86-1.17,1.14-1.84.03-.06.07-.12.04-.19.03-.06.07-.11.1-.17.05-.06.1-.12.16-.19.07-.44.24-.84.37-1.26.02-.32.18-.61.16-.94-.06-.19.11-.33.09-.51l-.03-.25c0-.14.02-.28.03-.42,0-.03,0-.06,0-.09,0-.31-.02-.62-.03-.94-.05-.49-.07-.98-.22-1.45-.05-.39-.22-.74-.34-1.11-.14-.45-.37-.86-.6-1.28-.03-.06-.06-.11-.09-.17-.25-.37-.51-.74-.76-1.11-.09-.11-.19-.22-.28-.33-.26-.26-.51-.51-.77-.77-.17-.15-.34-.29-.51-.44-.37-.25-.74-.51-1.11-.76-.03-.03-.06-.05-.09-.08-.45-.21-.91-.41-1.36-.62-.37-.02-.7-.16-1.02-.32-.32.06-.61-.15-.93-.08-.13-.03-.25-.06-.33-.18-.16.09-.34.09-.52.08-.03,0-.06,0-.09.01-.26-.03-.51-.09-.77,0-.15,0-.29-.01-.43-.09-.12,0-.24,0-.36,0-.75.24-1.53.31-2.26.59-.09.03-.18.06-.27.08-.28.14-.57.28-.85.43-.12.13-.28.17-.43.24-.4.29-.79.58-1.19.87-.06.09-.1.2-.25.17-.29.31-.58.62-.86.93-.08.09-.16.17-.25.26-.32.48-.64.96-.96,1.44-.14.31-.29.62-.43.94-.13.43-.27.85-.4,1.28-.04.37-.08.74-.2,1.1,0,.03,0,.06,0,.08,0,.09.02.17.03.26Z"/>
    </g>
  </g>
</svg>