<?xml version="1.0" encoding="UTF-8"?>
<svg id="Capa_2" data-name="Capa 2" xmlns="http://www.w3.org/2000/svg" viewBox="0 0 30.21 15.4">
  <defs>
    <style>
      .cls-1 {
        fill: #fff;
      }
    </style>
  </defs>
  <g id="Capa_1-2" data-name="Capa 1">
    <g>
      <path class="cls-1" d="m30.21,6.91v1.58c-.03-.18-.04-.35-.06-.53-.05.25-.01.53-.08.77-.03.12-.1.22-.13.33-.03.11-.05.22-.13.31,0,.12-.11.31-.18.4-.03.04-.06.04-.09.08-.03.05-.03.13-.06.18-.03.04-.08.08-.11.14-.03.05-.06.11-.1.16-.05.07-.08.07-.13.12-.05.05-.07.12-.12.18-.27.3-.53.59-.83.85-.17.15-.34.3-.52.44-.08.06-.16.12-.24.17-.05.03-.11.02-.08.11-.07.02-.14.03-.2.05.01.03.02.05.03.07-.08.02-.16.04-.25.06.02.03.04.05.05.08-.1.02-.19.03-.28.05,0,0,0,.01,0,.02l.1.04c-.07.05-.18.02-.25.07-.05.03-.07.07-.12.09-.07.04-.13.07-.2.11-.06.03-.17.03-.2.08,0,.02.01.04.02.06-.19.04-.35.14-.53.21-.19.08-.37.19-.57.26-.2.07-.4.17-.6.26-.17.08-.36.12-.54.18,0,.01-.01.02-.02.03.03,0,.05.02.08.03-.15.02-.29.02-.43.1.03.01.07.02.12.04-.19.02-.37.04-.54.05,0,.01,0,.02,0,.03.05.01.1.03.18.05-.22.02-.43.04-.63.05,0,0,0,.02,0,.03.06.01.13.03.19.04,0,0,0,0,0,.01-.22.02-.44.03-.66.05v.03c.07.01.14.03.21.04,0,0,0,0,0,.01-.24.02-.49.03-.73.05,0,0,0,.02,0,.02l.23.04s0,0,0,.01c-.28.02-.56.04-.84.05,0,0,0,.01,0,.02.09.01.18.02.27.03,0,0,0,.02,0,.03-.3.02-.61.03-.91.05,0,0,0,.01,0,.02.1.01.19.02.29.03,0,.01,0,.02,0,.03-.33.02-.66.03-.99.05v.02c.08.01.16.02.24.03,0,.01,0,.02,0,.03-.37.01-.74.03-1.11.04,0,0,0,0,0,.01l.19.04s0,.03,0,.04c-.38.01-.77.02-1.15.03,0,.03,0,.05,0,.07-.74.04-1.49.07-2.23.06-.16,0-.29.05-.44.07-.16.03-.34-.02-.5-.04-.35-.04-.71-.04-1.06-.04-.74,0-1.46-.11-2.2-.16-.18-.01-.34-.06-.52-.09-.16-.03-.33,0-.49-.03-.13-.02-.22-.09-.35-.13-.2-.05-.42,0-.62-.07,0,0,0-.01,0-.02.04,0,.08-.02.13-.03-.25-.02-.49-.03-.74-.05,0-.01,0-.03.01-.04-.17-.12-.45-.08-.65-.09,0,0,0-.01,0-.02.04-.01.08-.03.12-.04,0,0,0-.02,0-.03-.2-.01-.39-.03-.59-.04,0,0,0-.01,0-.02.02-.01.05-.03.09-.05-.16-.03-.36-.01-.5-.09-.09-.05-.1-.07-.22-.09-.08,0-.14-.02-.22-.05-.11-.05-.16-.08-.28-.09-.12-.02-.09-.03-.17-.08-.06-.04-.11-.04-.17-.05-.08-.02-.1-.04-.17-.07-.33-.15-.7-.26-1.04-.41-.31-.13-.58-.31-.89-.39,0,0,0-.01,0-.02.02-.01.04-.03.07-.04-.11-.02-.21-.04-.33-.06.04-.04.06-.05.08-.07-.1-.02-.2-.03-.3-.05.02-.04.03-.06.04-.08-.07-.01-.32-.01-.25-.14-.09-.02-.18-.03-.29-.05.04-.03.06-.05.09-.07-.09-.02-.17-.03-.26-.05.02-.03.03-.06.05-.08-.1-.04-.23,0-.28-.13-.15-.03-.34-.24-.47-.33-.17-.12-.33-.25-.48-.39-.31-.29-.62-.58-.87-.91,0,0,.01-.01.02-.02-.03,0-.05,0-.09.02-.01-.06-.02-.11-.03-.13-.09-.05-.18-.17-.24-.26-.02-.03-.01-.08-.03-.12-.03-.04-.06-.03-.09-.06-.09-.11-.12-.28-.2-.4-.09-.14-.1-.19-.12-.36,0,0-.01,0-.02,0-.01.03-.02.05-.03.08,0,0-.01,0-.02,0-.06-.55-.04-1.11-.05-1.67,0-.54-.02-1.08.04-1.62h.02s.02.05.04.1c.03-.09,0-.42.15-.33.04-.3.25-.52.41-.78.16-.26.42-.54.64-.77.3-.31.65-.64,1-.89.07-.05.16-.07.22-.12.05-.04.07-.09.13-.13.07-.05.33-.12.32-.22.14-.06.26-.14.38-.21.09-.05.22-.11.29-.18l-.02-.02c.09-.02.18-.04.29-.06-.02-.03-.04-.04-.05-.06.11-.04.22-.07.34-.11-.03-.02-.05-.02-.06-.03.11-.03.22-.07.33-.1-.02-.02-.03-.03-.05-.04.1-.02.19-.05.28-.07,0,0,0-.01,0-.02-.02,0-.04-.02-.06-.02,0,0,0-.01.01-.02.11-.03.23-.05.35-.08-.02-.02-.03-.04-.05-.06.14-.03.27-.06.4-.09,0,0,0-.01,0-.02-.02,0-.05-.01-.07-.02,0,0,0,0,0-.01.13-.02.26-.05.41-.07-.03-.03-.04-.04-.06-.06.15-.03.29-.05.43-.08,0,0,0-.02,0-.02-.02-.01-.04-.02-.07-.04.15-.03.3-.05.44-.07,0,0,0-.01,0-.02-.03-.01-.06-.03-.09-.04.17-.02.34-.04.51-.07-.03-.03-.05-.04-.08-.07.18-.03.34-.05.51-.07-.04-.02-.06-.04-.1-.06.2-.03.38-.05.56-.08,0,0,0-.01,0-.02-.04-.01-.07-.03-.11-.04,0,0,0-.01,0-.02.21-.02.42-.03.63-.05v-.02s-.1-.03-.15-.04c.09-.06.25-.04.35-.04.13-.01.23-.06.35-.09.23-.06.48-.08.71-.07v-.02s-.09-.02-.13-.03c0-.01,0-.02,0-.03.28-.02.56-.03.84-.05,0,0,0-.02,0-.02-.05,0-.09-.02-.14-.03.1-.1.46-.04.6-.06.15-.01.27-.09.42-.12.21-.03.42,0,.63-.02.19-.01.37-.06.56-.1.42-.08.89-.03,1.32-.04C14.07.03,14.48,0,14.9,0c.42,0,.84.02,1.25.03.44.01.87,0,1.3.03.2.02.4.06.6.09.21.03.42,0,.64.02.18.02.34.1.52.13.2.03.43-.02.62.06,0,0,0,.01,0,.02-.04,0-.08.02-.11.03.46.06.91.08,1.36.19.42.1.85.2,1.26.33.23.07.46.12.69.19.18.05.41.11.58.19.33.16.71.27,1.06.38-.02.01-.03.02-.05.05.08.02.2.02.28.06.06.03.08.07.14.1.16.08.34.12.51.21.08.04.15.09.23.13.07.04.17.06.23.1.11.07.14.11.29.13-.03.12.58.38.68.45.22.17.48.31.71.48.29.23.55.49.82.74.15.14.3.28.43.43.05.06.22.37.3.32.02.07.04.14.07.22.02-.02.04-.03.06-.05.02.06.04.29.14.22.02.09.04.18.07.27.03-.02.05-.02.07-.04.02.1.04.19.07.29,0,0,.01,0,.02,0,0-.02.02-.05.02-.07,0,0,.01,0,.02,0,.02.12.04.24.06.35,0,0,.01,0,.02,0,0-.02.02-.04.03-.06h.03c.02.11.02.26.06.35.03.07.1.1.12.17.04.1.02.26.03.37.01.11.02.23.04.34,0,0,.01,0,.02,0,.02-.13.03-.25.05-.38Zm-10.95-.54h-.02c0,.19,0,.37-.03.55-.03.16-.09.31-.1.47-.02.18-.06.3-.11.47-.06.18,0,.41-.08.59,0,.02-.07.07-.07.06-.01.05-.01.1-.02.15,0,.15-.02.3-.05.45-.07.32-.14.65-.2.97-.1.57-.24,1.14-.33,1.71-.02.13-.11.32-.1.46,0,.13.05.1.19.11.29,0,.59,0,.88,0,.18,0,.75.09.83-.1.04-.09,0-.23.01-.33.01-.13.07-.23.1-.36.03-.16.03-.32.07-.48.03-.13.09-.25.1-.38.02-.22-.03-.46.25-.52.16-.03.35,0,.51,0,.18,0,.36,0,.55,0,.29,0,.58.03.86-.04.31-.08.64-.03.93-.13.21-.07.39-.15.6-.24.52-.22.89-.57,1.25-.99.17-.21.33-.45.45-.68.04-.09.1-.18.14-.26.06-.11.02-.25.1-.36.01.04.02.06.03.08.09-.13.06-.46.07-.62,0-.09.03-.14.06-.23.03-.1.03-.19.03-.3,0-.1.02-.23,0-.33-.02-.09-.07-.16-.09-.25-.02-.1-.01-.23-.05-.32-.02-.06-.07-.12-.1-.18-.56-1.37-2.29-1.37-3.55-1.37-.44,0-.88,0-1.32,0-.23,0-.45,0-.68,0-.12,0-.44-.06-.55.02-.08.06-.13.39-.16.49-.04.16.02.38-.07.52-.04.07-.07.07-.08.16,0,.09,0,.19,0,.28,0,.1.03.3-.13.25,0,.23.06.57-.1.76,0-.02-.01-.04-.02-.06Zm-14.24.03c0,.07,0,.11,0,.16-.04.39-.07.8-.18,1.17-.05.17-.07.31-.1.49-.02.17-.1.33-.13.5-.05.36-.13.72-.19,1.08-.03.18-.07.35-.1.53-.03.18-.1.35-.12.53-.04.29-.12.55-.16.84-.02.17-.07.32-.11.48-.02.11-.03.14.08.16.17.04.39,0,.57,0,.2,0,.39,0,.59,0,.15,0,.43.05.57-.01.11-.05.07-.2.08-.32,0-.07,0-.16.02-.22.02-.03.06-.04.08-.08.05-.1.02-.3.03-.41,0-.16.08-.24.12-.39.04-.15,0-.31.05-.47.02-.07.06-.22.13-.26.09-.05.3-.01.39-.01.37,0,.74,0,1.11,0,.18,0,.37.02.55-.03.17-.05.31-.08.48-.09.28,0,.53-.07.79-.16.56-.2,1.08-.61,1.44-1.07.18-.23.37-.5.49-.76.11-.26.25-.52.28-.82.03-.33.12-.63.13-.96.01-.33-.12-.64-.14-.97-.1.13-.15-.17-.19-.23-.11-.17-.27-.31-.41-.45-.24-.23-.5-.34-.81-.45-.81-.29-1.72-.23-2.57-.23-.47,0-.94,0-1.41,0-.21,0-.43,0-.64,0-.22,0-.18.15-.25.33-.07.18-.05.36-.09.55-.04.18-.09.34-.11.53,0,.09,0,.22-.05.3-.04.08-.08.11-.09.21-.02.2.03.4-.09.58-.01,0-.02-.02-.05-.04Zm10.97,3.77s.03,0,.04,0c.53,0,1.07.02,1.61,0,.19,0,.23-.08.24-.27,0-.09-.01-.2.01-.28.03-.09.09-.15.1-.25.07-.39.1-.8.19-1.19.05-.21.07-.41.11-.62.03-.17.1-.33.13-.5.06-.4.14-.8.19-1.2.03-.23.01-.44-.03-.66-.03-.17-.09-.29-.17-.44-.14-.26-.44-.46-.71-.56-.17-.06-.32-.11-.49-.12-.18,0-.37-.05-.56-.08-.42-.06-.83-.07-1.26-.07-.23,0-.46,0-.69,0-.13,0-.31-.09-.1-.14.02-.25.03-.49.05-.74,0,0,.01,0,.02,0,.01.06.02.12.03.18h.02c.02-.27.03-.54.05-.8,0,0,.01,0,.02,0,.01.04.03.07.04.11,0,0,.02,0,.02,0,.01-.2-.03-.53.06-.7.02.02.05.03.08.05.03-.13-.22-.1-.31-.1-.17,0-.35,0-.52,0-.35,0-.7,0-1.05,0-.04.17-.12.33-.14.5-.01.09.03.51-.12.47-.01.2,0,.42-.05.61-.04.17-.09.28-.1.46-.01.18-.09.31-.13.49-.04.17-.01.36-.03.54-.04-.02-.06-.03-.08-.05-.02.14.05.74-.16.73,0,.4-.11.76-.14,1.15-.02.19-.1.35-.12.54-.02.19-.06.35-.12.53-.05.18-.03.37-.08.55-.05.21-.08.42-.12.63-.09.41-.18.82-.23,1.23.12.04.31,0,.44,0,.15,0,.3,0,.46,0,.17,0,.34,0,.5,0,.11,0,.26.03.35-.03.22-.15.11-.44.17-.64.03-.12.1-.22.12-.35.01-.13.01-.25.05-.38.08-.27.09-.55.17-.82.07-.25.07-.5.16-.74.04-.12.03-.22.04-.34.01-.14.06-.22.11-.34.04-.1.02-.21.03-.32.01-.12.04-.24.05-.36.03.03.04.05.06.07.01-.22-.06-.55.22-.6.35-.05.75,0,1.1,0,.3,0,.72.02.98.2.24.17.16.55.15.8-.01.33-.13.63-.15.95-.01.13-.04.24-.08.36-.06.17-.06.33-.09.51-.06.35-.14.71-.21,1.06-.07.32-.16.65-.15.98Z"/>
      <path class="cls-1" d="m21.27,5.33c.33-.02.66-.02.99-.02.34,0,.7-.02,1.03.05.27.06.52.18.71.4.2.23.12.62.12.91,0,.16.01.31,0,.47-.01.12-.08.2-.11.31-.02.07,0,.16-.03.22-.02.05-.05.03-.07.07-.05.09-.09.19-.15.27-.14.22-.4.44-.65.53-.04.02-.11.02-.15.04-.04.02-.03.06-.06.08-.13.05-.34.03-.47.05.03.02.05.03.07.05-.04.08-.56.08-.64.08-.24,0-.47,0-.71,0-.08,0-.29.04-.35,0-.06-.05-.05-.16-.05-.23,0-.22.11-.42.13-.63.02-.17.03-.37.1-.5.02-.05.03-.05.04-.12.01-.11.02-.22.03-.33.02-.18.09-.34.11-.52.01-.11,0-.23.03-.34.02-.08.1-.17.1-.25,0-.18,0-.36,0-.56Z"/>
      <path class="cls-1" d="m7.15,5.33c.33-.04.68-.02,1.01-.02.33,0,.69-.03,1.01.08.13.04.27.09.39.16.11.06.15.14.22.23.07.09.09.07.11.19.02.15.02.3.02.46,0,0,.01,0,.02,0,.02-.11.04-.22.06-.33,0,0,.02,0,.02,0,0,.11.07.58-.12.53,0,.24.02.49-.04.73-.05.19-.11.32-.21.49-.11.2-.22.36-.41.5-.1.08-.21.15-.32.2-.06.02-.25.02-.18.12-.18.01-.35.03-.53.04.03.02.05.04.08.06-.49.05-.97.08-1.47.07-.25,0-.31,0-.3-.26,0-.23.12-.43.15-.66.02-.2.1-.38.13-.58.03-.21.04-.38.1-.59.06-.21.04-.43.11-.64.07-.22.07-.44.13-.66,0-.03.02-.06.03-.11Z"/>
    </g>
  </g>
</svg>