<?xml version="1.0" encoding="UTF-8"?>
<svg id="Capa_2" data-name="Capa 2" xmlns="http://www.w3.org/2000/svg" viewBox="0 0 444.32 444.36">
  <defs>
    <style>
      .cls-1 {
        fill: #e92b2b;
      }

      .cls-2 {
        fill: #f28787;
      }

      .cls-3 {
        fill: #f59d9d;
      }

      .cls-4 {
        fill: #f28686;
      }

      .cls-5 {
        fill: #f28282;
      }

      .cls-6 {
        fill: #fee49a;
      }

      .cls-7 {
        fill: #f39191;
      }

      .cls-8 {
        fill: #f18181;
      }

      .cls-9 {
        fill: #f39292;
      }

      .cls-10 {
        fill: #f17d7d;
      }

      .cls-11 {
        fill: #f18080;
      }

      .cls-12 {
        fill: #ffd02b;
      }
    </style>
  </defs>
  <g id="Capa_1-2" data-name="Capa 1">
    <g>
      <path class="cls-1" d="m254.02,440.96c-.66,0-1.33-.02-1.99-.03-5.49-1.76-11.11-.59-16.67-.65-.87,0-1.17,1.04-1.32,1.89-1.96-.01-3.91-.02-5.87-.03-4.72-.24-9.44.12-14.18-.84-2.13-.43-5.29-1.79-6.99,1.49l-.09.26.21.18c-6.09,0-12.15-.16-18.04-1.98-3.77-.08-7.45-.65-11-1.95-1.7-.31-3.39-.62-5.09-.94-10.01-2.2-19.7-5.39-29.31-8.94-7.38-2.72-14.29-6.4-21.47-9.5-3.34-3.45-6.83-6.6-12.16-6.01-9.13-6.64-19.05-12.14-27.51-19.73-3.97-3.56-8.19-6.84-12.29-10.25-1.61-5.01-4.92-8.32-9.93-9.93-9.34-10.43-17.81-21.55-25.69-33.08-3.36-4.92-5.78-10.48-8.62-15.74-1.94-4.04-3.87-8.08-5.81-12.12-.04-.3-.07-.61-.09-.92.36-.32.73-.65,1.09-.97,1.65,0,3.3-.01,4.95-.02,1.53,2.98,4.34,1.96,6.68,1.96,126.16.04,252.31.04,378.47.04,1.16,0,2.33-.01,3.49,0,1.48,0,2.54-.65,3.18-1.98,1.81-.14,3.54.09,5.12,1.04-.41,1.3-.81,2.6-1.22,3.9-.79.54-.92,1.3-.75,2.17-.06.28-.13.56-.22.83-1.15.73-1.98,1.65-1.79,3.14-8.82,17.24-19.86,32.98-32.28,47.78-7.1,2.51-10.35,9.43-15.83,13.79-1.01.81-1.12,1.97-1.11,3.16-6.58,5.19-13.34,10.16-19.64,15.67-2.57,2.24-6.76,1.8-8.23,5.47-1.36.99-2.72,1.97-4.07,2.96-.28.05-.56.1-.84.16-.91-.14-1.66.01-1.93,1.05-4.81,1.47-8.04,5.9-13.06,6.97-1.31-.16-2.03.44-2.22,1.72-6.76,1.54-12.35,5.83-18.84,7.99-.7-1.02-1.39-.82-2.08,0-10.13,4.35-20.47,8.03-31.52,9.04-2.39.22-3.9,2.55-6.38,1.96-2.68-1.93-4.8.12-7.08,1.01Z"/>
      <path class="cls-1" d="m183.1,5.02c2.28.42,4.19-.52,6.04-1.66,1,.01,1.99.03,2.99.04,5.66,1.25,11.31,1.59,16.95-.13,4.1.18,8.16-.12,12.15-1.11,3.6-.03,7.19-.05,10.79-.08,5.66,1.78,11.34,1.91,17.04.25,1.81,1.29,3.94.84,5.94,1.12.78,1.33,1.95.69,3.01.61,1.05,0,2.1,0,3.15,0,3.57,1.82,7.63,1.44,11.32,2.43,16.06,4.31,31.82,9.65,46.81,16.89,18.46,8.92,35.17,20.57,50.64,34.01,4.7,6.6,10.23,12.37,16.98,16.92,11.53,14.16,22.74,28.54,30.98,44.97,1.44,4.29,2.81,8.62,6.08,11.99-.04.64-.09,1.29-.13,1.93-1.94,0-3.89,0-5.83,0-1.53-2.98-4.34-1.96-6.68-1.96-126.16-.04-252.31-.04-378.47-.04-1.16,0-2.33.01-3.49,0-1.48,0-2.54.65-3.18,1.98-1.66,0-3.31,0-4.97-.01-.05-.72-.11-1.45-.16-2.17,2.17-3.73,4.08-7.58,4.95-11.86,9.97-17,20.31-33.73,34.31-47.85,5.42-3.89,10.73-7.88,13.91-14,6.02-5.09,12.25-9.89,18.59-14.59,2.8-2.07,6.46-3.15,8.38-6.4,2.08-.35,3.27-2.15,5.02-3.05.28-.04.55-.1.82-.18.87.07,1.66,0,1.95-1.03,12.52-8.13,26.61-12.92,40.17-18.83l2.04-.2c3.67-2.13,7.84-2.75,11.83-3.91,1.07-.01,2.13-.03,3.2-.04,2.43-1.33,4.9-2.31,7.79-1.89,2.01.29,3.79-.35,5.07-2.04,1.34-.05,2.68-.09,4.03-.14Zm38.44,123.18c61.45,0,122.91,0,184.36,0,14.2,0-.31-16.35-4.55-22.96-6.45-10.07-14.11-19.44-22.16-28.27-16.65-18.28-36.94-33.19-58.78-44.68-20.14-10.6-41.21-16.88-63.35-21.13-18.01-3.46-41.85-4.5-60.65-2.07-39.6,5.11-80.55,23.07-112.14,49-16.29,13.38-30.44,29.65-41.76,47.43-2.57,4.05-13.63,18.92-9.67,22.41,4.5,3.97,25.77.27,32.27.27,52.14,0,104.28,0,156.43,0Z"/>
      <path class="cls-12" d="m5.09,175.16c2.61-8.53,4.25-17.32,7.59-25.67,1.78-4.46,3.23-9.04,5.47-13.32,1.01.02,2.02.04,3.03.06-1,3.14,2,5.77.89,9.09-4.58,13.75-9.4,27.46-11.06,41.97-1.65,14.49-4.88,28.84-2.93,43.65,1.68,12.74,1.32,25.71,5.01,38.22,3.04,10.32,5.25,20.88,9.08,30.97.03,3.44-1.91,5.23-5.04,6.02-4.86-12.38-9.58-24.82-11.7-38.04.94-5.09,2.26-10.27-3.08-13.98.28-5.03.32-10.05-1.24-14.93.05-10.32.11-20.63.16-30.95,2.93-4.41,1.69-9.36,1.82-14.14-.22-6.41,2.89-12.47,1.99-18.96Z"/>
      <path class="cls-12" d="m426.75,138.21c5.01,13.5,9.94,27.03,12.24,41.32.21,1.33.45,2.55,1.19,3.65-.86,2.18.51,4.02.94,6,.02,1.97.04,3.95.06,5.92.1,3.79-1.29,7.84,1.94,11.08-.02.65-.05,1.29-.07,1.94-.07,10.02-.14,20.03-.22,30.05-.86,5.63-1.68,11.27-1.71,16.98-.55,1.96-1.76,3.81-1.03,6-3.13,15.38-7.28,30.47-13.35,44.98-10.06-3.64,2.17-28.4,4.04-35.63,3.76-14.55,6.29-31.95,6.52-46.98.24-15.46-2.43-33.79-6.1-48.9-1.84-7.56-14.86-32.65-4.46-36.42Z"/>
      <path class="cls-1" d="m21.22,311.17c-.36.32-.73.65-1.09.97-1.15-.65-1.25-1.93-1.77-2.96,127.73-.01,255.46-.03,383.19-.05,5.49,0,10.99-.05,16.48-.08.31.07.62.15.93.23-1.91,1.56-4.17.81-6.25.81-128.45.04-256.9.03-385.35.08-2.05,0-4.35-.91-6.14.98Z"/>
      <path class="cls-12" d="m418.03,309.05c-5.49.03-10.99.08-16.48.08-127.73.02-255.46.03-383.19.05,0-.35.01-.69.02-1.04.93-.01,1.87-.03,2.8-.04,2.16.02,4.33.04,6.49.04,128.04,0,256.08,0,384.13.04,2.08,0,4.35-.78,6.23.87Z"/>
      <path class="cls-12" d="m2.01,255.16c.11-.34.23-.69.34-1.03,5.34,3.71,4.01,8.89,3.08,13.98-2.28-4.02-1.27-8.9-3.42-12.96Z"/>
      <path class="cls-5" d="m110.06,413.92c5.33-.59,8.82,2.56,12.16,6.01-4.88-.33-8.16-3.91-12.16-6.01Z"/>
      <path class="cls-10" d="m60.33,374c5.01,1.61,8.32,4.92,9.93,9.93-3.89-2.73-7.16-6.08-9.93-9.93Z"/>
      <path class="cls-12" d="m21.18,308.1c-.93.01-1.87.03-2.8.04-.42-.66-.83-1.32-1.25-1.98,3.13-.79,5.07-2.58,5.04-6.02,3.18,3.09.4,5.43-.99,7.96Z"/>
      <path class="cls-12" d="m21.18,308.1c1.39-2.52,4.17-4.87.99-7.96-3.83-10.09-6.04-20.65-9.08-30.97-3.69-12.51-3.33-25.49-5.01-38.22-1.95-14.81,1.27-29.15,2.93-43.65,1.66-14.51,6.48-28.22,11.06-41.97,1.11-3.32-1.89-5.95-.89-9.09,2.16-.02,4.33-.04,6.49-.04,128.37,0,256.75,0,385.12-.04,2.08,0,4.35.76,6.25-.84l-.09-.18c1.81.18,3.58.14,5.08-1.1,1.85.77,2.09,2.6,2.73,4.16-10.4,3.77,2.62,28.86,4.46,36.42,3.68,15.11,6.35,33.43,6.1,48.9-.23,15.03-2.76,32.43-6.52,46.98-1.87,7.24-14.11,31.99-4.04,35.63-.56,1.62-.91,3.38-2.73,4.17-1.51-1.21-3.23-1.36-5.06-1.02-.31-.08-.62-.16-.93-.23-1.88-1.65-4.15-.87-6.23-.87-128.04-.04-256.08-.04-384.13-.04-2.16,0-4.33-.03-6.49-.04Z"/>
      <path class="cls-1" d="m418.96,309.29c1.82-.34,3.55-.19,5.06,1.02-.06.74.09,1.59-.91,1.88-1.59-.95-3.32-1.18-5.12-1.04-130.61,0-261.21,0-391.82,0-1.65,0-3.3.01-4.95.02,1.79-1.89,4.1-.98,6.14-.98,128.45-.05,256.9-.04,385.35-.08,2.08,0,4.34.75,6.25-.81Z"/>
      <path class="cls-8" d="m369.91,386.97c-.01-1.19.1-2.36,1.11-3.16,5.48-4.36,8.73-11.28,15.83-13.79-4.79,6.5-10.38,12.21-16.94,16.95Z"/>
      <path class="cls-1" d="m234.04,442.17c.14-.85.45-1.9,1.32-1.89,5.56.06,11.18-1.11,16.67.65-5.65,3.53-11.93,1.74-17.96,2.12.03-.3.02-.59-.03-.89Z"/>
      <path class="cls-3" d="m234.04,442.17c.05.29.06.59.03.89-2.07,2.05-4.7,1.08-7,.99-6.65-.25-13.38,1.15-19.95-.83,0,0-.21-.18-.21-.18,0,0,.09-.26.09-.26,7.06-.08,14.17,1.43,21.17-.65,1.96.01,3.91.02,5.87.03Z"/>
      <path class="cls-1" d="m254.02,440.96c2.28-.89,4.4-2.94,7.08-1.01-2.43-.16-4.57,1.74-7.08,1.01Z"/>
      <path class="cls-9" d="m419.13,322.24c-.19-1.5.64-2.41,1.79-3.14.25,1.53-.64,2.41-1.79,3.14Z"/>
      <path class="cls-7" d="m319.93,420.97c.19-1.28.9-1.88,2.22-1.72-.53.84-1.14,1.58-2.22,1.72Z"/>
      <path class="cls-4" d="m421.14,318.26c-.17-.87-.04-1.63.75-2.17.24.89.11,1.66-.75,2.17Z"/>
      <path class="cls-2" d="m335.2,412.28c.27-1.03,1.02-1.18,1.93-1.05-.64.35-1.29.7-1.93,1.05Z"/>
      <path class="cls-1" d="m299,428.96c.69-.83,1.38-1.03,2.08,0-.69,0-1.39,0-2.08,0Z"/>
      <path class="cls-1" d="m26.17,311.14c130.61,0,261.21,0,391.82,0-.64,1.34-1.7,1.99-3.18,1.98-1.16,0-2.33,0-3.49,0-126.16,0-252.31,0-378.47-.04-2.34,0-5.14,1.03-6.68-1.96Z"/>
      <path class="cls-1" d="m228.17,442.14c-7,2.08-14.11.57-21.17.65,1.7-3.28,4.86-1.92,6.99-1.49,4.74.96,9.46.59,14.18.84Z"/>
      <path class="cls-1" d="m221.54,128.21c-52.14,0-104.28,0-156.43,0-6.5,0-27.77,3.7-32.27-.27-3.96-3.49,7.1-18.37,9.67-22.41,11.31-17.78,25.46-34.06,41.76-47.43,31.59-25.93,72.54-43.89,112.14-49,18.8-2.43,42.64-1.38,60.65,2.07,22.14,4.25,43.21,10.53,63.35,21.13,21.84,11.49,42.13,26.41,58.78,44.68,8.05,8.83,15.71,18.2,22.16,28.27,4.23,6.61,18.75,22.96,4.55,22.96-61.45,0-122.91,0-184.36,0Z"/>
      <path class="cls-1" d="m26.17,133.2c.64-1.33,1.7-1.99,3.18-1.98,1.16,0,2.33,0,3.49,0,126.16,0,252.31,0,378.47.04,2.34,0,5.14-1.02,6.68,1.96-130.61,0-261.22,0-391.82,0Z"/>
      <path class="cls-1" d="m26.17,133.2c130.61,0,261.22,0,391.82,0,1.94,0,3.89,0,5.83,0,.14.27.21.55.2.85-1.51,1.24-3.27,1.28-5.08,1.1-1.85-1.73-4.13-.9-6.2-.9-128.46-.04-256.93-.04-385.39-.08-2.05,0-4.35.88-6.16-.97,1.66,0,3.31,0,4.97.01Z"/>
      <path class="cls-1" d="m21.2,133.19c1.8,1.85,4.1.97,6.16.97,128.46.05,256.93.04,385.39.08,2.06,0,4.35-.83,6.2.9,0,0,.09.18.09.18-2.33-.04-4.66-.11-6.99-.11-131.23-.02-262.47-.04-393.7-.05.62-1.29,1.25-2.59,1.87-3.88.28-.07.56-.16.83-.25.05.72.11,1.45.16,2.17Z"/>
      <path class="cls-1" d="m60.3,71.32c3.02-6.28,8.56-10.04,13.91-14-3.17,6.12-8.49,10.11-13.91,14Z"/>
      <path class="cls-3" d="m207.95,1.15c8.42-1.53,16.85-1.51,25.28-.06-.41.33-.81.66-1.22.99-3.6.03-7.19.05-10.79.08-3.57-2.01-7.39-.4-11.07-.76-.73-.09-1.47-.17-2.2-.26Z"/>
      <path class="cls-1" d="m232.01,2.08c.41-.33.81-.66,1.22-.99,5.23.99,10.71-1.18,15.83,1.23-5.71,1.66-11.39,1.54-17.04-.25Z"/>
      <path class="cls-11" d="m369.91,57.38c6.27,5.03,11.77,10.83,16.98,16.92-6.75-4.55-12.28-10.32-16.98-16.92Z"/>
      <path class="cls-1" d="m210.15,1.4c3.68.36,7.5-1.25,11.07.76-3.99.99-8.05,1.29-12.15,1.11-1.01-.02-2.02-.04-3.03-.06,1.37-.6,2.74-1.21,4.11-1.81Z"/>
      <path class="cls-1" d="m206.04,3.21c1.01.02,2.02.04,3.03.06-5.64,1.73-11.29,1.38-16.95.13,1.45.23,2.36-1.69,3.93-.96,3.21,1.77,6.67.4,9.99.77Z"/>
      <path class="cls-5" d="m165.04,8.07c.39.34.77.69,1.16,1.03-1.07.01-2.13.03-3.2.04.68-.36,1.36-.72,2.04-1.07Z"/>
      <path class="cls-2" d="m107.02,33.11c.65-.34,1.3-.69,1.95-1.03-.29,1.02-1.08,1.1-1.95,1.03Z"/>
      <path class="cls-12" d="m18.33,135.15c131.23.02,262.47.03,393.7.05,2.33,0,4.66.07,6.99.11-1.9,1.6-4.16.84-6.25.84-128.37.04-256.75.04-385.12.04-2.16,0-4.33.03-6.49.04-1.01-.02-2.02-.04-3.03-.06.06-.34.13-.68.19-1.03Z"/>
      <path class="cls-6" d="m1.12,239.2c-1.76-2.01-.9-4.44-.92-6.66-.08-8.78.03-17.55.07-26.33.28-.02.56-.04.84-.07.06.7.12,1.41.18,2.11-.05,10.32-.11,20.63-.16,30.95Z"/>
      <path class="cls-12" d="m1.28,208.26c-.06-.7-.12-1.41-.18-2.11.9-3.61,1.34-7.26,1.05-10.98.03-.31.06-.61.11-.92.28-.03.56-.08.84-.13-.13,4.77,1.11,9.72-1.82,14.14Z"/>
      <path class="cls-6" d="m443.07,208.12c2.1,6.43.7,13.04.83,19.56.07,3.46,1.39,7.22-1.05,10.49.07-10.02.14-20.03.22-30.05Z"/>
      <path class="cls-1" d="m206.04,3.21c-3.32-.37-6.78.99-9.99-.77,3.75-2.39,7.97-.46,11.9-1.29.73.09,1.47.17,2.2.26-1.37.6-2.74,1.21-4.11,1.81Z"/>
    </g>
  </g>
</svg>