<?xml version="1.0" encoding="UTF-8"?>
<svg id="Capa_2" data-name="Capa 2" xmlns="http://www.w3.org/2000/svg" viewBox="0 0 24.43 24.54">
  <defs>
    <style>
      .cls-1 {
        fill: #fff;
      }
    </style>
  </defs>
  <g id="Capa_1-2" data-name="Capa 1">
    <g>
      <path class="cls-1" d="m.02,7.34c-.04-.55.23-.97.58-1.34.84-.86,1.68-1.72,2.55-2.55.44-.43.85-.5,1.31-.24.15.08.29.19.41.31,1.17,1.16,2.33,2.34,3.5,3.49.33.32.44.7.36,1.13-.03.15-.1.32-.2.42-.53.56-1.08,1.09-1.62,1.64-.04.04-.09.06-.14.1.68,1.19,1.47,2.31,2.38,3.33,1.34,1.49,2.86,2.76,4.59,3.78.4.24.29.23.59-.07.42-.41.83-.83,1.25-1.25.48-.49,1.06-.53,1.56-.07.47.44.92.9,1.38,1.35.66.65,1.31,1.3,1.97,1.95.18.18.36.36.51.56.29.37.3.89,0,1.26-.26.33-.57.62-.87.92-.53.54-1.06,1.08-1.61,1.6-.25.23-.54.44-.85.59-.23.11-.51.11-.76.15.16.04.34.08.52.12h-1.75c.21-.04.42-.08.68-.13-.39-.08-.78-.06-1.15-.22-.44-.19-.86-.38-1.31-.55-.85-.33-1.67-.75-2.46-1.2-2.75-1.59-5.19-3.67-7.19-6.13-1.02-1.25-1.91-2.6-2.67-4.03-.37-.69-.71-1.4-1-2.13-.15-.37-.32-.73-.44-1.11-.09-.28-.05-.63-.16-.88"/>
      <path class="cls-1" d="m12.81,1.61c-.47-.03-1.09-.06-1.21-.64-.11-.52.34-.9.82-.95.61-.06,1.35.07,1.95.18.65.11,1.3.29,1.92.51,2.34.81,4.38,2.34,5.83,4.34.72,1,1.27,2.11,1.66,3.28.19.57.34,1.15.44,1.75.1.61.3,1.46.17,2.07-.09.44-.53.75-.98.64-.63-.15-.59-.89-.61-1.4-.06-1.31-.38-2.55-.93-3.74-1.15-2.49-3.29-4.46-5.86-5.41-1.03-.38-2.09-.61-3.19-.61Z"/>
      <path class="cls-1" d="m21.1,11.74c0,.4,0,.75-.39.97-.32.18-.71.09-.95-.19-.27-.31-.18-.81-.22-1.19-.05-.48-.16-.96-.29-1.42-.52-1.74-1.72-3.25-3.3-4.15-.88-.5-1.81-.74-2.81-.85-.4-.04-.96-.01-1.28-.28-.32-.26-.38-.7-.12-1.02.52-.65,2-.24,2.67-.08.89.21,1.75.58,2.53,1.06,1.76,1.08,3.07,2.77,3.74,4.72.27.79.4,1.61.41,2.44Z"/>
      <path class="cls-1" d="m17.82,11.68c0,.31.06.69-.2.92-.19.18-.56.26-.8.17-.34-.13-.46-.46-.49-.79-.04-.44-.07-.86-.22-1.28-.25-.69-.72-1.32-1.29-1.78-.74-.6-1.53-.7-2.44-.84-.63-.1-1.11-.78-.54-1.31.52-.48,1.7-.14,2.3.07,1.4.5,2.53,1.49,3.18,2.84.37.78.49,1.2.5,2Z"/>
    </g>
  </g>
</svg>