<?xml version="1.0" encoding="UTF-8"?>
<svg id="Capa_2" data-name="Capa 2" xmlns="http://www.w3.org/2000/svg" viewBox="0 0 511.81 511.8">
  <defs>
    <style>
      .cls-1 {
        fill: #fff;
      }
    </style>
  </defs>
  <g id="Capa_1-2" data-name="Capa 1">
    <path class="cls-1" d="m511.03,237.85h0c-.48-2.64.43-5.53-1.39-7.93v-1c.2-5.43-.7-10.73-1.88-15.99.52-1.33-.68-2.02-1.12-3,.62-3.56-.11-6.88-1.77-10.04,0,0,0,0,.01,0h0c-3.14-17.82-9.31-34.64-16.86-51-2.45-4.97-4.9-9.93-7.36-14.9-3.78-7.24-7.91-14.27-12.85-20.8-.34-.41-.68-.81-1.01-1.22h0c-5.49-9.56-12.66-17.83-19.98-25.99h0c-6.52-7.48-13.51-14.48-20.99-20.99h0c-8.18-7.27-16.36-14.55-26-19.91-.42-.36-.83-.72-1.25-1.08-.49.23-1.1.36-1.79.41.69-.05,1.3-.18,1.79-.41-6.5-4.97-13.53-9.06-20.76-12.85-5.2-1.97-10.05-4.67-14.9-7.36-.07.22-.15.42-.25.61.1-.19.18-.39.25-.61-9.08-4.58-18.66-7.84-28.32-10.93-7.46-2.39-14.83-5.06-22.68-5.93,0,0,0,0,0,.01-3.15-1.67-6.48-2.39-10.04-1.77-.98-.43-1.67-1.64-3-1.12-5.27-1.18-10.56-2.08-15.99-1.88-.33,0-.67,0-1,0-2.41-1.83-5.29-.91-7.93-1.39.04-.26.02-.52-.06-.78h-36.99c-5.15,2.4-10.87,2.23-16.26,2.73-18,1.7-35.19,6.6-52.06,12.52-25.61,8.99-48.92,22.31-70.35,39.03-24.22,18.91-44.38,41.45-60.44,67.53-15.85,25.75-27.28,53.35-32.82,83.24-1.8,9.69-3.91,19.33-4.03,29.25-.01.95.15,2.04-.97,2.61v37.99c1.96,2.06.56,4.71,1.23,7-.02.33-.04.66-.07,1,.7,5.38,1.11,10.81,2.56,16.07.15.97.29,1.95.44,2.92,3.64,21.28,9.53,41.84,19.62,61.04,1.38,5.5,4.11,10.32,7.36,14.9.92-.51,1.93-.5,2.98-.1-1.05-.39-2.06-.4-2.98.1,3.11,6.83,6.89,13.26,11.6,19.13.15.77.17,1.62,1.11,1.95h0c11.53,17.64,25.24,33.36,41,47.36,8.87,7.88,18,15.38,28.06,21.7.33.94,1.17.95,1.95,1.11.13-.17.27-.32.43-.45-.16.13-.3.28-.43.45,5.88,4.69,12.26,8.54,19.13,11.6,4.57,3.25,9.4,5.98,14.9,7.36h0c5.55,3.54,11.74,5.75,17.83,8.04,14.01,5.27,28.37,9.35,43.2,11.58.97.15,1.95.3,2.92.44.02-.2.04-.39.09-.58-.04.18-.07.38-.09.58,5.36.85,10.71,1.7,16.07,2.56.33-.02.66-.04,1-.07,2.29.67,4.94-.73,7,1.23h37.99c2.06-2.02,4.72-.44,7-1.17.33,0,.67,0,1,0,2.67-.33,5.33-.67,8-1,2.48-1.4,5.63.02,8-1.88,3.53.39,6.86-.31,10-1.92.66-.07,1.33-.14,1.99-.21,6.14-1.16,12.22-2.51,18.06-4.8.33,0,.64-.08.93-.22,4.52-1.08,9.09-2.02,13.02-4.71,2.38.34,4.05-1.27,5.97-2.19,4.29-.89,8.27-2.56,12.03-4.77,3.65-1.77,7.3-3.54,10.96-5.3h0c3.64-1.4,6.82-3.6,10.03-5.75,3.34-1.99,6.67-3.97,10.01-5.96,10.94-6.06,20.8-13.58,30.01-22.01-1.69.02-3.37.05-5.06.07-4.01-.12-8.01-.24-12.02-.36-18.89-1.14-37.03-6.77-52.78-17.33-12.07-8.09-29.09-21.55-34.55-35.52-3.25-8.32,2.21-8.45,9.75-12.89,9.23-5.42,18.26-11.18,27.49-16.6,7.49-4.39,7-4.6,11.79,2.05,4.88,6.76,9.32,13.26,16.07,18.37,20.43,15.47,65.02,14.93,69.18-16.78,2.29-17.44-12.25-25.07-25.8-31.97-16.32-8.3-33.83-17.91-51-24.13-2.48-2.74-6.05-3.86-8.91-6.03-13.84-9.38-25.32-20.6-29.43-37.58-1.06-4.39-2.35-8.75-2.55-13.31-.33-2,.05-4.13-1.04-6,.48-6.38-1.48-12.79,1.44-19.26.93-2.07-1.08-5.81.56-8.72.36-2,.72-4,1.08-6,1.63-5.11,2.85-10.36,5.66-15.03.86-2.59,1.6-5.25,3.89-7.05.13-.78.08-1.64,1.05-1.97,2.11-4.71,5.48-8.48,9.1-12.06.33-.33.67-.67,1-1,1.34-2.45,3.95-3.38,5.98-5,3.27-2.03,5.87-5.19,9.9-5.95,2.11-1.61,4.32-3.01,7.1-3.07,10.35-3.79,21.03-5.37,32.04-4.69,2.19-.82,4.01.62,6,1h2c2.11-.35,4.18-.44,6,1,6.78-.39,12.82,2.79,19.28,3.95,1.26.23,2.47.69,3.71,1.05,2,1,4.48.94,6.09,2.78,3.94,1.06,7.33,3.28,10.88,5.17,7.57,3.25,13.79,8.4,19.77,13.92,2.08,2.07,4.16,4.13,6.24,6.2,4.92,5.86,4.88,5.81-1.13,10.43-3.47,2.67-6.65,5.76-10.81,7.42-.32.31-.63.62-.95.93-5.48,4.31-10.76,8.89-17.04,12.07-.32.31-.63.62-.95.93-3.73,2.85-7.47,5.7-11.21,8.55-1.68-3.06-3.21-5.82-4.73-8.59-1.72-1.98-3.44-3.97-5.17-5.95-1.66-1.08-3.32-2.16-4.98-3.23-1.11.05-1.52-.86-2.1-1.53-2.62-.83-5.24-1.66-7.86-2.49-1.92.84-3.38-.71-5.08-.98-3.3.47-6.76-.5-9.95,1.03-1.32.1-2.64.19-3.96.29-4.06,1.63-7.51,4.26-11.06,6.73-4.28,4.15-6.48,9.27-7.06,15.15.06,4.43.04,8.87,2.04,12.99.36.64.72,1.28,1.08,1.92.3.09.6.16.91.21,1.05,1.89,2.18,3.7,4.03,4.94.32.32.63.64.95.95,1.99,3.13,5.31,4.65,8.14,6.76.64.35,1.29.7,1.93,1.05,4.73,3.15,9.73,5.78,14.99,7.92,5.29,2.12,10.39,4.76,15.99,6.05,1.53.99,2.97,2.23,5,1.98,3.13,1.65,6.48,2.66,9.93,3.37.15.56.45.86,1.07.61,12.43,4.46,23.55,11.23,33.95,19.27,2.99,3.64,6.32,6.95,9.95,9.96,1.55,2.09,2.65,4.53,4.92,6.03,1.16-1.89,1.59-3.89.99-6.07.95-1.14,1.47-2.42,1.19-3.93,2.91-9.13,4.27-18.52,4.81-28.06v-3c.72-2,1.44-4,2.17-6v-36.99c-.26-.02-.52-.04-.78-.06ZM34.76,378c.42.22.85.49,1.27.81-.42-.32-.85-.6-1.27-.81Zm4.91,4.81c.37.54.73,1.1,1.07,1.68-.34-.58-.69-1.14-1.07-1.68Zm331.91,97.86c-.06.29-.1.6-.1.92,0-.32.04-.62.1-.92ZM306.4,9.62c-.27.06-.52.11-.75.12.23,0,.49-.06.75-.12ZM83.05,170.06c.43-.58.92-.9,1.44-1.07-.52.17-1.01.49-1.44,1.07.32-.09.63-.08.94.04,70.6-1.83,141.32,1.61,211.91-.33h0c1,.11,1.99.22,2.99.33,3.44-.1,1.89,2.55,1.9,3.9.1,15.58.05,31.16.03,46.74h0c-.64,0-1.29,0-1.93,0-24.26.06-48.52.09-72.77.22-1.65,0-3.66-1.02-4.99.97.28,0,.57,0,.85.03h0c-.28-.02-.57-.03-.85-.03-.07.83-.19,1.65-.19,2.48,0,73.14.02,146.29.03,219.43l-.11-.1h0c-19.27,0-38.54-.01-57.81-.02l-.12.11c0-72.97.02-145.94.02-218.9,0-1-.11-1.99-.17-2.99-1.3-2.04-3.32-.97-4.96-.97-24.6-.14-49.21-.17-73.81-.22l-.47.1-.48-.06c0-16.91,0-33.82,0-50.73Zm33.05,298.06c.14-.07.29-.13.45-.18-.16.05-.3.11-.45.18Zm-27.47-246.24c24.43.08,48.86.07,73.29.09,0,71.89,0,143.78.06,215.66-.05-71.89-.05-143.78-.06-215.66-24.43-.02-48.86-.01-73.29-.09ZM362.34,24.91c.06-.08.12-.17.17-.26-.06.09-.11.18-.17.26Zm15.24,9.28c.15.42.37.85.65,1.27-.28-.42-.5-.85-.65-1.27Zm12.02,8.85c-.66-.24-1.32-.5-1.98-.79-.66-.29-1.31-.6-1.95-.92.64.33,1.29.64,1.95.92.66.29,1.32.55,1.98.79s1.31.45,1.95.63c-.64-.18-1.29-.39-1.95-.63Zm3.83,1.09c1.21.24,2.32.34,3.28.29-.96.06-2.08-.05-3.28-.29Zm71.03,68.23c-.31-.05-.61-.13-.91-.24s-.6-.26-.89-.43c.3.17.59.32.89.43s.61.2.91.24c.15.02.31.04.46.04-.16,0-.31-.02-.46-.04Z"/>
  </g>
</svg>