<?xml version="1.0" encoding="UTF-8"?>
<svg id="Capa_2" data-name="Capa 2" xmlns="http://www.w3.org/2000/svg" viewBox="0 0 287 293.93">
  <defs>
    <style>
      .cls-1 {
        fill: #f5e1d8;
      }

      .cls-2 {
        fill: #455b97;
      }

      .cls-3 {
        fill: #eed1d2;
      }

      .cls-4 {
        fill: #dd677a;
      }

      .cls-5 {
        fill: #f3f2f3;
      }

      .cls-6 {
        fill: #be1a30;
      }

      .cls-7 {
        fill: #ea838c;
      }

      .cls-8 {
        fill: #cb848b;
      }

      .cls-9 {
        fill: #f2f2f3;
      }

      .cls-10 {
        fill: #5f70b2;
      }

      .cls-11 {
        fill: #7e94b7;
      }

      .cls-12 {
        fill: #f3f2f2;
      }

      .cls-13 {
        fill: #6a7dad;
      }

      .cls-14 {
        fill: #6070b2;
      }

      .cls-15 {
        fill: none;
      }

      .cls-16 {
        fill: #00247c;
      }

      .cls-17 {
        fill: #7c94b6;
      }

      .cls-18 {
        fill: #00227d;
      }

      .cls-19 {
        fill: #d4686a;
      }

      .cls-20 {
        fill: #00237c;
      }

      .cls-21 {
        fill: #e16f7a;
      }

      .cls-22 {
        fill: #6a7cac;
      }

      .cls-23 {
        fill: #5766aa;
      }

      .cls-24 {
        fill: #00237d;
      }

      .cls-25 {
        fill: #ea7475;
      }
    </style>
  </defs>
  <g id="Capa_1-2" data-name="Capa 1">
    <g>
      <path class="cls-15" d="m125.26,157.76c-.13-.18-.25-.38-.36-.6.1.22.22.42.36.6Z"/>
      <path class="cls-15" d="m133.18,154.19c0-.37.01-.73.03-1.1-.02.37-.03.73-.03,1.1Z"/>
      <path class="cls-15" d="m194.83,15.78c0,.16,0,.33,0,.49-.03.58-.05,1.16-.08,1.75.03-.58.05-1.16.08-1.75,0-.16,0-.33,0-.49Z"/>
      <path class="cls-15" d="m70.25,135.64c-.27.16-.55.41-.85.75-.33,1.25-.53,2.52-.63,3.8.1-1.28.3-2.55.63-3.8.3-.34.58-.59.85-.75Z"/>
      <path class="cls-15" d="m111.33,110.96c.01.26.03.52.03.79,0-.27-.02-.54-.03-.79Z"/>
      <path class="cls-15" d="m58.64,146.37c.64-1.27,3.03-3.61,5.17-4.28-2.14.67-4.54,3.02-5.17,4.28-.47.05-.84.05-1.14,0,.3.04.67.04,1.14,0Z"/>
      <path class="cls-15" d="m5.68,115.57c-.27-.01-.59-.13-.88-.32.29.19.61.31.88.32Z"/>
      <path class="cls-15" d="m141.25,156.38c-.03-.21-.04-.43-.04-.66,0,.23.01.45.04.66Z"/>
      <path class="cls-15" d="m69.46,155.78c-.46.44-.95.82-1.48,1.12.53-.31,1.03-.69,1.48-1.12Z"/>
      <path class="cls-15" d="m141.95,157.98c-.2-.2-.33-.43-.45-.69.11.25.25.49.45.69Z"/>
      <path class="cls-15" d="m193.68,158.66s-.05-.02-.08-.03c.03.01.05.02.08.03Z"/>
      <path class="cls-15" d="m196.99,159.12c-.38-.08-.81-.12-1.25-.16.44.04.88.07,1.25.16Z"/>
      <path class="cls-15" d="m247.12,70.8c0,.3-.06.45-.16.51.1-.06.17-.21.17-.51-.07-.59-.26-.66-.47-.55.21-.11.4-.04.47.55Z"/>
      <path class="cls-15" d="m71.38,135.53c-.35-.17-.73-.13-1.13.11.4-.24.78-.28,1.13-.11Z"/>
      <path class="cls-15" d="m71.9,151.61c-.33,1.3-.96,2.49-1.78,3.47.82-.98,1.45-2.18,1.78-3.47.16.07.2-.24.27-.44-.07.2-.11.51-.27.44Z"/>
      <path class="cls-15" d="m71.89,137.01c-.17-.13-.34-.39-.51-.35h0c.17-.03.34.22.51.35Z"/>
      <path class="cls-15" d="m130.89,142.18c.59.11,1.12.33,1.65.54-.54-.21-1.06-.44-1.65-.54Z"/>
      <path class="cls-15" d="m110.27,7.27c0,.34.06.69,0,1.02-1.09.13-1.06,8.81-.91,15.44-.15-6.63-.18-15.3.91-15.44h0c.07-.33.02-.68,0-1.02Z"/>
      <path class="cls-15" d="m136.6,148.85c0,.44.01.93.01,1.43,0-.5-.01-.99-.01-1.43Z"/>
      <path class="cls-15" d="m104.56,114.26c-.29-.02-.58-.05-.87-.05.29,0,.58.03.87.05h0Z"/>
      <path class="cls-15" d="m234.15,38.37h0c-.21.14-.43.28-.64.41.22-.14.43-.27.64-.41Z"/>
      <path class="cls-15" d="m142.45,143.23c.18.16.35.33.51.52-.16-.19-.33-.36-.51-.52Z"/>
      <path class="cls-15" d="m176.82,113.22c-.04.1-.06.19-.07.26.01-.08.03-.17.07-.26h0Z"/>
      <path class="cls-15" d="m136.62,151.32c0,.52,0,1.06-.02,1.58.02-.52.02-1.05.02-1.58Z"/>
      <path class="cls-15" d="m5.87,115.55c.35-.07.53-.39.21-1.07.33,0,.66-.02,1-.02-.33,0-.66.01-1,.02.31.68.14,1-.21,1.07Z"/>
      <path class="cls-15" d="m124.05,147.14c.08.2.23.45.45.73h0c-.21-.29-.36-.53-.45-.73Z"/>
      <path class="cls-15" d="m111.06,83.51c0,.24-.04.49-.04.73,0-.24.04-.49.04-.73Z"/>
      <path class="cls-15" d="m110.27,7.01c.01-.17.04-.34.12-.5-.07.16-.11.33-.12.5Z"/>
      <path class="cls-15" d="m110.53,6.28c-.01-.24-.25-.56-.51-.86.26.31.5.62.51.86.1.02.21.04.31.06-.1-.02-.21-.04-.31-.06Z"/>
      <path class="cls-15" d="m136.32,155.75c-.06.27-.12.52-.2.74.08-.22.14-.47.2-.74Z"/>
      <path class="cls-15" d="m109.6,113.84c.09-.03.18-.06.27-.1-.09.04-.18.07-.27.1Z"/>
      <path class="cls-15" d="m203.03,62.32c.68.06,1.83-.05,2.74.68.24-.34.56-.79.99-1.37-.84.52-2.76.77-3.73.69Z"/>
      <path class="cls-15" d="m111,83.15c-.04-.12-.11-.23-.21-.33,0-5.4,0-10.8,0-16.2,0,5.4,0,10.8,0,16.2.1.1.17.22.21.33Z"/>
      <path class="cls-15" d="m252.09,51.74c.58.72,1.17,1.45,1.75,2.17-.58-.72-1.17-1.45-1.75-2.17h0c-1.57-1.69-3.14-3.37-4.7-5.06,1.57,1.69,3.14,3.37,4.7,5.06Z"/>
      <path class="cls-15" d="m212.43,53.63c-.28.26-.6.44-.93.62.33-.18.66-.37.93-.62.32.09.68-.13,1-.31-.31.18-.67.4-1,.31Z"/>
      <path class="cls-15" d="m186.35,136.34s.05.04.06.07c0-.02-.03-.04-.06-.07Z"/>
      <path class="cls-15" d="m203.05,152.51c0,.65-.01,1.3-.06,1.92.05-.62.06-1.26.06-1.92Z"/>
      <path class="cls-15" d="m165.89,155.09c-.91,0-1.3-.73-1.6-.87.3.13.68.88,1.6.87h0Z"/>
      <path class="cls-15" d="m194.31,147.67c-.15.35-.27.76-.35,1.21.09-.45.2-.86.35-1.21Z"/>
      <path class="cls-15" d="m219.11,149.17c-.08.27-.14.56-.15.86.02-.3.07-.59.15-.86Z"/>
      <path class="cls-15" d="m225.8,151.92c-.29-.35-.59-.69-.83-1.06.79-.84,1.6-1.67,2.37-2.53-.77.86-1.58,1.69-2.37,2.53.24.37.54.71.83,1.06Z"/>
      <path class="cls-15" d="m222.44,146.61c-1.36.13-2.41.82-2.99,1.79.58-.97,1.63-1.65,2.99-1.79.2-.26.4-.51.61-.78-.21.27-.41.53-.61.78Z"/>
      <path class="cls-15" d="m185.32,142.88c.1.56.19,1.12.26,1.68-.07-.56-.15-1.12-.26-1.68-.15-.46-.52-.71-.97-.81.45.1.82.35.97.81Z"/>
      <path class="cls-15" d="m141.78,150.57c0,.23-.02.46-.05.7.02-.24.04-.47.05-.7Z"/>
      <path class="cls-15" d="m141.95,157.98c.14.14.3.26.49.36h0c-.19-.1-.35-.23-.49-.36Z"/>
      <path class="cls-15" d="m185.84,149.61c0-1.69-.06-3.37-.27-5.06.2,1.68.26,3.37.27,5.06Z"/>
      <path class="cls-15" d="m215.35,152.34c-.16-.65-.26-1.32-.28-1.98.02.67.12,1.33.28,1.98Z"/>
      <path class="cls-15" d="m182.82,157.34h0c-.02-.44-.03-.88-.04-1.33,0,.44.02.88.04,1.33Z"/>
      <path class="cls-15" d="m219.45,148.4c-.14.24-.26.5-.34.78.08-.27.2-.54.34-.78Z"/>
      <path class="cls-15" d="m194.13,147.1c.95-1.54,2.55-2.14,4.9-.21t0,0c-2.35-1.93-3.95-1.32-4.9.21Z"/>
      <path class="cls-15" d="m193.02,158.32c.07.06.16.1.24.15-.08-.05-.17-.09-.24-.15h0Z"/>
      <path class="cls-15" d="m203.03,146.87c-.2,1.04.02,3.35.03,5.63,0-2.28-.22-4.59-.02-5.63.66-.33,1.21-.48,1.66-.49-.45,0-1,.16-1.66.49Z"/>
      <path class="cls-15" d="m189.79,153.84c-.03,2.15.23,4.51,1.76,4.52.72.31,1.04.6,1.09.87-.05-.27-.37-.57-1.09-.88-1.53-.02-1.79-2.37-1.76-4.52Z"/>
      <path class="cls-15" d="m238.14,137.93c-.03.59-1.04.11-1.73-.38.69.49,1.7.97,1.73.38.02-.34-.34-.78-.79-1.09.45.31.81.75.79,1.09Z"/>
      <path class="cls-15" d="m235.84,137.05c.06.07.14.16.25.25-.11-.09-.19-.18-.25-.25Z"/>
      <path class="cls-15" d="m221.8,158.46c-.78-.13-1.53-.36-2.23-.68.7.33,1.46.55,2.23.68Z"/>
      <path class="cls-15" d="m194.31,147.67c.16-.37.37-.68.62-.9-.26.22-.46.53-.62.9Z"/>
      <path class="cls-15" d="m124.26,152.84c-.03,1-.15,2.01.21,2.99.09.44.23.9.42,1.31-.19-.41-.34-.87-.42-1.31-.36-.98-.24-1.99-.21-2.99Z"/>
      <path class="cls-15" d="m216.23,146.87c0-.16-.06-.29-.16-.4.1.11.15.24.16.4Z"/>
      <path class="cls-15" d="m193.93,149.04c-.05.3-.1.61-.13.94.03-.33.08-.64.13-.94Z"/>
      <path class="cls-15" d="m226.26,152.53c.19.29.35.59.44.93-.08-.34-.24-.64-.44-.93Z"/>
      <path class="cls-15" d="m222.97,146.62h0c-.18,0-.35,0-.53-.01.18,0,.35,0,.53.01Z"/>
      <path class="cls-15" d="m108.07,142.87c.06.23.12.48.22.76h0c-.1-.29-.17-.53-.22-.76Z"/>
      <path class="cls-15" d="m241.95,92.06c-.11-.28-.17-.56-.18-.84.01.28.07.56.18.84Z"/>
      <path class="cls-15" d="m241.95,92.06c.05.14.12.28.2.42h0c-.08-.14-.15-.28-.2-.42Z"/>
      <path class="cls-15" d="m129.74,142.14h0c-.82-.81-.26-1.06.54-1.15-.8.09-1.35.35-.54,1.15Z"/>
      <path class="cls-15" d="m108.16,156.79c1.06.96,2.42,1.56,4.12,1.58h0c-1.7-.02-3.06-.62-4.12-1.58Z"/>
      <path class="cls-15" d="m107.33,155.88c.25.33.53.63.83.91-.3-.27-.58-.58-.83-.91Z"/>
      <path class="cls-15" d="m142.24,143.91c-.44-.32-.95-.59-1.54-.79-.4-.24-.81-.27-1.24-.26.42-.01.84.02,1.24.26.59.2,1.1.47,1.54.79Z"/>
      <path class="cls-15" d="m133.44,155.83c-.19-.53-.25-1.07-.26-1.62.01.54.07,1.08.26,1.62.05.28.03.58.03.88,0-.3.02-.59-.03-.88Z"/>
      <path class="cls-15" d="m133.94,154.05c-.01.61.02,1.22.26,1.82,0,.25,0,.5.01.76,0-.25,0-.5-.01-.76-.24-.6-.27-1.2-.26-1.82Z"/>
      <path class="cls-15" d="m189.08,138.37c.15-.16.31-.31.47-.47.5-.11.89-.37,1.19-.74-.3.36-.69.62-1.19.74-.16.15-.32.31-.47.47Z"/>
      <path class="cls-15" d="m136.6,148.85c0-1.04,0-1.86.1-2.23.44-.28.88-.5,1.34-.64-.46.14-.9.35-1.34.64-.1.37-.11,1.19-.1,2.23Z"/>
      <path class="cls-15" d="m239.8,94.13c-.78.55-1.57,1.1-2.35,1.65h0c.78-.55,1.57-1.1,2.35-1.65Z"/>
      <path class="cls-15" d="m181.2,132.23c-.21.78-.27,1.74-.12,2.92h0c-.15-1.18-.09-2.15.12-2.92Z"/>
      <path class="cls-15" d="m185.32,139.66c-1.85.41-3.4.36-4.69-.25,1.29.62,2.83.66,4.69.25.64.35,1.47.35,2.19.06-.72.29-1.55.29-2.19-.06Z"/>
      <path class="cls-15" d="m236.33,136.48c.08,0,.16,0,.25.02-.08-.02-.17-.03-.25-.02Z"/>
      <path class="cls-15" d="m182.23,130.45c.46-.42,1.01-.66,1.6-.76-.59.1-1.14.35-1.6.76Z"/>
      <path class="cls-15" d="m184.4,128.04c.21,0,.43,0,.64,0-.21-.01-.43-.01-.64,0Z"/>
      <path class="cls-15" d="m179.22,135.62c-.02-.11-.02-.22,0-.32-.01.11-.01.21,0,.32Z"/>
      <path class="cls-15" d="m188.56,136.66h0c-.18-1.01-.31-1.43-.44-1.5.14.07.27.49.44,1.5Z"/>
      <path class="cls-15" d="m191.63,134.15c-.01.39-.05.77-.11,1.13.06-.37.1-.75.11-1.13Z"/>
      <path class="cls-15" d="m186.15,136.9c.05-.11.1-.2.15-.26-.05.07-.1.15-.15.26Z"/>
      <path class="cls-15" d="m179.34,133.85c0,.14,0,.27,0,.41,0-.14,0-.27,0-.41Z"/>
      <path class="cls-15" d="m186.15,136.9c-.03.07-.06.15-.08.25h0c.02-.09.05-.18.08-.25Z"/>
      <path class="cls-15" d="m197.64,159.35c-.19-.1-.41-.17-.65-.23.24.05.47.13.65.23Z"/>
      <path class="cls-15" d="m181.2,132.23c.21-.78.57-1.36,1.03-1.78-.46.42-.82,1-1.03,1.78Z"/>
      <path class="cls-15" d="m254.35,240.29h0c-.11.09-.23.18-.35.25.12-.07.24-.16.35-.25Z"/>
      <path class="cls-15" d="m254,240.54c-.46.26-.96.36-1.48.34.53.02,1.03-.08,1.48-.34Z"/>
      <path class="cls-15" d="m91.19,143.73s.01.08,0,.13c.01-.04.02-.08,0-.13Z"/>
      <path class="cls-15" d="m102.27,155.36c.1.12.19.24.27.37-.08-.13-.17-.25-.27-.37Z"/>
      <path class="cls-15" d="m186.13,63.88c-.03-.06-.08-.16-.14-.26.05.1.1.19.14.26Z"/>
      <path class="cls-15" d="m102.74,156.09c.03.07.06.13.09.2-.03-.07-.05-.13-.09-.2Z"/>
      <path class="cls-15" d="m239.89,198.67h0c.54.02,1.07.05,1.61.05-.54,0-1.07-.03-1.61-.05Z"/>
      <path class="cls-15" d="m92.41,199.28c.07.1.11.2.13.32-.02-.11-.06-.22-.13-.32Z"/>
      <path class="cls-15" d="m206.14,62.86c-.08.09-.15.18-.22.26,0,0,0,0,0,0,.07-.09.14-.16.22-.26Z"/>
      <path class="cls-15" d="m97.51,143.29c-2.13-.89-4.32-.17-6.43.82,0,0,0,0,0,0,2.11-.99,4.29-1.71,6.43-.82Z"/>
      <path class="cls-15" d="m97.66,96.98c-.64-.77-2.47.49-2.69,1.87.22-1.38,2.05-2.65,2.69-1.87Z"/>
      <path class="cls-15" d="m91.98,66.53c-.08-.03-.16-.09-.24-.14.08.05.16.11.24.14Z"/>
      <path class="cls-15" d="m91.95,96.11s0,.06-.01.08c.01-.02.02-.05.01-.08Z"/>
      <path class="cls-15" d="m31.41,56.11c.16-.25.32-.5.5-.72-.19.22-.35.47-.5.72Z"/>
      <path class="cls-15" d="m256.13,222.05c-.11-.08-.21-.2-.3-.31h0c.1.11.19.23.3.31Z"/>
      <path class="cls-15" d="m92.09,66.56s-.08-.01-.12-.03c.04.02.08.03.12.03Z"/>
      <path class="cls-15" d="m189.55,68.44c0,.35-.11.56-.25.68.14-.12.24-.33.25-.68-.09-.79-.38-.81-.69-.56.31-.26.6-.23.69.56Z"/>
      <path class="cls-15" d="m186.2,63.9c.12-.16.48-.5.36-.82.11.31-.24.66-.36.82Z"/>
      <path class="cls-15" d="m95.74,158.54s-.08,0-.12,0c.04,0,.08,0,.12,0Z"/>
      <path class="cls-15" d="m91.93,96.2s-.09.06-.17.07c.08,0,.14-.02.17-.07Z"/>
      <path class="cls-15" d="m176.61,287.7c-.03.07-.04.14-.03.22-.01-.08,0-.15.03-.22,0-35.04,0-70.09,0-105.13,0,35.04,0,70.09,0,105.13Z"/>
      <path class="cls-15" d="m111.17,181.96s-.06-.06-.1-.09c.04.03.07.06.1.09Z"/>
      <path class="cls-15" d="m110.41,286.24s-.01-.06-.02-.09c0,.03.01.06.02.09Z"/>
      <path class="cls-15" d="m186.19,97.52s0,0,0,0c0,0,0,0,0,0Z"/>
      <path class="cls-15" d="m115.36,289.43c-2.1-.46-3.73-1.03-4.46-1.72.73.7,2.36,1.26,4.46,1.72Z"/>
      <path class="cls-15" d="m187.37,97.84c.39-.18.13-.63-.25-.89.38.26.64.71.25.89Z"/>
      <path class="cls-15" d="m209.52,101.01c-.05-1-.39-1.31-.75-1.27.36-.03.7.28.75,1.27Z"/>
      <path class="cls-15" d="m36.09,83.12c-.19-.14-.38-.28-.57-.41.19.13.38.27.57.41Z"/>
      <path class="cls-15" d="m40.77,85.67c-.45-1.14-1.47-1.71-2.5-1.82,1.09.15,2.06.72,2.5,1.82Z"/>
      <path class="cls-15" d="m110.78,181.76c-.07-.17-.15-.33-.22-.5.07.17.15.33.22.5h0Z"/>
      <path class="cls-15" d="m30.89,56.86c-.08.1-.17.2-.27.29-.95,1.17-1.87,2.36-2.77,3.56.9-1.2,1.82-2.39,2.77-3.56.1-.09.19-.19.27-.29Z"/>
      <path class="cls-15" d="m177.47,287.79s-.02,0-.03,0c0,0,.02,0,.03,0Z"/>
      <path class="cls-15" d="m36.7,83.5c-.14-.07-.27-.15-.39-.24.12.09.26.16.39.24Z"/>
      <path class="cls-15" d="m37.2,83.71c-.12-.04-.24-.08-.35-.13.11.05.23.09.35.13Z"/>
      <path class="cls-15" d="m225.11,246.22c-.17-.07-.28-.13-.36-.2.08.07.2.14.37.2.73.02.3-.78.33-.94-.03.15.4.95-.33.93Z"/>
      <path class="cls-15" d="m119.67,290.18c-.74-.1-1.46-.21-2.16-.33.69.12,1.41.23,2.16.33Z"/>
      <path class="cls-15" d="m176.59,287.92h0c-.22.18-.44.34-.68.43.24-.09.47-.25.68-.43Z"/>
      <path class="cls-15" d="m177.1,289.21c-.15.07-.29.1-.4.08.11.02.24-.01.4-.08Z"/>
      <path class="cls-5" d="m209.76,17.76c1.18-.16,2.97.57,4.01,1.13,1.23.67,1.4,1.66,2.54,2.44.77.53,1.42.36,2.08.25-2.62-1.64-5.3-3.2-8.02-4.68-.24.1-.49.31-.61.85Z"/>
      <path class="cls-5" d="m221.22,25.24c.85-.07,2.01.23,2.95.17-1.15-.8-2.31-1.59-3.49-2.36.16.65.2,1.41.26,2.04.1.05.19.1.29.15Z"/>
      <path class="cls-5" d="m198.03,281.48c-.45.08-.88.19-1.26.47.47.21.65.65.24.93-.57.38-.88-.24-1.21-.59-.32.08-.63.24-.97.07,1.05,1.75-1.05,1.71-2.06,2.39-.11.08-.26.24-.44.44,1.83-.68,3.64-1.4,5.43-2.15.14-.48.05-1.19.27-1.57Z"/>
      <path class="cls-5" d="m188.77,284.98c-.23-1.42-1.02-4.11.41-5.37,1.02-.91,1.71.03,2.38-1.48.8-1.81-.29-4.77-.22-6.71.17-4.87.21-9.74.21-14.63,0-4.9,0-9.8,0-14.7,0-2.02.07-4.05-.11-6.06-.1-1.1-.22-2.3-.53-3.36-.11-.38-.83-1.74-.83-1.78-.04-.54.51-.85.47-1.29-.03-.28-.34-1.6-.24-1.94.45-1.66,2.39-1.47,2.91-3.03.49-1.5-.91-1.76-2.11-1.38-1.58.5.24,1.13-1.42,1.24-.33.02-1.32,0-1.44-.29-.14-.32.78-1.8,1.04-2.09.83-.96.76-.49,1.77-1.06,1.57-.89,2.2-1.61,4.13-1.47,1.73.13,4.34.23,5.52,1.61,1.56,1.83-.08,2.07-.76,3.67-.25.58.24,4.4-.82,3.92-1.52-.68,1-2.43-.4-3.29-.85-.52-.83.26-1.31.49-.06.51-.33.84-.8.98-.26,0-.52-.01-.77-.02-.85.44-1.32-.02-1.8,1.1-.36.83-.31,1.84.73,2.09.04-.74.14-1.14.34-1.29.33-.25.9.17,1.85.82,2.08,1.42,4.12,2.91,6.18,4.37,4.31,3.04,8.62,6.08,12.94,9.1,4.13,2.89,8.27,5.77,12.4,8.65,2.25,1.57,4.58,3.06,6.77,4.71,1.51,1.14,1.92,1.38.34,2.75.09.09.16.17.24.26,6.74-5.8,12.95-12.23,18.55-19.19-.11.09-.23.18-.35.25-.46.26-.96.36-1.48.34-1.93-.06-4.17-1.65-5.63-2.22-2.68-1.05-4.59-3.95-4.49-7.02-1.56-.83-2.85-2.04-4.31-3.01-1.25.75-.68,2.3-2.25,1.59-1.47-.66-1.12-2.85-1.42-4.08-.11-.09-.21-.18-.32-.26-.72.02-.87,0-1.32.45.21.35.28.72.2,1.09.05.39-.15.61-.62.67-.34.75-.62.5-.89,1.36-.15.47,1.46,1.71.05,2.13-.44.13-1.68-2.12-2.3-2.55-1.16-.81-2.77-.46-3.51-1.38-1.04-1.31.15-2.75-1.31-3.96-1.25-1.04-2.77-.69-4.16-.83-.64-.07-1.81-.55-2.26-.54-.53,0-.83.31-1.34.35-1.93.15-3.28,1.26-3.86-1.32-.41-1.79-.11-2.02-1.28-3.54-1.21-1.58-1.54-2.41-1.78-4.44-.14-1.12.44-1.07-.56-1.91-.33-.28-1.88-.41-2.33-.54-.67-.19-1.13-.22-1.73-.55-.52-.28-.79-.89-1.41-1.19-.56-.28-1.23.05-1.81-.44-.6-.51-.71-1.59-1.23-2.23-1.08-1.35-2.79-1.66-4.08-2.7-.81-.65-1.57-1.43-1.23-2.26.02-.04.74.56.97.26.83-1.07-.12-1.06-.04-2.29-.22-.1-.44-.2-.6-.37-.05-.06-.1-.13-.14-.2-.1-.08-.21-.16-.31-.23-1.88-.09-.64-1.4-.34-2.37.78-2.52.74-1.35,3.33-2.04.91-.24,1.52-.91,2.46-1.12.92-.2,2.24.11,3.2.15,2.86.13,3.56,1.1,4.34-1.81.24.74.89,1.61.8,2.44-.07.67-.55,1.06-.61,1.28-.11.42-.72-.28-.52.61.1.44,1.75,1.16,2.19,1.27.88.21,4.55.2,5.53-.24,2.26-1.03-.19-.57-.57-.91-.97-.88.13-.83,1.38-.95.52-.05,2.79.14,3.19-.05.81-.39.52-1.13.99-1.42,1.69-1.02,3.16.22,3.94,1.73.51.99,1.56,4.34,1.38,5.55,1.17,1,2.38,1.94,3.78,2.61.89-.68,2.93-.52,3.81.5,1.27,1.48,2.82,2.75,3.63,4.6.08.05.15.11.23.16,2.2-.89,5.99,2.94,6.75,4.8.08.06.16.12.24.18,2.16-.26,7.86,5.73,7.42.21-.13-1.66-1.07-1.96-2.19-2.97-1.2-1.09-2.35-3.32-4.21-3.21-1.52.09-2.7,2.08-2.79-.55-.09-2.53,1.87-.92,3.29-.17,1.72.9,3.46,1.64,5.01,2.72,1.94,1.36,2.94,1.34,5.31,1.68-3.71-2.71-7.49-5.32-11.32-7.86-.19,2.79-4.2-.26-1.52-1.06-1.65-1.2-3.3-2.39-5.1-3.7.62-.03,1.12-.06,1.61-.08h0c.08-.06.17-.1.26-.13.27-.08.55-.05.83-.05,12.18-.02,24.37-.04,36.55-.06.14,0,.28,0,.42,0,.18-.48.35-.96.52-1.44-.28-.27-.54-.51-.66-.66-.52-.67-.77-.81-.87-1.5-.06-.42,1.08-.38.75-.96-.45-.79-1.77-.35-1.92-1.05-.3-1.4,1.99-.91,2.51-.88.57.04,1.2.05,1.83.12.86-2.73,1.65-5.49,2.35-8.29,0,0,0,0,0,0-.63-.13-1.63.21-2.17-.15-.68-.45.07-1.18-.94-1.8-.97-.59-4.03-.06-5.2-.06-1.86,0-3.72,0-5.57,0-4.18,0-8.36,0-12.54,0-7.9,0-15.79,0-23.69,0-7.9,0-15.79,0-23.69,0h-11.84c-2.09,0-4.18,0-6.27,0-1.51,0-4.16-.52-5.57.12-3.07,1.4,3.21,1.17,4.28,1.2,4.11.1,8.23.14,12.34.15,7.8.02,15.61.03,23.41.03,17.55.01,35.09,0,52.64,0-2.03,1.42.13,1.04.05,2.13-.14,1.89-6.82.54-7.87.41-3.69-.45-7.38-.26-11.09-.29-6.73-.06-13.33.73-20.09.73-7.49,0-14.97,0-22.45,0-7.02,0-14.49.73-21.47-.02-2.68-.29-6.23-.71-8.88.02-.35.1-.72-.13-1.06.09-.19.12-.64,1.04-.49.97.08-.04-1,.63-.8.48.07-.05-1.83.68-1.64.67-1.52.08-.51-.02-1.28-.67-.6-.51-.68-1.78-1.92-.98-1.22.8-.32,8.6-.32,10.12,0,14.99,0,29.98,0,44.98,0,8.15-.01,16.3-.01,24.45,0,4.25,0,8.5.03,12.75.01,1.85-.17,3.64-.21,5.48-.02.79.3,2.07.02,2.75-.11.27-.32.45-.69.46,0,0-.02,0-.03,0-.18,0-.39-.03-.65-.12-.06,0-.13.02-.19.03-.03.07-.04.14-.03.22h0s0,0,0,0c-.24.95-.15,1.32.12,1.37.11.02.24-.01.4-.08.69-.3,1.76-1.32,2.31-1.56,1-.45,2.6-.39,2.88.84,2.2-.63,4.37-1.31,6.53-2.05-.01-.54.02-1.11-.04-1.46Zm36.34-38.76c-.17-.07-.29-.13-.37-.2-.53-.44.56-.87.69-.77,0,0,.01.02,0,.03-.03.15.4.95-.33.94Zm12.23-9.41c-.69-.02-1.65-1.54-1.67-2.65-.07-4.27,6.97,2.77,1.67,2.65Zm1.08,2.94c-.41.24-2.09,1.32-2.59.92-.8-.65-.02-1.46.69-1.33.56.1,1.11.24,1.91.41Zm-3.01-1.58c-.43-.09-.73-.34-.72-.86.25-1.76,1.97,1.12.72.86Zm-2.65,11.73c1.42.02.64-.23,1.72,1.3.53.75,2.48,1.73,2.45,2.74-.03,1.18-1.07,1.83-2.1,1.15-2.01-1.33-4.38-2.36-5.01-5.37,1.34,1.9,1.59.17,2.94.18Zm-3.63-2.28c-.05-.31.22-.27.4-.29,1.09.21-.14,2.09-.4.29Zm-2.79-8.56c-.84.17-1.45-.19-1.98-.85.78-.24,2.68.71,1.98.85Zm-4.34.38c.75-.17,2.09,1.08,3,1.27,2.5.54,1.9-2.15,3.86-.25,1.53,1.48,1.05,1.75-.11,2.93-.31.32-1.48,2.1-1.99,2.02-.84-.13-.41-.96-.68-1.42.8-3.39-2.09-.76-3.64-1.91-.71-.53-1.97-2.3-.43-2.65Zm-15.01-8.28c.57-1.95,2.6-1.7,4.33-1.73.28,0,4.51.15,4.54.21-.08-.19-1.09,1.74-1.17,1.86-.55.88-1.81,1.76-.16,2.17.36.09.72.17,1.08.25.92.03,3.26-2.77,2.66.33-.34,1.77-2.81,1.82-3.37,3.6-.13.42.44,3.62-1.43,1.37-.88-1.06.54-2.35-.12-3.65-1.29-2.57-7.32-1.08-6.35-4.4Zm-.85,1.97c2.43,1.53-.69,1.29-.73.25-.01-.37.44-.21.73-.25Zm35.26-36.34c.37.1.79.2.87.62-.81,2.1-1.76-.85-.87-.62Zm9.44-7.41c.7-.3,1.3-.06,2.14.45-.36.06-2.68-.22-2.14-.45Zm-12.53,5.72c.47-.36,1.16.44,1.7.22.66-.26.7-.97,1.22-1.33,1.27-.87,2.5-1.69,4.12-1.5.49.06.77.26.61,1.03-.23,2.22-2.88.67-4.24,1.38-.52.28-1.13,1.68-1.67,1.74-.45.05-2.45-1.02-1.75-1.55Zm-9.73-1.87c1.26-.73.47-.27,1.61-.13.49.54,1.08.71,1.77.49.58-.23,1.16-.43,1.76-.61.56-.09.9-.01,1.34.3-2.5.39-1.04,3.35-3.17,3.79-1.08.22-2.29-1.77-3.14-2.35-1.04-.72-1.84-.53-.18-1.49Zm-.16,4.98c.61-.1,1.2-.33,1.81-.22,1.5-.16,2.9,1.46,4.31,1.82,1.58.4,2.37.33,3.66.95.75.36,2.59.95,2.96,1.72.88,1.81-.54,1.11-1.41.9-1.35-.33-2.68-1.11-4.16-1.34-1.45-.22-2.71.19-4.1-.11-1.42-.31-7.05-3.09-3.08-3.71Zm-8.54-5.7c.05.61-.47.42-.81.49-2.35-.46.71-1.63.81-.49Zm-21.04.35c-.08.44-.47.37-.7.31-.19-.08-2.65.29-2.85.34-.8.2-2.16,1.55-2.66.3-1.19-2.94,6.46-2.21,6.21-.95Zm-8,5.94c.2.02.5.07.51.4-.77,1.32-1.75-.54-.51-.4Zm-.58,3.88c.24.27.48.88-.16,1-.91.17-1.59-.19-2.27-1.11-.04,0,2.77.48,2.43.11Zm-4.28,68.18c-.33-1.46.32-4.07.32-5.63,0-2.26,0-4.53,0-6.79,0-4.53,0-9.05,0-13.58,0-3.3-.81-7.28.61-10.07,1.02-2,2.03-4.59,2.63-.55.61,4.09,0,8.75,0,12.9,0,9.28,0,18.56-.03,27.84,0,.83.56,1.68-.07,2.62-1.04-1.24-.38-2.85-1.1-4.17-.66-1.21-2.03-1.12-2.36-2.56Z"/>
      <path class="cls-5" d="m265.49,222.2c-.5-.76.49-1.54.37-2.25-.19-1.19-1.58-.43-.5-2.1-2.42-1.86-4.91-3.61-7.47-5.26-.14,2.76,3.19,2.52,1.22,4.88-.71.85-1.65,1.6-2.36,2.49-.42.53-.77,1.11-.92,1.79.1.11.19.23.3.31.11.08.25.13.42.11,1.59-.62,5.44.78,6.88,1.69.62.39,1.17.9,1.5,1.44.53-.86,1.05-1.72,1.57-2.6-.4,0-.78-.14-1.01-.5Z"/>
      <path class="cls-5" d="m266.86,218.8c.18.54.65,1.05.99,1.56.14-.25.28-.5.41-.75-.29.03-.54-.26-1.41-.81Z"/>
      <path class="cls-5" d="m136.46,291.7c-1.95-.28-10.12-.61-16.79-1.53-.74-.1-1.46-.21-2.16-.33-.35-.06-.69-.12-1.02-.18-.39-.07-.77-.15-1.13-.23-2.1-.46-3.73-1.03-4.46-1.72-.32-.31-.47-.64-.41-1-.05-.16-.07-.31-.08-.47,0-.03-.01-.06-.02-.09,0-.19,0-.38.03-.56.04-.38.1-.75.06-1.13-.35-.49-.19-1.05-.19-1.57-.01-34.02-.02-68.04-.02-102.06-.16-.28-.46-.28-.73-.35-3.2.01-6.39.04-9.59.04-31.9,0-63.8.01-95.7.01-.16,0-.32.01-.49.01,1.4,6.12,3.17,12.09,5.29,17.89.22-.03.46.04.67.04,12.94,0,25.87.02,38.81.05.3,0,.68-.17.87.25-2.04,1.76-4.29,3.23-6.49,4.77-7.75,5.41-15.51,10.81-23.24,16.25-.28.19-.49.3-.68.29,23.48,41.86,66.52,70.75,116.34,73.61-.96-1.25,1.09-.26,1.13-1.98Zm-93.11-40.3c-3.31-3.33-6.51-6.75-9.62-10.26-.54-.61-.41-.88.21-1.32,9.63-6.71,19.24-13.45,28.86-20.19,8.26-5.78,16.52-11.55,24.77-17.33,1.29-.9,2.52-1.89,3.8-2.81.1-.07.2-.2.3-.3.18-.17.38-.29.69.02.02.02.03.05.05.08.07.1.11.2.13.32.02.14.02.28.02.43,0,5.7.01,11.39.01,17.09,0,.29.04.58-.2.81-.08.31-.31.49-.55.65-9.16,6-17.98,12.49-26.94,18.77-6.72,4.71-13.47,9.4-20.18,14.12-.53.37-.83.46-1.35-.07Zm49.24,29.66c0,.4.12.84-.21,1.18-.3.44-.59.07-.86-.03-11.47-4.49-22.3-10.17-32.25-17.46-2.57-1.89-5.15-3.77-7.62-5.8-.94-.77-.77-1.1.09-1.69,7.11-4.95,14.19-9.94,21.28-14.91,5.87-4.12,11.74-8.24,17.63-12.32.3-.21.57-.6.94-.75.22-.09.47-.1.78.07.09.17.14.33.18.51.11.51.02,1.05.02,1.57.01,16.55.01,33.1,0,49.65Z"/>
      <path class="cls-5" d="m56.19,32.16c-.16-.41-.12-1.09.03-1.85-.76.6-1.52,1.2-2.27,1.82.43.31.91.6,1.45.58.26-.18.52-.37.79-.55Z"/>
      <path class="cls-5" d="m70.7,20.3c-.56.34-1.11.67-1.67,1.01.26-.09.5-.17.67-.25.39-.18.69-.46,1-.76Z"/>
      <path class="cls-5" d="m251.25,50.01c.09.05.16.12.24.18-.22-.26-.45-.52-.68-.78.01.22.11.42.44.6Z"/>
      <path class="cls-5" d="m244.11,43.3c1.09,1.13,2.19,2.25,3.28,3.38,1.02.09,1.23,1.39,2.25,1.49.03,0,.06-.01.09-.02-1.65-1.86-3.36-3.68-5.1-5.45-.26.19-.5.38-.52.6Z"/>
      <path class="cls-5" d="m74.96,20.03c1.8-.93,3.6-1.87,5.4-2.8-.55-.19-2.05-.38-2.55-.96-1.81.95-3.59,1.95-5.35,2.97.96-.1,1.57.53,2.5.79Z"/>
      <path class="cls-5" d="m4.6,114.19c22.04,0,44.07.02,66.11.02,11,0,21.99,0,32.99,0,.29,0,.58.03.87.05.16-.02.33-.05.49-.07,1.18-.46,2.4-.14,3.6-.2.15,0,.29-.02.43-.03.18-.02.36-.06.52-.11.09-.03.18-.06.27-.1.12-.06.24-.14.35-.25h0c.11-35.06.47-70.15.04-105.2-1.09.13-1.06,8.81-.91,15.44.08,3.47.19,6.38.19,7.2,0,8.31,0,16.63,0,24.94,0,16.93.8,34.08-.16,50.97-.06,1.01.42,3.18-.95,3.37-1.52.21-1.33-.84-1.38-1.97-.23-4.57,0-9.21,0-13.79,0-8.27,0-16.55,0-24.82,0-17.01,0-34.01,0-51.02,0-2.3.04-4.6,0-6.89-.03-2.36-.74-2.87-1.35-4.82-.2-.64.04-1.28,0-1.73-.38.11-.76.21-1.14.32-.07.43-.2.72-.57.16-7.42,2.17-14.59,4.95-21.46,8.25.87.36,1.73.7,2.59,1.13,2-.83,4-1.67,6.01-2.47.37-.15.79-.53,1.21-.05.33.29.25.69.25,1.05,0,16.65,0,33.31,0,49.96,0,.12-.04.24-.06.37-.03.42.04.84.05,1.27,0,.21,0,.42-.04.63-.02.1-.05.21-.08.31s-.09.2-.15.3c-.08.12-.16.16-.23.16-.04,0-.08-.01-.12-.03-.08-.03-.16-.09-.24-.14-.12-.07-.24-.11-.35,0-.09.73.68.66.52,1.47-.08.42-1.07,1.78-1.52,2-.51.25-1.13-.26-1.51-.02-.25.16-.2.64-.41.77-.71.42-.91,1.69-1.89.32-.76-1.07.91-2.63.71-3.64-.23-1.15-1.6-.74-1.83-1.55-.85-3.09,5.09-.12,5.38-.31-1.21-1.1-2.8-1.68-3.94-2.87-.44,1.19-2.15,2.45-2.7.68-.75-2.39,1.8-.02,2.17-1.04-1.1-.76-2.19-1.53-3.29-2.29-2.48,1.67-4.43-1.45-6.85-.5-2.61,1.02-.2,1.34.51,2.81.48.99-.96,2.86.86,3.15.51.08.99-.65,1.62-.58-.13-.02,1.77,1.38,1.76,1.37-2.03-.4-3.05.26-4.88-.86-1.65-1.01-2.78-1.83-2.87-3.89-.04-.84.07-1.84.39-2.61.28-.67,1.17-.61,1.08-1.54-.12-1.25-2.5-2.55-3.52-2.34.02.29.91,5.62,1.14,5.28-.35.51-2.79.4-3.36,0-1.55-1.1.1-3.9-.6-5.06-.24-.4-2.63-1.42-3.44-1.31.04-.66.01-1.32-.06-1.97-.08.54,5.46,2.56,6.31,3.05.1-2.26-9.36-5.63-6.99-8.18-2.62-1.99-5.51-3.6-8.01-5.75-.14-.12-.35-.18-.52-.26-.32,1.58-.36,1.15-1.4.72-.58-.24-.99-1.02-1.56-1.34-.55-.31-1.49-.24-1.89-.64-.72-.71-.71-1.99-.37-3.03.35-1.07-.31-1.04.97-.46.19-.17.39-.35.58-.52-.06-.07.02-.88.14-1.74-1.51,1.28-2.99,2.59-4.45,3.93-.01.28-.05.51-.04.55,0,.02-.69.15-.54.49.35.77.82-.31,1.04.01-.13-.19,1.76,2.44-.1,1.28-.97-.6-.97.54-1.59.9-.08-.22-.15-1.06-.17-1.93-10.95,10.35-20.32,22.41-27.71,35.79.84-.28,1.75-.03,2.88-.17,2.74-.34-.12-.03.48-1.19.18-.36,1.1.34,1.6-.09.78-.68.44-1.91.2-2.56-.19-.5-2.34-1.01-1.03-2.08.56-.45,1.74.38,2.39-.26-2.15-1.55-1.2-1.94.2-3.98.85-1.24,1.73-2.46,2.63-3.67.9-1.2,1.82-2.39,2.77-3.56.1-.09.19-.19.27-.29.1-.12.2-.25.28-.38.08-.12.16-.25.24-.37.16-.25.32-.5.5-.72.28-.34.61-.62,1.09-.77.44-.24.92-.54,1.37-.1.23.22.07.52-.22.68,1.48,1.58,3.45,2.52,5.05,3.95,13.11,9.19,26.17,18.45,39.33,27.58,4.38,3.04,8.78,6.07,13.19,9.08.14.14.2.24.21.31,0,.03,0,.06-.01.08-.03.04-.09.06-.17.07-.11,0-.25,0-.33,0-1.05.02-2.11,0-3.16-.01-7.04.01-14.07.03-21.11.04-.74,0-1.49-.03-2.23-.04,1.02.71,1.58,1.95,2.49,2.62.88.65,1.18.28,2.27.57,2.92.78,1.37,1.66-.6,1.89-1.89.22-1.3.99-2.43,1.18.17-.03-.61-.94-.75-1-.97-.44-3.19.4-3.97-.35-1.89-1.8,1.17-.76,1.71-1.89.41-.87-.47-2.15-1.44-1.9-.57.14-.5,1.16-.8,1.42-.66.57-.17.77-1.22.86-.75.06-1.4-.35-1.69-.92-.8-1.59,1.5-4.23,2.43-5.2-2.85-1.99-5.7-3.99-8.55-5.98-.7,0-.07,1.78-1.4,1.02-1.24-.71-1.66-1.56-1.27-2.95-5.9-4.13-11.78-8.29-17.7-12.39-1.73-1.2-3.49-2.37-5.16-3.66-.43,1.42-.26,2.94-.64,4.25-.25.87-1.98,1.6-2.02,2.06-.09.97.99.59,1.72.98,1.44.77,1.86,2.15,2.93,3.26,1.59,1.64,4.18,1.73,5.62,2.85.87.68.75,2.01,2.3,2.33,1.19.25,1.52-.11.98-1.49-.19-.02-.37-.06-.54-.1-.12-.04-.24-.08-.35-.13-.05-.02-.1-.05-.15-.07-.14-.07-.27-.15-.39-.24-.07-.05-.14-.1-.21-.15-.19-.14-.37-.28-.57-.41.06-.1.12-.2.18-.3.69.45,1.37.89,2.19,1.42.13,0,.26.02.39.03,1.03.11,2.05.69,2.5,1.82.14.35-.61.68-.35,1.15.25.47.89.38,1.27.71,1.06.91,1.62,2.13,2.59,3.16,1.13,1.19,3.13,1.95,2.92,3.88.33.58,1,.66,1.49,1.01.25-.02.39.09.43.33-.04.71-6.35.33-6.9.33-9.79,0-19.59,0-29.38,0-1.34,0-2.68.22-4-.11-.89,2.48-1.72,4.99-2.49,7.53.19-.06.38-.07.56.02.11.24.04.44-.21.6-.37.54-.56.8-.78.87-.44,1.54-.87,3.08-1.27,4.64.42.21.6.65.26,1.5-.16.41-.5.69-.85.93-.18.75-.35,1.5-.52,2.25.19-.04.38-.13.55-.24.16-.31.33-.28.51-.02Zm100.36-9.44c-.37-6.72-.32-13.44,0-20.15v20.15Zm-.29-89.98c.09,0,.19,0,.28,0v42.89c-.09,0-.19,0-.28,0V14.77Zm.15,60.32c.04-2.39-.36-4.77-.26-7.16.02-.38-.17-.82.42-1.33v15.03c-1.45-.45-.17-5.22-.15-6.53Zm-68.59-23.47c.72-.28,1,.45,1.69.62-.3.1-2.53-.29-1.69-.62Zm.39-1.46c.7-.28,1.4-.35,2.33-.11-.56.42-3.3.5-2.33.11Zm5.18.85c-.59.15-.9-.41-1.45-.68,1.11-.96,1.76.6,1.45.68Zm31.22,15.63s-2.86-.23-3.26-.19c-.2.02-.39-.1-.51-.42.49-.21,4.19-.75,3.76.61Zm-5.5-3.1c.66-.44.27-1.66,1.43-1.39.81.19.66.93.71,1.55-.2,2.49-3.81,1.62-3.48.07.19-.89.81.11,1.34-.23Zm-6.94-7.54c.08.47-.43.34-.72.39-2.37-.07.37-2.53.72-.39Zm-2.85-2.06c.05-.36.3-.56.61-.69,1.2.15-.78,1.85-.61.69Zm-6.77-10.66c.45.01.71.38.52.9-.4,3.17-2.64-.95-.52-.9Zm-3.02-2.26c.47.33.22.82.17,1.26.45,4.5-2.27-2.75-.17-1.26Zm1.83,17.75c-1.38.59-1.1,1.24-2.07-.06-.46-.62-.81-2.29-.25-2.94.99-1.14,2.58.16,3.79.16.61,0,.66.63.7,1.15-.28,1.35-1.07,1.22-2.18,1.69Zm3.41,2.15c-.57,0-.78-.51-.72-1.15.96-2.31,2.11,1.17.72,1.15Zm2.8-10.59c-.3-.3-.07-1.1-.24-1.45-.29-.62-.55-.76-.9-1.19-.12-.15-1.93-.44-.54-.93.88-.31,2.74.77,3.17,1.46.08.13.15.28.25.47-.61.84-.69,2.68-1.74,1.64Zm2.98,18.22c-2.11-.26-.21-.96-.11-1.6.2-1.37-.29-1.49-1.25-2.58-.3-.34-2-.99-.46-1.26,2.26-.4,3.56.53,3.53,2.84-.19.97-.25,2.77-1.71,2.59Zm2.27-12c-.02-.32.23-.39.52-.39,1.79.4-.45,1.55-.52.39Zm1.26,8.56c.75.05.27.86.44,1.24.06.25.08.5.06.75-.48.97-1.63-2.08-.5-2Zm.81-8.54c.17-.34.9-.41,1.2-.56,1.47-.76,2.41-.12,2.4,1.65.3,1.28-.14,3.84-1.45,2.34.13.14-1.83-4.06-2.15-3.43Zm1.83,15.11c.6.27.52.98.75,1.47-.23,3.19-4.02-2.95-.75-1.47Zm.37-2.52c.79-1.19,2.56.77,1.85.88-.84.13-1.3-.45-1.85-.88Zm5.25,5.24c-1.07.6-4.86-.77-3.29-2.41.83-.87,3.03.56,3.8-.12,1.35-1.18-.65-1.38-.92-1.8-.46-.72-1.35-.37-.39-1.39-.27.29,3.05.63,2.77.16.55.92,1.65.59,2.68,1.16-.95.18-2.38.19-3.06,1-.76.92-.33,2.69-1.59,3.39Zm9.93,8.44c-.35,1.22-2.44-.15-2.94-.6-1.25-1.11-.36-1.35-.45-3.13-.06-1.13-.93-3.55-1.6-4.44-.46-.61-2.62-1.12-2.25-2.25.14-.43.53-.3.84-.33,1.51-.19,1.39,1.63,2.3,2.33.91.7,2.23.09,2.94,1.09.56.79-.13,3.3,0,4.36.21,1.6.03.71.45,1.92.17.48.9.34.69,1.05Zm1.39-17.29c.23-.45,1.46-.7,1.47.05,0,.68.49,1.32.08,2.44-.41-.5-1.94-1.72-1.55-2.49Zm2.39,17.49c-3.16-.21,1.54-2.83,1.57-.88.01.79-.69.92-1.57.88Zm3.68-2.52c-2.09-1.26.75-1.27.67-.4-.04.39-.32.43-.67.4Zm12.19-71.47c.4.57,1.02.89.48,1.57-.15.19-.45.46-.6.2-.29-.51-.22-1.09.12-1.77Zm0,62.94c.37.07.19.48.24.74.06.35-.07.56-.4.64-.55-.05-.5-1.5.16-1.38Zm-.28,24.92c.02-.47-.02-1,.65-1.34q-.18,2.28-1.77,2.28c.2-.55,1.09-.25,1.12-.94Zm-4.62-21.82c.42.03.89-.18,1.28.21-.98,1.54-2.36-.29-1.28-.21Zm-.45,23.75c.22-1.38,2.05-2.65,2.69-1.87.13.15.21.39.22.72.06.47-.39.38-.63.56-.03.03-.06.06-.09.1-.3.5,0,.8-.13,1.18-.12.32.36,2.23-1.36.91-.61-.47-.78-1.04-.69-1.6Zm-.68-24.8c0,.7-1.18,1.56-2.17,1.53-2.36-.24,2.18-3.74,2.17-1.53Zm-2.9,14.79s-1.26-2.56-1.17-2.69c.08-.12.23-.2.45-.39.11.14,2.48,3.54.72,3.08Zm-7,13.27c.8-.02,1.32.57,2.04.59.66.02,2.09-.71,2.52-.09.68.96,1.65,1.13,2.67,1.35-1.66.58-4.48.09-6.25,0-.06,0-4.18-.55-4.13-.47-.58-1.01,2.38-1.36,3.15-1.37Zm-10.18-1.81c.4-.07.82-.02,1.24-.02,1.38-.05,2.62.36,1.39,1.15-1.05.67-4.73-.76-2.62-1.13Zm.06,9.44c8.8-.02,17.61-.01,26.42-.01.46,0,.91,0,1.35.6-1.32.51-2.61.61-3.85.62-7.97.05-15.95.03-23.92.03-.62,0-1.6.03-1.6-.56,0-.73.99-.67,1.6-.67Zm-17.82-9.76c.05.85-.19,1.39-1.18,1.26-2.55-.34,1.01-4.17,1.18-1.26Zm-5.46-.21c-.43.33-.87.34-1.41-.08.37-.35,2.03-.4,1.41.08Zm-1.68,3.7c-3.34.75-5.66.26-7.05-1.56,2.52.49,4.86.66,7.05,1.56Zm-36.46-3.7c.85.2,1.79,1.26,2.58,1.09.2-.4.42-.8.65-1.18.47-.19.96-.26,1.47-.22,2.67-.57,5.93.12,8.65.12,3.46,0,7.01-.43,10.42.18,1.14.2,4.91.18,3.37,1.74-.44.44-2.61.3-3.31.53-.6.2-.99.73-1.76.96-3.09.91-7.88.07-11.11.02-2.84-.04-5.59-.09-8.42.22-2.52.27-.88.04-2.15-1.03-.5-.42-1.86-.76-1.82-1.54.02-.42.73-.86,1.43-.88Zm-3.75,9.95c20.35,0,40.7,0,61.05,0,.12,0,.25,0,.37,0,.39.03.98-.09.96.47-.01.48-.59.45-.99.52-1.72.32-3.47.24-5.2.24-17.98,0-35.97,0-53.95-.01-1.37,0-2.77-.06-4.28-.73.79-.48,1.41-.51,2.04-.5Z"/>
      <path class="cls-5" d="m109.39,4.58c.08.22.36.52.62.83s.5.62.51.86c.1.02.21.04.31.06.14,0,.29,0,.43,0,.08,0,.17,0,.25,0,1.7-.12,3.37-.42,4.98-1,.85,0,1.64-.46,2.5-.29,8.9-1.41,17.89-2.33,26.93-2.19,1.72.43,3.52-.09,5.23.44,3.88.02,7.75.05,11.56.98.62.15,1.32-.17,1.9.31,1.79-.06,3.52.35,5.24.75,1.46.1,2.84.58,4.23.95.87.16,1.85-.02,2.53.75.94.61,1.24,1.48,1.37,2.44,0-1.07.16-2.02.74-2.41.93-.64,3.5.58,2.71,1.85-.55.88-1.57-.94-1.88,1.05-.29,1.86,1.66,1.77,2.03,3.16.4,1.5-.65,4.71-.65,6.33,0,2.46,0,4.91,0,7.37,0,5.14,0,10.27,0,15.41,0,10.4-.04,20.8-.04,31.19,0,1.5.31,3.79-.27,4.8-.13.22-.74-.23-1.03.49-.11.28.22,1.84.49,2.16.46.56,1.62-.18,1.36.99-.06.29-1.09-.04-1.4.44-.33.52-.24,1.77-.24,2.24,2.37-1.29,1.11,5.52,1.11,7.13,0,1.69-.01,3.38-.02,5.07,0,1.53.51,4.32-.02,5.71-.28.73-1.04.88-1.33,1.68-.17.45.23.91.19,1.33-.06.65-.16,1.14-.25,1.76-.08.56,0,2.32-.37,2.65-.72.64-.56-1.54-.56-1.66-.54.56-.37,1.95.21,2.39-.27-.21,1.53-.25,1.78-.15-.42-.68-.61-3.94.74-3.18,0,0,.96,2.39.96,2.46-.08,1.28.24.06-.7,1.22.46.58,1.97.6,2.34-.06.46-.84-.75-1.24-.3-1.86.19-.26,2.95-.39,3.06-.25.8.99-.83.61-1.02,1.22-.69,2.21,3.72,1.15,5.28,1.11,3.75-.11,7.56.11,11.32.1,15.33-.01,30.66-.01,45.98-.01,7.66,0,15.33,0,22.99,0,.87,0,2.11-.14,3.44-.25-.64,0-1.28-.02-1.92-.01-26.12.01-52.24.01-78.36,0-.76,0-2.03.22-2.04-.58,0-.71,1.32-.65,2.1-.65,14.41-.01,28.82-.01,43.23-.01,14.28,0,28.57,0,42.85.01.65,0,1.84-.26,1.77.53-.07.85-1.24.48-1.9.34-.77-.17-1.5.06-2.2.17-.19.03-.37.04-.56.06,1.19.01,2.26.15,2.96.54,2.02,1.13-5.66,1.08-6.5,1.08-15.16,0-30.33,0-45.49,0-8.27,0-16.54,0-24.81,0-4.14,0-8.27,0-12.41,0-.83,0-10.68-.71-10.48.34.38,1.94,8.83.83,10.43.87,4.4.11,8.8.13,13.2.12,8.58-.03,17.16,0,25.74,0,8.36,0,16.73,0,25.09,0,4.26,0,8.52-.02,12.78-.03,1.77,0,10.7-1.12,11.62.41,1.1.01,2.2,0,3.3.04.1,0,.21,0,.32-.01-.16-.7-.32-1.4-.49-2.09-.48-.23-.34-.04-.13-.54-.59-2.45-1.24-4.89-1.96-7.29-.72-.02-1.45-.12-2.18-.43.69-.7,1.27-.78,1.85-.7-.48-1.58-.99-3.14-1.52-4.69-.52.05-1.16-.03-1.5.06-1.31.37-.82-.07-1.3,1.01-.32.72.44,1.26-.47,1.92-.5.37-1.5.45-1.88-.15-.59-.92,1.72-1.71,1.37-3.27-.28-1.25.91-.96,1.48-1.3.24.03,1.08.14,1.83.35-.09-.27-.18-.53-.28-.8-.36.07-.75-.05-1.1-.04-1.28.04-2.56,0-3.84-.02-10.84,0-21.68.02-32.52.03-.7,0-1.41.04-2.11.06.02,1.23-1.3,1.89-.32,3.11-1.35.19-4.34,2.41-4.96.65-.47-1.35,1.5-2.88,2.13-3.78.88-1.24.21-1.99,1.94-.52.78-.55,1.57-1.1,2.35-1.65.78-.55,1.57-1.1,2.35-1.65-.08-.14-.15-.28-.2-.42-.11-.28-.17-.56-.18-.84,0-.14,0-.28.01-.42.03-.28.1-.55.21-.82.52-1.32,1.91-2.41,3.3-2.63.84-.13,1.39.31,2.12.23,1.19-.12,1.24-1.57,2.56-.49.46-.36.93-.72,1.39-1.08-.22-.13-1.17-.55-1.24-.83-.14-.58.48-.39.51-.75.02-.22.61-.46.66-.9.06-.48-1.05-.7-.8-1.25.33-.75,5.04-.23,5.79.29,2.02-1.42,4.03-2.84,6.05-4.26-.22-1.38.85-.81,1.44-.96.52-.35,1.03-.69,1.55-1.04-.87-.63-.87-1.87-.03-2.62.46-.41,1.08-.36,1.67-.5.16-.04.38-.05.62-.04-4.54-7.99-9.79-15.5-15.68-22.44.16.3.22.66.17,1.05h0c.58.72,1.17,1.45,1.75,2.17.27.31.92.55.65,1-.28.46-.96.04-1.44.22-10.01,6.84-19.99,13.73-29.88,20.73-4.89,3.46-9.75,6.95-14.65,10.39-2.35,1.65-4.71,3.28-7.08,4.91-1.97,1.35-4.19,3.79-6.41,4.54-.46-.28-.24-.74-.24-1.11-.03-4.59-.04-9.18-.05-13.77-1.39-.32-3.41-2.56-4.41-3.58-.53-.54-.61-1.27-1.27-1.65-.49-.28-.74.69-1.6.02-.7-.55-1.26-3.92-2.03-4.4-1.37-.87-.85,2.75-1.2,3.54-.57-.99-.62-3.84-.07-5.96,1.19,1.52,1.2-.72,1.61-1.35,1.12-1.72.14-.12.63.45.78.89,1.9,1.31,1.51,2.41-.54,1.54-1.78.53-.94,2.56,1.59,3.84,2.32-2.21,4.6-1.69,3.05.69.59,7.06,3.15,7.42.14-.65-.12-1.37.31-1.98.9-1.21,2.35-1.71,3.49-2.6,1.86-1.45,3.81-2.78,5.72-4.16-.81-.79-1.79-4.32-.1-4.81,1.3-.38,1.4,2.68,3.01,2.83.29-.23.58-.46.88-.67.3-.21.62-.4.97-.54,0,0-.03-.1-.03-.1-.28-.3-.37-.87-.31-1.49.13-1.37.93-2.96,1.75-2.34,1.07.81-1.14,2.11-.51,3.14,2.44-1.65,4.88-3.31,7.32-4.96.08-.09.16-.17.24-.26.58-1.73-.81-3.87.57-4.45,1.33-.56,2.85.47,3.36,1.7,7.24-4.96,14.39-10.05,21.5-15.2.18-.18.61-.44,1.06-.65-.81-.81-1.62-1.61-2.45-2.4-.19.62-1.59,1.29-1.74.13-.08-.58.54-.61.92-.8.06,0,.1.02.15.03-1.35-1.28-2.73-2.53-4.13-3.76-.41.13-.88.2-1.06.49,1,.7.93,1.18-.24,1.62-.48.18-.85.67-1.27,1.02h0s0,0,0,0c.05.44.11.88.16,1.31-.84.1-2.05,1.72-2.65.45-1.41.57-2.3,1.88-3.63,2.58-.36.19-.86.25-1.09.69.63,1.43,1.16,1.44-.08,2.48-1.09.92-4.09.8-4.94,1.8-.79.93.48,1.45-.27,2.51-.8,1.13-1.42-.05-2.59.49-1.05.48-1.37,2.16-2.41,2.83-.34.22-3.01,1.59-3.33,1.55-1.38-.15.92-1.32.9-1.47-.07-.67-.39-.51-.79-.28-.31.18-.67.4-1,.31-.28.26-.6.44-.93.62-.55.3-1.12.57-1.52,1.08-1.21,1.72-.4.93.09,2.14.08.19.92,2.35.9,2.41-.36,1.1-5.42-.64-4.21,1.74-.43.58-.75,1.03-.99,1.37-.91-.72-2.05-.62-2.74-.68-.27-.02-1.14-.88-1.3-.82-1.31.47-.62,1.07-.83,1.84-.32,1.16.1,1.08-1.09,2.05-1.98,1.6-3.55,2.26-5.8.97-.71-.41-1.46.17-1.46-1.11,0-1.5,1.34-.82,2.2-1.37v-5.99c-.5-.49-.49-1.12-.46-1.74.32-6.61.27-13.23.24-19.84-.03-4.58-.33-9.16-.26-13.74.02-1.22.58-2.43.08-3.68-.11-.28.16-.62.4-.86.03-.58.05-1.16.08-1.75,0-.16,0-.33,0-.49,0-.33-.03-.66-.05-.99-.05-.82-.06-1.65.29-2.45.61-.08,1.02.57,1.64.47,1.24-1.53,1.96-.07,3.23.23.75.18,1.28-.3,1.94-.18.71.13.83.81,1.7.83.13,0,.25-.02.36-.05-4.24-2.02-8.58-3.83-13.03-5.42-.01.01-.03.02-.04.03-.5.01-.7-.13-.73-.31-.49-.17-.98-.34-1.47-.51-.45.66-.89,1.2-1.1,1.26-1.34.41-1.22-.88-.57-1.82-13.71-4.46-28.32-6.87-43.48-6.87-11.74,0-23.14,1.45-34.06,4.18-.06.14-.09.27-.04.41Zm167.6,99.24c-.13.72-.82.3-1.19.42-4.83,0,1.6-2.61,1.19-.42Zm-29.47-3.94c.9-1.13,3.57-.45,4.74-.36,4.24.34,8.67,0,12.93,0,1.82,0,4.5-.48,6.07.67,1.59,1.16.41,2.4-1.37,2.59-3.84.43-7.7.1-10.81.22-2.1,0-4.19,0-6.29,0-1.18,0-3.46.49-4.5-.2-.62-.41-1.31-2.25-.77-2.92Zm-2.32,2.17c.43-.04.66.25.83.58-.01,1.17-2.27-.43-.83-.58Zm-9.45,1.37c.13-.54.93-.55,1.36-.38,1.12.44,2,.25,2.62-1.27.33,2.11-.65,2.2-2.42,1.98-.28-.04-1.75.49-1.55-.33Zm17.61-26.84c-.1.03-.2.05-.3.08-.36-.74-2.13-3.25-.53-3.74,1.26-.39.83,3.29.83,3.66Zm1.85-.77c-1.17-.43-1.1-4.08.17-3.87.54.09.43.49.29.84-.13.51,2.75,4.21-.46,3.03Zm-1.58-8.84c1.3.19,1.73,1.04,3.12.55,1.12-.39,1.57-1.3,2.85-1.42,1.1-.1,5.83,1.95,4.24,3.05-1.06.74-1.95,1.85-3.45,2-1.27-.55-2.67-.12-3.98-.42-1.41-.32-1.21-.88-2.1-1.52-.4-.29-2.22-.72-2.37-.97-.72-1.22.81-1.4,1.68-1.27Zm-.96,10.87c.31-.02.54.12.57.42-.75,2.12-3.07-.24-.57-.42Zm-2.47,2.28c-.08.47-1.15,1.13-1.61.83-.69-.44,1.18-.89,1.18-.89.12,0,.24.03.43.05Zm-1.58-17.65c.43-.02.5.33.36.74-1.49,2.61-1.73-.66-.36-.74Zm-2.4,8.16c.12-.14.28-.31.43-.39.21-.11.41-.05.47.55,0,.3-.07.46-.17.51-.3.18-.92-.48-.96-.48.04,0,.12-.09.22-.19Zm-2.36,7.72c.44-.51,1.03-.24,1.76-.24-.44.56-2.19.73-1.76.24Zm-7.53-3.39c-.08-.25.35-.22.64-.16.04.02,2.2.29,1.19.85-.3.17-1.72-.34-1.83-.69Zm1.86,16.95c.04-.31.18-.55.57-.55,1.77,1.3-.71,1.63-.57.55Zm-2.12-19.06c.02-.13,2.16-1.79,2.29-1.85.63-.33,2.49-.71,3.13-.49,1.08.36,1.83,2.31.14,2.66-1.24.26-2.52.28-3.77.75-.52-.76-2.06.56-1.78-1.07Zm-15.37,12.87c-.32-.28-.7-.97.14-.76,1.06.27,2.24-.23,3.32.58-.6.47-2.83.72-3.46.17Zm13.73-.15c-.2.5-.4,6.07-1.54,4.01-.22-.4.57-4.95,1.23-4.82.35.07.29.45.31.81Zm-.92-13.1c.44-.02.42.52.42.97-1.5,2.87-2.13-.91-.42-.97Zm-5.87,12.13c-.19.07-.38.13-.5.17-1.63.12-.57-1.04.65-1,1.21.03,1.15.39-.16.83Zm-2.37-5.77c.87-.18,1.64.07,2.23.92-1.91.53-1.53,1.69-2.58,2.68-.57.54-3.27,1.75-4.13.94-2.39-2.25,3.18-4.26,4.48-4.53Zm-7.49,11.17c1.21-.56,1.2-.58,1.21.9.04,1.07-1.19,1.42-2.04,1.24-.55-.12-.59.69-.92-.31-.2-.6,1.4-1.66,1.75-1.83Zm-7.08,11.94c-.46.07-.99.23-1.22-.45.15.01,2.07.32,1.22.45Zm-1.91-2.21c.35-.04.7.26.75,1.27.03.58-.22.59-.54.49-1.94.13-1.02-1.68-.21-1.75Zm-5.43-5.69c.38.02.6.24.65.68-.25.45-1.4,3.81-2.05,2.75-.35-.57.55-3.48,1.4-3.43Zm-8.57,5.29c.58-.89,3.14-.48,3.25.84.06.78-.81,1.27-2.34,1.32-.95.03-1.37-1.43-.91-2.16Zm-8.63-.7c.74-.04.23.71.45.97-.56,2.9-1.17-.94-.45-.97Zm.57-.76c-.21-.07-.39-.2-.52-.36,0,0,0,0,0,0-.32-.4-.29-.93.45-.76.16.02.33.09.48.2.38.26.64.71.25.89-.08.04-.18.06-.32.07-.12.01-.24,0-.34-.04Zm3.09-4.56c.8-4.84,4.01,3.14.67,1.91-.93-.34-.58-1.23-.67-1.91Zm2.12,5.19c.77.73-.59,2.43-1.39,2.44-.6,0-.43-.48-.49-.86.02-.8,1.04-2.38,1.88-1.58Zm1.29,4.24c-.11.56-.72.58-1.02.9-1.4,0,1.23-2.02,1.02-.9Zm-1.13-21.19c.62,1.65.43,3.35.47,4.79,0,.6.5,4.97-.9,4.64-1.16-.28-.59-2.99-.59-3.88,0-.9.04-1.92-.22-2.79-.21-.69-.95-1.27-1.07-1.87-.31-1.45,1.68-2.59,2.32-.89Zm-2.19,28.18s2.29.56.92.83c-1.44.29-2.87.13-4.3-.05.85-.72,2.3-1.03,3.39-.78Zm-3.46-30.41c.63-.28,2.56.56,1.94,1.44-.72,1.03-1.17-.75-1.72-.26-.41.37.04,1.09-.33,1.45-.07.07-.06.22-.17.69-.32-.77-.81-2.84.28-3.33Zm-.47,13.36c.15-.5,1.01-1.64,1.3-2.24.57-1.18,1.28-1.64.95-3.11-.26-1.17-.21-1.52.42-2.92,1.25,1.33.07,6.44-.2,8.05-.56,3.29-.54.93-1.81,1.09-.17.02.11,1.95-.8,1.09-.25-.24.07-1.71.14-1.97Zm38.51-42.15c.67.27.83.75.65,1.54.18,1.97-1.78,3.64-3.42,1.79-1.2-1.35,1.5-3.84,2.77-3.33Zm-18.33,12.32c.43-.5.47-1.22,1.11-1.21,1.58.01.61,2.02.36,2.78-.07.22-.35.14-.88,0-1.81-.11-1.81-.14-.81-1.3,0,0,0,0,0,0,.07-.08.14-.17.22-.26Zm-21.89,15.11c.19.37.72,2.63.22,2.95-.25.16-.65.46-.63-.2.03-.89-.19-1.82.42-2.75Zm-.03,11.08c.52,1.08.49,11.5-.03,12.71-.55-1.33-.52-11.52.03-12.71Zm-.27,14.34c.96,1.11.48,1.79-.15,2.58-.5-.89,0-1.58.15-2.58Zm.32-42.24c-.37-.86-.69-1.44-.19-2.11.83.56.2,1.19.19,2.11Zm1.93,2.75s-.04.05-.04.07c0-.02-.01-.05-.04-.09-.03-.06-.08-.16-.14-.26-.19-.36-.4-.85.17-.88.24.1.36.22.41.34.11.31-.24.66-.36.82Zm.42-6.79c.04-.09.2-.13.27-.17,1.1-.01,1.86,2.77.96,3.19-2.01.93-1.67-2.12-1.23-3.02Zm1.05,6.22c-.26-.58.27-.98.19-1.83.82.84,1.39,3.11.29,4.03-1.62,1.35-.29-1.78-.48-2.19Zm2.7-1.38c1.07.26,1.69,1.16,1.68,2.44-.53,2.53-3.94-2.99-1.68-2.44Zm-.82,6.49c0,.35-.11.56-.25.68-.28.24-.73.09-.93-.16-.1-.12-.13-.27-.04-.41.05-.09.11-.17.17-.25.12-.16.24-.31.36-.41.31-.26.6-.23.69.56Zm-.77-13.91c.02.12.02.25.03.48.25,1.61-1.4,1.19-1.47-.44-.02-.49-.69-1.11.14-1.3.68-.15,1.2.75,1.3,1.26Zm-1.14-44.41c.17.14.81,4.27.28,4.35-.8.12-.85-3.75-1.65-1.49-.3.85.65,1.86.52,2.66-.13.75-.86,1.11-.86.08,0-.78-.1-1.55-.15-2.09.08-.75.05-4.96,1.86-3.51Zm-4.24,16.44c.03-1.78.11-3.55.23-5.33.07-.93-.3-4.04.35-4.63,2.43-2.21.43,5.52.42,5.63-.54,3.55-.07,7.59-.08,11.19-.02,6.43-1.11,14.04.48,20.23.13.51,1.21,2.76.31,3.13-1.14.46-1.35-2.26-1.42-2.72-.58-4.03-.2-8.14-.32-12.2-.04-1.26,0-2.52,0-3.78.04-3.84-.05-7.68.03-11.52Z"/>
      <path class="cls-5" d="m178.34,13.28c-.03-.53-.15-1.36-.24-2.24-.04.76-.16,1.52.24,2.24Z"/>
      <path class="cls-5" d="m234.89,259.7c-1.91,1.44-3.82,2.87-5.72,4.31.3.02.57.11.81.24,1.67-1.3,3.32-2.63,4.94-3.99.07-.19.07-.38-.03-.55Z"/>
      <path class="cls-5" d="m63.75,25.78c.38.35-.55.55-.16.94l3.56-2.27c-.62-.61-.78-1.11-.66-1.51-1.54,1.01-3.06,2.05-4.56,3.11.05.05.1.09.15.12.67.3,1.14-.88,1.67-.39Z"/>
      <path class="cls-5" d="m207.25,277.28c-2.08.97-4.17,1.95-6.26,2.92,1.13,0,2.16-.24,3.11-.44.19-.04.38-.08.56-.12.3-.06.59-.1.88-.13.68-.33,1.35-.68,2.03-1.03-.18-.28-.3-.67-.32-1.21h0Z"/>
      <path class="cls-24" d="m201,280.2h0c2.09-.97,4.17-1.95,6.26-2.92h0c1.28-.66,2.55-1.32,3.82-2,3.8-2.03,7.54-4.17,11.15-6.51,2.35-1.53,4.63-3.17,6.94-4.76,1.91-1.44,3.82-2.87,5.72-4.31.22-.16.45-.32.67-.48,1.58-1.37,1.17-1.61-.34-2.75-2.19-1.65-4.52-3.15-6.77-4.71-4.14-2.88-8.27-5.76-12.4-8.65-4.32-3.02-8.63-6.06-12.94-9.1-2.06-1.45-4.1-2.94-6.18-4.37-.94-.65-1.52-1.07-1.85-.82-.2.15-.3.55-.34,1.29h0c.01,7.17.03,14.35.04,21.52.02,10.24.03,20.48.04,30.73.34.17.65.02.97-.07.29-.2.6-.37.97-.34.37-.28.81-.39,1.26-.47.23-.14.46-.28.7-.42.71-.39,1.45-.71,2.27-.86Z"/>
      <path class="cls-18" d="m74.96,20.03c-2.6,1.48-5.1,3.14-7.81,4.42l-3.56,2.27c-2.47,1.81-4.93,3.63-7.4,5.44-.26.18-.52.37-.79.55-1.06,1.01-2.22,1.9-3.46,2.7-.19.17-.39.35-.58.52-.96.61-.76,1.13.06,1.74,1.38,1.04,2.97,1.78,4.2,3.02.18.09.38.14.52.26,2.51,2.14,5.4,3.76,8.01,5.75,1.62.75,2.97,1.93,4.43,2.93,4.62,3.16,9.19,6.38,13.78,9.59.25.18.61.28.7.65,1.1.76,2.19,1.53,3.29,2.29.26,0,.4.18.54.35,1.14,1.19,2.73,1.77,3.94,2.87.67.07.92.78,1.5.99.06-.1.11-.2.15-.3s.06-.2.08-.31c.04-.21.04-.42.04-.63-.02-.42-.08-.85-.05-1.27-.33-.75-.2-1.55-.2-2.33,0-15.56.01-31.12.02-46.68,0-.79,0-1.58-.01-2.36-.42-.48-.84-.1-1.21.05-2.01.8-4.01,1.64-6.01,2.47-1.52.89-3.13,1.57-4.76,2.2-1.8.93-3.6,1.87-5.4,2.8Z"/>
      <path class="cls-18" d="m220.93,25.08c-2.76-1.6-5.52-3.2-8.28-4.8-5.1-2.95-10.55-5.15-15.95-7.47-.62.1-1.02-.55-1.64-.47-.13,1.31.19,2.64-.24,3.93-.03.58-.05,1.16-.08,1.75.01,10.09.03,20.18.04,30.28,0,3.2-.02,6.39-.04,9.59v5.99c.13,1.19,0,1.35,1.12,1.23,1.15-.12,3.55-2.48,4.51-3.14,3.2-2.21,6.4-4.42,9.59-6.63.4-.52.97-.79,1.52-1.08.33-.18.66-.37.93-.62,4.84-3.41,9.67-6.81,14.51-10.22.23-.44.73-.5,1.09-.69,1.33-.7,2.22-2.01,3.63-2.58.55-.54,1.2-.95,1.84-1.36.22-.14.43-.27.64-.41.42-.35.79-.84,1.27-1.02,1.17-.44,1.24-.92.24-1.62-4.69-3.67-9.46-7.23-14.44-10.49-.1-.05-.19-.1-.29-.15Z"/>
      <path class="cls-18" d="m92.38,229.33c-.31-.17-.57-.16-.78-.07-.36.15-.64.54-.94.75-5.89,4.08-11.76,8.21-17.63,12.32-7.09,4.97-14.18,9.96-21.28,14.91-.86.6-1.03.92-.09,1.69,2.47,2.03,5.04,3.92,7.62,5.8,9.95,7.29,20.78,12.97,32.25,17.46.27.11.56.47.86.03-.01-12.74-.04-25.48-.04-38.22,0-4.9.03-9.79.05-14.69Z"/>
      <path class="cls-12" d="m282.37,180.49c-33.43.02-66.87.02-100.3.02-1.58,0-3.15,0-4.73-.01-.12.04-.22.09-.29.16-.21.2-.22.52-.24.82.1,17.58.04,35.16.04,52.74,0,17.79.52,35.66-.04,53.44.26.08.47.12.65.12,0,0,.02,0,.03,0,.37,0,.58-.19.69-.46.28-.68-.03-1.96-.02-2.75.04-1.84.22-3.64.21-5.48-.03-4.25-.03-8.5-.03-12.75,0-8.15.01-16.3.01-24.45,0-14.99,0-29.98,0-44.98,0-1.52-.91-9.33.32-10.12,1.24-.8,1.32.47,1.92.98.76.65-.24.76,1.28.67-.19.01,1.7-.72,1.64-.67-.21.15.88-.52.8-.48-.15.07.3-.85.49-.97.34-.22.72,0,1.06-.09,2.65-.73,6.2-.31,8.88-.02,6.97.75,14.45.02,21.47.02,7.48,0,14.97,0,22.45,0,6.76,0,13.36-.79,20.09-.73,3.71.03,7.4-.16,11.09.29,1.06.13,7.73,1.47,7.87-.41.08-1.09-2.07-.72-.05-2.13-17.55,0-35.09.02-52.64,0-7.8,0-15.61-.01-23.41-.03-4.12-.01-8.23-.06-12.34-.15-1.07-.03-7.35.2-4.28-1.2,1.41-.64,4.05-.12,5.57-.12,2.09,0,4.18,0,6.27,0h11.84c7.9,0,15.79,0,23.69,0,7.9,0,15.79,0,23.69,0,4.18,0,8.36,0,12.54,0,1.86,0,3.72,0,5.57,0,1.17,0,4.23-.53,5.2.06,1.01.61.26,1.35.94,1.8.55.36,1.55.02,2.17.15,0,0,0,0,0,0,.27-1.07.53-2.15.77-3.23-.29,0-.58-.04-.86-.04Z"/>
      <path class="cls-24" d="m265.33,76.29c-.52.35-1.03.69-1.55,1.04-.37.49-.85.8-1.44.96-2.02,1.42-4.03,2.84-6.05,4.26-1.54,1.29-3.18,2.45-4.92,3.46-.46.36-.93.72-1.39,1.08-2.59,1.82-5.08,3.8-7.82,5.39h0c-.78.55-1.57,1.1-2.35,1.65-.78.55-1.57,1.1-2.35,1.65.02.08.06.15.09.2s.08.1.12.14c.13.11.3.13.48.14s.36,0,.52.04c.7-.02,1.41-.06,2.11-.06,10.84-.01,21.68-.02,32.52-.03,1.6-.42,3.23-.15,4.84-.21-2.63-7.3-5.82-14.32-9.5-21.02-1.42-.69-1.52.93-3.3,1.3Z"/>
      <path class="cls-16" d="m42.91,203.53c2.2-1.54,4.45-3.01,6.49-4.77-13.41-.01-26.82-.02-40.23-.03,2.73,7.42,6.01,14.55,9.82,21.34.19,0,.41-.1.68-.29,7.73-5.44,15.49-10.84,23.24-16.25Z"/>
      <path class="cls-24" d="m12.83,96.23c9.79,0,19.59,0,29.38,0,1.77-.43,3.58-.09,5.36-.22.39-.03.95.25,1.1-.43-.49-.35-1.16-.43-1.49-1.01-7.64-5.35-15.29-10.69-22.92-16.05-1.01-.71-3.66-3.4-4.85-3.46-.69-.04-1.21.39-1.64,1-.35.65-.69,1.3-1.03,1.95-.14.3-.27.58-.41.83-.29.54-.57,1.09-.85,1.63-2.5,5.03-4.72,10.23-6.65,15.57,1.33,0,2.67-.18,3.98.18Z"/>
      <path class="cls-20" d="m239.89,198.67c-.5.03-.99.05-1.61.08,1.8,1.31,3.45,2.5,5.1,3.7.56.27,1.07.62,1.52,1.06,3.83,2.54,7.61,5.15,11.32,7.86.65.27,1.17.73,1.67,1.21,2.57,1.65,5.05,3.41,7.47,5.26.5.31,1,.63,1.5.94.86.56,1.11.84,1.41.81,3.71-6.67,6.92-13.66,9.59-20.92-12.12.01-24.23.03-36.35.04-.54,0-1.07-.03-1.61-.05Z"/>
      <path class="cls-12" d="m176.83,9.09c.01,33.13.01,66.27.01,99.4,0,1.58-.02,3.15-.03,4.73-.04.1-.06.19-.07.26-.01.08-.01.15,0,.21s.03.11.06.16c.06.09.15.16.26.21.16.07.36.11.55.14.47.09.97.03,1.46.04,12.94-.03,25.89.1,38.85.2,15.96,0,31.91,0,47.87,0,4.67-.07,9.33-.15,13.99-.28-.92-1.54-9.85-.42-11.62-.41-4.26.02-8.52.03-12.78.03-8.36,0-16.73.02-25.09,0-8.58,0-17.16-.04-25.74,0-4.4.01-8.8,0-13.2-.12-1.61-.04-10.06,1.07-10.43-.87-.2-1.05,9.64-.34,10.48-.34,4.14,0,8.27,0,12.41,0,8.27,0,16.54,0,24.81,0,15.16,0,30.33,0,45.49,0,.85,0,8.52.04,6.5-1.08-.7-.39-1.77-.53-2.96-.54-1,.12-1.99.15-2.99.14-1.32.11-2.57.25-3.44.25-7.66,0-15.33,0-22.99,0-15.33,0-30.66,0-45.98.01-3.76,0-7.57-.21-11.32-.1-1.55.05-5.96,1.1-5.28-1.11.19-.61,1.82-.23,1.02-1.22-.12-.14-2.88,0-3.06.25-.45.62.77,1.02.3,1.86-.37.66-1.88.64-2.34.06-.39-.04-.74-.18-1-.5-.25-.1-2.05-.06-1.78.15-.58-.44-.75-1.83-.21-2.39-.54-31.65-.1-63.31-.25-94.96-.4-.72-.28-1.48-.24-2.24-.05-.51-.09-1.04-.09-1.55-.13-.96-.43-1.84-1.37-2.44,0,.15,0,.31,0,.46.33.49.19,1.05.19,1.58Z"/>
      <path class="cls-9" d="m104.56,5.48c-.19.05-.38.11-.57.16.37.55.49.26.57-.16Z"/>
      <path class="cls-9" d="m105.71,6.89c.61,1.95,1.31,2.46,1.35,4.82.03,2.3,0,4.6,0,6.89,0,17.01,0,34.01,0,51.02,0,8.27,0,16.55,0,24.82,0,4.58-.23,9.22,0,13.79.06,1.13-.13,2.18,1.38,1.97,1.38-.19.9-2.37.95-3.37.95-16.89.16-34.04.16-50.97,0-8.31,0-16.63,0-24.94,0-.82-.11-3.73-.19-7.2-.15-6.63-.18-15.31.91-15.44.07-.33.02-.68,0-1.02,0-.09,0-.17,0-.26.01-.17.04-.34.12-.5.04-.08.08-.16.14-.24-.01-.24-.25-.56-.51-.86-.26-.31-.54-.61-.62-.83-.05-.13-.02-.27.04-.41-1.25.31-2.49.64-3.73.98.04.45-.2,1.09,0,1.73Z"/>
      <path class="cls-12" d="m192.77,284.75c1.01-.68,3.11-.65,2.06-2.39-.01-10.24-.02-20.48-.04-30.73-.01-7.17-.03-14.35-.04-21.52h0c-1.04-.25-1.08-1.26-.73-2.09.48-1.13.95-.67,1.8-1.1.26,0,.52.01.77.02.48-.14.74-.47.8-.98.48-.23.46-1.01,1.31-.49,1.4.86-1.12,2.61.4,3.29,1.06.48.58-3.34.82-3.92.68-1.61,2.32-1.84.76-3.67-1.18-1.38-3.79-1.48-5.52-1.61-1.93-.14-2.56.58-4.13,1.47-1.02.57-.95.1-1.77,1.06-.25.3-1.17,1.78-1.04,2.09.12.29,1.12.31,1.44.29,1.66-.1-.16-.73,1.42-1.24,1.2-.38,2.61-.12,2.11,1.38-.52,1.57-2.46,1.37-2.91,3.03-.09.34.22,1.67.24,1.94.04.44-.51.75-.47,1.29,0,.04.72,1.4.83,1.78.31,1.06.43,2.26.53,3.36.18,2.01.11,4.05.11,6.06,0,4.9,0,9.8,0,14.7,0,4.88-.05,9.76-.21,14.63-.07,1.93,1.03,4.9.22,6.71-.67,1.51-1.35.57-2.38,1.48-1.42,1.26-.64,3.96-.41,5.37.06.36.02.92.04,1.46,1.18-.4,2.35-.82,3.52-1.25.18-.21.33-.37.44-.44Z"/>
      <path class="cls-12" d="m282.93,112.11c-.04-.18-.09-.36-.13-.54-.21.5-.35.31.13.54Z"/>
      <path class="cls-9" d="m178.1,11.04c.09.88.21,1.71.24,2.24.14,31.65-.29,63.31.25,94.96,0,.11-.17,2.3.56,1.66.37-.33.29-2.09.37-2.65.09-.63.18-1.12.25-1.76.04-.42-.35-.88-.19-1.33.3-.8,1.05-.95,1.33-1.68.54-1.39.02-4.18.02-5.71,0-1.69.01-3.38.02-5.07,0-1.61,1.26-8.42-1.11-7.13,0-.47-.1-1.72.24-2.24.3-.47,1.33-.14,1.4-.44.26-1.16-.9-.42-1.36-.99-.27-.33-.6-1.88-.49-2.16.29-.72.9-.27,1.03-.49.58-1.01.27-3.3.27-4.8,0-10.4.03-20.8.04-31.19,0-5.14,0-10.27,0-15.41,0-2.46,0-4.91,0-7.37,0-1.62,1.05-4.83.65-6.33-.37-1.39-2.32-1.3-2.03-3.16.31-2,1.33-.17,1.88-1.05.79-1.27-1.78-2.49-2.71-1.85-.58.4-.75,1.35-.74,2.41,0,.5.04,1.03.09,1.55Z"/>
      <path class="cls-12" d="m179.41,287.65c-.55.25-1.62,1.26-2.31,1.56-.15.07-.29.1-.4.08-.27-.05-.36-.42-.12-1.37h0c-.22.18-.44.34-.68.43-.24.09-.51.12-.81.04-2.16.42-4.32.83-6.48,1.25-.95.29-1.93.34-2.92.33-1.26.26-2.51.6-3.81.67-1.15.25-2.31.49-3.5.49-2.83.2-5.64.58-8.48.51-3.46.53-6.95.17-10.42.29-.38.01-.74,0-1.03-.27-.67.02-1.33.03-2,.05-.04,1.73-2.09.73-1.13,1.98,2.71.16,5.43.24,8.17.24,13.44,0,26.45-1.9,38.78-5.44-.28-1.23-1.88-1.29-2.88-.84Z"/>
      <path class="cls-12" d="m232.81,224.76c-9.84-6.91-19.69-13.83-29.55-20.71-2.27-1.58-4.49-3.27-6.97-4.54-.08,1.23.87,1.23.04,2.29-.24.3-.96-.29-.97-.26-.34.83.41,1.61,1.23,2.26,1.29,1.03,3,1.35,4.08,2.7.52.64.62,1.72,1.23,2.23.57.49,1.24.16,1.81.44.61.3.89.91,1.41,1.19.6.33,1.06.35,1.73.55.44.13,2,.27,2.33.54,1,.84.43.79.56,1.91.25,2.03.58,2.86,1.78,4.44,1.17,1.52.87,1.75,1.28,3.54.58,2.58,1.93,1.48,3.86,1.32.51-.04.81-.34,1.34-.35.45,0,1.61.48,2.26.54,1.39.14,2.91-.21,4.16.83,1.46,1.22.27,2.66,1.31,3.96.74.92,2.35.56,3.51,1.38.61.43,1.86,2.68,2.3,2.55,1.41-.42-.19-1.66-.05-2.13.27-.86.55-.61.89-1.36.46-.06.67-.29.62-.67.07-.38,0-.74-.2-1.09.45-.45.6-.43,1.32-.45-.29-.54-.84-.79-1.3-1.11Z"/>
      <path class="cls-12" d="m222.22,268.77c-3.62,2.35-7.36,4.48-11.15,6.51-1.27.68-2.54,1.34-3.82,2h0c.02.54.14.93.32,1.21,7.91-4.05,15.41-8.83,22.41-14.25-.25-.13-.52-.22-.81-.24-2.31,1.59-4.59,3.24-6.94,4.76Z"/>
      <path class="cls-12" d="m189.52,274.97c.03-9.28.03-18.56.03-27.84,0-4.15.61-8.81,0-12.9-.6-4.03-1.61-1.45-2.63.55-1.42,2.79-.62,6.78-.61,10.07,0,4.53,0,9.05,0,13.58,0,2.26,0,4.53,0,6.79,0,1.56-.65,4.17-.32,5.63.33,1.44,1.7,1.35,2.36,2.56.72,1.32.06,2.93,1.1,4.17.63-.93.07-1.79.07-2.62Z"/>
      <path class="cls-12" d="m275.76,192.82c.15.7,1.47.26,1.92,1.05.33.58-.82.54-.75.96.1.69.36.83.87,1.5.12.15.38.39.66.66.58-1.63,1.12-3.27,1.64-4.93-.63-.07-1.26-.08-1.83-.12-.52-.04-2.81-.52-2.51.88Z"/>
      <path class="cls-9" d="m16.75,78.01c-.43.82-.85,1.64-1.26,2.46.28-.54.56-1.09.85-1.63.14-.25.27-.53.41-.83Z"/>
      <path class="cls-9" d="m19.43,75.06c1.18.06,3.83,2.75,4.85,3.46,7.63,5.37,15.28,10.7,22.92,16.05.21-1.93-1.79-2.68-2.92-3.88-.97-1.03-1.53-2.25-2.59-3.16-.38-.32-1.02-.24-1.27-.71-.25-.47.49-.8.35-1.15-.44-1.1-1.4-1.67-2.5-1.82-.13-.02-.26-.03-.39-.03,0,0,0,0,.01,0-.06,0-.11-.01-.17-.02.54,1.38.21,1.74-.98,1.49-1.55-.32-1.43-1.66-2.3-2.33-1.45-1.12-4.03-1.22-5.62-2.85-1.08-1.11-1.49-2.49-2.93-3.26-.73-.39-1.81,0-1.72-.98.04-.46,1.78-1.2,2.02-2.06.38-1.31.21-2.83.64-4.25-.56-.47-1.08-1-1.82-1.2-.65.64-1.83-.2-2.39.26-1.31,1.07.84,1.57,1.03,2.08.24.65.59,1.88-.2,2.56-.5.43-1.42-.27-1.6.09-.59,1.16,2.27.85-.48,1.19-1.13.14-2.04-.11-2.88.17-.25.45-.49.9-.73,1.35.43-.61.95-1.04,1.64-1Z"/>
      <path class="cls-12" d="m197.13,198.53c8.1-.05,16.19-.07,24.29-.08.44,0,.92-.12,1.31.24.9.39,1.6,1.07,2.38,1.64.26.19.53.36.81.51.18-1.21-.87-4.56-1.38-5.55-.78-1.52-2.25-2.75-3.94-1.73-.47.29-.18,1.03-.99,1.42-.4.19-2.68,0-3.19.05-1.25.11-2.35.07-1.38.95.38.34,2.82-.12.57.91-.98.45-4.64.46-5.53.24-.44-.11-2.09-.82-2.19-1.27-.2-.89.41-.2.52-.61.06-.21.53-.61.61-1.28.09-.83-.56-1.69-.8-2.44-.77,2.91-1.47,1.94-4.34,1.81-.95-.04-2.27-.35-3.2-.15-.94.2-1.55.87-2.46,1.12-2.59.69-2.55-.48-3.33,2.04-.3.97-1.54,2.28.34,2.37.58-.56,1.28-.18,1.9-.18Z"/>
      <path class="cls-9" d="m277.65,110.84c.19-.02.37-.03.56-.06.69-.11,1.42-.34,2.2-.17.66.14,1.82.51,1.9-.34.07-.78-1.12-.53-1.77-.53-14.28-.02-28.57-.01-42.85-.01-14.41,0-28.82,0-43.23.01-.79,0-2.11-.06-2.1.65,0,.79,1.28.58,2.04.58,26.12,0,52.24.01,78.36,0,.64,0,1.28,0,1.92.01.99,0,1.99-.02,2.99-.14Z"/>
      <path class="cls-9" d="m13.23,102.2c1.28,1.06-.36,1.3,2.15,1.03,2.83-.31,5.58-.26,8.42-.22,3.24.05,8.02.89,11.11-.02.77-.23,1.17-.76,1.76-.96.7-.23,2.87-.09,3.31-.53,1.55-1.55-2.22-1.53-3.37-1.74-3.42-.61-6.96-.18-10.42-.18-2.72,0-5.98-.69-8.65-.12-.51-.04-1,.04-1.47.22-.24.38-.46.78-.65,1.18-.8.18-1.73-.89-2.58-1.09-.7.02-1.42.46-1.43.88-.03.77,1.32,1.12,1.82,1.54Z"/>
      <path class="cls-12" d="m255.83,221.74h0c.16-.67.5-1.25.92-1.79.71-.89,1.65-1.64,2.36-2.49,1.97-2.36-1.36-2.12-1.22-4.88-.5-.49-1.02-.94-1.67-1.21-2.37-.34-3.38-.32-5.31-1.68-1.55-1.08-3.29-1.82-5.01-2.72-1.42-.75-3.38-2.36-3.29.17.1,2.64,1.27.64,2.79.55,1.85-.11,3.01,2.12,4.21,3.21,1.11,1.01,2.05,1.31,2.19,2.97.43,5.52-5.27-.47-7.42-.21.84.6,1.68,1.2,2.52,1.79,2.98,2.09,5.96,4.18,8.94,6.27Z"/>
      <path class="cls-9" d="m248.29,102.8c1.03.69,3.31.2,4.5.2,2.1,0,4.19,0,6.29,0,3.12-.12,6.97.2,10.81-.22,1.78-.2,2.96-1.43,1.37-2.59-1.57-1.15-4.25-.67-6.07-.67-4.26,0-8.68.34-12.93,0-1.17-.09-3.84-.77-4.74.36-.54.68.15,2.51.77,2.92Z"/>
      <path class="cls-12" d="m204.11,279.76c-.95.2-1.98.44-3.11.44h0c-.81.15-1.56.47-2.27.86-.24.13-.47.27-.7.42-.22.38-.14,1.09-.27,1.57,2.64-1.1,5.24-2.28,7.79-3.53-.29.03-.58.07-.88.13-.18.04-.37.08-.56.12Z"/>
      <path class="cls-9" d="m65.28,110.98c1.74,0,3.48.08,5.2-.24.4-.08.98-.04.99-.52.02-.56-.57-.45-.96-.47-.12,0-.25,0-.37,0-20.35,0-40.7,0-61.05,0-.63,0-1.24.02-2.04.5,1.51.66,2.91.73,4.28.73,17.98.02,35.97.02,53.95.01Z"/>
      <path class="cls-9" d="m82.36,59.23c-4.58-3.21-9.16-6.43-13.78-9.59-1.46-1-2.8-2.18-4.43-2.93-2.37,2.55,7.08,5.93,6.99,8.18h0c1.02-.21,3.4,1.09,3.52,2.34.09.93-.8.87-1.08,1.54-.32.77-.42,1.77-.39,2.61.09,2.07,1.22,2.88,2.87,3.89,1.83,1.12,2.85.46,4.88.86,0,.01-1.89-1.39-1.76-1.37-.62-.07-1.11.66-1.62.58-1.81-.28-.38-2.15-.86-3.15-.71-1.48-3.12-1.79-.51-2.81,2.42-.95,4.37,2.17,6.85.5-.09-.37-.44-.47-.7-.65Z"/>
      <path class="cls-9" d="m201.87,12.86c-.66-.12-1.19.35-1.94.18-1.27-.3-1.99-1.76-3.23-.23,5.39,2.33,10.85,4.53,15.95,7.47,2.76,1.6,5.52,3.2,8.28,4.8-.06-.64-.1-1.39-.26-2.04-.75-.49-1.51-.98-2.28-1.46-.67.11-1.31.28-2.08-.25-1.14-.79-1.31-1.78-2.54-2.44-1.04-.56-2.83-1.3-4.01-1.13.11-.54.36-.75.61-.85-2.12-1.14-4.27-2.24-6.45-3.27-.11.03-.23.05-.36.05-.87-.02-.99-.7-1.7-.83Z"/>
      <path class="cls-12" d="m213.34,235.54c.66,1.31-.76,2.59.12,3.65,1.87,2.26,1.3-.95,1.43-1.37.56-1.78,3.03-1.82,3.37-3.6.6-3.1-1.74-.3-2.66-.33-.36-.08-.72-.16-1.08-.25-1.65-.41-.39-1.29.16-2.17.08-.12,1.09-2.05,1.17-1.86-.02-.06-4.26-.22-4.54-.21-1.73.03-3.76-.22-4.33,1.73-.97,3.32,5.06,1.83,6.35,4.4Z"/>
      <path class="cls-9" d="m60.92,93.54c-.93.97-3.22,3.61-2.43,5.2.29.58.94.99,1.69.92,1.05-.09.56-.29,1.22-.86.31-.27.24-1.28.8-1.42.97-.25,1.85,1.03,1.44,1.9-.53,1.13-3.6.09-1.71,1.89.78.74,3-.1,3.97.35.14.07.92.97.75,1,1.13-.19.54-.96,2.43-1.18,1.97-.23,3.52-1.11.6-1.89-1.09-.29-1.39.09-2.27-.57-.91-.67-1.47-1.92-2.49-2.62-.01-.07-.02-.13-.03-.2-1.48-.59-2.47-1.95-3.97-2.51Z"/>
      <path class="cls-9" d="m191.6,71.16c-2.28-.52-3.02,5.53-4.6,1.69-.84-2.03.4-1.02.94-2.56.39-1.1-.73-1.52-1.51-2.41-.5-.57.49-2.17-.63-.45-.41.63-.42,2.87-1.61,1.35-.55,2.12-.5,4.97.07,5.96.35-.79-.18-4.41,1.2-3.54.76.48,1.32,3.85,2.03,4.4.86.67,1.11-.3,1.6-.02.66.38.74,1.11,1.27,1.65,1.01,1.03,3.02,3.26,4.41,3.58,0-.75,0-1.5-.01-2.24-2.56-.36-.1-6.73-3.15-7.42Z"/>
      <path class="cls-9" d="m195.87,65.1c-1.13.12-.99-.03-1.12-1.23-.86.55-2.21-.13-2.2,1.37,0,1.28.75.71,1.46,1.11,2.25,1.29,3.82.63,5.8-.97,1.19-.96.77-.89,1.09-2.05.21-.76-.49-1.36.83-1.84.16-.06,1.03.8,1.3.82.97.08,2.89-.17,3.73-.69-1.22-2.38,3.85-.64,4.21-1.74.02-.06-.82-2.22-.9-2.41-.49-1.21-1.3-.42-.09-2.14-3.2,2.21-6.4,4.42-9.59,6.63-.96.66-3.36,3.02-4.51,3.14Z"/>
      <path class="cls-9" d="m221.22,25.24c4.99,3.26,9.76,6.82,14.44,10.49.18-.3.65-.36,1.06-.49-4-3.51-8.19-6.79-12.56-9.84-.93.06-2.1-.24-2.95-.17Z"/>
      <path class="cls-9" d="m183.38,41.85c.12,4.06-.26,8.16.32,12.2.06.45.28,3.18,1.42,2.72.9-.37-.18-2.62-.31-3.13-1.59-6.19-.5-13.8-.48-20.23.01-3.6-.46-7.63.08-11.19.02-.11,2.01-7.84-.42-5.63-.65.59-.29,3.7-.35,4.63-.13,1.77-.2,3.55-.23,5.33-.07,3.84.01,7.68-.03,11.52,0,1.26-.03,2.52,0,3.78Z"/>
      <path class="cls-9" d="m254.32,69.23c.9.64.69,1.19,2.1,1.52,1.3.3,2.71-.13,3.98.42,1.5-.15,2.39-1.27,3.45-2,1.59-1.1-3.15-3.15-4.24-3.05-1.28.11-1.74,1.02-2.85,1.42-1.39.49-1.82-.36-3.12-.55-.88-.13-2.4.06-1.68,1.27.15.25,1.97.69,2.37.97Z"/>
      <path class="cls-12" d="m248.56,235.78c-1.87-1.3-4.03-3.34-6.16-4.15-.1,3.08,1.81,5.97,4.49,7.02,1.46.57,3.7,2.16,5.63,2.22.53.02,1.03-.08,1.48-.34.12-.07.24-.16.35-.25.13-.16.25-.32.38-.48-1.51.35-4.9-3.14-6.17-4.02Z"/>
      <path class="cls-9" d="m74.26,110.98c7.97,0,15.95.02,23.92-.03,1.25,0,2.54-.11,3.85-.62-.44-.59-.9-.6-1.35-.6-8.81,0-17.61,0-26.42.01-.61,0-1.61-.06-1.6.67,0,.59.97.56,1.6.56Z"/>
      <path class="cls-12" d="m231.51,201.91c1.39.3,2.65-.11,4.1.11,1.47.22,2.81,1.01,4.16,1.34.87.21,2.29.92,1.41-.9-.38-.78-2.21-1.37-2.96-1.72-1.29-.61-2.08-.54-3.66-.95-1.41-.36-2.81-1.98-4.31-1.82-.61-.11-1.2.12-1.81.22-3.96.62,1.67,3.4,3.08,3.71Z"/>
      <path class="cls-9" d="m56.19,32.16c2.47-1.81,4.93-3.63,7.4-5.44-.39-.4.54-.6.16-.94-.52-.49-1,.69-1.67.39-.05-.02-.1-.07-.15-.12-1.94,1.37-3.84,2.8-5.71,4.26-.15.76-.19,1.44-.03,1.85Z"/>
      <path class="cls-9" d="m4.9,111.27c.34-.85.16-1.29-.26-1.5-.21.81-.4,1.62-.59,2.43.35-.24.69-.52.85-.93Z"/>
      <path class="cls-9" d="m213.43,53.32c.4-.23.73-.38.79.28.02.15-2.28,1.32-.9,1.47.32.04,2.99-1.33,3.33-1.55,1.04-.67,1.37-2.35,2.41-2.83,1.18-.54,1.79.64,2.59-.49.75-1.05-.52-1.58.27-2.51.85-1,3.85-.89,4.94-1.8,1.24-1.04.7-1.05.08-2.48-4.84,3.41-9.67,6.81-14.51,10.22.32.09.68-.13,1-.31Z"/>
      <path class="cls-9" d="m266.98,73.16c-.59.14-1.21.09-1.67.5-.84.75-.85,1.99.03,2.62,1.78-.37,1.88-1.99,3.3-1.3-.34-.63-.69-1.25-1.04-1.87-.24,0-.46,0-.62.04Z"/>
      <path class="cls-9" d="m90.83,65.4c-.28.19-6.23-2.78-5.38.31.22.81,1.59.4,1.83,1.55.21,1.02-1.47,2.57-.71,3.64.98,1.38,1.18.11,1.89-.32.21-.13.16-.61.41-.77.38-.24,1.01.28,1.51.02.44-.22,1.44-1.58,1.52-2,.15-.82-.61-.74-.52-1.47.12-.11.23-.06.35,0,.08.05.16.11.24.14.04.02.08.03.12.03.08,0,.16-.04.23-.16-.58-.21-.83-.92-1.5-.99Z"/>
      <path class="cls-9" d="m79.99,81.8c-.42-1.21-.24-.31-.45-1.92-.14-1.06.55-3.56,0-4.36-.71-1-2.02-.39-2.94-1.09-.91-.7-.79-2.52-2.3-2.33-.31.03-.7-.09-.84.33-.37,1.13,1.79,1.64,2.25,2.25.67.88,1.55,3.3,1.6,4.44.09,1.78-.8,2.02.45,3.13.51.45,2.59,1.82,2.94.6.2-.71-.53-.57-.69-1.05Z"/>
      <path class="cls-3" d="m110.28,113.72c.09-.08.17-.16.26-.25,0-2.36,0-4.73-.01-7.09,0-32.45-.01-64.91,0-97.36,0-.9-.17-1.83.32-2.68-.1-.02-.21-.04-.31-.06-.06.08-.11.16-.14.24-.07.16-.11.33-.12.5,0,.08,0,.17,0,.26,0,.34.06.69,0,1.02h0c.44,35.05.07,70.15-.04,105.2h0s0,0,0,0c.02.08.04.15.06.22Z"/>
      <path class="cls-19" d="m4.25,180.52c31.9,0,63.8,0,95.7-.01,3.2,0,6.39-.03,9.59-.04-.49-.35-1.04-.2-1.57-.2-34.76,0-69.51,0-104.27,0,.02.09.04.17.06.26.16,0,.33-.01.49-.01Z"/>
      <path class="cls-8" d="m176.84,234.23c0-17.58.06-35.16-.04-52.74-.26.33-.19.71-.19,1.08,0,35.04,0,70.09,0,105.13.06-.01.13-.02.19-.03.57-17.78.04-35.65.04-53.44Z"/>
      <path class="cls-3" d="m110.79,262.95c-.04-9.99-.25-20-.25-29.96,0-17.25,0-34.49.03-51.74-.1-.15-.19-.3-.29-.44,0,34.02.01,68.04.02,102.06,0,.52-.16,1.08.19,1.57.2-5.12.28-10.26.3-15.41,0-2.03,0-4.06,0-6.09Z"/>
      <path class="cls-9" d="m64.84,51.85c.08.66.1,1.31.06,1.97.81-.11,3.19.91,3.44,1.31.7,1.16-.96,3.96.6,5.06.56.4,3.01.5,3.36,0-.23.34-1.12-4.99-1.14-5.28h0c-.85-.49-6.39-2.51-6.31-3.05Z"/>
      <path class="cls-9" d="m85.13,15.03c-.86-.43-1.73-.78-2.59-1.13-1.59.76-3.16,1.55-4.72,2.38.5.58,2.01.77,2.55.96,1.63-.64,3.25-1.32,4.76-2.2Z"/>
      <path class="cls-12" d="m222.44,242.07c1.55,1.14,4.44-1.48,3.64,1.91.27.45-.17,1.29.68,1.42.51.08,1.68-1.71,1.99-2.02,1.16-1.18,1.64-1.44.11-2.93-1.96-1.9-1.36.79-3.86.25-.91-.2-2.25-1.45-3-1.27-1.54.36-.28,2.13.43,2.65Z"/>
      <path class="cls-9" d="m104.95,14.77c-.09,0-.19,0-.28,0v42.89c.09,0,.19,0,.28,0V14.77Z"/>
      <path class="cls-12" d="m234.83,255.08c1.03.68,2.07.03,2.1-1.15.03-1.01-1.92-1.98-2.45-2.74-1.08-1.53-.3-1.28-1.72-1.3-1.35-.02-1.59,1.72-2.94-.18.62,3.01,2.99,4.04,5.01,5.37Z"/>
      <path class="cls-9" d="m249.98,87.09c-1.32-1.07-1.37.37-2.56.49-.73.08-1.28-.37-2.12-.23-1.4.22-2.78,1.31-3.3,2.63-.1.26-.18.54-.21.82-.01.14-.02.28-.01.42.01.28.07.56.18.84.05.14.12.28.2.42,2.75-1.6,5.23-3.57,7.82-5.39Z"/>
      <path class="cls-9" d="m224.91,82.44c1.05-.99.67-2.15,2.58-2.68-.6-.85-1.37-1.1-2.23-.92-1.29.27-6.87,2.28-4.48,4.53.86.81,3.56-.4,4.13-.94Z"/>
      <path class="cls-12" d="m263.43,223.85c-1.44-.9-5.28-2.31-6.88-1.69,2.2,1.62,4.4,3.23,6.6,4.85.16.11.35.21.48.34.44-.69.87-1.38,1.3-2.07-.34-.53-.88-1.04-1.5-1.44Z"/>
      <path class="cls-9" d="m237.66,96.13s-.08-.08-.12-.14-.07-.12-.09-.2h0c-1.74-1.47-1.07-.72-1.94.52-.63.89-2.61,2.43-2.13,3.78.62,1.76,3.61-.46,4.96-.65-.98-1.23.34-1.89.32-3.11-.16-.04-.35-.03-.52-.04s-.34-.04-.48-.14Z"/>
      <path class="cls-9" d="m190.83,84.32c.27.87.22,1.89.22,2.79,0,.9-.57,3.61.59,3.88,1.39.33.9-4.04.9-4.64-.04-1.44.15-3.13-.47-4.79-.64-1.7-2.63-.56-2.32.89.13.6.86,1.17,1.07,1.87Z"/>
      <path class="cls-9" d="m72.71,68.85c.28.47-3.04.13-2.77-.16-.95,1.02-.07.67.39,1.39.27.41,2.27.62.92,1.8-.78.68-2.98-.75-3.8.12-1.57,1.64,2.21,3.01,3.29,2.41,1.26-.7.83-2.48,1.59-3.39.67-.81,2.11-.82,3.06-1-1.02-.57-2.12-.24-2.68-1.16Z"/>
      <path class="cls-9" d="m67.15,24.45c2.72-1.28,5.21-2.94,7.81-4.42-.92-.26-1.54-.89-2.5-.79-.59.35-1.18.7-1.77,1.06-.3.3-.61.58-1,.76-.17.08-.4.16-.67.25-.85.53-1.7,1.08-2.54,1.63-.11.41.04.9.66,1.51Z"/>
      <path class="cls-12" d="m228.76,194.71c.85.58,2.06,2.58,3.14,2.35,2.13-.44.67-3.41,3.17-3.79-.45-.31-.79-.39-1.34-.3-.6.17-1.18.38-1.76.61-.69.21-1.27.05-1.77-.49-1.14-.14-.35-.59-1.61.13-1.67.96-.87.78.18,1.49Z"/>
      <path class="cls-9" d="m237.84,73.93c1.25-.47,2.53-.49,3.77-.75,1.69-.36.94-2.3-.14-2.66-.64-.22-2.5.16-3.13.49-.12.06-2.26,1.72-2.29,1.85-.28,1.63,1.26.31,1.78,1.07Z"/>
      <path class="cls-9" d="m51.25,55.94c-1.21,0-2.8-1.3-3.79-.16-.57.65-.21,2.32.25,2.94.97,1.29.69.65,2.07.06,1.1-.47,1.9-.34,2.18-1.69-.04-.52-.09-1.15-.7-1.15Z"/>
      <path class="cls-12" d="m234.89,259.7c.1.17.09.36.03.55.3-.25.59-.51.88-.77-.08-.09-.15-.17-.24-.26-.22.16-.45.32-.67.48Z"/>
      <path class="cls-9" d="m194.75,18.02c-.24.24-.51.58-.4.86.5,1.25-.06,2.45-.08,3.68-.07,4.59.24,9.16.26,13.74.04,6.62.08,13.23-.24,19.84-.03.62-.05,1.25.46,1.74.01-3.2.04-6.39.04-9.59,0-10.09-.02-20.18-.04-30.28Z"/>
      <path class="cls-9" d="m250.51,82.27c-.24.55.86.77.8,1.25-.05.44-.64.69-.66.9-.03.36-.66.17-.51.75.07.28,1.02.7,1.24.83,1.74-1.01,3.38-2.16,4.92-3.46-.75-.52-5.46-1.04-5.79-.29Z"/>
      <path class="cls-10" d="m92.56,229.84c-.04-.17-.09-.34-.18-.51-.02,4.9-.05,9.79-.05,14.69,0,12.74.03,25.48.04,38.22.33-.35.21-.78.21-1.18,0-16.55,0-33.1,0-49.65,0-.52.08-1.05-.02-1.57Z"/>
      <path class="cls-14" d="m92.34,61.56c0,.78-.14,1.58.2,2.33.02-.12.06-.24.06-.37,0-16.65,0-33.31,0-49.96,0-.36.08-.76-.25-1.05,0,.79.01,1.58.01,2.36,0,15.56-.02,31.12-.02,46.68Z"/>
      <path class="cls-9" d="m186.62,93.57c1.27-.16,1.24,2.2,1.81-1.09.28-1.61,1.45-6.73.2-8.05-.63,1.4-.68,1.75-.42,2.92.33,1.47-.38,1.93-.95,3.11-.29.6-1.15,1.73-1.3,2.24-.08.26-.4,1.73-.14,1.97.91.86.64-1.07.8-1.09Z"/>
      <path class="cls-9" d="m57.14,63.12c-1.54.27.17.93.46,1.26.96,1.09,1.45,1.21,1.25,2.58-.09.64-1.99,1.34.11,1.6,1.46.18,1.52-1.62,1.71-2.59.02-2.32-1.27-3.24-3.53-2.84Z"/>
      <path class="cls-12" d="m240.06,196.64c.54-.06,1.15-1.47,1.67-1.74,1.35-.71,4.01.84,4.24-1.38.16-.78-.11-.98-.61-1.03-1.62-.19-2.85.63-4.12,1.5-.53.36-.56,1.06-1.22,1.33-.54.22-1.23-.58-1.7-.22-.7.53,1.31,1.6,1.75,1.55Z"/>
      <path class="cls-9" d="m225.12,52.08c.18-.79.01-1.26-.65-1.54-1.27-.52-3.97,1.98-2.77,3.33,1.64,1.85,3.61.18,3.42-1.79Z"/>
      <path class="cls-9" d="m85.37,103.96c1.78.09,4.59.58,6.25,0-1.02-.21-1.99-.39-2.67-1.35-.44-.62-1.86.11-2.52.09-.72-.02-1.24-.61-2.04-.59-.77.02-3.73.36-3.15,1.37-.04-.08,4.08.47,4.13.47Z"/>
      <path class="cls-9" d="m275.21,98.03c.35,1.56-1.96,2.35-1.37,3.27.38.59,1.38.51,1.88.15.9-.66.14-1.2.47-1.92.49-1.08,0-.64,1.3-1.01.34-.1.98-.01,1.5-.06-.16-.46-.31-.92-.47-1.37-.75-.21-1.59-.32-1.83-.35-.56.34-1.76.04-1.48,1.3Z"/>
      <path class="cls-9" d="m218.05,56.18c-1.38.58,0,2.72-.57,4.45,1.48-.67,2.72-1.7,3.93-2.75-.51-1.23-2.03-2.25-3.36-1.7Z"/>
      <path class="cls-12" d="m233.51,203.94c-.88-1.02-2.92-1.18-3.81-.5,2.37,1.86,4.96,3.39,7.44,5.09-.81-1.85-2.36-3.12-3.63-4.6Z"/>
      <path class="cls-9" d="m51.36,35.94c-1.28-.58-.62-.61-.97.46-.34,1.04-.34,2.32.37,3.03.41.4,1.35.33,1.89.64.58.33.98,1.1,1.56,1.34,1.04.43,1.08.86,1.4-.72-1.23-1.24-2.82-1.98-4.2-3.02-.82-.61-1.01-1.13-.06-1.74Z"/>
      <path class="cls-9" d="m204.16,65.03c-1.69.49-.72,4.02.1,4.81,1.14-.41,2.02-1.2,2.91-1.98-1.6-.15-1.71-3.21-3.01-2.83Z"/>
      <path class="cls-12" d="m237.34,236.81c5.3.12-1.74-6.92-1.67-2.65.02,1.11.98,2.63,1.67,2.65Z"/>
      <path class="cls-17" d="m48.53,198.51c-12.94-.02-25.87-.04-38.81-.05-.21,0-.45-.06-.67-.04.04.1.07.2.11.3,13.41.01,26.82.02,40.23.03-.19-.42-.57-.25-.87-.25Z"/>
      <path class="cls-9" d="m65.45,60c1.31,1.51,1.75-1.06,1.45-2.34,0-1.77-.93-2.41-2.4-1.65-.3.15-1.02.22-1.2.56.32-.64,2.28,3.57,2.15,3.43Z"/>
      <path class="cls-12" d="m195.3,193.49c.2-.05,2.65-.42,2.85-.34.23.06.61.13.7-.31.24-1.26-7.4-2-6.21.95.5,1.25,1.87-.1,2.66-.3Z"/>
      <path class="cls-11" d="m277.52,198.44c-12.18.01-24.37.03-36.55.06-.28,0-.56-.03-.83.05-.09.03-.17.07-.26.13h0c.54.02,1.07.05,1.61.05,12.12-.01,24.24-.02,36.35-.04.03-.09.06-.17.09-.25-.14,0-.28,0-.42,0Z"/>
      <path class="cls-12" d="m265.36,217.85c-1.07,1.67.31.91.5,2.1.11.71-.88,1.48-.37,2.25.23.35.61.5,1.01.5.46-.78.91-1.55,1.35-2.34-.34-.51-.81-1.02-.99-1.56-.5-.31-1-.63-1.5-.94Z"/>
      <path class="cls-9" d="m184.22,89.04c-.55,1.19-.58,11.37-.03,12.71.53-1.2.55-11.63.03-12.71Z"/>
      <path class="cls-12" d="m235.84,230.22c1.57.71.99-.84,2.25-1.59-1.11-.99-2.26-1.92-3.66-2.49.3,1.24-.05,3.42,1.42,4.08Z"/>
      <path class="cls-9" d="m186.79,15.64c.14-.8-.82-1.81-.52-2.66.79-2.26.85,1.6,1.65,1.49.52-.08-.11-4.21-.28-4.35-1.81-1.44-1.78,2.76-1.86,3.51.04.54.15,1.32.15,2.09,0,1.03.73.67.86-.08Z"/>
      <path class="cls-9" d="m278.66,103.85c.73.31,1.46.41,2.18.43-.11-.38-.22-.76-.33-1.13-.58-.07-1.15,0-1.85.7Z"/>
      <path class="cls-9" d="m66.18,63.78c-.33,1.56,3.27,2.42,3.48-.07-.05-.63.1-1.36-.71-1.55-1.16-.28-.77.95-1.43,1.39-.52.35-1.15-.66-1.34.23Z"/>
      <path class="cls-9" d="m95.66,100.45c1.72,1.33,1.24-.58,1.36-.91.14-.39-.17-.68.13-1.18.02-.04.05-.07.09-.1.24-.18.7-.09.63-.56-.01-.33-.09-.57-.22-.72-.64-.77-2.47.49-2.69,1.87-.09.55.08,1.13.69,1.6Z"/>
      <path class="cls-9" d="m49.3,103.48c-2.2-.89-4.53-1.07-7.05-1.56,1.39,1.82,3.72,2.31,7.05,1.56Z"/>
      <path class="cls-9" d="m195.67,101.5c1.53-.05,2.4-.54,2.34-1.32-.1-1.33-2.67-1.73-3.25-.84-.47.72-.04,2.19.91,2.16Z"/>
      <path class="cls-9" d="m104.96,104.75v-20.15c-.32,6.72-.37,13.43,0,20.15Z"/>
      <path class="cls-12" d="m237.37,208.7c2.16,1.72,4.48,3.23,6.75,4.8-.77-1.86-4.55-5.69-6.75-4.8Z"/>
      <path class="cls-9" d="m190.46,95.23c3.34,1.23.13-6.74-.67-1.91.09.68-.26,1.57.67,1.91Z"/>
      <path class="cls-21" d="m196.73,198.74c8.67-.02,17.34-.04,26.01-.06-.39-.35-.86-.24-1.31-.24-8.1.02-16.19.03-24.29.08-.63,0-1.32-.38-1.9.18.1.08.21.16.31.23.34-.35.77-.2,1.18-.2Z"/>
      <path class="cls-9" d="m255.38,71.95c-1.28-.21-1.34,3.44-.17,3.87,3.21,1.18.34-2.52.46-3.03.14-.35.25-.75-.29-.84Z"/>
      <path class="cls-9" d="m57.72,48.7c-.1-.19-.17-.33-.25-.47-.43-.7-2.29-1.78-3.17-1.46-1.4.49.42.78.54.93.34.43.6.57.9,1.19.17.35-.07,1.16.24,1.45,1.06,1.03,1.14-.81,1.74-1.64Z"/>
      <path class="cls-9" d="m51.94,35.42c1.23-.8,2.39-1.69,3.46-2.7-.54.02-1.02-.27-1.45-.58-.63.51-1.25,1.02-1.87,1.55-.11.86-.2,1.67-.14,1.74Z"/>
      <path class="cls-9" d="m249.85,48.3s-.08-.1-.13-.15c-.03,0-.06.01-.09.02.07.04.15.09.22.13Z"/>
      <path class="cls-9" d="m187.55,8.69c.21-.06.65-.6,1.1-1.26-.56-.19-1.12-.37-1.68-.56-.64.94-.76,2.22.57,1.82Z"/>
      <path class="cls-9" d="m47.99,39.95c1.86,1.16-.03-1.47.1-1.28-.22-.33-.69.75-1.04-.01-.15-.34.54-.47.54-.49,0-.04.03-.27.04-.55-.47.43-.94.87-1.4,1.31.02.86.09,1.71.17,1.93.62-.36.62-1.51,1.59-.9Z"/>
      <path class="cls-9" d="m104.97,81.62v-15.03c-.59.52-.4.95-.42,1.33-.1,2.39.3,4.77.26,7.16-.02,1.31-1.3,6.08.15,6.53Z"/>
      <path class="cls-9" d="m206.73,64.43c.53.14.81.22.88,0,.25-.76,1.22-2.77-.36-2.78-.64,0-.68.71-1.11,1.21-.08.1-.15.18-.22.26-1,1.16-.99,1.19.81,1.3Z"/>
      <path class="cls-25" d="m86.89,96c-7.33.01-14.67.03-22,.05.01.07.02.13.03.2.74.01,1.49.04,2.23.04,7.04,0,14.07-.02,21.11-.04.04-.06.08-.12.12-.19-.5-.02-.99-.06-1.49-.06Z"/>
      <path class="cls-9" d="m182.27,109.76c0-.07-.96-2.46-.96-2.46-1.34-.76-1.15,2.49-.74,3.18.25.32.6.46,1,.5.93-1.17.62.05.7-1.22Z"/>
      <path class="cls-9" d="m186.9,56.94c-.07.04-.22.08-.27.17-.44.89-.78,3.95,1.23,3.02.9-.42.14-3.2-.96-3.19Z"/>
      <path class="cls-9" d="m216.93,92.15c.86.18,2.08-.17,2.04-1.24,0-1.48,0-1.46-1.21-.9-.36.17-1.95,1.23-1.75,1.83.33,1,.37.2.92.31Z"/>
      <path class="cls-9" d="m232.88,89.59c1.14,2.06,1.35-3.51,1.54-4.01-.02-.36.04-.74-.31-.81-.66-.13-1.45,4.42-1.23,4.82Z"/>
      <path class="cls-9" d="m192.05,64.39c0-1.28-.61-2.18-1.68-2.44-2.26-.55,1.15,4.97,1.68,2.44Z"/>
      <path class="cls-9" d="m209.92,65.84c-.63-1.03,1.58-2.33.51-3.14-.82-.62-1.62.98-1.75,2.34-.06.62.02,1.2.31,1.49.38-.14.71-.34.93-.7Z"/>
      <path class="cls-9" d="m50.97,88.57c1.33.76.69-1.02,1.4-1.02-.82-.74-1.71-1.38-2.66-1.93-.39,1.39.03,2.24,1.27,2.95Z"/>
      <path class="cls-4" d="m194.74,78.58c0,.75,0,1.5.01,2.24.01,4.59.02,9.18.05,13.77,0,.37-.22.83.24,1.11,0-6.37,0-12.73,0-19.1-.43.61-.16,1.33-.31,1.98Z"/>
      <path class="cls-7" d="m92.38,217.93c.23-.23.2-.53.2-.81,0-5.7,0-11.39-.01-17.09,0-.14,0-.29-.02-.43-.02-.11-.06-.22-.13-.32-.02-.03-.03-.05-.05-.08,0,6.24.01,12.48.02,18.72Z"/>
      <path class="cls-9" d="m55.26,101.25c.99.12,1.23-.42,1.18-1.26-.17-2.91-3.73.93-1.18,1.26Z"/>
      <path class="cls-9" d="m92.12,75.58c.98.03,2.16-.83,2.17-1.53.02-2.21-4.52,1.29-2.17,1.53Z"/>
      <path class="cls-9" d="m186.32,81.97c.38-.36-.07-1.08.33-1.45.55-.5,1,1.29,1.72.26.62-.89-1.31-1.73-1.94-1.44-1.09.49-.6,2.56-.28,3.33.11-.47.1-.62.17-.69Z"/>
      <path class="cls-9" d="m203.99,94.73c-.05-.44-.27-.65-.65-.68-.85-.05-1.74,2.86-1.4,3.43.64,1.06,1.8-2.3,2.05-2.75Z"/>
      <path class="cls-9" d="m186.5,110.53c1.43.18,2.86.34,4.3.05,1.37-.27-.93-.83-.92-.83-1.09-.24-2.54.07-3.39.78Z"/>
      <path class="cls-9" d="m86.35,62.18c-.36,1.01-2.91-1.36-2.17,1.04.55,1.77,2.27.51,2.7-.68-.14-.18-.27-.36-.54-.35Z"/>
      <path class="cls-9" d="m76.83,101.44c1.23-.79,0-1.2-1.39-1.15-.41,0-.84-.06-1.24.02-2.11.37,1.57,1.8,2.62,1.13Z"/>
      <path class="cls-9" d="m190.53,100.95c.8,0,2.16-1.7,1.39-2.44-.84-.8-1.85.78-1.88,1.58.07.38-.11.86.49.86Z"/>
      <path class="cls-9" d="m252.52,72.92c-1.6.49.17,3.01.53,3.74.1-.03.2-.05.3-.08,0-.37.43-4.05-.83-3.66Z"/>
      <path class="cls-9" d="m187.86,61.49c.08.86-.45,1.26-.19,1.83.19.41-1.14,3.54.48,2.19,1.11-.92.53-3.19-.29-4.03Z"/>
      <path class="cls-9" d="m65.13,71.68c-3.26-1.48.52,4.65.75,1.47-.23-.48-.15-1.19-.75-1.47Z"/>
      <path class="cls-9" d="m187.48,53.26c-.83.19-.16.81-.14,1.3.07,1.63,1.72,2.06,1.47.44-.01-.23,0-.36-.03-.48-.1-.51-.62-1.42-1.3-1.26Z"/>
      <path class="cls-1" d="m247.39,46.68c1.57,1.69,3.14,3.37,4.7,5.06h0c.05-.4-.02-.75-.17-1.05-.14-.17-.29-.33-.43-.49-.08-.06-.15-.13-.24-.18-.32-.17-.42-.37-.44-.6-.32-.37-.64-.74-.96-1.11-.07-.04-.15-.09-.22-.13-1.01-.1-1.23-1.4-2.25-1.49Z"/>
      <path class="cls-9" d="m237.29,103.75c1.77.23,2.75.13,2.42-1.98-.62,1.52-1.5,1.71-2.62,1.27-.43-.17-1.23-.16-1.36.38-.2.81,1.27.29,1.55.33Z"/>
      <path class="cls-12" d="m244.89,203.52c-.44-.44-.95-.79-1.52-1.06-2.68.81,1.32,3.85,1.52,1.06Z"/>
      <path class="cls-9" d="m84.46,83.05c.88.04,1.58-.1,1.57-.88-.02-1.94-4.72.67-1.57.88Z"/>
      <path class="cls-9" d="m275.8,104.25c.37-.12,1.06.3,1.19-.42.4-2.18-6.02.42-1.19.42Z"/>
      <path class="cls-9" d="m220.83,84.97c-.84-.22-.46.48-.14.76.63.54,2.86.3,3.46-.17-1.08-.82-2.27-.31-3.32-.58Z"/>
      <path class="cls-9" d="m83.54,65.61c-.01-.75-1.24-.5-1.47-.05-.39.77,1.14,1.99,1.55,2.49.42-1.13-.07-1.76-.08-2.44Z"/>
      <path class="cls-9" d="m48.11,42.29c.05-.44.3-.93-.17-1.26-2.1-1.49.61,5.76.17,1.26Z"/>
      <path class="cls-9" d="m208.98,101.49c.31.11.57.09.54-.49-.05-.99-.39-1.3-.75-1.27-.81.08-1.73,1.88.21,1.75Z"/>
      <path class="cls-9" d="m233.92,73.44c0-.45.03-.99-.42-.97-1.71.06-1.09,3.84.42.97Z"/>
      <path class="cls-9" d="m231.66,40.14c.6,1.26,1.8-.36,2.65-.45-.05-.44-.11-.88-.16-1.31h0c-.21.14-.43.28-.64.41-.65.41-1.29.82-1.84,1.36Z"/>
      <path class="cls-9" d="m90.66,85.76c-.23.19-.37.27-.45.39-.09.13,1.12,2.68,1.17,2.69,1.76.45-.61-2.94-.72-3.08Z"/>
      <path class="cls-9" d="m51.48,44.19c.19-.52-.07-.89-.52-.9-2.12-.05.12,4.07.52.9Z"/>
      <path class="cls-9" d="m69.76,66.46c.4-.04,3.26.19,3.26.19.42-1.36-3.27-.82-3.76-.61.12.32.3.44.51.42Z"/>
      <path class="cls-12" d="m235.83,240.66c.5.41,2.18-.68,2.59-.92-.8-.17-1.35-.31-1.91-.41-.7-.13-1.48.68-.69,1.33Z"/>
      <path class="cls-9" d="m52.46,59.78c-.06.64.15,1.14.72,1.15,1.39.02.24-3.46-.72-1.15Z"/>
      <path class="cls-9" d="m248.98,63.22c.14-.41.07-.76-.36-.74-1.36.08-1.13,3.35.36.74Z"/>
      <path class="cls-9" d="m227.13,84.78c.11-.04.3-.11.5-.17,1.3-.44,1.37-.8.16-.83-1.22-.03-2.28,1.12-.65,1Z"/>
      <path class="cls-9" d="m183.83,80.72c-.02.66.38.35.63.2.51-.31-.03-2.58-.22-2.95-.6.93-.39,1.86-.42,2.75Z"/>
      <path class="cls-9" d="m239.78,39.77c.15,1.15,1.55.49,1.74-.13-.22-.21-.44-.42-.66-.63-.05,0-.09-.02-.15-.03-.38.19-1,.21-.92.8Z"/>
      <path class="cls-12" d="m190.12,203.67c.64-.12.4-.73.16-1,.34.38-2.46-.11-2.43-.11.68.92,1.36,1.28,2.27,1.11Z"/>
      <path class="cls-23" d="m47.58,96.01c-1.78.13-3.59-.21-5.36.22.55,0,6.86.38,6.9-.33-.04-.24-.18-.35-.43-.33-.15.69-.71.4-1.1.43Z"/>
      <path class="cls-9" d="m253.23,78.27c-.03-.3-.26-.45-.57-.42-2.5.19-.18,2.54.57.42Z"/>
      <path class="cls-9" d="m6.69,104.26c.24-.15.31-.35.21-.6-.18-.09-.37-.08-.56-.02-.15.49-.29.99-.43,1.49.22-.07.41-.33.78-.87Z"/>
      <path class="cls-9" d="m65.5,69.16c.55.43,1.01,1,1.85.88.72-.11-1.06-2.07-1.85-.88Z"/>
      <path class="cls-9" d="m100.69,95.59c-.67.34-.63.87-.65,1.34-.03.69-.92.39-1.12.94q1.59,0,1.77-2.28Z"/>
      <path class="cls-9" d="m188.86,67.88c-.12.1-.25.25-.36.41-.06.08-.11.17-.17.25-.08.14-.05.29.04.41.19.25.64.4.93.16.14-.12.24-.33.25-.68-.09-.79-.38-.82-.69-.56Z"/>
      <path class="cls-9" d="m59.86,56.4c.29-.05.8.08.72-.39-.36-2.14-3.1.31-.72.39Z"/>
      <path class="cls-9" d="m187.37,97.84c.39-.18.13-.63-.25-.89-.15-.11-.33-.18-.48-.2-.74-.18-.77.35-.45.76,0,0,0,0,0,0,.13.16.3.29.52.36.11.03.22.05.34.04.13-.01.24-.04.32-.07Z"/>
      <path class="cls-12" d="m206.14,233.11c-.29.04-.75-.12-.73.25.04,1.04,3.16,1.28.73-.25Z"/>
      <path class="cls-9" d="m62.49,65.11c-1.13-.08.01,2.97.5,2,.02-.25,0-.51-.06-.75-.17-.38.32-1.19-.44-1.24Z"/>
      <path class="cls-9" d="m183.8,105.97c.63-.79,1.11-1.47.15-2.58-.14,1.01-.65,1.69-.15,2.58Z"/>
      <path class="cls-12" d="m226.34,239.05c.7-.14-1.21-1.09-1.98-.85.53.67,1.14,1.02,1.98.85Z"/>
      <path class="cls-12" d="m219.08,192.98c.34-.07.86.12.81-.49-.1-1.15-3.16.03-.81.49Z"/>
      <path class="cls-9" d="m186.14,98.64c-.72.04-.11,3.88.45.97-.22-.26.29-1.01-.45-.97Z"/>
      <path class="cls-9" d="m244.11,43.3c.02-.21.25-.41.52-.6-.22-.22-.44-.44-.67-.67-.45.21-.88.47-1.06.65.5.01.83.37,1.21.62Z"/>
      <path class="cls-9" d="m88.14,80.54c.35.03.64-.01.67-.4.08-.87-2.76-.86-.67.4Z"/>
      <path class="cls-12" d="m241.4,196.78c-.89-.23.05,2.73.87.62-.08-.42-.49-.53-.87-.62Z"/>
      <path class="cls-12" d="m235.41,238.16c1.25.27-.47-2.61-.72-.86,0,.52.3.77.72.86Z"/>
      <path class="cls-9" d="m238.76,91.37c-.39,0-.53.24-.57.55-.14,1.07,2.34.75.57-.55Z"/>
      <path class="cls-9" d="m110.28,113.72c-.02-.07-.04-.15-.06-.22,0,0,0,0,0,0-.11.1-.23.18-.35.25-.09.04-.18.07-.27.1-.17.05-.34.09-.52.11-.14.02-.28.02-.43.03-1.2.06-2.42-.26-3.6.2,1.44,0,2.89,0,4.33,0,.37,0,.76.01.9-.46Z"/>
      <path class="cls-9" d="m236.97,74.81c-.29-.06-.72-.09-.64.16.11.34,1.53.85,1.83.69,1.01-.56-1.15-.83-1.19-.85Z"/>
      <path class="cls-9" d="m100.81,10.63c.54-.68-.09-1-.48-1.57-.33.68-.4,1.25-.12,1.77.15.26.45-.01.6-.2Z"/>
      <path class="cls-12" d="m252.98,189.82c-.83-.5-1.44-.74-2.14-.45-.55.23,1.78.51,2.14.45Z"/>
      <path class="cls-9" d="m96.7,75.31c-.39-.39-.86-.18-1.28-.21-1.07-.08.31,1.75,1.28.21Z"/>
      <path class="cls-22" d="m273.29,96.23c1.28.01,2.56.05,3.84.02.36-.01.75.11,1.1.04-.03-.09-.07-.18-.1-.27-1.62.06-3.25-.21-4.84.21Z"/>
      <path class="cls-9" d="m36.62,50.16c-.96.39,1.77.31,2.33-.11-.93-.23-1.64-.17-2.33.11Z"/>
      <path class="cls-9" d="m245.62,78.12c-.73,0-1.32-.27-1.76.24-.43.49,1.32.32,1.76-.24Z"/>
      <path class="cls-9" d="m190.85,8.25s.03-.02.04-.03c-.26-.09-.51-.19-.77-.28.03.18.23.32.73.31Z"/>
      <path class="cls-9" d="m40.34,50.33c.56.27.87.83,1.45.68.3-.08-.34-1.64-1.45-.68Z"/>
      <path class="cls-9" d="m248.58,80.96c.46.29,1.53-.37,1.61-.83-.19-.02-.31-.04-.43-.05,0,0-1.88.44-1.18.89Z"/>
      <path class="cls-9" d="m192.18,103.65c.31-.32.92-.34,1.02-.9.21-1.12-2.42.9-1.02.9Z"/>
      <path class="cls-9" d="m246.96,71.32c.1-.06.17-.21.16-.51-.07-.59-.26-.66-.47-.55-.15.08-.31.25-.43.39-.1.11-.18.2-.22.19.04,0,.65.66.96.48Z"/>
      <path class="cls-12" d="m197.01,282.88c.41-.27.23-.71-.24-.93-.38-.04-.68.13-.97.34.34.35.64.97,1.21.59Z"/>
      <path class="cls-9" d="m61.75,56.16c-.29,0-.54.07-.52.39.07,1.16,2.31,0,.52-.39Z"/>
      <path class="cls-9" d="m246.03,102.63c-.17-.33-.4-.62-.83-.58-1.43.15.82,1.75.83.58Z"/>
      <path class="cls-9" d="m36.23,51.62c-.85.33,1.39.72,1.69.62-.69-.18-.97-.9-1.69-.62Z"/>
      <path class="cls-9" d="m100.16,73.39c.33-.08.47-.3.4-.64-.05-.26.13-.67-.24-.74-.67-.12-.72,1.33-.16,1.38Z"/>
      <path class="cls-9" d="m37.89,83.82c-.81-.53-1.5-.97-2.19-1.42-.06.1-.12.2-.18.3.19.13.38.27.57.41.07.05.14.1.21.15.12.08.25.16.39.24.05.03.1.05.15.07.11.05.23.09.35.13.16.05.34.08.54.1.06,0,.11.02.17.02,0,0,0,0-.01,0Z"/>
      <path class="cls-13" d="m12.83,96.23c-1.31-.36-2.65-.18-3.98-.18,0,.02-.02.05-.03.07,1.32.33,2.67.12,4,.11Z"/>
      <path class="cls-9" d="m184.08,59.04c-.5.67-.18,1.25.19,2.11.01-.92.64-1.55-.19-2.11Z"/>
      <path class="cls-9" d="m50.98,99.78c.63-.48-1.04-.43-1.41-.08.53.42.98.41,1.41.08Z"/>
      <path class="cls-2" d="m195.07,12.34c-.35.8-.34,1.62-.29,2.45.02.33.04.66.05.99,0,.16,0,.33,0,.49.43-1.29.11-2.62.24-3.93Z"/>
      <path class="cls-12" d="m229.13,247.61c.27,1.8,1.5-.08.4-.29-.19.02-.45-.02-.4.29Z"/>
      <path class="cls-9" d="m186.57,63.08c-.04-.12-.16-.24-.41-.34-.56.02-.36.52-.17.88.05.1.1.19.14.26.02.04.04.07.04.09,0-.01.01-.04.04-.07.12-.16.48-.5.36-.82Z"/>
      <path class="cls-9" d="m88.38,96.06c-.04.06-.08.12-.12.19,1.05,0,2.11.03,3.16.01.08,0,.22.01.33,0,.08,0,.14-.02.17-.07.01-.02.02-.05.01-.08-.01-.07-.08-.17-.21-.31-1.08.53-2.24.1-3.35.26Z"/>
      <path class="cls-12" d="m191.36,199.19c-.01-.33-.3-.38-.51-.4-1.24-.14-.26,1.72.51.4Z"/>
      <path class="cls-9" d="m253.06,55.12c.48-.19,1.16.24,1.44-.22.26-.44-.38-.68-.65-1,.16.68-.53.81-.78,1.22Z"/>
      <path class="cls-9" d="m58.34,53.26c-.31.13-.55.34-.61.69-.18,1.16,1.81-.54.61-.69Z"/>
      <path class="cls-12" d="m225.44,245.28s0-.03,0-.03c-.12-.11-1.21.33-.69.77.08.07.2.13.36.2.73.02.3-.78.33-.93Z"/>
      <path class="cls-9" d="m263.79,77.33c-.59.15-1.67-.42-1.44.96.59-.16,1.07-.47,1.44-.96Z"/>
      <path class="cls-9" d="m210.68,101.95c.85-.13-1.07-.44-1.22-.45.24.67.76.52,1.22.45Z"/>
      <path class="cls-9" d="m34.38,54.52c-.45-.44-.93-.14-1.37.1.38.19.77.38,1.15.57.28-.16.45-.45.22-.68Z"/>
      <path class="cls-8" d="m176.85,108.49c0-33.13,0-66.27-.01-99.4,0-.53.14-1.08-.19-1.58-.02.21-.05.41-.05.62,0,34.51,0,69.01.03,103.52,0,.26-.03.53-.02.8,0,.27.06.53.23.77h0c0-1.58.03-3.15.03-4.73Z"/>
      <path class="cls-19" d="m177.55,180.36c-.07.03-.15.08-.21.15,1.58,0,3.16.01,4.73.01,33.43,0,66.87,0,100.3-.02.28,0,.58.05.86.04.02-.09.04-.18.06-.27-35.01,0-70.02.01-105.02.02-.25,0-.5-.03-.72.07Z"/>
      <g>
        <path class="cls-6" d="m208.53,86.25c4.9-3.44,9.76-6.93,14.65-10.39,9.89-7.01,19.87-13.89,29.88-20.73.25-.41.95-.54.78-1.22-.58-.72-1.17-1.45-1.75-2.17-1.57-1.69-3.14-3.37-4.7-5.06-1.09-1.13-2.19-2.25-3.28-3.38-.38-.25-.71-.6-1.21-.62-7.11,5.14-14.25,10.24-21.5,15.2-1.22,1.05-2.45,2.08-3.93,2.75-.08.09-.16.17-.24.26-2.44,1.65-4.88,3.31-7.32,4.96-.22.36-.55.56-.93.7,0,0,.03.1.03.1-.35.14-.66.33-.97.54-.3.21-.59.44-.88.67-.89.78-1.77,1.57-2.91,1.98-1.91,1.38-3.86,2.71-5.72,4.16-1.15.89-2.59,1.39-3.49,2.6,0,6.37,0,12.73,0,19.1,2.22-.75,4.44-3.19,6.41-4.54,2.36-1.63,4.73-3.26,7.08-4.91Z"/>
        <path class="cls-6" d="m91.67,199.19c-.11.1-.2.23-.3.3-1.28.92-2.51,1.9-3.8,2.81-8.25,5.79-16.51,11.56-24.77,17.33-9.62,6.73-19.23,13.47-28.86,20.19-.62.44-.75.71-.21,1.32,3.11,3.51,6.31,6.94,9.62,10.26.52.52.82.44,1.35.07,6.72-4.72,13.46-9.4,20.18-14.12,8.96-6.28,17.79-12.77,26.94-18.77.24-.16.48-.34.55-.65,0-6.24-.01-12.48-.02-18.72-.31-.3-.51-.19-.69-.02Z"/>
        <path class="cls-6" d="m256.55,222.17c-.17.02-.3-.03-.42-.11-.11-.08-.21-.2-.3-.31-2.98-2.09-5.96-4.18-8.94-6.27-.84-.59-1.68-1.2-2.52-1.79-.08-.06-.16-.12-.24-.18-2.27-1.57-4.59-3.08-6.75-4.8-.08-.05-.15-.11-.23-.16-2.48-1.7-5.07-3.24-7.44-5.09-1.39-.68-2.61-1.61-3.78-2.61-.29-.15-.55-.32-.81-.51-.78-.57-1.48-1.25-2.38-1.64-8.67.02-17.34.04-26.01.06-.41,0-.83-.14-1.18.2.04.08.08.15.14.2.16.17.39.27.6.37,2.48,1.27,4.7,2.95,6.97,4.54,9.87,6.88,19.71,13.79,29.55,20.71.46.33,1.01.57,1.3,1.11.11.09.21.18.32.26,1.4.57,2.55,1.5,3.66,2.49,1.46.97,2.76,2.18,4.31,3.01,2.13.8,4.29,2.85,6.16,4.15,1.27.88,4.66,4.37,6.17,4.02,3.17-3.98,6.14-8.14,8.9-12.45-.13-.14-.33-.23-.48-.34-2.2-1.62-4.4-3.23-6.6-4.85Z"/>
        <path class="cls-6" d="m25.02,68.36c.74.2,1.26.74,1.82,1.2,1.67,1.29,3.42,2.46,5.16,3.66,5.92,4.1,11.8,8.25,17.7,12.39.96.55,1.85,1.19,2.66,1.93,2.85,1.99,5.7,3.99,8.55,5.98,1.5.56,2.49,1.92,3.97,2.51,7.33-.02,14.67-.03,22-.05.49,0,.99.04,1.49.06,1.11-.16,2.27.27,3.35-.26-4.41-3.01-8.8-6.04-13.19-9.08-13.15-9.13-26.22-18.38-39.33-27.58-1.6-1.42-3.58-2.37-5.05-3.95-.38-.19-.77-.38-1.15-.57-.48.15-.82.43-1.09.77-.19.22-.35.47-.5.72-.08.12-.16.25-.24.37-.09.13-.18.26-.28.38-.08.1-.17.2-.27.29-.95,1.17-1.87,2.36-2.77,3.56-.9,1.2-1.77,2.42-2.63,3.67-1.4,2.04-2.34,2.43-.2,3.98Z"/>
        <path class="cls-6" d="m286.73,138.01c-.1-1.71-.23-3.41-.38-5.1-.35-3.79-.84-7.55-1.47-11.25-.12-.74-.26-1.47-.39-2.2-.02-.05-.02-.09-.02-.13-.3-1.62-.62-3.23-.98-4.84-.02-.09-.04-.19-.06-.28-.11,0-.21.02-.32.01-1.1-.03-2.2-.03-3.3-.04-4.66.13-9.33.22-13.99.28-15.96,0-31.91,0-47.87,0-12.96-.11-25.92-.23-38.85-.2-.49,0-.99.04-1.46-.04-.18-.03-.38-.07-.55-.14-.11-.05-.2-.11-.26-.21-.03-.05-.05-.1-.06-.16s-.01-.13,0-.21c.01-.08.03-.17.07-.26-.17-.24-.22-.51-.23-.77,0-.27.02-.54.02-.8-.02-34.51-.02-69.01-.03-103.52,0-.21.03-.41.05-.62,0-.15,0-.31,0-.46-.69-.78-1.66-.59-2.53-.75-1.4-.38-2.77-.86-4.23-.95-1.73-.4-3.45-.81-5.24-.75-.57-.48-1.28-.16-1.9-.31-3.8-.93-7.68-.96-11.56-.98-1.71-.53-3.51-.01-5.23-.44-9.04-.14-18.02.78-26.93,2.19-.87-.18-1.66.29-2.5.29-1.61.58-3.28.87-4.98,1-.08,0-.17,0-.25,0-.14,0-.29,0-.43,0-.48.85-.32,1.78-.32,2.68,0,32.45,0,64.91,0,97.36,0,2.36,0,4.73.01,7.09-.09.08-.17.16-.26.25-.13.47-.53.46-.9.46-1.44,0-2.89,0-4.33,0-.16.02-.33.05-.49.07-.29-.02-.58-.05-.87-.05-11,0-21.99.01-32.99,0-22.04,0-44.07-.02-66.11-.02-.18-.27-.35-.29-.51.02-.18.11-.36.2-.55.24-.1.45-.19.9-.29,1.35-.19.92-.38,1.85-.56,2.78-.46,2.38-.85,4.78-1.2,7.2-.12.88-.25,1.75-.36,2.63-.14,1.14-.27,2.28-.38,3.43-.39,3.9-.63,7.84-.71,11.83,0,.07,0,.15,0,.23-.02,1.02-.04,2.04-.04,3.07,0,1.33.02,2.66.05,3.98.02.93.06,1.86.1,2.79.13,2.91.34,5.8.63,8.66.07.73.16,1.45.24,2.18.18,1.52.37,3.03.59,4.53.56,3.77,1.25,7.5,2.08,11.17,34.76,0,69.51,0,104.27,0,.52,0,1.08-.16,1.57.2.27.07.56.07.73.35.1.15.19.3.29.44-.02,17.25-.03,34.49-.03,51.74,0,9.96.21,19.96.25,29.96,0,2.03,0,4.06,0,6.09-.02,5.14-.1,10.28-.3,15.41.03.38-.03.75-.06,1.13-.02.19-.03.38-.03.56,0,.03.01.06.02.09.01.16.03.31.08.47-.06.36.09.69.41,1,.73.7,2.36,1.26,4.46,1.72.37.08.74.16,1.13.23.33.06.67.12,1.02.18.69.12,1.41.23,2.16.33,6.67.92,14.84,1.24,16.79,1.53.67-.02,1.33-.03,2-.05.29.28.66.28,1.03.27,3.47-.12,6.96.25,10.42-.29,2.84.07,5.66-.31,8.48-.51,1.19,0,2.34-.24,3.5-.49,1.3-.07,2.55-.4,3.81-.67.99.01,1.96-.04,2.92-.33,2.16-.42,4.32-.83,6.48-1.25.3.08.56.05.81-.04.24-.09.47-.25.68-.43-.01-.08,0-.15.03-.22,0-35.04,0-70.09,0-105.13,0-.37-.07-.75.19-1.08.03-.3.03-.62.24-.82.07-.07.16-.12.29-.16.07-.07.14-.12.21-.15.22-.1.48-.07.72-.07,35.01,0,70.02-.01,105.02-.02.63-2.79,1.18-5.62,1.65-8.46,1.34-8.08,2.05-16.37,2.05-24.84,0-3.01-.1-5.99-.27-8.95ZM6.24,114.93c.07.38-.1.58-.36.63.26-.05.43-.24.36-.63Zm-1.43.32c.29.19.61.31.88.32-.27-.01-.59-.13-.88-.32Zm179.55,26.82c.45.1.82.35.97.81.1.56.19,1.12.26,1.68-.07-.56-.15-1.12-.26-1.68-.15-.46-.52-.71-.97-.81Zm.97-2.41c-1.85.41-3.4.36-4.69-.25,1.29.62,2.83.66,4.69.25.48.26,1.06.33,1.63.22-.57.11-1.15.04-1.63-.22Zm-61.09,13.93c-.01.25-.02.5-.01.75,0-.25,0-.5.01-.75Zm-.18-6.45c.08.2.23.45.45.73-.21-.29-.36-.53-.45-.73Zm112.35-9.6c.69.49,1.7.97,1.73.38.02-.34-.34-.78-.79-1.09.45.31.81.75.79,1.09-.03.59-1.04.11-1.73-.38Zm-13.97,9.06c.2-.26.4-.51.61-.78-.21.27-.41.53-.61.78.18,0,.35,0,.53.01h0c-.18,0-.35,0-.53-.01-1.02.1-1.87.51-2.47,1.12.6-.61,1.45-1.02,2.47-1.12Zm-7.09,5.74c-.16-.65-.26-1.32-.28-1.98.02.67.12,1.33.28,1.98Zm9.61-1.48c.24.37.54.71.83,1.06-.29-.35-.59-.69-.83-1.06.79-.84,1.6-1.67,2.37-2.53-.77.86-1.58,1.69-2.37,2.53Zm-32.32,8.38c-.05-.27-.37-.57-1.09-.87-1.15-.01-1.58-1.34-1.71-2.91.13,1.57.56,2.9,1.71,2.91.72.31,1.04.6,1.09.88Zm-6.49-22.34c-.03.07-.06.15-.08.25h0c.02-.09.05-.18.08-.25Zm16.88,9.97c-.12.65-.09,1.8-.04,3.12-.05-1.33-.08-2.47.04-3.12.5-.25.93-.4,1.3-.46-.38.06-.81.21-1.3.46Zm-4.01.02s0,0,0,0c-2.2-1.81-3.74-1.39-4.71-.06.97-1.32,2.51-1.75,4.71.06Zm-9.47-8.98h0c.5-.11.89-.37,1.19-.74-.3.36-.69.62-1.19.74Zm-56.11,17.92c-.19-.53-.25-1.07-.26-1.62.01.54.07,1.08.26,1.62.05.28.03.58.03.88,0-.3.02-.59-.03-.88Zm-3.97-14.59c-.2.17-.18.45.27.9h0c-.46-.45-.48-.72-.27-.9Zm7.14,6.88c0-.69.03-1.22.1-1.5.22-.14.44-.27.66-.37-.22.11-.44.23-.66.37-.07.28-.1.81-.1,1.5Zm3.49-5.22c-.21-.04-.42-.04-.63-.03.21,0,.42,0,.63.03.21.04.41.1.61.22.59.2,1.1.47,1.54.79-.44-.32-.95-.59-1.54-.79-.2-.12-.4-.19-.61-.22Zm-5.89,12.96c0,.25,0,.5.01.76,0-.25,0-.5-.01-.76-.24-.6-.27-1.21-.26-1.82-.01.61.02,1.22.26,1.82Zm8.24,2.47h0c-.19-.1-.35-.23-.49-.36.14.14.3.26.49.36Zm22.86-3.36c.17.07.36.12.59.11-.23,0-.42-.04-.59-.11-.51-.21-.78-.65-1-.75.22.1.5.54,1,.75Zm-107.8-8.6c.3.04.67.04,1.14,0,.56-1.11,2.46-3.04,4.36-3.96-1.9.92-3.8,2.85-4.36,3.96-.47.05-.84.05-1.14,0Zm11.5-8.09c.1-.63.24-1.26.4-1.89.3-.34.58-.59.85-.75-.27.16-.55.41-.85.75-.17.63-.3,1.26-.4,1.89Zm2.65-1.52c-.08-.08-.17-.13-.25-.11h0c.08-.02.17.04.25.11Zm19.44,7.35c1.32-.62,2.66-1.13,4.01-1.21.54-.03,1.08,0,1.61.13-.54-.13-1.07-.16-1.61-.13-1.35.08-2.7.59-4.01,1.21,0,0,0,0,0,0Zm-19.18,7.49s.07.01.1-.01c-.03.02-.06.03-.1.01-.17.65-.41,1.27-.71,1.85.3-.58.54-1.21.71-1.85Zm52.57,4.22c.09.44.23.9.42,1.31-.19-.41-.34-.87-.42-1.31-.17-.48-.23-.97-.25-1.46.01.49.07.98.25,1.46ZM7.08,114.47c-.33,0-.66.01-1,.02h0c.33,0,.66-.02,1-.02Zm101.07,42.32c1.06.96,2.42,1.56,4.12,1.58h0c-1.7-.02-3.06-.61-4.12-1.58Z"/>
      </g>
    </g>
  </g>
</svg>