<?xml version="1.0" encoding="UTF-8"?>
<svg id="Capa_2" data-name="Capa 2" xmlns="http://www.w3.org/2000/svg" viewBox="0 0 25.93 25.96">
  <defs>
    <style>
      .cls-1 {
        fill: #fff;
      }
    </style>
  </defs>
  <g id="Capa_1-2" data-name="Capa 1">
    <g>
      <path class="cls-1" d="m25.89,25.25c.09-1.91,0-3.85,0-5.76,0-1.91,0-3.83,0-5.74,0,0-.02,0-.03,0h0s-.02-.02-.03-.03c-.05-.05-.11-.03-.16-.03-.53,0-1.07,0-1.6,0-1,0-2,0-3,0-.27,0-.55,0-.82,0-2.06,0-4.11,0-6.17,0,0,0,0-.02,0-.03-.67,0-1.33,0-2,0-.05,0-.1-.02-.14.03,0,.01,0,.02,0,.03,0,.09,0,.18,0,.27,0,.01.02.02.02.03,0-.01-.01-.02-.02-.03,0,.03,0,.06-.01.09,0,.22,0,.44,0,.65,0,.82,0,1.64,0,2.46,0,.3,0,.61,0,.91.05.06.07.19.07.35,0-.16-.02-.29-.07-.35,0,.71,0,1.43,0,2.14,0,.29,0,.59,0,.88,0,.22,0,.45,0,.67,0,.04,0,.08,0,.12.03.03.04.08.05.15,0,.03,0,.07,0,.11,0-.04,0-.07,0-.11,0-.06-.02-.12-.05-.15,0,.58,0,1.16,0,1.74,0,.06,0,.13,0,.19q0,.2.21.2s.04,0,.06,0c0,0,0,.02,0,.03.09.01.18.02.27.03.17.02.33.03.49.09.05,0,.1,0,.15,0,0,0,0,.02,0,.02.2,0,.41,0,.61.04h.12c.14.06.29.06.43.09.07,0,.14,0,.21,0,.03.03.06.02.09.03h0c.31.12.64.13.97.15.03,0,.05.02.08.03.29.05.58.1.87.15.1,0,.2,0,.31,0,0,0,0,0,0,0,.08.05.16.04.24.03.12-.01.22.09.34.06.08.02.17-.01.24.04.17-.01.33.02.49.05,0,0,0,0,0,0h.03c.05,0,.1,0,.15.01.52.1,1.03.2,1.56.25.07.04.14.02.22.02.07,0,.14,0,.21,0h0s0,.02,0,.03c.05,0,.11,0,.16.02.13.03.25.09.38.07.17.06.35,0,.52.07.1-.03.2.05.3.02.07.07.18,0,.25.07,0,0,.02,0,.03,0,.12-.02.25.01.37.02-.02-.02-.05-.03-.08-.04.03.01.05.03.08.04.01,0,.02,0,.03,0,.13-.02.27-.03.4-.03-.13,0-.27.01-.4.03.02,0,.04,0,.06,0,.03,0,.07,0,.1,0-.03,0-.07,0-.1,0,0,0,0,.02,0,.03,0,0,.02,0,.03,0,.19-.02.37.05.55.08.06,0,.12.01.18.02,0,0,0,.02,0,.02.13-.01.26,0,.39.02.33.05.64.16.98.14.02,0,.04,0,.06,0h.03s.02-.01.03-.01c.31.13.64.12.97.15.08,0,.17.04.24-.04,0,0,0-.02,0-.02,0-.21,0-.43,0-.64Zm-12.02-.98h0c.16-.04.31-.04.46-.02-.15-.02-.3-.01-.46.02Zm4.27.64s.04-.02.06-.02c-.02,0-.04.01-.06.02Zm.24-.02s0,0,0,0c.2.02.41.04.62.07-.21-.02-.41-.04-.62-.07Zm3.97-11.16c-.43,0-.85,0-1.28,0-.08,0-.15,0-.23,0,.08,0,.15,0,.23,0h0c.43,0,.85,0,1.28,0,0,0,0,.02,0,.03,0,0,0-.02,0-.03Zm.83,11.86s-.06-.02-.09-.03c.03,0,.06.02.09.03.09,0,.18.01.27.02-.09,0-.18-.02-.27-.02Zm.37,0s0-.04,0-.06c0,.02,0,.04,0,.06.03,0,.06,0,.09,0-.03,0-.06,0-.09,0Zm.04.03s.09,0,.14,0c0,0,0-.02,0-.03,0,0,0,.02,0,.03-.05,0-.09,0-.14,0Z"/>
      <path class="cls-1" d="m10.63,13.6c-.05,0-.1,0-.16,0,0,0,0,0,0,0-.13,0-.26,0-.39,0,0,0,0-.02,0-.03-.91,0-1.83,0-2.74,0-.09,0-.18,0-.27,0-.81,0-1.61,0-2.42,0-.57,0-1.14,0-1.71,0-.23,0-.47,0-.7,0-.47,0-.94,0-1.4,0-.06,0-.12,0-.18,0-.19,0-.38,0-.58,0-.07.11-.01.23-.04.34,0,.03,0,.06,0,.09h-.01c0,.1,0,.2,0,.3,0,.35,0,.69,0,1.04,0,.59,0,1.18,0,1.77h0s0,.04,0,.06c0,.87,0,1.73,0,2.6,0,.83,0,1.66,0,2.5,0,.05,0,.1.04.14.04,0,.07.03.11.03-.04,0-.07-.03-.11-.03,0,.01,0,.02,0,.03.15.07.3.07.46.06.1.01.2.03.3.04.05,0,.1,0,.15,0,.2.08.41.08.61.12.06,0,.12,0,.19,0-.2-.04-.4-.08-.6-.1.2.02.4.06.6.1.06,0,.12,0,.18,0,0,0,0,0,0,0,.03.02.06.04.09.03.03,0,.06,0,.09.01h0c.05.04.12.02.18.03.06,0,.12,0,.18,0h0c.16.06.33.06.49.09.41.11.83.16,1.25.19,0,0,0,.02,0,.03.02,0,.04,0,.06,0,.19.02.39.04.58.06.01,0,.02.02.03.03.04,0,.08,0,.12,0,.17.04.35.02.52.07.2.01.39.03.58.09h0c.09,0,.18,0,.27.02.14-.03.28-.04.42-.04-.14,0-.28,0-.42.04.01,0,.02,0,.03,0,.32.06.64.17.98.15.05,0,.1,0,.15,0,.22.09.47.08.7.12,0,0,0,.02,0,.02,0,0,.02,0,.03,0,.06,0,.13,0,.19,0,.07,0,.14,0,.21,0,.02,0,.05.02.07.03.19,0,.38.02.57.06.02-.03.04-.05.07-.07-.03.02-.05.05-.07.07.04,0,.08,0,.12.01h0c.09.04.18.04.28.06.11-.02.22.02.34.03.14.08.31.04.46.09.04.01.08-.02.09-.06-.13,0-.26-.02-.39-.03,0,0,0,0,0,0,0,0,0,0,0,0,.13,0,.26.02.39.03,0,0,.02-.02.03-.03.08-.08.02-.18.04-.27,0-.8,0-1.61,0-2.41,0-2.44,0-4.88,0-7.32,0-.07.02-.15-.06-.19ZM.07,16.98s0,.08,0,.12c0,0,0,0-.01,0,0,0,0,0,.01,0,0-.04,0-.08,0-.12,0-.9,0-1.8,0-2.71,0,.9,0,1.8,0,2.71.05.14.09.28.11.43-.02-.15-.05-.3-.11-.43Zm.15,5.46s-.04-.03-.06-.05c.02.01.04.03.06.05.02.01.04.02.05.03-.02,0-.04-.01-.05-.03Zm6.96-8.84c-.79,0-1.59,0-2.38,0,0,0,0,0,0,0-.02,0-.04,0-.06,0,.02,0,.04,0,.06,0,.79,0,1.59,0,2.38,0,.03.02.06.04.09.06-.03-.02-.06-.04-.09-.06Zm3.05,10.15h0s.04,0,.07,0c-.02,0-.04,0-.07,0Zm.43-9.98h0c0,.2.01.4.02.6,0-.2-.01-.4-.02-.6Z"/>
      <path class="cls-1" d="m10.67,2.26c-.11-.11-.41-.05-.56.02-.04,0-.08,0-.12,0-.06.02-.12.04-.18.06-.21,0-.42.02-.63.05-.16.02-.32.08-.49.08-.11.06-.24,0-.34.09.05,0,.1-.01.15-.02-.05,0-.1.01-.15.02-.25.04-.51.03-.76.09,0,0,0,0,0,0-.21,0-.4.08-.61.07-.06.04-.14,0-.19.06-.16,0-.33.03-.49.07-.14,0-.27,0-.41,0-.35.03-.69.14-1.05.11-.05.04-.1.03-.16.03-.06.03-.13.06-.19.07.07-.02.13-.04.19-.07-.14.02-.28,0-.4.09-.11.07-.26,0-.37.09-.25.03-.51.06-.76.09-.14.03-.29.02-.43.07-.25,0-.49.02-.73.09l-.91.07c-.16.06-.32.09-.49.09-.02,0-.04,0-.06,0-.1.05-.21.03-.31.03-.07,0-.13,0-.18.06,0,.08,0,.16,0,.24,0,.09,0,.18,0,.27,0,.06,0,.12,0,.18,0,1.01,0,2.01,0,3.02,0,.66,0,1.32.01,1.98,0,0,.02,0,.02,0,0,0-.01,0-.02,0,0,.01,0,.02-.01.03,0,.42,0,.83.01,1.25,0,.53,0,1.06,0,1.59.04.09-.09.18,0,.28.04,0,.08,0,.12,0-.02-.02-.05-.03-.07-.05.02.02.04.03.07.05.28,0,.57,0,.85,0-.02,0-.04-.01-.07-.01.02,0,.05,0,.07.01.11,0,.22,0,.34,0,.06-.01.13-.02.19-.02-.06,0-.13.01-.19.02.04,0,.08,0,.12.01.15,0,.3,0,.45,0,.06,0,.12,0,.18-.01.01,0,.02,0,.03,0,.45,0,.91,0,1.36,0,.06,0,.11,0,.17,0h1.04c.49,0,.98,0,1.47,0,0,0,0-.01,0-.02-.02,0-.04,0-.06-.01-.09,0-.18,0-.28,0h.28s.01,0,.02-.01c0,0-.01.01-.02.02.02,0,.04,0,.06.01.48,0,.95,0,1.43,0,.13,0,.26,0,.4,0,.87,0,1.75.04,2.62-.03.11-.12.05-.26.06-.39,0,0-.01,0-.02,0,0-.48,0-.95,0-1.43,0,0,.02,0,.02,0,0-.54,0-1.08,0-1.62.05-1.3,0-2.61,0-3.91,0-.65,0-1.31,0-1.96,0-.15.09-.74-.02-.86ZM.07,9.48c0,.39,0,.77,0,1.16,0-.39,0-.77,0-1.16.01-.01.02-.02.02-.04,0,.01-.01.03-.02.04Zm0-2.14c0-1,0-2,0-3,0,1,0,2,0,3,.03.11.06.23.09.34-.02-.11-.05-.23-.09-.34Zm1.92-3.9s0,0,0,0h0s0,0,0,0Zm3.48,9.02c-.2,0-.41,0-.61,0h0c.2,0,.41,0,.61,0,.06-.04.11-.05.17-.05-.06,0-.11.01-.17.05Zm1.02-.1s.07-.03.11-.05c0,0,0,0,0,0-.04.02-.07.03-.11.05Zm3.47-.08s0,0,0,0c.11,0,.21,0,.32,0-.11,0-.21,0-.32,0Z"/>
      <path class="cls-1" d="m11.94,12.06s0,.09,0,.14c0,0,0,.02.01.02,0,0,0-.02-.01-.02,0,.04,0,.08,0,.12.01.01.02.02.03.03,0,.04.02.06.04.07-.02-.01-.03-.04-.04-.07l-.03-.03s0,.08,0,.12c.01.01.02.02.03.03.92,0,1.83,0,2.75,0,0,0,0-.02,0-.03.71.01,1.42-.02,2.13-.04.87-.03,1.74,0,2.6-.02.15,0,.3,0,.45,0,0,0,0-.02,0-.02.68,0,1.36,0,2.04-.01.44,0,.88,0,1.32.01.61,0,1.22,0,1.83,0,.1,0,.2,0,.3,0,0,0,0-.01,0-.02.04,0,.08,0,.11,0-.04,0-.08,0-.11,0,0,0,0,.01,0,.02.04,0,.08,0,.12,0,.11-.03.22.03.33,0,0-.02,0-.04,0-.06h0c0-.06,0-.12.03-.18-.01-.01-.02-.02-.02-.03,0,.01.01.02.02.03v-1.16h0c0-.05,0-.1.01-.15,0-1.41-.02-2.82-.04-4.24,0-.91,0-1.81,0-2.72,0-.62.02-1.24.04-1.86,0-.39,0-.77,0-1.16,0-.13,0-.27,0-.4,0-.06,0-.12,0-.18,0-.08,0-.16,0-.24-.21.02-.42.04-.64.06-.13.05-.28.02-.41.08-.32.04-.64.09-.97.13-.18.04-.35.08-.53.12h0c-.07,0-.14,0-.21,0-.11.07-.25-.01-.37.06-.24.01-.47.02-.7.09-.08.06-.19,0-.27.06-.02,0-.04,0-.06,0-.05.01-.1.03-.15.04-.25-.02-.49.04-.73.05-.05.01-.1.03-.15.04-.15.04-.3.07-.46.06-.16,0-.32.01-.46.09-.02,0-.05,0-.06.03-.07.01-.14.02-.21.03-.25.02-.49.07-.73.11-.06,0-.12,0-.18,0-.03.03-.08.03-.12.04-.02,0-.04,0-.06-.01-.25,0-.49.03-.73.07-.13.06-.28,0-.4.1-.02.01-.04.02-.05.03.02,0,.04-.02.05-.03-.16-.01-.31,0-.46.06-.24.04-.47.08-.71.12,0,0,0,0,0,0-.13.02-.26.04-.39.06-.13.01-.26.05-.39.04-.19.11-.41.08-.61.12-.12.03-.25.04-.37.06h-.15c-.09,0-.18,0-.27,0-.24.06-.49.04-.72.14-.02,0-.04,0-.05,0-.17-.02-.34.06-.52.02,0,0-.02,0-.03,0-.05.08-.15.04-.22.09,0,0,0,0,0,0-.05,0-.1,0-.15,0-.1.01-.2.03-.29.04,0,0,0,.02,0,.03h0c0,.21.03.42,0,.64,0,.13,0,.26,0,.4,0,.03,0,.06,0,.09,0,.05,0,.1,0,.15.02.04,0,.07,0,.11.02.36,0,.72-.02,1.08-.02.04.01.06.02.09,0,.34,0,.67,0,1.01,0,.13,0,.26,0,.4-.04.07,0,.14,0,.21,0,.68,0,1.37-.02,2.05,0,.24-.05.48.01.72h0c0,.08,0,.16-.01.24,0,.1,0,.2,0,.3,0,.06,0,.12.01.18h0c0,.28,0,.57,0,.85,0,.36,0,.72,0,1.09,0-.02,0-.04,0-.06.01-.15.03-.28.03-.35,0,0,0,0,0,0,0,.07-.02.21-.03.35,0,.02,0,.04,0,.06h0c0,.08,0,.16,0,.23,0,.06,0,.11.01.16Zm13.92-1.12s0,0,.01,0c0,0,0,0-.01,0,0-.76,0-1.51,0-2.27,0,.76,0,1.51,0,2.27Zm-7.76,1.34s-.01-.01-.02-.02c-.02-.01-.05-.02-.08-.03.03,0,.06.02.08.03,0,0,.02.01.02.02.08,0,.16,0,.24,0-.08,0-.16,0-.24,0Zm-.06-10.98s.05,0,.07.01c-.02,0-.04-.01-.07-.01-.03,0-.05,0-.08,0,.03,0,.05,0,.08,0Zm-.64.06c.08-.03.16-.04.24-.05-.08,0-.16.02-.24.05h0Zm.74,10.95c-1.05,0-2.1,0-3.15,0-.02.02-.06.04-.1.05.04,0,.08-.03.1-.05,1.05,0,2.1,0,3.15,0Zm-3.34.06s-.03,0-.05,0c.17,0,.34,0,.51-.01-.17,0-.34,0-.51.01,0,0,0,0,0,0,0,0,0,0,0,0,.02,0,.04,0,.05,0Zm.08-.01s-.03,0-.05,0c.02,0,.04,0,.05,0Zm-.15.01c-.07,0-.15,0-.23-.01.08,0,.15.01.23.01,0,0,0,0,0,0,0,0,0,0,0,0-.43,0-.87.02-1.3.03,0,0,0,.02,0,.03,0,0,0-.02,0-.03.43,0,.87-.02,1.3-.03Zm-.75-.57s-.05,0-.06-.02c.02.01.05.02.06.02Zm-.27-.15s0,0,.01,0c0,0,.01,0,.02,0,.04.04.08.06.11.09-.1.07-.3.12-.42.08.12.04.31,0,.28-.17Zm-.27-9.75s.09,0,.14,0c-.05,0-.09,0-.14,0-.02-.03-.05-.05-.07-.05.03,0,.05.02.07.05Z"/>
    </g>
  </g>
</svg>